<?xml version="1.0" encoding="UTF-8" standalone="no"?>
<svg
   xmlns:dc="http://purl.org/dc/elements/1.1/"
   xmlns:cc="http://creativecommons.org/ns#"
   xmlns:rdf="http://www.w3.org/1999/02/22-rdf-syntax-ns#"
   xmlns:svg="http://www.w3.org/2000/svg"
   xmlns="http://www.w3.org/2000/svg"
   xmlns:sodipodi="http://sodipodi.sourceforge.net/DTD/sodipodi-0.dtd"
   xmlns:inkscape="http://www.inkscape.org/namespaces/inkscape"
   height="540"
   version="1.1"
   width="960"
   id="svg98"
   sodipodi:docname="OSI_MainSign.svg"
   inkscape:version="0.92.1 r15371"
   viewBox="0 0 1920 0.01">
  <metadata
     id="metadata104">
    <rdf:RDF>
      <cc:Work
         rdf:about="">
        <dc:format>image/svg+xml</dc:format>
        <dc:type
           rdf:resource="http://purl.org/dc/dcmitype/StillImage" />
        <dc:title />
      </cc:Work>
    </rdf:RDF>
  </metadata>
  <defs
     id="defs102">
    <marker
       inkscape:stockid="DotS"
       orient="auto"
       refY="0"
       refX="0"
       id="DotS-5"
       style="overflow:visible"
       inkscape:isstock="true">
      <path
         inkscape:connector-curvature="0"
         id="path5815-62"
         d="m -2.5,-1 c 0,2.76 -2.24,5 -5,5 -2.76,0 -5,-2.24 -5,-5 0,-2.76 2.24,-5 5,-5 2.76,0 5,2.24 5,5 z"
         style="fill:#b3b3b3;fill-opacity:1;fill-rule:evenodd;stroke:#000003;stroke-width:1.00000003pt;stroke-opacity:1"
         transform="matrix(0.2,0,0,0.2,1.48,0.2)" />
    </marker>
    <marker
       inkscape:stockid="Arrow2Mend"
       orient="auto"
       refY="0"
       refX="0"
       id="marker6569-9"
       style="overflow:visible"
       inkscape:isstock="true">
      <path
         inkscape:connector-curvature="0"
         id="path6567-1"
         style="fill:#b3b3b3;fill-opacity:1;fill-rule:evenodd;stroke:#000003;stroke-width:0.625;stroke-linejoin:round;stroke-opacity:1"
         d="M 8.7185878,4.0337352 -2.2072895,0.01601326 8.7185884,-4.0017078 c -1.7454984,2.3720609 -1.7354408,5.6174519 -6e-7,8.035443 z"
         transform="scale(-0.6)" />
    </marker>
    <marker
       inkscape:stockid="DotS"
       orient="auto"
       refY="0"
       refX="0"
       id="DotS-3"
       style="overflow:visible"
       inkscape:isstock="true">
      <path
         inkscape:connector-curvature="0"
         id="path5815-6"
         d="m -2.5,-1 c 0,2.76 -2.24,5 -5,5 -2.76,0 -5,-2.24 -5,-5 0,-2.76 2.24,-5 5,-5 2.76,0 5,2.24 5,5 z"
         style="fill:#b3b3b3;fill-opacity:1;fill-rule:evenodd;stroke:#000003;stroke-width:1.00000003pt;stroke-opacity:1"
         transform="matrix(0.2,0,0,0.2,1.48,0.2)" />
    </marker>
    <marker
       inkscape:stockid="Arrow2Mend"
       orient="auto"
       refY="0"
       refX="0"
       id="marker6569-7"
       style="overflow:visible"
       inkscape:isstock="true">
      <path
         inkscape:connector-curvature="0"
         id="path6567-5"
         style="fill:#b3b3b3;fill-opacity:1;fill-rule:evenodd;stroke:#000003;stroke-width:0.625;stroke-linejoin:round;stroke-opacity:1"
         d="M 8.7185878,4.0337352 -2.2072895,0.01601326 8.7185884,-4.0017078 c -1.7454984,2.3720609 -1.7354408,5.6174519 -6e-7,8.035443 z"
         transform="scale(-0.6)" />
    </marker>
    <marker
       inkscape:stockid="DotM"
       orient="auto"
       refY="0"
       refX="0"
       id="DotM"
       style="overflow:visible"
       inkscape:isstock="true">
      <path
         inkscape:connector-curvature="0"
         id="path5812"
         d="m -2.5,-1 c 0,2.76 -2.24,5 -5,5 -2.76,0 -5,-2.24 -5,-5 0,-2.76 2.24,-5 5,-5 2.76,0 5,2.24 5,5 z"
         style="fill:#b3b3b3;fill-opacity:1;fill-rule:evenodd;stroke:#000003;stroke-width:1.00000003pt;stroke-opacity:1"
         transform="matrix(0.4,0,0,0.4,2.96,0.4)" />
    </marker>
    <marker
       inkscape:stockid="Arrow2Mend"
       orient="auto"
       refY="0"
       refX="0"
       id="marker6569"
       style="overflow:visible"
       inkscape:isstock="true">
      <path
         inkscape:connector-curvature="0"
         id="path6567"
         style="fill:#b3b3b3;fill-opacity:1;fill-rule:evenodd;stroke:#000003;stroke-width:0.625;stroke-linejoin:round;stroke-opacity:1"
         d="M 8.7185878,4.0337352 -2.2072895,0.01601326 8.7185884,-4.0017078 c -1.7454984,2.3720609 -1.7354408,5.6174519 -6e-7,8.035443 z"
         transform="scale(-0.6)" />
    </marker>
    <marker
       inkscape:stockid="DotS"
       orient="auto"
       refY="0"
       refX="0"
       id="DotS-5-3"
       style="overflow:visible"
       inkscape:isstock="true">
      <path
         inkscape:connector-curvature="0"
         id="path5815-62-6"
         d="m -2.5,-1 c 0,2.76 -2.24,5 -5,5 -2.76,0 -5,-2.24 -5,-5 0,-2.76 2.24,-5 5,-5 2.76,0 5,2.24 5,5 z"
         style="fill:#b3b3b3;fill-opacity:1;fill-rule:evenodd;stroke:#000003;stroke-width:1.00000003pt;stroke-opacity:1"
         transform="matrix(0.2,0,0,0.2,1.48,0.2)" />
    </marker>
    <marker
       inkscape:stockid="Arrow2Mend"
       orient="auto"
       refY="0"
       refX="0"
       id="marker6569-9-7"
       style="overflow:visible"
       inkscape:isstock="true">
      <path
         inkscape:connector-curvature="0"
         id="path6567-1-5"
         style="fill:#b3b3b3;fill-opacity:1;fill-rule:evenodd;stroke:#000003;stroke-width:0.625;stroke-linejoin:round;stroke-opacity:1"
         d="M 8.7185878,4.0337352 -2.2072895,0.01601326 8.7185884,-4.0017078 c -1.7454984,2.3720609 -1.7354408,5.6174519 -6e-7,8.035443 z"
         transform="scale(-0.6)" />
    </marker>
    <marker
       inkscape:stockid="DotS"
       orient="auto"
       refY="0"
       refX="0"
       id="DotS-3-3"
       style="overflow:visible"
       inkscape:isstock="true">
      <path
         inkscape:connector-curvature="0"
         id="path5815-6-5"
         d="m -2.5,-1 c 0,2.76 -2.24,5 -5,5 -2.76,0 -5,-2.24 -5,-5 0,-2.76 2.24,-5 5,-5 2.76,0 5,2.24 5,5 z"
         style="fill:#b3b3b3;fill-opacity:1;fill-rule:evenodd;stroke:#000003;stroke-width:1.00000003pt;stroke-opacity:1"
         transform="matrix(0.2,0,0,0.2,1.48,0.2)" />
    </marker>
    <marker
       inkscape:stockid="Arrow2Mend"
       orient="auto"
       refY="0"
       refX="0"
       id="marker6569-7-6"
       style="overflow:visible"
       inkscape:isstock="true">
      <path
         inkscape:connector-curvature="0"
         id="path6567-5-2"
         style="fill:#b3b3b3;fill-opacity:1;fill-rule:evenodd;stroke:#000003;stroke-width:0.625;stroke-linejoin:round;stroke-opacity:1"
         d="M 8.7185878,4.0337352 -2.2072895,0.01601326 8.7185884,-4.0017078 c -1.7454984,2.3720609 -1.7354408,5.6174519 -6e-7,8.035443 z"
         transform="scale(-0.6)" />
    </marker>
    <marker
       inkscape:stockid="DotM"
       orient="auto"
       refY="0"
       refX="0"
       id="DotM-9"
       style="overflow:visible"
       inkscape:isstock="true">
      <path
         inkscape:connector-curvature="0"
         id="path5812-1"
         d="m -2.5,-1 c 0,2.76 -2.24,5 -5,5 -2.76,0 -5,-2.24 -5,-5 0,-2.76 2.24,-5 5,-5 2.76,0 5,2.24 5,5 z"
         style="fill:#b3b3b3;fill-opacity:1;fill-rule:evenodd;stroke:#000003;stroke-width:1.00000003pt;stroke-opacity:1"
         transform="matrix(0.4,0,0,0.4,2.96,0.4)" />
    </marker>
    <marker
       inkscape:stockid="Arrow2Mend"
       orient="auto"
       refY="0"
       refX="0"
       id="marker6569-2"
       style="overflow:visible"
       inkscape:isstock="true">
      <path
         inkscape:connector-curvature="0"
         id="path6567-7"
         style="fill:#b3b3b3;fill-opacity:1;fill-rule:evenodd;stroke:#000003;stroke-width:0.625;stroke-linejoin:round;stroke-opacity:1"
         d="M 8.7185878,4.0337352 -2.2072895,0.01601326 8.7185884,-4.0017078 c -1.7454984,2.3720609 -1.7354408,5.6174519 -6e-7,8.035443 z"
         transform="scale(-0.6)" />
    </marker>
    <marker
       inkscape:stockid="DotM"
       orient="auto"
       refY="0"
       refX="0"
       id="DotM-6-3"
       style="overflow:visible"
       inkscape:isstock="true">
      <path
         inkscape:connector-curvature="0"
         id="path5812-1-0-6"
         d="m -2.5,-1 c 0,2.76 -2.24,5 -5,5 -2.76,0 -5,-2.24 -5,-5 0,-2.76 2.24,-5 5,-5 2.76,0 5,2.24 5,5 z"
         style="fill:#b3b3b3;fill-opacity:1;fill-rule:evenodd;stroke:#000003;stroke-width:1.00000003pt;stroke-opacity:1"
         transform="matrix(0.4,0,0,0.4,2.96,0.4)" />
    </marker>
    <marker
       inkscape:stockid="Arrow2Mend"
       orient="auto"
       refY="0"
       refX="0"
       id="marker6569-8-7"
       style="overflow:visible"
       inkscape:isstock="true">
      <path
         inkscape:connector-curvature="0"
         id="path6567-7-2-5"
         style="fill:#b3b3b3;fill-opacity:1;fill-rule:evenodd;stroke:#000003;stroke-width:0.625;stroke-linejoin:round;stroke-opacity:1"
         d="M 8.7185878,4.0337352 -2.2072895,0.01601326 8.7185884,-4.0017078 c -1.7454984,2.3720609 -1.7354408,5.6174519 -6e-7,8.035443 z"
         transform="scale(-0.6)" />
    </marker>
    <marker
       inkscape:stockid="DotM"
       orient="auto"
       refY="0"
       refX="0"
       id="DotM-9-3"
       style="overflow:visible"
       inkscape:isstock="true">
      <path
         inkscape:connector-curvature="0"
         id="path5812-1-6"
         d="m -2.5,-1 c 0,2.76 -2.24,5 -5,5 -2.76,0 -5,-2.24 -5,-5 0,-2.76 2.24,-5 5,-5 2.76,0 5,2.24 5,5 z"
         style="fill:#b3b3b3;fill-opacity:1;fill-rule:evenodd;stroke:#000003;stroke-width:1.00000003pt;stroke-opacity:1"
         transform="matrix(0.4,0,0,0.4,2.96,0.4)" />
    </marker>
    <marker
       inkscape:stockid="Arrow2Mend"
       orient="auto"
       refY="0"
       refX="0"
       id="marker6569-2-7"
       style="overflow:visible"
       inkscape:isstock="true">
      <path
         inkscape:connector-curvature="0"
         id="path6567-7-5"
         style="fill:#b3b3b3;fill-opacity:1;fill-rule:evenodd;stroke:#000003;stroke-width:0.625;stroke-linejoin:round;stroke-opacity:1"
         d="M 8.7185878,4.0337352 -2.2072895,0.01601326 8.7185884,-4.0017078 c -1.7454984,2.3720609 -1.7354408,5.6174519 -6e-7,8.035443 z"
         transform="scale(-0.6)" />
    </marker>
  </defs>
  <sodipodi:namedview
     pagecolor="#ffffff"
     bordercolor="#666666"
     borderopacity="1"
     objecttolerance="10"
     gridtolerance="10"
     guidetolerance="10"
     inkscape:pageopacity="0"
     inkscape:pageshadow="2"
     inkscape:window-width="1920"
     inkscape:window-height="981"
     id="namedview100"
     showgrid="false"
     inkscape:zoom="1.6916667"
     inkscape:cx="403.83755"
     inkscape:cy="332.02882"
     inkscape:window-x="1920"
     inkscape:window-y="28"
     inkscape:window-maximized="1"
     inkscape:current-layer="strokes" />
  <g
     id="RenderLayer_LineSet"
     inkscape:label="RenderLayer_LineSet"
     transform="translate(0,-540)">
    <g
       id="strokes"
       inkscape:groupmode="layer"
       inkscape:label="strokes">
      <path
         d="m 844.858,300.6 -9.995,-0.303 -9.995,-0.303 -9.996,-0.303 -9.995,-0.303 -9.996,-0.303 -9.995,-0.303 -9.995,-0.303 -9.996,-0.304 -9.995,-0.303 -9.996,-0.303 -9.995,-0.303 -9.996,-0.303 -9.995,-0.303 -9.995,-0.303 -9.996,-0.303 -9.995,-0.303 -2.323,-0.071 -0.157,0.204 -1.255,1.627 -0.993,1.288 0.549,9.985 0.549,9.985 0.549,9.985 0.549,9.985 0.549,9.984 0.549,9.985 0.549,9.985 0.549,9.985 0.549,9.985 0.549,9.985 0.549,9.985 0.549,9.985 0.549,9.985 0.549,9.985 0.549,9.985 0.225,4.101 9.993,0.374 9.993,0.375 9.993,0.374 9.993,0.374 9.993,0.375 9.993,0.374 9.993,0.375 9.351,0.35 7.9,0.296 9.993,0.374 9.993,0.375 9.993,0.374 9.993,0.374 9.993,0.375 9.993,0.374 9.993,0.375 0.942,0.035 0.657,-1.559 0.829,-1.969 0.104,-0.246 -0.226,-9.998 -0.227,-9.997 -0.226,-9.998 -0.226,-9.997 -0.226,-9.998 -0.227,-9.997 -0.226,-9.998 -0.226,-9.997 -0.227,-9.997 -0.226,-9.998 -0.226,-9.997 -0.226,-9.998 -0.227,-9.997 -0.226,-9.998 -0.226,-9.997 -0.097,-4.261"
         id="path82"
         style="fill:#b3b3b3;fill-opacity:1;stroke:#000000;stroke-width:3;stroke-linecap:butt;stroke-linejoin:round;stroke-opacity:1"
         inkscape:connector-curvature="0" />
      <path
         d="m 1310.118,331.25 -1.73,-0.154 -1.042,0.006 -1.043,0.085 -1.038,0.165 -1.03,0.241 -1.016,0.316 -0.998,0.389 -0.974,0.461 -0.947,0.53 -0.914,0.597 -0.876,0.664 -0.834,0.728 -0.787,0.79 -0.166,-0.006 0.309,-4.64 -7.393,-0.251 -0.65,9.979 -0.651,9.979 -0.65,9.979 -0.336,5.155 7.34,0.261 0.665,-9.977 0.665,-9.978 0.345,-5.169 0.911,-0.845 0.873,-0.755 0.84,-0.668 0.813,-0.582 0.792,-0.5 0.775,-0.421 0.766,-0.345 0.761,-0.27 0.762,-0.199 0.768,-0.131 0.782,-0.066 0.799,-0.002 1.081,0.106 1,0.24 0.912,0.366 0.823,0.489 0.729,0.604 0.632,0.715 0.53,0.819 0.426,0.918 0.317,1.012 0.206,1.099 0.089,1.18 -0.029,1.257 -0.698,9.976 -0.698,9.975 -0.122,1.74 7.358,0.262 0.712,-9.974 0.713,-9.975 0.119,-1.67 0.049,-2.31 -0.186,-2.108 -0.408,-1.908 -0.614,-1.709 -0.806,-1.51 -0.983,-1.313 -1.144,-1.117 -1.292,-0.922 -1.424,-0.728 -1.541,-0.535 -1.642,-0.345"
         id="path2"
         inkscape:connector-curvature="0"
         style="fill:none;stroke:#000000;stroke-width:3;stroke-linecap:butt;stroke-linejoin:round;stroke-opacity:1" />
      <path
         d="m 1284.078,330.983 -9.995,-0.339 -5.348,-0.181 -2.431,0.013 -2.275,0.206 -2.11,0.394 -1.935,0.574 -1.753,0.75 -1.561,0.92 -1.361,1.083 -1.153,1.24 -0.935,1.392 -0.71,1.538 -0.475,1.678 -0.233,1.812 -0.023,0.638 0.01,0.622 0.034,0.606 0.062,0.591 0.09,0.575 0.12,0.561 0.147,0.544 0.176,0.529 0.204,0.514 0.233,0.499 0.261,0.483 0.289,0.468 0.338,0.472 0.365,0.457 0.395,0.442 0.422,0.427 0.451,0.411 0.479,0.396 0.508,0.38 0.536,0.365 0.564,0.35 0.593,0.335 0.621,0.319 0.649,0.304 -0.01,0.156 -0.872,0.189 -0.82,0.236 -0.764,0.28 -0.702,0.323 -0.639,0.362 -0.57,0.397 -0.498,0.432 -0.423,0.461 -0.342,0.489 -0.259,0.514 -0.171,0.536 -0.08,0.555 v 0.386 l 0.051,0.382 0.1,0.379 0.152,0.377 0.203,0.375 0.256,0.375 0.308,0.375 0.363,0.376 0.418,0.378 0.473,0.381 0.53,0.384 0.586,0.389 -1.554,0.346 -1.412,0.419 -1.273,0.491 -1.136,0.567 -1.003,0.644 -0.87,0.722 -0.741,0.802 -0.614,0.885 -0.489,0.968 -0.368,1.054 -0.247,1.141 -0.131,1.23 0.06,1.493 0.343,1.423 0.612,1.342 0.868,1.252 1.11,1.152 1.337,1.042 1.551,0.922 1.75,0.793 1.936,0.654 2.109,0.506 2.267,0.346 2.412,0.178 2.637,0.01 2.457,-0.165 2.27,-0.335 2.074,-0.501 1.871,-0.663 1.661,-0.818 1.444,-0.971 1.218,-1.117 0.985,-1.26 0.745,-1.398 0.496,-1.53 0.241,-1.66 0.01,-1.091 -0.116,-1.064 -0.252,-1.032 -0.395,-0.994 -0.547,-0.95 -0.708,-0.9 -0.876,-0.845 -1.054,-0.784 -1.24,-0.717 -1.433,-0.645 -1.635,-0.567 -1.846,-0.483 -1.758,-0.408 -1.61,-0.397 -1.46,-0.388 -1.308,-0.384 -1.157,-0.384 -1.003,-0.385 -0.847,-0.392 -0.692,-0.401 -0.534,-0.413 -0.374,-0.43 -0.214,-0.45 -0.053,-0.473 0.255,-0.894 0.607,-0.655 0.91,-0.466 1.163,-0.328 1.368,-0.24 1.521,-0.205 1.627,-0.218 1.681,-0.284 1.686,-0.4 1.643,-0.566 1.548,-0.784 1.405,-1.054 0.461,-0.429 0.458,-0.493 0.45,-0.55 0.436,-0.6 0.414,-0.642 0.386,-0.676 0.351,-0.705 0.311,-0.724 0.263,-0.738 0.209,-0.742 0.149,-0.741 0.081,-0.731 0.025,-0.724 -0.022,-0.69 -0.072,-0.661 -0.124,-0.64 -0.18,-0.625 -0.237,-0.615 -0.298,-0.613 -0.362,-0.617 -0.428,-0.626 -0.497,-0.643 -0.568,-0.666 -0.644,-0.694 7.624,0.26 0.348,-5.423"
         id="path4"
         inkscape:connector-curvature="0"
         style="fill:none;stroke:#000000;stroke-width:3;stroke-linecap:butt;stroke-linejoin:round;stroke-opacity:1" />
      <path
         d="m 1265.132,336.459 1,-0.025 0.955,0.09 0.915,0.199 0.866,0.299 0.807,0.392 0.74,0.475 0.663,0.551 0.578,0.618 0.484,0.678 0.38,0.728 0.267,0.771 0.147,0.805 0.016,0.831 -0.119,0.933 -0.234,0.877 -0.341,0.815 -0.442,0.75 -0.537,0.677 -0.624,0.599 -0.705,0.517 -0.779,0.429 -0.847,0.334 -0.908,0.236 -0.962,0.131 -1.011,0.021 -1.079,-0.091 -1.006,-0.191 -0.927,-0.286 -0.845,-0.378 -0.757,-0.463 -0.665,-0.545 -0.566,-0.621 -0.465,-0.693 -0.357,-0.76 -0.245,-0.823 -0.128,-0.88 -0.01,-0.933 0.117,-0.846 0.245,-0.81 0.362,-0.768 0.47,-0.716 0.57,-0.658 0.659,-0.591 0.74,-0.516 0.81,-0.434 0.872,-0.344 0.925,-0.245 0.967,-0.139"
         id="path6"
         inkscape:connector-curvature="0"
         style="fill:none;stroke:#000000;stroke-width:3;stroke-linecap:butt;stroke-linejoin:round;stroke-opacity:1" />
      <path
         d="m 1262.379,367.083 1.186,0.068 1.273,0.126 1.323,0.192 1.334,0.262 1.31,0.34 1.246,0.421 1.147,0.511 1.009,0.605 0.835,0.705 0.622,0.812 0.373,0.923 0.087,1.042 -0.126,0.762 -0.276,0.7 -0.422,0.635 -0.564,0.57 -0.701,0.503 -0.834,0.433 -0.963,0.362 -1.088,0.29 -1.21,0.215 -1.326,0.14 -1.438,0.061 -1.548,-0.017 -1.596,-0.097 -1.462,-0.168 -1.327,-0.238 -1.191,-0.309 -1.051,-0.378 -0.911,-0.446 -0.768,-0.513 -0.624,-0.58 -0.477,-0.646 -0.329,-0.711 -0.179,-0.775 -0.026,-0.838 0.115,-0.75 0.249,-0.703 0.377,-0.651 0.496,-0.595 0.61,-0.536 0.716,-0.471 0.816,-0.404 0.907,-0.331 0.992,-0.255 1.07,-0.174 1.14,-0.09 1.204,-0.002"
         id="path8"
         inkscape:connector-curvature="0"
         style="fill:none;stroke:#000000;stroke-width:3;stroke-linecap:butt;stroke-linejoin:round;stroke-opacity:1" />
      <path
         d="m 1241.6,314.665 -0.59,-0.058 -0.593,0.019 -0.575,0.094 -0.55,0.163 -0.52,0.227 -0.484,0.287 -0.443,0.341 -0.394,0.391 -0.342,0.435 -0.282,0.474 -0.218,0.508 -0.148,0.537 -0.071,0.561 0.01,0.564 0.088,0.545 0.162,0.52 0.23,0.491 0.292,0.455 0.35,0.414 0.403,0.369 0.45,0.317 0.493,0.261 0.529,0.198 0.562,0.131 0.588,0.059 0.593,-0.019 0.574,-0.093 0.549,-0.162 0.52,-0.227 0.484,-0.286 0.442,-0.34 0.395,-0.39 0.342,-0.434 0.284,-0.473 0.218,-0.508 0.149,-0.537 0.072,-0.562 -0.01,-0.564 -0.088,-0.545 -0.161,-0.521 -0.229,-0.491 -0.292,-0.456 -0.351,-0.416 -0.403,-0.369 -0.45,-0.318 -0.494,-0.261 -0.53,-0.199 -0.562,-0.132"
         id="path10"
         inkscape:connector-curvature="0"
         style="fill:none;stroke:#000000;stroke-width:3;stroke-linecap:butt;stroke-linejoin:round;stroke-opacity:1" />
      <path
         d="m 1243.822,329.618 -7.354,-0.249 -0.546,9.985 -0.546,9.985 -0.546,9.985 -0.276,5.06 7.303,0.26 0.56,-9.985 0.56,-9.984 0.561,-9.984 0.284,-5.073"
         id="path12"
         inkscape:connector-curvature="0"
         style="fill:none;stroke:#000000;stroke-width:3;stroke-linecap:butt;stroke-linejoin:round;stroke-opacity:1" />
      <path
         d="m 1215.722,309.602 -1.074,-0.062 -2.515,0.033 -2.366,0.263 -2.205,0.485 -2.033,0.7 -1.849,0.904 -1.652,1.103 -1.446,1.29 -1.226,1.472 -0.997,1.643 -0.755,1.807 -0.502,1.962 -0.237,2.109 0.318,3.419 1.184,2.966 1.874,2.589 2.394,2.288 2.741,2.063 2.916,1.912 2.918,1.837 2.748,1.836 2.406,1.908 1.891,2.056 1.204,2.277 0.345,2.57 -0.099,0.751 -0.221,0.762 -0.344,0.76 -0.469,0.739 -0.593,0.706 -0.718,0.654 -0.846,0.588 -0.972,0.506 -1.101,0.409 -1.23,0.296 -1.359,0.167 -1.491,0.022 -1.363,-0.104 -1.34,-0.216 -1.316,-0.324 -1.29,-0.432 -1.26,-0.538 -1.23,-0.642 -1.195,-0.745 -1.159,-0.845 -1.12,-0.945 -1.08,-1.042 -1.036,-1.139 -0.989,-1.233 -0.451,9.622 1.134,0.837 1.15,0.764 1.17,0.692 1.193,0.62 1.219,0.551 1.248,0.481 1.28,0.413 1.316,0.345 1.354,0.28 1.396,0.213 1.441,0.149 1.488,0.086 2.205,-0.045 2.104,-0.288 1.988,-0.517 1.856,-0.735 1.709,-0.94 1.546,-1.132 1.369,-1.313 1.175,-1.481 0.966,-1.636 0.742,-1.778 0.5,-1.91 0.244,-2.027 -0.271,-3.903 -1.147,-3.322 -1.851,-2.826 -2.38,-2.419 -2.737,-2.101 -2.919,-1.872 -2.926,-1.732 -2.762,-1.683 -2.422,-1.723 -1.91,-1.853 -1.224,-2.075 -0.364,-2.387 0.12,-0.916 0.265,-0.857 0.401,-0.793 0.53,-0.725 0.65,-0.653 0.763,-0.575 0.868,-0.493 0.964,-0.406 1.053,-0.314 1.135,-0.218 1.206,-0.117 1.272,-0.011 0.966,0.06 0.994,0.119 1.022,0.186 1.046,0.258 1.066,0.336 1.086,0.422 1.101,0.512 1.115,0.609 1.125,0.713 1.133,0.822 1.139,0.938 1.14,1.059 0.461,-8.75 -0.968,-0.639 -0.984,-0.586 -0.998,-0.534 -1.012,-0.482 -1.023,-0.43 -1.034,-0.377 -1.044,-0.325 -1.052,-0.272 -1.059,-0.22 -1.066,-0.167 -1.071,-0.114"
         id="path14"
         inkscape:connector-curvature="0"
         style="fill:none;stroke:#000000;stroke-width:3;stroke-linecap:butt;stroke-linejoin:round;stroke-opacity:1" />
      <path
         d="m 1154.692,325.987 -1.706,-0.153 -1.026,0.006 -1.023,0.085 -1.017,0.164 -1.006,0.239 -0.991,0.315 -0.97,0.387 -0.945,0.457 -0.916,0.527 -0.881,0.595 -0.842,0.659 -0.799,0.724 -0.751,0.785 -0.164,-0.006 0.166,-4.61 -7.283,-0.247 -0.344,9.994 -0.345,9.994 -0.344,9.994 -0.169,4.885 7.232,0.257 0.359,-9.994 0.359,-9.993 0.179,-4.976 0.871,-0.841 0.836,-0.75 0.807,-0.663 0.783,-0.579 0.764,-0.497 0.75,-0.419 0.743,-0.342 0.741,-0.269 0.744,-0.198 0.752,-0.131 0.767,-0.065 0.786,-0.003 1.068,0.106 0.99,0.237 0.91,0.365 0.824,0.484 0.735,0.601 0.643,0.71 0.547,0.813 0.446,0.913 0.343,1.004 0.235,1.092 0.123,1.173 0.01,1.249 -0.392,9.992 -0.391,9.993 -0.061,1.567 7.248,0.258 0.405,-9.992 0.406,-9.991 0.061,-1.498 -0.02,-2.294 -0.247,-2.095 -0.458,-1.896 -0.656,-1.697 -0.838,-1.501 -1.006,-1.304 -1.16,-1.109 -1.299,-0.916 -1.423,-0.723 -1.532,-0.531 -1.627,-0.341"
         id="path16"
         inkscape:connector-curvature="0"
         style="fill:none;stroke:#000000;stroke-width:3;stroke-linecap:butt;stroke-linejoin:round;stroke-opacity:1" />
      <path
         d="m 1121.696,310.688 -0.583,-0.058 -0.586,0.019 -0.565,0.093 -0.54,0.162 -0.509,0.227 -0.471,0.285 -0.429,0.34 -0.381,0.389 -0.327,0.432 -0.268,0.472 -0.203,0.506 -0.133,0.534 -0.058,0.559 0.023,0.561 0.1,0.542 0.171,0.517 0.239,0.488 0.299,0.453 0.356,0.412 0.406,0.367 0.452,0.315 0.492,0.26 0.528,0.197 0.557,0.13 0.583,0.058 0.585,-0.018 0.564,-0.093 0.539,-0.162 0.509,-0.225 0.471,-0.285 0.429,-0.339 0.381,-0.388 0.328,-0.431 0.269,-0.472 0.204,-0.505 0.134,-0.534 0.058,-0.559 -0.022,-0.561 -0.099,-0.543 -0.171,-0.518 -0.237,-0.489 -0.3,-0.453 -0.356,-0.414 -0.406,-0.367 -0.453,-0.316 -0.493,-0.26 -0.528,-0.198 -0.559,-0.13"
         id="path18"
         inkscape:connector-curvature="0"
         style="fill:none;stroke:#000000;stroke-width:3;stroke-linecap:butt;stroke-linejoin:round;stroke-opacity:1" />
      <path
         d="m 1124.238,325.565 -7.27,-0.247 -0.31,9.995 -0.31,9.996 -0.31,9.995 -0.151,4.855 7.22,0.257 0.324,-9.994 0.324,-9.995 0.325,-9.995 0.158,-4.867"
         id="path20"
         inkscape:connector-curvature="0"
         style="fill:none;stroke:#000000;stroke-width:3;stroke-linecap:butt;stroke-linejoin:round;stroke-opacity:1" />
      <path
         d="m 1093.684,323.901 -1.817,-0.137 -1.297,-0.011 -1.246,0.056 -1.193,0.123 -1.143,0.191 -1.092,0.258 -1.041,0.327 -0.993,0.395 -0.943,0.463 -0.895,0.532 -0.847,0.602 -0.8,0.67 -0.754,0.739 -0.178,7.544 0.907,-0.915 0.926,-0.825 0.944,-0.737 0.959,-0.65 0.972,-0.564 0.982,-0.48 0.991,-0.397 0.997,-0.316 1.001,-0.235 1.002,-0.157 1.002,-0.079 0.999,-0.004 1.052,0.074 0.958,0.148 0.864,0.225 0.771,0.304 0.677,0.387 0.583,0.472 0.489,0.559 0.394,0.65 0.301,0.742 0.206,0.838 0.112,0.936 0.018,1.037 -0.051,1.864 -6.475,1.951 -1.486,0.457 -1.49,0.477 -1.471,0.513 -1.426,0.567 -1.356,0.638 -1.261,0.727 -1.141,0.832 -0.997,0.954 -0.828,1.095 -0.633,1.251 -0.414,1.425 -0.17,1.617 0.047,1.109 0.19,1.083 0.326,1.043 0.458,0.991 0.583,0.927 0.702,0.85 0.815,0.761 0.922,0.658 1.024,0.545 1.12,0.418 1.209,0.279 1.294,0.128 0.829,0.005 0.83,-0.043 0.83,-0.091 0.83,-0.141 0.829,-0.19 0.828,-0.239 0.826,-0.29 0.823,-0.339 0.821,-0.39 0.817,-0.441 0.813,-0.492 0.808,-0.544 0.168,0.594 0.215,0.54 0.263,0.485 0.312,0.432 0.364,0.38 0.416,0.33 0.469,0.28 0.524,0.232 0.581,0.185 0.639,0.138 0.698,0.094 0.759,0.05 0.55,0.006 0.524,-0.023 0.507,-0.056 0.501,-0.09 0.504,-0.128 0.518,-0.167 0.54,-0.21 0.574,-0.256 0.618,-0.303 0.67,-0.353 0.733,-0.407 0.807,-0.462 0.124,-4.167 -0.411,0.265 -0.401,0.246 -0.389,0.225 -0.376,0.204 -0.361,0.182 -0.343,0.159 -0.325,0.136 -0.302,0.111 -0.28,0.087 -0.254,0.061 -0.227,0.034 -0.198,0.008 -0.214,-0.018 -0.196,-0.037 -0.179,-0.059 -0.16,-0.082 -0.141,-0.105 -0.122,-0.131 -0.103,-0.158 -0.083,-0.185 -0.063,-0.215 -0.043,-0.246 -0.022,-0.277 -10e-4,-0.311 0.286,-9.996 0.227,-7.904 -0.065,-1.897 -0.3,-1.728 -0.52,-1.56 -0.724,-1.393 -0.914,-1.23 -1.088,-1.067 -1.248,-0.907 -1.392,-0.748 -1.521,-0.593 -1.635,-0.438 -1.733,-0.287"
         id="path22"
         inkscape:connector-curvature="0"
         style="fill:none;stroke:#000000;stroke-width:3;stroke-linecap:butt;stroke-linejoin:round;stroke-opacity:1" />
      <path
         d="m 1095.86,342.784 1.537,-0.452 -0.272,9.996 v 0.14 l -0.501,0.412 -0.507,0.381 -0.513,0.349 -0.519,0.317 -0.524,0.281 -0.531,0.246 -0.535,0.208 -0.542,0.17 -0.547,0.13 -0.553,0.089 -0.558,0.046 -0.564,0.002 -0.73,-0.067 -0.69,-0.145 -0.644,-0.219 -0.594,-0.289 -0.54,-0.354 -0.481,-0.416 -0.417,-0.474 -0.348,-0.526 -0.275,-0.575 -0.198,-0.621 -0.114,-0.661 -0.028,-0.697 0.134,-0.978 0.338,-0.891 0.528,-0.812 0.702,-0.741 0.861,-0.678 1.004,-0.622 1.132,-0.574 1.244,-0.535 1.341,-0.502 1.421,-0.477 1.487,-0.461"
         id="path24"
         inkscape:connector-curvature="0"
         style="fill:none;stroke:#000000;stroke-width:3;stroke-linecap:butt;stroke-linejoin:round;stroke-opacity:1" />
      <path
         d="m 1027.132,304.063 -7.47,-0.246 -0.118,9.999 -0.117,9.999 -0.117,10 -0.118,9.999 -0.117,9.999 -0.034,2.899 7.875,0.28 0.133,-9.999 0.133,-9.999 0.133,-9.999 0.133,-9.999 0.014,-1.106 0.163,0.006 6.203,7.843 6.203,7.844 4.285,5.418 1.293,0.045 6.574,-7.536 6.574,-7.536 4.265,-4.889 0.163,0.005 -0.204,9.998 -0.203,9.998 -0.204,9.998 -0.203,9.998 -0.024,1.171 7.908,0.282 0.219,-9.998 0.22,-9.997 0.219,-9.998 0.219,-9.997 0.219,-9.998 0.066,-3.022 -7.421,-0.245 -6.635,7.482 -6.635,7.482 -5.587,6.3 -6.252,-7.805 -6.251,-7.805 -5.504,-6.871"
         id="path26"
         inkscape:connector-curvature="0"
         style="fill:none;stroke:#000000;stroke-width:3;stroke-linecap:butt;stroke-linejoin:round;stroke-opacity:1" />
      <path
         d="m 820.49637,115.76519 -9.998,-0.232 -9.997,-0.233 -3.61,-0.084 0.092,4.979 9.998,0.235 4.034,0.095 -5.343,8.453 -5.343,8.452 -3.534,5.592 9.997,0.247 9.997,0.246 4.16,0.102 -0.069,-4.941 -9.997,-0.243 -4.737,-0.116 5.368,-8.437 5.368,-8.436 3.614,-5.679"
         id="path28"
         inkscape:connector-curvature="0"
         style="fill:none;stroke:#000000;stroke-width:3;stroke-linecap:butt;stroke-linejoin:round;stroke-opacity:1" />
      <path
         d="m 657.6094,450.37157 -5.323,-0.201 0.6,9.982 0.6,9.982 0.601,9.982 0.55,9.153 5.283,0.21 -0.59,-9.982 -0.59,-9.983 -0.59,-9.982 -0.541,-9.161"
         id="path30"
         inkscape:connector-curvature="0"
         style="fill:none;stroke:#000000;stroke-width:3;stroke-linecap:butt;stroke-linejoin:round;stroke-opacity:1" />
      <path
         d="m 636.0404,462.47957 -1.333,-0.107 -0.946,-0.012 -0.904,0.037 -0.861,0.087 -0.82,0.136 -0.779,0.187 -0.738,0.237 -0.697,0.287 -0.657,0.339 -0.617,0.388 -0.579,0.44 -0.539,0.491 -0.5,0.542 0.364,5.555 0.601,-0.671 0.621,-0.605 0.64,-0.54 0.657,-0.475 0.671,-0.413 0.685,-0.35 0.696,-0.289 0.706,-0.23 0.714,-0.17 0.721,-0.112 0.725,-0.055 h 0.728 l 0.771,0.058 0.708,0.112 0.645,0.168 0.582,0.227 0.519,0.287 0.456,0.349 0.393,0.413 0.331,0.48 0.268,0.548 0.205,0.617 0.144,0.69 0.081,0.764 0.087,1.373 -4.592,1.418 -1.054,0.332 -1.055,0.347 -1.039,0.374 -1.002,0.413 -0.947,0.467 -0.872,0.532 -0.778,0.61 -0.665,0.701 -0.532,0.804 -0.38,0.922 -0.209,1.05 -0.018,1.192 0.107,0.819 0.21,0.8 0.307,0.77 0.399,0.734 0.486,0.685 0.569,0.63 0.645,0.564 0.716,0.489 0.784,0.405 0.844,0.312 0.902,0.21 0.953,0.098 0.605,0.006 0.603,-0.029 0.6,-0.065 0.597,-0.102 0.593,-0.138 0.588,-0.174 0.583,-0.211 0.579,-0.249 0.573,-0.285 0.567,-0.324 0.56,-0.361 0.554,-0.398 0.162,0.439 0.192,0.398 0.225,0.359 0.256,0.32 0.291,0.282 0.325,0.245 0.361,0.208 0.398,0.173 0.437,0.138 0.475,0.104 0.515,0.071 0.557,0.039 0.402,0.006 0.381,-0.015 0.366,-0.04 0.36,-0.065 0.359,-0.093 0.367,-0.122 0.38,-0.154 0.402,-0.187 0.43,-0.222 0.465,-0.259 0.508,-0.298 0.558,-0.339 -0.188,-3.074 -0.282,0.194 -0.276,0.181 -0.269,0.165 -0.261,0.149 -0.251,0.133 -0.239,0.117 -0.228,0.099 -0.213,0.081 -0.198,0.063 -0.182,0.044 -0.163,0.025 -0.144,0.005 -0.157,-0.013 -0.146,-0.029 -0.134,-0.044 -0.122,-0.06 -0.11,-0.079 -0.098,-0.096 -0.085,-0.117 -0.073,-0.137 -0.061,-0.159 -0.047,-0.181 -0.035,-0.205 -0.021,-0.23 -0.618,-9.981 -0.199,-3.213 -0.174,-1.397 -0.333,-1.273 -0.482,-1.15 -0.62,-1.028 -0.747,-0.908 -0.864,-0.789 -0.969,-0.672 -1.064,-0.555 -1.147,-0.441 -1.22,-0.328 -1.282,-0.216"
         id="path32"
         inkscape:connector-curvature="0"
         style="fill:none;stroke:#000000;stroke-width:3;stroke-linecap:butt;stroke-linejoin:round;stroke-opacity:1" />
      <path
         d="m 638.8744,476.39257 1.091,-0.328 0.471,7.474 -0.339,0.302 -0.345,0.28 -0.351,0.256 -0.357,0.232 -0.364,0.206 -0.371,0.18 -0.377,0.152 -0.384,0.124 -0.39,0.095 -0.398,0.063 -0.404,0.033 h -0.412 l -0.537,-0.052 -0.513,-0.109 -0.484,-0.163 -0.453,-0.215 -0.417,-0.264 -0.379,-0.308 -0.335,-0.351 -0.289,-0.389 -0.239,-0.426 -0.184,-0.458 -0.128,-0.488 -0.066,-0.515 0.033,-0.721 0.188,-0.656 0.332,-0.597 0.463,-0.545 0.584,-0.497 0.691,-0.456 0.788,-0.42 0.872,-0.39 0.944,-0.366 1.005,-0.348 1.054,-0.335"
         id="path34"
         inkscape:connector-curvature="0"
         style="fill:none;stroke:#000000;stroke-width:3;stroke-linecap:butt;stroke-linejoin:round;stroke-opacity:1" />
      <path
         d="m 595.3754,460.89057 -0.835,-0.066 -0.622,0.003 -0.621,0.055 -0.621,0.108 -0.62,0.162 -0.62,0.216 -0.621,0.27 -0.622,0.325 -0.622,0.38 -0.625,0.436 -0.626,0.491 -0.628,0.547 -0.632,0.603 -0.248,-3.379 -5.271,-0.203 0.742,9.972 0.743,9.973 0.421,5.65 5.245,0.209 -0.732,-9.973 -0.631,-8.588 0.497,-0.56 0.489,-0.494 0.486,-0.431 0.486,-0.371 0.492,-0.315 0.501,-0.259 0.514,-0.209 0.533,-0.159 0.555,-0.113 0.581,-0.07 0.612,-0.03 0.648,0.008 0.645,0.062 0.626,0.137 0.603,0.215 0.573,0.294 0.537,0.374 0.494,0.458 0.446,0.543 0.392,0.629 0.332,0.717 0.266,0.809 0.194,0.9 0.115,0.995 0.709,9.975 0.42,5.909 5.254,0.21 -0.699,-9.976 -0.602,-8.599 0.45,-0.443 0.465,-0.42 0.478,-0.393 0.486,-0.363 0.493,-0.33 0.494,-0.293 0.494,-0.253 0.49,-0.209 0.483,-0.161 0.472,-0.111 0.458,-0.057 0.44,0.001 0.748,0.073 0.724,0.159 0.694,0.243 0.658,0.326 0.614,0.408 0.563,0.488 0.505,0.567 0.441,0.644 0.369,0.719 0.291,0.793 0.207,0.866 0.114,0.936 0.676,9.978 0.397,5.861 5.263,0.21 -0.666,-9.978 -0.407,-6.093 -0.169,-1.474 -0.301,-1.388 -0.428,-1.295 -0.549,-1.193 -0.665,-1.086 -0.774,-0.971 -0.879,-0.849 -0.978,-0.72 -1.071,-0.584 -1.158,-0.441 -1.239,-0.29 -1.316,-0.133 -0.926,0.007 -0.881,0.092 -0.837,0.169 -0.795,0.242 -0.757,0.307 -0.719,0.366 -0.684,0.421 -0.652,0.468 -0.622,0.51 -0.594,0.545 -0.568,0.574 -0.545,0.598 -0.516,-0.747 -0.553,-0.688 -0.589,-0.629 -0.621,-0.57 -0.654,-0.508 -0.684,-0.448 -0.713,-0.385 -0.74,-0.323 -0.766,-0.259 -0.791,-0.195 -0.813,-0.131"
         id="path36"
         inkscape:connector-curvature="0"
         style="fill:none;stroke:#000000;stroke-width:3;stroke-linecap:butt;stroke-linejoin:round;stroke-opacity:1" />
      <path
         d="m 572.2674,459.98757 -0.532,-0.041 -0.619,0.016 -0.616,0.097 -0.612,0.181 -0.609,0.267 -0.604,0.356 -0.602,0.447 -0.597,0.542 -0.594,0.638 -0.589,0.737 -0.586,0.838 -0.582,0.942 -0.579,1.048 -0.118,-0.004 -0.459,-5.891 -5.26,-0.202 0.788,9.968 0.788,9.969 0.445,5.633 5.233,0.208 -0.777,-9.969 -0.264,-3.384 -0.026,-1.074 0.088,-1.024 0.196,-0.964 0.299,-0.896 0.393,-0.819 0.482,-0.733 0.564,-0.639 0.64,-0.536 0.71,-0.425 0.772,-0.304 0.829,-0.174 0.879,-0.037 0.328,0.033 0.362,0.076 0.389,0.116 0.414,0.153 0.433,0.19 0.447,0.222 0.457,0.254 0.462,0.282 0.462,0.31 0.458,0.334 0.449,0.357 0.436,0.378 2.447,-4.295 -0.58,-0.501 -0.57,-0.457 -0.562,-0.415 -0.555,-0.372 -0.548,-0.33 -0.542,-0.289 -0.538,-0.246 -0.535,-0.204 -0.533,-0.164 -0.531,-0.122 -0.531,-0.081"
         id="path38"
         inkscape:connector-curvature="0"
         style="fill:none;stroke:#000000;stroke-width:3;stroke-linecap:butt;stroke-linejoin:round;stroke-opacity:1" />
      <path
         d="m 540.1654,458.84157 -2.038,-0.19 -1.925,0.042 -1.814,0.27 -1.691,0.484 -1.554,0.684 -1.402,0.871 -1.238,1.044 -1.059,1.203 -0.869,1.348 -0.663,1.48 -0.445,1.598 -0.214,1.702 0.031,1.794 0.284,1.919 0.504,1.824 0.712,1.717 0.906,1.599 1.086,1.466 1.255,1.322 1.408,1.165 1.549,0.997 1.678,0.814 1.792,0.621 1.895,0.414 1.983,0.194 2.046,-0.029 1.908,-0.251 1.759,-0.464 1.6,-0.666 1.432,-0.86 1.253,-1.045 1.064,-1.22 0.864,-1.386 0.654,-1.544 0.434,-1.691 0.204,-1.83 -0.038,-1.96 -0.272,-1.853 -0.501,-1.764 -0.717,-1.663 -0.92,-1.548 -1.108,-1.423 -1.284,-1.283 -1.444,-1.132 -1.591,-0.969 -1.724,-0.793 -1.842,-0.604 -1.948,-0.404"
         id="path40"
         inkscape:connector-curvature="0"
         style="fill:none;stroke:#000000;stroke-width:3;stroke-linecap:butt;stroke-linejoin:round;stroke-opacity:1" />
      <path
         d="m 537.2474,463.24857 1.201,-0.027 1.285,0.123 1.228,0.263 1.161,0.394 1.087,0.517 1.002,0.633 0.911,0.74 0.809,0.839 0.7,0.929 0.581,1.013 0.455,1.087 0.319,1.153 0.176,1.212 0.037,1.332 -0.11,1.235 -0.253,1.131 -0.391,1.025 -0.524,0.914 -0.653,0.798 -0.777,0.679 -0.897,0.554 -1.012,0.427 -1.122,0.295 -1.229,0.158 -1.33,0.017 -1.234,-0.122 -1.174,-0.262 -1.106,-0.395 -1.031,-0.523 -0.95,-0.643 -0.861,-0.759 -0.766,-0.866 -0.663,-0.969 -0.553,-1.064 -0.437,-1.154 -0.313,-1.237 -0.183,-1.315 -0.028,-1.192 0.119,-1.124 0.259,-1.05 0.392,-0.966 0.518,-0.876 0.637,-0.778 0.748,-0.672 0.854,-0.558 0.951,-0.437 1.042,-0.308 1.125,-0.171"
         id="path42"
         inkscape:connector-curvature="0"
         style="fill:none;stroke:#000000;stroke-width:3;stroke-linecap:butt;stroke-linejoin:round;stroke-opacity:1" />
      <path
         d="m 483.8804,443.78957 -4.585,-0.174 0.942,9.956 0.942,9.955 0.942,9.956 0.847,8.948 5.368,0.214 -0.932,-9.956 -0.931,-9.957 -0.928,-9.92 6.898,7.24 6.898,7.239 6.899,7.24 6.898,7.24 1.845,1.936 4.917,0.196 -0.869,-9.963 -0.869,-9.962 -0.869,-9.962 -0.784,-8.99 -5.426,-0.205 0.879,9.961 0.88,9.961 0.903,10.221 -6.918,-7.221 -6.918,-7.221 -6.918,-7.221 -6.917,-7.221 -2.194,-2.29"
         id="path44"
         inkscape:connector-curvature="0"
         style="fill:none;stroke:#000000;stroke-width:3;stroke-linecap:butt;stroke-linejoin:round;stroke-opacity:1" />
      <path
         d="m 423.5084,454.74457 -5.536,-0.213 4.784,8.781 4.784,8.782 4.808,8.825 1.625,0.065 3.17,-9.485 2.665,-7.971 4.675,8.84 4.675,8.84 0.206,0.389 1.627,0.065 3.311,-9.436 3.311,-9.436 2.331,-6.641 -5.556,-0.214 -3.281,9.446 -1.993,5.739 -4.638,-8.859 -3.584,-6.846 -3.853,-0.149 -3.149,9.492 -1.887,5.689 -4.758,-8.795 -3.737,-6.908"
         id="path46"
         inkscape:connector-curvature="0"
         style="fill:none;stroke:#000000;stroke-width:3;stroke-linecap:butt;stroke-linejoin:round;stroke-opacity:1" />
      <path
         d="m 406.3324,453.66857 -1.688,-0.161 -1.744,0.04 -1.619,0.252 -1.485,0.456 -1.342,0.649 -1.19,0.834 -1.031,1.009 -0.862,1.176 -0.686,1.332 -0.499,1.48 -0.306,1.617 -0.103,1.747 0.107,1.866 0.289,1.743 0.469,1.706 0.643,1.65 0.812,1.572 0.976,1.474 1.132,1.356 1.285,1.216 1.432,1.056 1.573,0.875 1.708,0.674 1.84,0.452 1.964,0.21 1.067,0.022 1.003,-0.02 0.946,-0.063 0.897,-0.105 0.852,-0.149 0.816,-0.192 0.784,-0.235 0.759,-0.279 0.742,-0.322 0.73,-0.366 0.724,-0.41 0.725,-0.454 -0.522,-4.853 -0.703,0.433 -0.705,0.4 -0.709,0.364 -0.711,0.328 -0.717,0.29 -0.722,0.251 -0.729,0.21 -0.737,0.17 -0.745,0.127 -0.754,0.083 -0.765,0.039 -0.776,-0.008 -1.209,-0.101 -1.137,-0.206 -1.062,-0.309 -0.989,-0.412 -0.914,-0.515 -0.839,-0.616 -0.765,-0.718 -0.689,-0.819 -0.612,-0.919 -0.536,-1.018 -0.46,-1.118 -0.381,-1.217 9.992,0.392 8.346,0.328 -0.333,-2.253 -0.489,-2.062 -0.638,-1.871 -0.782,-1.68 -0.919,-1.489 -1.048,-1.298 -1.173,-1.108 -1.288,-0.918 -1.399,-0.727 -1.502,-0.539 -1.599,-0.349"
         id="path48"
         inkscape:connector-curvature="0"
         style="fill:none;stroke:#000000;stroke-width:3;stroke-linecap:butt;stroke-linejoin:round;stroke-opacity:1" />
      <path
         d="m 404.2904,457.89857 0.95,-0.01 0.892,0.084 0.842,0.181 0.789,0.272 0.734,0.362 0.675,0.446 0.615,0.527 0.55,0.605 0.483,0.678 0.414,0.749 0.341,0.815 0.266,0.877 0.188,0.937 -9.992,-0.391 -3.128,-0.122 0.101,-0.96 0.18,-0.883 0.257,-0.804 0.335,-0.723 0.413,-0.64 0.49,-0.555 0.568,-0.469 0.644,-0.381 0.721,-0.291 0.798,-0.199 0.874,-0.105"
         id="path50"
         inkscape:connector-curvature="0"
         style="fill:none;stroke:#000000;stroke-width:3;stroke-linecap:butt;stroke-linejoin:round;stroke-opacity:1" />
      <path
         d="m 382.9724,442.49457 -0.418,-0.043 -0.412,0.012 -0.39,0.066 -0.364,0.116 -0.336,0.163 -0.303,0.206 -0.267,0.245 -0.229,0.282 -0.186,0.313 -0.139,0.342 -0.091,0.366 -0.038,0.388 0.018,0.406 0.075,0.407 0.128,0.394 0.175,0.377 0.22,0.355 0.259,0.33 0.295,0.3 0.326,0.268 0.352,0.23 0.376,0.19 0.393,0.145 0.408,0.096 0.418,0.044 0.411,-0.012 0.39,-0.066 0.364,-0.116 0.335,-0.162 0.303,-0.206 0.268,-0.244 0.228,-0.281 0.187,-0.313 0.14,-0.341 0.091,-0.367 0.038,-0.388 -0.017,-0.405 -0.075,-0.408 -0.127,-0.394 -0.175,-0.377 -0.22,-0.356 -0.259,-0.33 -0.295,-0.301 -0.326,-0.268 -0.353,-0.231 -0.376,-0.19 -0.394,-0.145 -0.408,-0.097"
         id="path52"
         inkscape:connector-curvature="0"
         style="fill:none;stroke:#000000;stroke-width:3;stroke-linecap:butt;stroke-linejoin:round;stroke-opacity:1" />
      <path
         d="m 386.3344,453.31157 -5.166,-0.199 1.137,9.935 1.137,9.935 0.631,5.509 5.141,0.204 -1.127,-9.936 -1.127,-9.936 -0.626,-5.512"
         id="path54"
         inkscape:connector-curvature="0"
         style="fill:none;stroke:#000000;stroke-width:3;stroke-linecap:butt;stroke-linejoin:round;stroke-opacity:1" />
      <path
         d="m 346.4814,438.58357 -5.681,-0.216 4.812,8.766 4.812,8.766 4.812,8.767 4.812,8.766 2.491,4.536 1.152,0.046 3.029,-9.53 3.028,-9.531 3.028,-9.53 3.091,-9.727 -5.64,-0.214 -3.07,9.517 -3.07,9.518 -2.484,7.701 -4.801,-8.773 -4.8,-8.772 -4.8,-8.773 -0.721,-1.317"
         id="path56"
         inkscape:connector-curvature="0"
         style="fill:none;stroke:#000000;stroke-width:3;stroke-linecap:butt;stroke-linejoin:round;stroke-opacity:1" />
      <path
         d="m 325.3484,461.20357 -9.992,-0.391 -3.991,-0.156 0.674,5.24 9.992,0.394 3.977,0.156 -0.66,-5.243"
         id="path58"
         inkscape:connector-curvature="0"
         style="fill:none;stroke:#000000;stroke-width:3;stroke-linecap:butt;stroke-linejoin:round;stroke-opacity:1" />
      <path
         d="m 269.4474,448.80457 -6.424,-0.248 6.973,7.167 5.564,5.718 -5.907,8.069 -3.146,4.297 6.393,0.255 5.9,-8.075 0.477,-0.653 7.044,7.098 2.238,2.254 6.522,0.26 -7.016,-7.126 -6.032,-6.125 5.962,-8.029 2.994,-4.031 -6.554,-0.253 -5.919,8.06 -0.259,0.351 -6.999,-7.142 -1.811,-1.847"
         id="path60"
         inkscape:connector-curvature="0"
         style="fill:none;stroke:#000000;stroke-width:3;stroke-linecap:butt;stroke-linejoin:round;stroke-opacity:1" />
      <path
         d="m 778.662,730.362 -9.985,-0.544 -9.985,-0.545 -9.986,-0.545 -9.985,-0.544 -9.985,-0.545 -9.985,-0.545 -9.985,-0.544 -9.985,-0.545 -9.986,-0.545 -9.985,-0.545 -9.985,-0.544 -9.985,-0.545 -1.763,-0.096 -9.985,-0.545 -9.985,-0.544 -9.985,-0.545 -9.985,-0.545 -9.985,-0.544 -9.986,-0.545 -9.985,-0.545 -9.985,-0.545 -9.985,-0.544 -9.985,-0.545 -9.985,-0.545 -9.986,-0.544 -9.985,-0.545 -9.985,-0.545 -9.985,-0.544 -9.985,-0.545 -9.985,-0.545 -9.985,-0.544 -9.986,-0.545 -9.985,-0.545 -9.985,-0.545 -9.985,-0.544 -9.985,-0.545 -9.985,-0.545 -9.986,-0.544 -9.985,-0.545 -9.985,-0.545 -9.985,-0.544 -9.985,-0.545 -9.985,-0.545 -9.985,-0.544 -9.986,-0.545 -9.985,-0.545 -9.985,-0.544 -9.985,-0.545 -9.985,-0.545 -9.985,-0.545 -9.986,-0.544 -9.985,-0.545 -9.985,-0.545 -9.985,-0.544 -9.985,-0.545 -9.985,-0.545 -9.985,-0.544 -9.986,-0.545 -9.985,-0.545 -9.985,-0.544 -9.985,-0.545 -9.985,-0.545 -9.985,-0.545 -14.782,-0.806 -9.985,-0.545 -9.985,-0.544 -9.986,-0.545 -9.985,-0.545 -9.985,-0.544 -9.985,-0.545 -9.985,-0.545 -9.985,-0.544 -9.986,-0.545 -9.985,-0.545 -9.985,-0.544 -9.985,-0.545 -9.985,-0.545 -9.985,-0.544 -9.985,-0.545 -9.986,-0.545 -9.985,-0.545 -9.985,-0.544 -9.985,-0.545 -9.985,-0.545 -9.985,-0.544 -9.986,-0.545 -9.985,-0.545 -9.985,-0.544 -9.985,-0.545 -9.985,-0.545 -9.985,-0.544 -9.985,-0.545 -9.986,-0.545 -9.985,-0.545 -9.985,-0.544 -9.985,-0.545 -9.985,-0.545 -9.985,-0.544 -9.986,-0.545 -9.985,-0.545 -9.985,-0.544 -9.985,-0.545 -9.985,-0.545 -9.985,-0.544 -9.986,-0.545 -9.985,-0.545 -9.985,-0.544 -9.985,-0.545 -9.985,-0.545 -9.985,-0.545 -9.985,-0.544 -9.986,-0.545 -9.047,-0.493"
         id="path62"
         inkscape:connector-curvature="0"
         style="fill:none;stroke:#000000;stroke-width:3;stroke-linecap:butt;stroke-linejoin:round;stroke-opacity:1" />
      <path
         d="m 1543.827,1131.672 -9.975,-0.716 -9.974,-0.715 -9.975,-0.715 -9.974,-0.716 -9.974,-0.715 -9.975,-0.716 -9.974,-0.715 -9.975,-0.716 -9.974,-0.715 -9.974,-0.716 -9.975,-0.715 -9.974,-0.715 -9.974,-0.716 -9.975,-0.715 -9.974,-0.716 -9.974,-0.715 -9.975,-0.716 -9.974,-0.715 -9.975,-0.715 -9.974,-0.716 -9.974,-0.715 -9.975,-0.716 -9.974,-0.715 -9.974,-0.716 -9.975,-0.715 -9.974,-0.716 -9.975,-0.715 -9.974,-0.715 -9.974,-0.716 -9.975,-0.715 -9.974,-0.716 -9.975,-0.715 -9.974,-0.716 -9.974,-0.715 -9.975,-0.716 -9.974,-0.715 -9.974,-0.715 -9.975,-0.716 -9.974,-0.715 -9.974,-0.716 -9.975,-0.715 -9.974,-0.716 -9.975,-0.715 -9.974,-0.716 -9.974,-0.715 -9.975,-0.715 -9.974,-0.716 -9.974,-0.715 -9.975,-0.716 -9.974,-0.715 -9.975,-0.716 -9.974,-0.715 -9.974,-0.716 -9.975,-0.715 -9.974,-0.715 -9.974,-0.716 -9.975,-0.715 -9.974,-0.716 -9.975,-0.715 -9.974,-0.716 -9.974,-0.715 -9.975,-0.716 -9.974,-0.715 -9.974,-0.715 -9.975,-0.716 -9.974,-0.715 -9.975,-0.716 -9.974,-0.715 -9.974,-0.716 -9.975,-0.715 -9.974,-0.715 -9.974,-0.716 -9.975,-0.715 -16.596,-1.191 -6.913,-0.496 -9.974,-0.715 -9.975,-0.716 -9.974,-0.715 -9.975,-0.715 -9.974,-0.716 -9.974,-0.715 -9.975,-0.716 -9.974,-0.715 -9.974,-0.716 -9.975,-0.715 -9.974,-0.716 -9.975,-0.715 -9.974,-0.715 -9.974,-0.716 -9.975,-0.715 -9.974,-0.716 -9.974,-0.715 -9.975,-0.716 -9.974,-0.715 -9.974,-0.715 -9.975,-0.716 -9.974,-0.715 -9.975,-0.716 -9.974,-0.715 -9.974,-0.716 -9.975,-0.715 -9.974,-0.716 -3.114,-0.223 -9.974,-0.715 -9.974,-0.716 -9.975,-0.715 -9.974,-0.716 -9.974,-0.715 -9.975,-0.716 -9.974,-0.715 -9.975,-0.715 -9.974,-0.716 -9.974,-0.715 -9.975,-0.716 -9.974,-0.715 -9.975,-0.716 -9.974,-0.715 -9.974,-0.716 -9.975,-0.715 -9.974,-0.715 -9.974,-0.716 -9.975,-0.715 -9.974,-0.716 -9.974,-0.715 -9.975,-0.716 -9.974,-0.715 -9.975,-0.716 -9.974,-0.715 -9.974,-0.715 -9.975,-0.716 -9.974,-0.715 -9.974,-0.716 -9.975,-0.715 -9.974,-0.716 -9.975,-0.715 -9.974,-0.715 -9.974,-0.716 -9.975,-0.715 -9.974,-0.716 -9.974,-0.715 -9.975,-0.716 -9.974,-0.715 -9.975,-0.716 -9.974,-0.715 -9.974,-0.715 -9.975,-0.716 -9.974,-0.715 -9.974,-0.716 -9.975,-0.715 -9.974,-0.716 -9.975,-0.715 -9.974,-0.716 -9.974,-0.715 -9.975,-0.715 -9.974,-0.716 -9.974,-0.715 -9.975,-0.716 -9.974,-0.715 -9.975,-0.716 -9.974,-0.715 -9.974,-0.716 -9.975,-0.715 -9.974,-0.715 -9.974,-0.716 -9.975,-0.715 -10.386,-0.745"
         id="path64"
         inkscape:connector-curvature="0"
         style="fill:none;stroke:#000000;stroke-width:3;stroke-linecap:butt;stroke-linejoin:round;stroke-opacity:1" />
      <path
         d="m 2703.421,1153.675 -9.976,-0.688 -9.976,-0.687 -9.977,-0.688 -9.976,-0.688 -9.976,-0.688 -9.977,-0.688 -9.976,-0.688 -9.976,-0.688 -9.977,-0.688 -9.976,-0.688 -9.976,-0.688 -9.977,-0.688 -9.976,-0.688 -9.976,-0.688 -9.977,-0.688 -9.976,-0.688 -9.976,-0.688 -9.976,-0.688 -9.977,-0.688 -9.976,-0.688 -9.976,-0.688 -9.977,-0.688 -9.976,-0.688 -9.976,-0.688 -9.977,-0.687 -9.976,-0.688 -9.976,-0.688 -9.977,-0.688 -9.976,-0.688 -9.976,-0.688 -9.976,-0.688 -9.977,-0.688 -9.976,-0.688 -9.976,-0.688 -9.977,-0.688 -9.976,-0.688 -9.976,-0.688 -9.977,-0.688 -9.976,-0.688 -9.976,-0.688 -9.976,-0.688 -9.977,-0.688 -9.976,-0.688 -9.976,-0.688 -9.977,-0.688 -9.976,-0.688 -9.976,-0.688 -9.977,-0.687 -9.976,-0.688 -9.976,-0.688 -9.977,-0.688 -9.976,-0.688 -9.976,-0.688 -9.977,-0.688 -9.976,-0.688 -9.976,-0.688 -9.977,-0.688 -9.976,-0.688 -9.976,-0.688 -9.976,-0.688 -9.977,-0.688 -9.976,-0.688 -9.976,-0.688 -9.976,-0.688 -9.977,-0.688 -9.976,-0.688 -9.977,-0.688 -9.976,-0.688 -9.976,-0.688 -9.976,-0.688 -9.977,-0.687 -9.976,-0.688 -9.976,-0.688 -9.977,-0.688 -9.976,-0.688 -9.976,-0.688 -9.977,-0.688 -9.976,-0.688 -9.976,-0.688 -9.976,-0.688 -9.977,-0.688 -9.976,-0.688 -9.976,-0.688 -9.977,-0.688 -9.976,-0.688 -9.976,-0.688 -9.977,-0.688 -9.976,-0.688 -9.976,-0.688 -9.977,-0.688 -9.976,-0.688 -9.976,-0.688 -9.976,-0.688 -9.977,-0.687 -9.976,-0.688 -9.976,-0.688 -9.977,-0.688 -9.976,-0.688 -9.976,-0.688 -9.977,-0.688 -9.976,-0.688 -9.976,-0.688 -9.977,-0.688 -9.976,-0.688 -9.976,-0.688 -9.977,-0.688 -9.976,-0.688 -9.976,-0.688 -9.976,-0.688 -9.977,-0.688 -9.976,-0.688 -9.976,-0.688 -9.977,-0.688 -9.976,-0.688 -14.419,-0.994 -9.976,-0.688 -9.977,-0.688 -9.976,-0.688 -9.976,-0.688 -9.977,-0.688 -9.976,-0.688 -9.976,-0.688 -9.976,-0.688 -9.977,-0.688 -9.976,-0.687 -9.976,-0.688 -9.977,-0.688 -9.976,-0.688 -9.976,-0.688 -9.977,-0.688 -9.976,-0.688 -9.976,-0.688 -9.977,-0.688 -9.976,-0.688 -9.976,-0.688 -9.976,-0.688 -9.977,-0.688 -9.976,-0.688 -9.976,-0.688 -9.977,-0.688 -9.976,-0.688 -9.976,-0.688 -9.977,-0.688 -9.976,-0.688 -9.976,-0.688 -9.977,-0.688 -9.976,-0.688 -9.976,-0.687 -9.976,-0.688 -9.977,-0.688 -9.976,-0.688 -9.976,-0.688 -9.977,-0.688 -9.976,-0.688 -9.976,-0.688 -9.977,-0.688 -9.976,-0.688 -9.976,-0.688 -9.977,-0.688 -9.976,-0.688 -9.976,-0.688 -9.976,-0.688 -9.977,-0.688 -9.976,-0.688 -9.976,-0.688 -9.977,-0.688 -9.976,-0.688 -9.976,-0.688 -9.977,-0.688 -9.976,-0.688 -9.976,-0.687 -9.977,-0.688 -9.976,-0.688 -9.976,-0.688 -9.976,-0.688 -9.977,-0.688 -9.976,-0.688 -9.976,-0.688 -9.977,-0.688 -9.976,-0.688 -9.976,-0.688 -9.977,-0.688 -9.976,-0.688 -9.976,-0.688 -9.977,-0.688 -9.976,-0.688 -9.976,-0.688 -9.977,-0.688 -9.976,-0.688 -16.448,-1.134 -7.002,-0.483 -9.976,-0.688 -9.976,-0.688 -9.976,-0.688 -9.977,-0.688 -9.976,-0.688 -9.976,-0.687 -9.977,-0.688 -9.976,-0.688 -9.976,-0.688 -9.977,-0.688 -9.976,-0.688 -9.976,-0.688 -9.977,-0.688 -9.976,-0.688 -9.976,-0.688 -9.977,-0.688 -9.976,-0.688 -9.976,-0.688 -9.976,-0.688 -9.977,-0.688 -9.976,-0.688 -9.976,-0.688 -9.977,-0.688 -9.976,-0.688 -9.976,-0.688 -9.977,-0.688 -9.976,-0.688 -6.525,-0.45 -9.999,-0.094 -10,-0.094 -9.999,-0.094 -10,-0.094 -9.999,-0.094 -10,-0.094 -9.999,-0.094 -10,-0.095 -10,-0.094 -9.999,-0.094 -10,-0.094 -9.999,-0.094 -10,-0.094 -9.999,-0.094 -10,-0.094 -9.999,-0.095 -10,-0.094 -10,-0.094 -9.999,-0.094 -10,-0.094 -9.999,-0.094 -10,-0.094 -9.999,-0.095 -10,-0.094 -9.999,-0.094 -10,-0.094 -10,-0.094 -9.999,-0.094 -10,-0.094 -9.999,-0.094 -10,-0.095 -9.999,-0.094 -10,-0.094 -9.999,-0.094 -10,-0.094 -10,-0.094 -9.999,-0.094 -10,-0.094 -9.999,-0.095 -10,-0.094 -9.999,-0.094 -10,-0.094 -10,-0.094 -9.999,-0.094 -10,-0.094 -9.999,-0.095 -10,-0.094 -9.999,-0.094 -10,-0.094 -9.999,-0.094 -10,-0.094 -10,-0.094 -9.999,-0.094 -10,-0.095 -9.999,-0.094 -10,-0.094 -9.999,-0.094 -10,-0.094 -9.999,-0.094 -10,-0.094 -10,-0.094 -9.999,-0.095 -7.167,-0.067"
         id="path66"
         inkscape:connector-curvature="0"
         style="fill:none;stroke:#000000;stroke-width:3;stroke-linecap:butt;stroke-linejoin:round;stroke-opacity:1" />
      <path
         d="m 2375.462,817.468 -9.985,-0.545 -9.985,-0.544 -9.985,-0.545 -9.986,-0.545 -9.985,-0.544 -9.985,-0.545 -9.985,-0.545 -9.985,-0.544 -9.985,-0.545 -9.985,-0.545 -9.986,-0.545 -9.985,-0.544 -9.985,-0.545 -9.985,-0.545 -9.985,-0.544 -9.985,-0.545 -9.985,-0.545 -9.986,-0.544 -9.985,-0.545 -9.985,-0.545 -9.985,-0.544 -9.985,-0.545 -9.985,-0.545 -9.985,-0.545 -9.986,-0.544 -9.985,-0.545 -9.985,-0.545 -9.985,-0.544 -9.985,-0.545 -9.986,-0.545 -9.985,-0.544 -9.985,-0.545 -9.985,-0.545 -9.985,-0.544 -9.985,-0.545 -9.985,-0.545 -9.986,-0.545 -9.985,-0.544 -9.985,-0.545 -9.985,-0.545 -9.985,-0.544 -9.985,-0.545 -9.985,-0.545 -9.986,-0.544 -9.985,-0.545 -9.985,-0.545 -9.985,-0.544 -9.985,-0.545 -9.985,-0.545 -9.986,-0.545 -9.985,-0.544 -9.985,-0.545 -9.985,-0.545 -9.985,-0.544 -9.985,-0.545 -9.985,-0.545 -9.986,-0.544 -9.985,-0.545 -9.985,-0.545 -9.985,-0.544 -9.985,-0.545 -9.985,-0.545 -9.986,-0.545 -9.985,-0.544 -9.985,-0.545 -9.985,-0.545 -9.985,-0.544 -9.985,-0.545 -9.986,-0.545 -9.985,-0.544 -9.985,-0.545 -9.985,-0.545 -9.985,-0.544 -9.985,-0.545 -9.985,-0.545 -9.986,-0.545 -9.985,-0.544 -9.985,-0.545 -9.985,-0.545 -9.985,-0.544 -9.985,-0.545 -9.985,-0.545 -9.986,-0.544 -9.985,-0.545 -9.985,-0.545 -9.985,-0.544 -9.985,-0.545 -9.985,-0.545 -15.813,-0.862 -9.985,-0.545 -9.985,-0.545 -9.985,-0.544 -9.985,-0.545 -9.986,-0.545 -9.985,-0.545 -9.985,-0.544 -9.985,-0.545 -9.985,-0.545 -9.985,-0.544 -9.986,-0.545 -9.985,-0.545 -9.985,-0.544 -9.985,-0.545 -9.985,-0.545 -9.985,-0.544 -9.986,-0.545 -9.985,-0.545 -9.985,-0.545 -9.985,-0.544 -9.985,-0.545 -9.985,-0.545 -9.985,-0.544 -9.986,-0.545 -9.985,-0.545 -9.985,-0.544 -9.985,-0.545 -9.985,-0.545 -9.985,-0.544 -9.986,-0.545 -9.985,-0.545 -9.985,-0.545 -9.985,-0.544 -9.985,-0.545 -9.985,-0.545 -9.986,-0.544 -9.985,-0.545 -9.985,-0.545 -9.985,-0.544 -9.985,-0.545 -9.985,-0.545 -9.985,-0.544 -9.986,-0.545 -9.985,-0.545 -9.985,-0.545 -9.985,-0.544 -9.985,-0.545 -9.985,-0.545 -9.985,-0.544 -9.986,-0.545 -9.985,-0.545 -9.985,-0.544 -9.985,-0.545 -9.985,-0.545 -9.985,-0.544 -9.986,-0.545 -9.985,-0.545 -9.985,-0.544 -9.985,-0.545 -9.985,-0.545 -9.985,-0.545 -9.985,-0.544 -9.986,-0.545 -9.985,-0.545 -9.985,-0.544 -9.985,-0.545 -9.985,-0.545 -9.985,-0.544 -15.839,-0.864"
         id="path68"
         inkscape:connector-curvature="0"
         style="fill:none;stroke:#000000;stroke-width:3;stroke-linecap:butt;stroke-linejoin:round;stroke-opacity:1" />
      <path
         d="m 751.71,425.291 9.992,0.395 5.105,0.201 7.948,0.314 9.993,0.395 9.992,0.394 8.023,0.317 -7.171,6.97 -5.088,4.946 9.992,0.401 1.933,0.077 7.182,-6.959 5.122,-4.963 4.931,-4.79 -5.224,-5.199 -7.148,-6.992 -6.183,-6.048 -9.992,-0.383 -2.279,-0.087 7.155,6.986 6.191,6.047 -9.992,-0.39 -3.576,-0.139 -0.289,-0.012 -1.373,-0.053 -8.232,-0.321 -0.164,-0.006 -4.175,-0.163 -2.19,-0.085 -0.16,-0.007 -5.614,-0.219 -2.223,-0.086 -0.153,-0.006 -6.366,-0.248 -0.15,-0.006 -6.235,-0.243 0.006,0.139 0.062,1.482 0.005,0.122 0.03,0.71 0.315,7.509"
         id="path70"
         inkscape:connector-curvature="0"
         style="fill:none;stroke:#000000;stroke-width:3;stroke-linecap:butt;stroke-linejoin:round;stroke-opacity:1" />
      <path
         d="m 709.365,317.146 0.494,9.988 0.494,9.988 0.493,9.988 0.494,9.988 0.494,9.987 0.494,9.988 0.493,9.988 0.494,9.988 0.494,9.988 0.493,9.987 0.494,9.988 0.492,9.953 9.992,0.401 7.635,0.306 -0.458,-9.989 -0.458,-9.99 -0.458,-9.989 -0.459,-9.99 -0.458,-9.989 -0.056,-1.216 9.993,0.375 8.575,0.323 6.862,-0.043 6.2,-0.644 3.05,-0.664 2.499,-0.544 4.907,-1.738 0.5,-0.26 3.777,-1.969 3.655,-2.686 3.044,-3.105 2.441,-3.489 1.848,-3.837 1.263,-4.146 0.687,-4.421 0.12,-4.657 -0.422,-4.74 -0.948,-4.576 -1.481,-4.37 -2.023,-4.12 -0.706,-1.051 -0.101,-0.15 -0.083,-0.124 -0.287,-0.426 -1.394,-2.075 -3.128,-3.488 -3.69,-3.106 -4.259,-2.682 -4.834,-2.213 -5.413,-1.701 -5.998,-1.145 -6.586,-0.548 -9.994,-0.342 -9.994,-0.342 -9.995,-0.341 -9.288,-0.318"
         id="path72"
         inkscape:connector-curvature="0"
         style="fill:none;stroke:#000000;stroke-width:3;stroke-linecap:butt;stroke-linejoin:round;stroke-opacity:1" />
      <path
         d="m 728.139,333.561 9.994,0.349 7.512,0.263 0.082,0.003 3.568,0.124 3.872,0.331 1.449,0.288 0.059,0.011 1.927,0.383 0.76,0.251 2.1,0.695 0.156,0.052 0.809,0.394 0.984,0.48 v 0 l 0.099,0.048 0.031,0.015 0.014,0.007 0.682,0.333 0.213,0.145 0.928,0.63 1.101,0.748 0.38,0.348 0.836,0.768 0.67,0.615 0.529,0.65 0.135,0.166 0.621,0.762 0.266,0.327 1.235,2.042 0.943,2.145 0.671,2.211 0.42,2.242 0.191,2.238 -0.068,2.909 -0.423,2.672 -0.764,2.43 -1.091,2.184 -1.404,1.932 -1.705,1.675 -1.353,0.959 -0.639,0.453 -2.265,1.146 -2.526,0.872 -2.773,0.595 -3.007,0.312 -3.23,0.023 -9.993,-0.368 -9.993,-0.368 -0.283,-0.01 -0.459,-9.99 -0.458,-9.989 -0.458,-9.99 -0.345,-7.511"
         id="path74"
         inkscape:connector-curvature="0"
         style="fill:none;stroke:#000000;stroke-width:3;stroke-linecap:butt;stroke-linejoin:round;stroke-opacity:1" />
      <path
         d="m 861.377,490.325 -9.99,-0.441 -9.991,-0.44 -9.99,-0.441 -9.99,-0.44 -9.99,-0.441 -9.991,-0.44 -9.99,-0.441 -9.99,-0.441 -4.444,-0.196 -7.854,-0.346 -9.99,-0.44 -9.99,-0.441 -9.99,-0.44 -9.991,-0.441 -9.99,-0.441 -9.99,-0.44 -9.991,-0.441 -9.99,-0.44 -8.483,-0.374 -1.573,2.453 0.572,9.983 0.572,9.984 0.572,9.984 0.571,9.983 0.572,9.984 0.572,9.984 0.572,9.983 0.572,9.984 0.572,9.984 0.571,9.983 0.566,9.884 9.988,0.498 9.988,0.498 9.987,0.499 9.988,0.498 9.987,0.498 9.988,0.499 9.987,0.498 9.988,0.498 8.18,0.408 7.675,0.383 9.987,0.499 9.988,0.498 9.987,0.498 9.988,0.498 9.987,0.499 9.988,0.498 9.988,0.498 9.987,0.499 1.446,0.072 1.033,-2.756 -0.201,-9.998 -0.202,-9.998 -0.201,-9.998 -0.201,-9.998 -0.202,-9.998 -0.201,-9.998 -0.201,-9.998 -0.202,-9.998 -0.201,-9.998 -0.201,-9.998 -0.208,-10.308"
         id="path76"
         inkscape:connector-curvature="0"
         style="fill:none;stroke:#000000;stroke-width:3;stroke-linecap:butt;stroke-linejoin:round;stroke-opacity:1" />
      <path
         d="m 679.179,484.813 9.99,0.442 9.99,0.442 9.991,0.441 9.99,0.442 9.99,0.442 9.99,0.442 9.991,0.442 9.99,0.442 10.155,0.449 7.849,0.347 9.991,0.442 9.99,0.442 9.99,0.442 9.99,0.441 9.991,0.442 9.99,0.442 9.99,0.442 9.99,0.442 3.287,0.145"
         id="path78"
         inkscape:connector-curvature="0"
         style="fill:none;stroke:#000000;stroke-width:3;stroke-linecap:butt;stroke-linejoin:round;stroke-opacity:1" />
      <path
         d="m 862.565,603.369 -0.203,-9.998 -0.204,-9.998 -0.204,-9.998 -0.203,-9.998 -0.204,-9.998 -0.203,-9.998 -0.204,-9.998 -0.204,-9.998 -0.203,-9.998 -0.204,-9.998 -0.215,-10.565 1.063,-2.499"
         id="path80"
         inkscape:connector-curvature="0"
         style="fill:none;stroke:#000000;stroke-width:3;stroke-linecap:butt;stroke-linejoin:round;stroke-opacity:1" />
      <path
         d="m 843.202,303.765 0.684,-1.307 0.864,-1.652 0.108,-0.206"
         id="path84"
         inkscape:connector-curvature="0"
         style="fill:none;stroke:#000000;stroke-width:3;stroke-linecap:butt;stroke-linejoin:round;stroke-opacity:1" />
      <path
         d="m 846.759,458.597 -0.23,-9.998 -0.229,-9.997 -0.23,-9.997 -0.23,-9.998 -0.229,-9.997 -0.23,-9.997 -0.23,-9.998 -0.229,-9.997 -0.23,-9.997 -0.23,-9.998 -0.229,-9.997 -0.23,-9.998 -0.23,-9.997 -0.229,-9.997 -0.23,-9.998 -0.112,-4.871 -9.995,-0.305 -9.996,-0.304 -9.995,-0.305 -9.995,-0.304 -9.996,-0.305 -9.995,-0.304 -9.996,-0.305 -9.995,-0.304 -9.995,-0.305 -9.996,-0.304 -9.995,-0.305 -9.995,-0.304 -9.996,-0.305 -9.995,-0.305 -9.995,-0.304 -9.996,-0.305 -3.072,-0.093"
         id="path86"
         inkscape:connector-curvature="0"
         style="fill:none;stroke:#000000;stroke-width:3;stroke-linecap:butt;stroke-linejoin:round;stroke-opacity:1" />
      <path
         d="m 792.548,902.741 -0.374,-9.993 -0.373,-9.993 -0.373,-9.993 -0.373,-9.993 -0.373,-9.993 -0.373,-9.993 -0.373,-9.993 -0.373,-9.993 -0.373,-9.993 -0.373,-9.993 -0.374,-9.993 -0.373,-9.993 -0.373,-9.993 -0.373,-9.993 -0.373,-9.993 -0.373,-9.993 -0.373,-9.993 -0.078,-2.09 -0.373,-9.993 -0.373,-9.993 -0.373,-9.994 -0.374,-9.993 -0.373,-9.993 -0.373,-9.993 -0.373,-9.993 -0.373,-9.993 -0.373,-9.993 -0.373,-9.993 -0.373,-9.993 -0.373,-9.993 -0.374,-9.993 -0.057,-1.55"
         id="path88"
         inkscape:connector-curvature="0"
         style="fill:none;stroke:#000000;stroke-width:3;stroke-linecap:butt;stroke-linejoin:round;stroke-opacity:1" />
      <path
         d="m 773.544,598.927 0.389,9.993 0.389,9.992 0.39,9.993 0.389,9.992 0.389,9.992 0.389,9.993 0.389,9.992 0.389,9.993 0.389,9.992 0.389,9.993 0.389,9.992 0.389,9.992 0.389,9.993 0.06,1.533 0.389,9.993 0.389,9.992 0.389,9.993 0.389,9.992 0.389,9.993 0.389,9.992 0.389,9.992 0.389,9.993 0.389,9.992 0.389,9.993 0.39,9.992 0.389,9.993 0.389,9.992 0.389,9.992 0.389,9.993 0.389,9.992 0.389,9.993 0.11,2.825"
         id="path90"
         inkscape:connector-curvature="0"
         style="fill:none;stroke:#000000;stroke-width:3;stroke-linecap:butt;stroke-linejoin:round;stroke-opacity:1" />
      <path
         d="m 767.966,455.645 0.389,9.992 0.389,9.993 0.389,9.992 0.024,0.636"
         id="path92"
         inkscape:connector-curvature="0"
         style="fill:none;stroke:#000000;stroke-width:3;stroke-linecap:butt;stroke-linejoin:round;stroke-opacity:1" />
      <path
         d="m 777.011,486.604 -0.373,-9.993 -0.374,-9.993 -0.373,-9.993 -0.025,-0.684"
         id="path94"
         inkscape:connector-curvature="0"
         style="fill:none;stroke:#000000;stroke-width:3;stroke-linecap:butt;stroke-linejoin:round;stroke-opacity:1" />
      <g
         transform="rotate(-12.546714,4564.5182,2561.1335)"
         id="g6488">
        <path
           d="m 1515.5739,-345.48707 -5.6276,-1.9621 4.335,14.40879 2.126,7.07049 -9.681,11.51829 -1.7319,2.05991 5.4649,1.9335 9.6887,-11.51078 9.6901,-11.51227 4.5789,-5.43941 -5.6034,-1.95156 -8.8205,10.72834 -4.1651,-14.45843 -0.2541,-0.88477"
           id="path2-3-3-5"
           inkscape:connector-curvature="0"
           style="fill:none;stroke:#000000;stroke-width:2.62660313;stroke-linecap:butt;stroke-linejoin:round;stroke-miterlimit:4;stroke-dasharray:none;stroke-opacity:1" />
      </g>
    </g>
  </g>
  <g
     id="g9984"
     transform="matrix(1.7899764,0,0,1.7899764,-1485.3554,-1447.7483)">
    <path
       sodipodi:nodetypes="cc"
       inkscape:connector-curvature="0"
       id="path3055-3"
       d="m 1258.733,722.38961 -39.7765,62.77631"
       style="fill:#b3b3b3;fill-opacity:1;stroke:#000003;stroke-width:3;stroke-linecap:butt;stroke-linejoin:miter;stroke-miterlimit:4;stroke-dasharray:none;stroke-dashoffset:0;stroke-opacity:1;marker-start:url(#DotS-3-3);marker-end:url(#marker6569-7-6)" />
    <path
       sodipodi:nodetypes="cc"
       inkscape:connector-curvature="0"
       id="path3055"
       d="m 1258.733,722.38961 -0.902,-126.11239"
       style="fill:#b3b3b3;fill-opacity:1;stroke:#000003;stroke-width:3;stroke-linecap:butt;stroke-linejoin:miter;stroke-miterlimit:4;stroke-dasharray:none;stroke-dashoffset:0;stroke-opacity:1;marker-start:url(#DotM-9);marker-end:url(#marker6569-2)" />
  </g>
  <path
     sodipodi:nodetypes="cc"
     inkscape:connector-curvature="0"
     id="path3055-35"
     d="m 767.747,-154.688 164.32043,3.92599"
     style="fill:#b3b3b3;fill-opacity:1;stroke:#000003;stroke-width:5.36992931;stroke-linecap:butt;stroke-linejoin:miter;stroke-miterlimit:4;stroke-dasharray:none;stroke-dashoffset:0;stroke-opacity:1;marker-start:url(#DotM-9-3);marker-end:url(#marker6569-2-7)" />
</svg>
