<?xml version="1.0" encoding="UTF-8" standalone="no"?>
<svg
   xmlns:dc="http://purl.org/dc/elements/1.1/"
   xmlns:cc="http://creativecommons.org/ns#"
   xmlns:rdf="http://www.w3.org/1999/02/22-rdf-syntax-ns#"
   xmlns:svg="http://www.w3.org/2000/svg"
   xmlns="http://www.w3.org/2000/svg"
   xmlns:sodipodi="http://sodipodi.sourceforge.net/DTD/sodipodi-0.dtd"
   xmlns:inkscape="http://www.inkscape.org/namespaces/inkscape"
   height="540"
   version="1.1"
   width="960"
   id="svg98"
   sodipodi:docname="OSI_SupplementarySign.svg"
   inkscape:version="0.92.1 r15371"
   viewBox="0 0 1920 0.01">
  <metadata
     id="metadata104">
    <rdf:RDF>
      <cc:Work
         rdf:about="">
        <dc:format>image/svg+xml</dc:format>
        <dc:type
           rdf:resource="http://purl.org/dc/dcmitype/StillImage" />
        <dc:title />
      </cc:Work>
    </rdf:RDF>
  </metadata>
  <defs
     id="defs102">
    <marker
       inkscape:stockid="DotS"
       orient="auto"
       refY="0"
       refX="0"
       id="DotS-5"
       style="overflow:visible"
       inkscape:isstock="true">
      <path
         inkscape:connector-curvature="0"
         id="path5815-62"
         d="m -2.5,-1 c 0,2.76 -2.24,5 -5,5 -2.76,0 -5,-2.24 -5,-5 0,-2.76 2.24,-5 5,-5 2.76,0 5,2.24 5,5 z"
         style="fill:#b3b3b3;fill-opacity:1;fill-rule:evenodd;stroke:#000003;stroke-width:1.00000003pt;stroke-opacity:1"
         transform="matrix(0.2,0,0,0.2,1.48,0.2)" />
    </marker>
    <marker
       inkscape:stockid="Arrow2Mend"
       orient="auto"
       refY="0"
       refX="0"
       id="marker6569-9"
       style="overflow:visible"
       inkscape:isstock="true">
      <path
         inkscape:connector-curvature="0"
         id="path6567-1"
         style="fill:#b3b3b3;fill-opacity:1;fill-rule:evenodd;stroke:#000003;stroke-width:0.625;stroke-linejoin:round;stroke-opacity:1"
         d="M 8.7185878,4.0337352 -2.2072895,0.01601326 8.7185884,-4.0017078 c -1.7454984,2.3720609 -1.7354408,5.6174519 -6e-7,8.035443 z"
         transform="scale(-0.6)" />
    </marker>
    <marker
       inkscape:stockid="DotS"
       orient="auto"
       refY="0"
       refX="0"
       id="DotS-3"
       style="overflow:visible"
       inkscape:isstock="true">
      <path
         inkscape:connector-curvature="0"
         id="path5815-6"
         d="m -2.5,-1 c 0,2.76 -2.24,5 -5,5 -2.76,0 -5,-2.24 -5,-5 0,-2.76 2.24,-5 5,-5 2.76,0 5,2.24 5,5 z"
         style="fill:#b3b3b3;fill-opacity:1;fill-rule:evenodd;stroke:#000003;stroke-width:1.00000003pt;stroke-opacity:1"
         transform="matrix(0.2,0,0,0.2,1.48,0.2)" />
    </marker>
    <marker
       inkscape:stockid="Arrow2Mend"
       orient="auto"
       refY="0"
       refX="0"
       id="marker6569-7"
       style="overflow:visible"
       inkscape:isstock="true">
      <path
         inkscape:connector-curvature="0"
         id="path6567-5"
         style="fill:#b3b3b3;fill-opacity:1;fill-rule:evenodd;stroke:#000003;stroke-width:0.625;stroke-linejoin:round;stroke-opacity:1"
         d="M 8.7185878,4.0337352 -2.2072895,0.01601326 8.7185884,-4.0017078 c -1.7454984,2.3720609 -1.7354408,5.6174519 -6e-7,8.035443 z"
         transform="scale(-0.6)" />
    </marker>
    <marker
       inkscape:stockid="DotM"
       orient="auto"
       refY="0"
       refX="0"
       id="DotM"
       style="overflow:visible"
       inkscape:isstock="true">
      <path
         inkscape:connector-curvature="0"
         id="path5812"
         d="m -2.5,-1 c 0,2.76 -2.24,5 -5,5 -2.76,0 -5,-2.24 -5,-5 0,-2.76 2.24,-5 5,-5 2.76,0 5,2.24 5,5 z"
         style="fill:#b3b3b3;fill-opacity:1;fill-rule:evenodd;stroke:#000003;stroke-width:1.00000003pt;stroke-opacity:1"
         transform="matrix(0.4,0,0,0.4,2.96,0.4)" />
    </marker>
    <marker
       inkscape:stockid="Arrow2Mend"
       orient="auto"
       refY="0"
       refX="0"
       id="marker6569"
       style="overflow:visible"
       inkscape:isstock="true">
      <path
         inkscape:connector-curvature="0"
         id="path6567"
         style="fill:#b3b3b3;fill-opacity:1;fill-rule:evenodd;stroke:#000003;stroke-width:0.625;stroke-linejoin:round;stroke-opacity:1"
         d="M 8.7185878,4.0337352 -2.2072895,0.01601326 8.7185884,-4.0017078 c -1.7454984,2.3720609 -1.7354408,5.6174519 -6e-7,8.035443 z"
         transform="scale(-0.6)" />
    </marker>
    <marker
       inkscape:stockid="DotS"
       orient="auto"
       refY="0"
       refX="0"
       id="DotS-5-3"
       style="overflow:visible"
       inkscape:isstock="true">
      <path
         inkscape:connector-curvature="0"
         id="path5815-62-6"
         d="m -2.5,-1 c 0,2.76 -2.24,5 -5,5 -2.76,0 -5,-2.24 -5,-5 0,-2.76 2.24,-5 5,-5 2.76,0 5,2.24 5,5 z"
         style="fill:#b3b3b3;fill-opacity:1;fill-rule:evenodd;stroke:#000003;stroke-width:1.00000003pt;stroke-opacity:1"
         transform="matrix(0.2,0,0,0.2,1.48,0.2)" />
    </marker>
    <marker
       inkscape:stockid="Arrow2Mend"
       orient="auto"
       refY="0"
       refX="0"
       id="marker6569-9-7"
       style="overflow:visible"
       inkscape:isstock="true">
      <path
         inkscape:connector-curvature="0"
         id="path6567-1-5"
         style="fill:#b3b3b3;fill-opacity:1;fill-rule:evenodd;stroke:#000003;stroke-width:0.625;stroke-linejoin:round;stroke-opacity:1"
         d="M 8.7185878,4.0337352 -2.2072895,0.01601326 8.7185884,-4.0017078 c -1.7454984,2.3720609 -1.7354408,5.6174519 -6e-7,8.035443 z"
         transform="scale(-0.6)" />
    </marker>
    <marker
       inkscape:stockid="DotS"
       orient="auto"
       refY="0"
       refX="0"
       id="DotS-3-3"
       style="overflow:visible"
       inkscape:isstock="true">
      <path
         inkscape:connector-curvature="0"
         id="path5815-6-5"
         d="m -2.5,-1 c 0,2.76 -2.24,5 -5,5 -2.76,0 -5,-2.24 -5,-5 0,-2.76 2.24,-5 5,-5 2.76,0 5,2.24 5,5 z"
         style="fill:#b3b3b3;fill-opacity:1;fill-rule:evenodd;stroke:#000003;stroke-width:1.00000003pt;stroke-opacity:1"
         transform="matrix(0.2,0,0,0.2,1.48,0.2)" />
    </marker>
    <marker
       inkscape:stockid="Arrow2Mend"
       orient="auto"
       refY="0"
       refX="0"
       id="marker6569-7-6"
       style="overflow:visible"
       inkscape:isstock="true">
      <path
         inkscape:connector-curvature="0"
         id="path6567-5-2"
         style="fill:#b3b3b3;fill-opacity:1;fill-rule:evenodd;stroke:#000003;stroke-width:0.625;stroke-linejoin:round;stroke-opacity:1"
         d="M 8.7185878,4.0337352 -2.2072895,0.01601326 8.7185884,-4.0017078 c -1.7454984,2.3720609 -1.7354408,5.6174519 -6e-7,8.035443 z"
         transform="scale(-0.6)" />
    </marker>
    <marker
       inkscape:stockid="DotM"
       orient="auto"
       refY="0"
       refX="0"
       id="DotM-9"
       style="overflow:visible"
       inkscape:isstock="true">
      <path
         inkscape:connector-curvature="0"
         id="path5812-1"
         d="m -2.5,-1 c 0,2.76 -2.24,5 -5,5 -2.76,0 -5,-2.24 -5,-5 0,-2.76 2.24,-5 5,-5 2.76,0 5,2.24 5,5 z"
         style="fill:#b3b3b3;fill-opacity:1;fill-rule:evenodd;stroke:#000003;stroke-width:1.00000003pt;stroke-opacity:1"
         transform="matrix(0.4,0,0,0.4,2.96,0.4)" />
    </marker>
    <marker
       inkscape:stockid="Arrow2Mend"
       orient="auto"
       refY="0"
       refX="0"
       id="marker6569-2"
       style="overflow:visible"
       inkscape:isstock="true">
      <path
         inkscape:connector-curvature="0"
         id="path6567-7"
         style="fill:#b3b3b3;fill-opacity:1;fill-rule:evenodd;stroke:#000003;stroke-width:0.625;stroke-linejoin:round;stroke-opacity:1"
         d="M 8.7185878,4.0337352 -2.2072895,0.01601326 8.7185884,-4.0017078 c -1.7454984,2.3720609 -1.7354408,5.6174519 -6e-7,8.035443 z"
         transform="scale(-0.6)" />
    </marker>
    <marker
       inkscape:stockid="DotM"
       orient="auto"
       refY="0"
       refX="0"
       id="DotM-9-3"
       style="overflow:visible"
       inkscape:isstock="true">
      <path
         inkscape:connector-curvature="0"
         id="path5812-1-6"
         d="m -2.5,-1 c 0,2.76 -2.24,5 -5,5 -2.76,0 -5,-2.24 -5,-5 0,-2.76 2.24,-5 5,-5 2.76,0 5,2.24 5,5 z"
         style="fill:#b3b3b3;fill-opacity:1;fill-rule:evenodd;stroke:#000003;stroke-width:1.00000003pt;stroke-opacity:1"
         transform="matrix(0.4,0,0,0.4,2.96,0.4)" />
    </marker>
    <marker
       inkscape:stockid="Arrow2Mend"
       orient="auto"
       refY="0"
       refX="0"
       id="marker6569-2-7"
       style="overflow:visible"
       inkscape:isstock="true">
      <path
         inkscape:connector-curvature="0"
         id="path6567-7-5"
         style="fill:#b3b3b3;fill-opacity:1;fill-rule:evenodd;stroke:#000003;stroke-width:0.625;stroke-linejoin:round;stroke-opacity:1"
         d="M 8.7185878,4.0337352 -2.2072895,0.01601326 8.7185884,-4.0017078 c -1.7454984,2.3720609 -1.7354408,5.6174519 -6e-7,8.035443 z"
         transform="scale(-0.6)" />
    </marker>
  </defs>
  <sodipodi:namedview
     pagecolor="#ffffff"
     bordercolor="#666666"
     borderopacity="1"
     objecttolerance="10"
     gridtolerance="10"
     guidetolerance="10"
     inkscape:pageopacity="0"
     inkscape:pageshadow="2"
     inkscape:window-width="1920"
     inkscape:window-height="981"
     id="namedview100"
     showgrid="false"
     inkscape:zoom="0.84583335"
     inkscape:cx="432.7367"
     inkscape:cy="235.07264"
     inkscape:window-x="1920"
     inkscape:window-y="28"
     inkscape:window-maximized="1"
     inkscape:current-layer="strokes" />
  <g
     id="RenderLayer_LineSet"
     inkscape:label="RenderLayer_LineSet"
     transform="translate(0,-540)">
    <g
       id="strokes"
       inkscape:groupmode="layer"
       inkscape:label="strokes">
      <path
         d="m 844.858,300.6 -9.995,-0.303 -9.995,-0.303 -9.996,-0.303 -9.995,-0.303 -9.996,-0.303 -9.995,-0.303 -9.995,-0.303 -9.996,-0.304 -9.995,-0.303 -9.996,-0.303 -9.995,-0.303 -9.996,-0.303 -9.995,-0.303 -9.995,-0.303 -9.996,-0.303 -9.995,-0.303 -2.323,-0.071 -0.157,0.204 -1.255,1.627 -0.993,1.288 0.549,9.985 0.549,9.985 0.549,9.985 0.549,9.985 0.549,9.984 0.549,9.985 0.549,9.985 0.549,9.985 0.549,9.985 0.549,9.985 0.549,9.985 0.549,9.985 0.549,9.985 0.549,9.985 0.549,9.985 0.225,4.101 9.993,0.374 9.993,0.375 9.993,0.374 9.993,0.374 9.993,0.375 9.993,0.374 9.993,0.375 9.351,0.35 7.9,0.296 9.993,0.374 9.993,0.375 9.993,0.374 9.993,0.374 9.993,0.375 9.993,0.374 9.993,0.375 0.942,0.035 0.657,-1.559 0.829,-1.969 0.104,-0.246 -0.226,-9.998 -0.227,-9.997 -0.226,-9.998 -0.226,-9.997 -0.226,-9.998 -0.227,-9.997 -0.226,-9.998 -0.226,-9.997 -0.227,-9.997 -0.226,-9.998 -0.226,-9.997 -0.226,-9.998 -0.227,-9.997 -0.226,-9.998 -0.226,-9.997 -0.097,-4.261"
         id="path82"
         style="fill:none;fill-opacity:1;stroke:#000000;stroke-width:3;stroke-linecap:butt;stroke-linejoin:round;stroke-opacity:1"
         inkscape:connector-curvature="0" />
      <path
         d="m 835.3617,253.72787 -9.998,-0.232 -9.997,-0.233 -3.61,-0.084 0.092,4.979 9.998,0.235 4.034,0.095 -5.343,8.453 -5.343,8.452 -3.534,5.592 9.997,0.247 9.997,0.246 4.16,0.102 -0.069,-4.941 -9.997,-0.243 -4.737,-0.116 5.368,-8.437 5.368,-8.436 3.614,-5.679"
         id="path28"
         inkscape:connector-curvature="0"
         style="fill:none;stroke:#000000;stroke-width:3;stroke-linecap:butt;stroke-linejoin:round;stroke-opacity:1" />
      <path
         d="m 664.703,598.99814 -5.323,-0.201 0.6,9.982 0.6,9.982 0.601,9.982 0.55,9.153 5.283,0.21 -0.59,-9.982 -0.59,-9.983 -0.59,-9.982 -0.541,-9.161"
         id="path30"
         inkscape:connector-curvature="0"
         style="fill:none;stroke:#000000;stroke-width:3;stroke-linecap:butt;stroke-linejoin:round;stroke-opacity:1" />
      <path
         d="m 643.134,611.10614 -1.333,-0.107 -0.946,-0.012 -0.904,0.037 -0.861,0.087 -0.82,0.136 -0.779,0.187 -0.738,0.237 -0.697,0.287 -0.657,0.339 -0.617,0.388 -0.579,0.44 -0.539,0.491 -0.5,0.542 0.364,5.555 0.601,-0.671 0.621,-0.605 0.64,-0.54 0.657,-0.475 0.671,-0.413 0.685,-0.35 0.696,-0.289 0.706,-0.23 0.714,-0.17 0.721,-0.112 0.725,-0.055 h 0.728 l 0.771,0.058 0.708,0.112 0.645,0.168 0.582,0.227 0.519,0.287 0.456,0.349 0.393,0.413 0.331,0.48 0.268,0.548 0.205,0.617 0.144,0.69 0.081,0.764 0.087,1.373 -4.592,1.418 -1.054,0.332 -1.055,0.347 -1.039,0.374 -1.002,0.413 -0.947,0.467 -0.872,0.532 -0.778,0.61 -0.665,0.701 -0.532,0.804 -0.38,0.922 -0.209,1.05 -0.018,1.192 0.107,0.819 0.21,0.8 0.307,0.77 0.399,0.734 0.486,0.685 0.569,0.63 0.645,0.564 0.716,0.489 0.784,0.405 0.844,0.312 0.902,0.21 0.953,0.098 0.605,0.006 0.603,-0.029 0.6,-0.065 0.597,-0.102 0.593,-0.138 0.588,-0.174 0.583,-0.211 0.579,-0.249 0.573,-0.285 0.567,-0.324 0.56,-0.361 0.554,-0.398 0.162,0.439 0.192,0.398 0.225,0.359 0.256,0.32 0.291,0.282 0.325,0.245 0.361,0.208 0.398,0.173 0.437,0.138 0.475,0.104 0.515,0.071 0.557,0.039 0.402,0.006 0.381,-0.015 0.366,-0.04 0.36,-0.065 0.359,-0.093 0.367,-0.122 0.38,-0.154 0.402,-0.187 0.43,-0.222 0.465,-0.259 0.508,-0.298 0.558,-0.339 -0.188,-3.074 -0.282,0.194 -0.276,0.181 -0.269,0.165 -0.261,0.149 -0.251,0.133 -0.239,0.117 -0.228,0.099 -0.213,0.081 -0.198,0.063 -0.182,0.044 -0.163,0.025 -0.144,0.005 -0.157,-0.013 -0.146,-0.029 -0.134,-0.044 -0.122,-0.06 -0.11,-0.079 -0.098,-0.096 -0.085,-0.117 -0.073,-0.137 -0.061,-0.159 -0.047,-0.181 -0.035,-0.205 -0.021,-0.23 -0.618,-9.981 -0.199,-3.213 -0.174,-1.397 -0.333,-1.273 -0.482,-1.15 -0.62,-1.028 -0.747,-0.908 -0.864,-0.789 -0.969,-0.672 -1.064,-0.555 -1.147,-0.441 -1.22,-0.328 -1.282,-0.216"
         id="path32"
         inkscape:connector-curvature="0"
         style="fill:none;stroke:#000000;stroke-width:3;stroke-linecap:butt;stroke-linejoin:round;stroke-opacity:1" />
      <path
         d="m 645.968,625.01914 1.091,-0.328 0.471,7.474 -0.339,0.302 -0.345,0.28 -0.351,0.256 -0.357,0.232 -0.364,0.206 -0.371,0.18 -0.377,0.152 -0.384,0.124 -0.39,0.095 -0.398,0.063 -0.404,0.033 h -0.412 l -0.537,-0.052 -0.513,-0.109 -0.484,-0.163 -0.453,-0.215 -0.417,-0.264 -0.379,-0.308 -0.335,-0.351 -0.289,-0.389 -0.239,-0.426 -0.184,-0.458 -0.128,-0.488 -0.066,-0.515 0.033,-0.721 0.188,-0.656 0.332,-0.597 0.463,-0.545 0.584,-0.497 0.691,-0.456 0.788,-0.42 0.872,-0.39 0.944,-0.366 1.005,-0.348 1.054,-0.335"
         id="path34"
         inkscape:connector-curvature="0"
         style="fill:none;stroke:#000000;stroke-width:3;stroke-linecap:butt;stroke-linejoin:round;stroke-opacity:1" />
      <path
         d="m 602.469,609.51714 -0.835,-0.066 -0.622,0.003 -0.621,0.055 -0.621,0.108 -0.62,0.162 -0.62,0.216 -0.621,0.27 -0.622,0.325 -0.622,0.38 -0.625,0.436 -0.626,0.491 -0.628,0.547 -0.632,0.603 -0.248,-3.379 -5.271,-0.203 0.742,9.972 0.743,9.973 0.421,5.65 5.245,0.209 -0.732,-9.973 -0.631,-8.588 0.497,-0.56 0.489,-0.494 0.486,-0.431 0.486,-0.371 0.492,-0.315 0.501,-0.259 0.514,-0.209 0.533,-0.159 0.555,-0.113 0.581,-0.07 0.612,-0.03 0.648,0.008 0.645,0.062 0.626,0.137 0.603,0.215 0.573,0.294 0.537,0.374 0.494,0.458 0.446,0.543 0.392,0.629 0.332,0.717 0.266,0.809 0.194,0.9 0.115,0.995 0.709,9.975 0.42,5.909 5.254,0.21 -0.699,-9.976 -0.602,-8.599 0.45,-0.443 0.465,-0.42 0.478,-0.393 0.486,-0.363 0.493,-0.33 0.494,-0.293 0.494,-0.253 0.49,-0.209 0.483,-0.161 0.472,-0.111 0.458,-0.057 0.44,10e-4 0.748,0.073 0.724,0.159 0.694,0.243 0.658,0.326 0.614,0.408 0.563,0.488 0.505,0.567 0.441,0.644 0.369,0.719 0.291,0.793 0.207,0.866 0.114,0.936 0.676,9.978 0.397,5.861 5.263,0.21 -0.666,-9.978 -0.407,-6.093 -0.169,-1.474 -0.301,-1.388 -0.428,-1.295 -0.549,-1.193 -0.665,-1.086 -0.774,-0.971 -0.879,-0.849 -0.978,-0.72 -1.071,-0.584 -1.158,-0.441 -1.239,-0.29 -1.316,-0.133 -0.926,0.007 -0.881,0.092 -0.837,0.169 -0.795,0.242 -0.757,0.307 -0.719,0.366 -0.684,0.421 -0.652,0.468 -0.622,0.51 -0.594,0.545 -0.568,0.574 -0.545,0.598 -0.516,-0.747 -0.553,-0.688 -0.589,-0.629 -0.621,-0.57 -0.654,-0.508 -0.684,-0.448 -0.713,-0.385 -0.74,-0.323 -0.766,-0.259 -0.791,-0.195 -0.813,-0.131"
         id="path36"
         inkscape:connector-curvature="0"
         style="fill:none;stroke:#000000;stroke-width:3;stroke-linecap:butt;stroke-linejoin:round;stroke-opacity:1" />
      <path
         d="m 579.361,608.61414 -0.532,-0.041 -0.619,0.016 -0.616,0.097 -0.612,0.181 -0.609,0.267 -0.604,0.356 -0.602,0.447 -0.597,0.542 -0.594,0.638 -0.589,0.737 -0.586,0.838 -0.582,0.942 -0.579,1.048 -0.118,-0.004 -0.459,-5.891 -5.26,-0.202 0.788,9.968 0.788,9.969 0.445,5.633 5.233,0.208 -0.777,-9.969 -0.264,-3.384 -0.026,-1.074 0.088,-1.024 0.196,-0.964 0.299,-0.896 0.393,-0.819 0.482,-0.733 0.564,-0.639 0.64,-0.536 0.71,-0.425 0.772,-0.304 0.829,-0.174 0.879,-0.037 0.328,0.033 0.362,0.076 0.389,0.116 0.414,0.153 0.433,0.19 0.447,0.222 0.457,0.254 0.462,0.282 0.462,0.31 0.458,0.334 0.449,0.357 0.436,0.378 2.447,-4.295 -0.58,-0.501 -0.57,-0.457 -0.562,-0.415 -0.555,-0.372 -0.548,-0.33 -0.542,-0.289 -0.538,-0.246 -0.535,-0.204 -0.533,-0.164 -0.531,-0.122 -0.531,-0.081"
         id="path38"
         inkscape:connector-curvature="0"
         style="fill:none;stroke:#000000;stroke-width:3;stroke-linecap:butt;stroke-linejoin:round;stroke-opacity:1" />
      <path
         d="m 547.259,607.46814 -2.038,-0.19 -1.925,0.042 -1.814,0.27 -1.691,0.484 -1.554,0.684 -1.402,0.871 -1.238,1.044 -1.059,1.203 -0.869,1.348 -0.663,1.48 -0.445,1.598 -0.214,1.702 0.031,1.794 0.284,1.919 0.504,1.824 0.712,1.717 0.906,1.599 1.086,1.466 1.255,1.322 1.408,1.165 1.549,0.997 1.678,0.814 1.792,0.621 1.895,0.414 1.983,0.194 2.046,-0.029 1.908,-0.251 1.759,-0.464 1.6,-0.666 1.432,-0.86 1.253,-1.045 1.064,-1.22 0.864,-1.386 0.654,-1.544 0.434,-1.691 0.204,-1.83 -0.038,-1.96 -0.272,-1.853 -0.501,-1.764 -0.717,-1.663 -0.92,-1.548 -1.108,-1.423 -1.284,-1.283 -1.444,-1.132 -1.591,-0.969 -1.724,-0.793 -1.842,-0.604 -1.948,-0.404"
         id="path40"
         inkscape:connector-curvature="0"
         style="fill:none;stroke:#000000;stroke-width:3;stroke-linecap:butt;stroke-linejoin:round;stroke-opacity:1" />
      <path
         d="m 544.341,611.87514 1.201,-0.027 1.285,0.123 1.228,0.263 1.161,0.394 1.087,0.517 1.002,0.633 0.911,0.74 0.809,0.839 0.7,0.929 0.581,1.013 0.455,1.087 0.319,1.153 0.176,1.212 0.037,1.332 -0.11,1.235 -0.253,1.131 -0.391,1.025 -0.524,0.914 -0.653,0.798 -0.777,0.679 -0.897,0.554 -1.012,0.427 -1.122,0.295 -1.229,0.158 -1.33,0.017 -1.234,-0.122 -1.174,-0.262 -1.106,-0.395 -1.031,-0.523 -0.95,-0.643 -0.861,-0.759 -0.766,-0.866 -0.663,-0.969 -0.553,-1.064 -0.437,-1.154 -0.313,-1.237 -0.183,-1.315 -0.028,-1.192 0.119,-1.124 0.259,-1.05 0.392,-0.966 0.518,-0.876 0.637,-0.778 0.748,-0.672 0.854,-0.558 0.951,-0.437 1.042,-0.308 1.125,-0.171"
         id="path42"
         inkscape:connector-curvature="0"
         style="fill:none;stroke:#000000;stroke-width:3;stroke-linecap:butt;stroke-linejoin:round;stroke-opacity:1" />
      <path
         d="m 490.974,592.41614 -4.585,-0.174 0.942,9.956 0.942,9.955 0.942,9.956 0.847,8.948 5.368,0.214 -0.932,-9.956 -0.931,-9.957 -0.928,-9.92 6.898,7.24 6.898,7.239 6.899,7.24 6.898,7.24 1.845,1.936 4.917,0.196 -0.869,-9.963 -0.869,-9.962 -0.869,-9.962 -0.784,-8.99 -5.426,-0.205 0.879,9.961 0.88,9.961 0.903,10.221 -6.918,-7.221 -6.918,-7.221 -6.918,-7.221 -6.917,-7.221 -2.194,-2.29"
         id="path44"
         inkscape:connector-curvature="0"
         style="fill:none;stroke:#000000;stroke-width:3;stroke-linecap:butt;stroke-linejoin:round;stroke-opacity:1" />
      <path
         d="m 430.602,603.37114 -5.536,-0.213 4.784,8.781 4.784,8.782 4.808,8.825 1.625,0.065 3.17,-9.485 2.665,-7.971 4.675,8.84 4.675,8.84 0.206,0.389 1.627,0.065 3.311,-9.436 3.311,-9.436 2.331,-6.641 -5.556,-0.214 -3.281,9.446 -1.993,5.739 -4.638,-8.859 -3.584,-6.846 -3.853,-0.149 -3.149,9.492 -1.887,5.689 -4.758,-8.795 -3.737,-6.908"
         id="path46"
         inkscape:connector-curvature="0"
         style="fill:none;stroke:#000000;stroke-width:3;stroke-linecap:butt;stroke-linejoin:round;stroke-opacity:1" />
      <path
         d="m 413.426,602.29514 -1.688,-0.161 -1.744,0.04 -1.619,0.252 -1.485,0.456 -1.342,0.649 -1.19,0.834 -1.031,1.009 -0.862,1.176 -0.686,1.332 -0.499,1.48 -0.306,1.617 -0.103,1.747 0.107,1.866 0.289,1.743 0.469,1.706 0.643,1.65 0.812,1.572 0.976,1.474 1.132,1.356 1.285,1.216 1.432,1.056 1.573,0.875 1.708,0.674 1.84,0.452 1.964,0.21 1.067,0.022 1.003,-0.02 0.946,-0.063 0.897,-0.105 0.852,-0.149 0.816,-0.192 0.784,-0.235 0.759,-0.279 0.742,-0.322 0.73,-0.366 0.724,-0.41 0.725,-0.454 -0.522,-4.853 -0.703,0.433 -0.705,0.4 -0.709,0.364 -0.711,0.328 -0.717,0.29 -0.722,0.251 -0.729,0.21 -0.737,0.17 -0.745,0.127 -0.754,0.083 -0.765,0.039 -0.776,-0.008 -1.209,-0.101 -1.137,-0.206 -1.062,-0.309 -0.989,-0.412 -0.914,-0.515 -0.839,-0.616 -0.765,-0.718 -0.689,-0.819 -0.612,-0.919 -0.536,-1.018 -0.46,-1.118 -0.381,-1.217 9.992,0.392 8.346,0.328 -0.333,-2.253 -0.489,-2.062 -0.638,-1.871 -0.782,-1.68 -0.919,-1.489 -1.048,-1.298 -1.173,-1.108 -1.288,-0.918 -1.399,-0.727 -1.502,-0.539 -1.599,-0.349"
         id="path48"
         inkscape:connector-curvature="0"
         style="fill:none;stroke:#000000;stroke-width:3;stroke-linecap:butt;stroke-linejoin:round;stroke-opacity:1" />
      <path
         d="m 411.384,606.52514 0.95,-0.01 0.892,0.084 0.842,0.181 0.789,0.272 0.734,0.362 0.675,0.446 0.615,0.527 0.55,0.605 0.483,0.678 0.414,0.749 0.341,0.815 0.266,0.877 0.188,0.937 -9.992,-0.391 -3.128,-0.122 0.101,-0.96 0.18,-0.883 0.257,-0.804 0.335,-0.723 0.413,-0.64 0.49,-0.555 0.568,-0.469 0.644,-0.381 0.721,-0.291 0.798,-0.199 0.874,-0.105"
         id="path50"
         inkscape:connector-curvature="0"
         style="fill:none;stroke:#000000;stroke-width:3;stroke-linecap:butt;stroke-linejoin:round;stroke-opacity:1" />
      <path
         d="m 390.066,591.12114 -0.418,-0.043 -0.412,0.012 -0.39,0.066 -0.364,0.116 -0.336,0.163 -0.303,0.206 -0.267,0.245 -0.229,0.282 -0.186,0.313 -0.139,0.342 -0.091,0.366 -0.038,0.388 0.018,0.406 0.075,0.407 0.128,0.394 0.175,0.377 0.22,0.355 0.259,0.33 0.295,0.3 0.326,0.268 0.352,0.23 0.376,0.19 0.393,0.145 0.408,0.096 0.418,0.044 0.411,-0.012 0.39,-0.066 0.364,-0.116 0.335,-0.162 0.303,-0.206 0.268,-0.244 0.228,-0.281 0.187,-0.313 0.14,-0.341 0.091,-0.367 0.038,-0.388 -0.017,-0.405 -0.075,-0.408 -0.127,-0.394 -0.175,-0.377 -0.22,-0.356 -0.259,-0.33 -0.295,-0.301 -0.326,-0.268 -0.353,-0.231 -0.376,-0.19 -0.394,-0.145 -0.408,-0.097"
         id="path52"
         inkscape:connector-curvature="0"
         style="fill:none;stroke:#000000;stroke-width:3;stroke-linecap:butt;stroke-linejoin:round;stroke-opacity:1" />
      <path
         d="m 393.428,601.93814 -5.166,-0.199 1.137,9.935 1.137,9.935 0.631,5.509 5.141,0.204 -1.127,-9.936 -1.127,-9.936 -0.626,-5.512"
         id="path54"
         inkscape:connector-curvature="0"
         style="fill:none;stroke:#000000;stroke-width:3;stroke-linecap:butt;stroke-linejoin:round;stroke-opacity:1" />
      <path
         d="m 353.575,587.21014 -5.681,-0.216 4.812,8.766 4.812,8.766 4.812,8.767 4.812,8.766 2.491,4.536 1.152,0.046 3.029,-9.53 3.028,-9.531 3.028,-9.53 3.091,-9.727 -5.64,-0.214 -3.07,9.517 -3.07,9.518 -2.484,7.701 -4.801,-8.773 -4.8,-8.772 -4.8,-8.773 -0.721,-1.317"
         id="path56"
         inkscape:connector-curvature="0"
         style="fill:none;stroke:#000000;stroke-width:3;stroke-linecap:butt;stroke-linejoin:round;stroke-opacity:1" />
      <path
         d="m 332.442,609.83014 -9.992,-0.391 -3.991,-0.156 0.674,5.24 9.992,0.394 3.977,0.156 -0.66,-5.243"
         id="path58"
         inkscape:connector-curvature="0"
         style="fill:none;stroke:#000000;stroke-width:3;stroke-linecap:butt;stroke-linejoin:round;stroke-opacity:1" />
      <path
         d="m 276.541,597.43114 -6.424,-0.248 6.973,7.167 5.564,5.718 -5.907,8.069 -3.146,4.297 6.393,0.255 5.9,-8.075 0.477,-0.653 7.044,7.098 2.238,2.254 6.522,0.26 -7.016,-7.126 -6.032,-6.125 5.962,-8.029 2.994,-4.031 -6.554,-0.253 -5.919,8.06 -0.259,0.351 -6.999,-7.142 -1.811,-1.847"
         id="path60"
         inkscape:connector-curvature="0"
         style="fill:none;stroke:#000000;stroke-width:3;stroke-linecap:butt;stroke-linejoin:round;stroke-opacity:1" />
      <path
         d="m 778.662,730.362 -9.985,-0.544 -9.985,-0.545 -9.986,-0.545 -9.985,-0.544 -9.985,-0.545 -9.985,-0.545 -9.985,-0.544 -9.985,-0.545 -9.986,-0.545 -9.985,-0.545 -9.985,-0.544 -9.985,-0.545 -1.763,-0.096 -9.985,-0.545 -9.985,-0.544 -9.985,-0.545 -9.985,-0.545 -9.985,-0.544 -9.986,-0.545 -9.985,-0.545 -9.985,-0.545 -9.985,-0.544 -9.985,-0.545 -9.985,-0.545 -9.986,-0.544 -9.985,-0.545 -9.985,-0.545 -9.985,-0.544 -9.985,-0.545 -9.985,-0.545 -9.985,-0.544 -9.986,-0.545 -9.985,-0.545 -9.985,-0.545 -9.985,-0.544 -9.985,-0.545 -9.985,-0.545 -9.986,-0.544 -9.985,-0.545 -9.985,-0.545 -9.985,-0.544 -9.985,-0.545 -9.985,-0.545 -9.985,-0.544 -9.986,-0.545 -9.985,-0.545 -9.985,-0.544 -9.985,-0.545 -9.985,-0.545 -9.985,-0.545 -9.986,-0.544 -9.985,-0.545 -9.985,-0.545 -9.985,-0.544 -9.985,-0.545 -9.985,-0.545 -9.985,-0.544 -9.986,-0.545 -9.985,-0.545 -9.985,-0.544 -9.985,-0.545 -9.985,-0.545 -9.985,-0.545 -14.782,-0.806 -9.985,-0.545 -9.985,-0.544 -9.986,-0.545 -9.985,-0.545 -9.985,-0.544 -9.985,-0.545 -9.985,-0.545 -9.985,-0.544 -9.986,-0.545 -9.985,-0.545 -9.985,-0.544 -9.985,-0.545 -9.985,-0.545 -9.985,-0.544 -9.985,-0.545 -9.986,-0.545 -9.985,-0.545 -9.985,-0.544 -9.985,-0.545 -9.985,-0.545 -9.985,-0.544 -9.986,-0.545 -9.985,-0.545 -9.985,-0.544 -9.985,-0.545 -9.985,-0.545 -9.985,-0.544 -9.985,-0.545 -9.986,-0.545 -9.985,-0.545 -9.985,-0.544 -9.985,-0.545 -9.985,-0.545 -9.985,-0.544 -9.986,-0.545 -9.985,-0.545 -9.985,-0.544 -9.985,-0.545 -9.985,-0.545 -9.985,-0.544 -9.986,-0.545 -9.985,-0.545 -9.985,-0.544 -9.985,-0.545 -9.985,-0.545 -9.985,-0.545 -9.985,-0.544 -9.986,-0.545 -9.047,-0.493"
         id="path62"
         inkscape:connector-curvature="0"
         style="fill:none;stroke:#000000;stroke-width:3;stroke-linecap:butt;stroke-linejoin:round;stroke-opacity:1" />
      <path
         d="m 1543.827,1131.672 -9.975,-0.716 -9.974,-0.715 -9.975,-0.715 -9.974,-0.716 -9.974,-0.715 -9.975,-0.716 -9.974,-0.715 -9.975,-0.716 -9.974,-0.715 -9.974,-0.716 -9.975,-0.715 -9.974,-0.715 -9.974,-0.716 -9.975,-0.715 -9.974,-0.716 -9.974,-0.715 -9.975,-0.716 -9.974,-0.715 -9.975,-0.715 -9.974,-0.716 -9.974,-0.715 -9.975,-0.716 -9.974,-0.715 -9.974,-0.716 -9.975,-0.715 -9.974,-0.716 -9.975,-0.715 -9.974,-0.715 -9.974,-0.716 -9.975,-0.715 -9.974,-0.716 -9.975,-0.715 -9.974,-0.716 -9.974,-0.715 -9.975,-0.716 -9.974,-0.715 -9.974,-0.715 -9.975,-0.716 -9.974,-0.715 -9.974,-0.716 -9.975,-0.715 -9.974,-0.716 -9.975,-0.715 -9.974,-0.716 -9.974,-0.715 -9.975,-0.715 -9.974,-0.716 -9.974,-0.715 -9.975,-0.716 -9.974,-0.715 -9.975,-0.716 -9.974,-0.715 -9.974,-0.716 -9.975,-0.715 -9.974,-0.715 -9.974,-0.716 -9.975,-0.715 -9.974,-0.716 -9.975,-0.715 -9.974,-0.716 -9.974,-0.715 -9.975,-0.716 -9.974,-0.715 -9.974,-0.715 -9.975,-0.716 -9.974,-0.715 -9.975,-0.716 -9.974,-0.715 -9.974,-0.716 -9.975,-0.715 -9.974,-0.715 -9.974,-0.716 -9.975,-0.715 -16.596,-1.191 -6.913,-0.496 -9.974,-0.715 -9.975,-0.716 -9.974,-0.715 -9.975,-0.715 -9.974,-0.716 -9.974,-0.715 -9.975,-0.716 -9.974,-0.715 -9.974,-0.716 -9.975,-0.715 -9.974,-0.716 -9.975,-0.715 -9.974,-0.715 -9.974,-0.716 -9.975,-0.715 -9.974,-0.716 -9.974,-0.715 -9.975,-0.716 -9.974,-0.715 -9.974,-0.715 -9.975,-0.716 -9.974,-0.715 -9.975,-0.716 -9.974,-0.715 -9.974,-0.716 -9.975,-0.715 -9.974,-0.716 -3.114,-0.223 -9.974,-0.715 -9.974,-0.716 -9.975,-0.715 -9.974,-0.716 -9.974,-0.715 -9.975,-0.716 -9.974,-0.715 -9.975,-0.715 -9.974,-0.716 -9.974,-0.715 -9.975,-0.716 -9.974,-0.715 -9.975,-0.716 -9.974,-0.715 -9.974,-0.716 -9.975,-0.715 -9.974,-0.715 -9.974,-0.716 -9.975,-0.715 -9.974,-0.716 -9.974,-0.715 -9.975,-0.716 -9.974,-0.715 -9.975,-0.716 -9.974,-0.715 -9.974,-0.715 -9.975,-0.716 -9.974,-0.715 -9.974,-0.716 -9.975,-0.715 -9.974,-0.716 -9.975,-0.715 -9.974,-0.715 -9.974,-0.716 -9.975,-0.715 -9.974,-0.716 -9.974,-0.715 -9.975,-0.716 -9.974,-0.715 -9.975,-0.716 -9.974,-0.715 -9.974,-0.715 -9.975,-0.716 -9.974,-0.715 -9.974,-0.716 -9.975,-0.715 -9.974,-0.716 -9.975,-0.715 -9.974,-0.716 -9.974,-0.715 -9.975,-0.715 -9.974,-0.716 -9.974,-0.715 -9.975,-0.716 -9.974,-0.715 -9.975,-0.716 -9.974,-0.715 -9.974,-0.716 -9.975,-0.715 -9.974,-0.715 -9.974,-0.716 -9.975,-0.715 -10.386,-0.745"
         id="path64"
         inkscape:connector-curvature="0"
         style="fill:none;stroke:#000000;stroke-width:3;stroke-linecap:butt;stroke-linejoin:round;stroke-opacity:1" />
      <path
         d="m 2703.421,1153.675 -9.976,-0.688 -9.976,-0.687 -9.977,-0.688 -9.976,-0.688 -9.976,-0.688 -9.977,-0.688 -9.976,-0.688 -9.976,-0.688 -9.977,-0.688 -9.976,-0.688 -9.976,-0.688 -9.977,-0.688 -9.976,-0.688 -9.976,-0.688 -9.977,-0.688 -9.976,-0.688 -9.976,-0.688 -9.976,-0.688 -9.977,-0.688 -9.976,-0.688 -9.976,-0.688 -9.977,-0.688 -9.976,-0.688 -9.976,-0.688 -9.977,-0.687 -9.976,-0.688 -9.976,-0.688 -9.977,-0.688 -9.976,-0.688 -9.976,-0.688 -9.976,-0.688 -9.977,-0.688 -9.976,-0.688 -9.976,-0.688 -9.977,-0.688 -9.976,-0.688 -9.976,-0.688 -9.977,-0.688 -9.976,-0.688 -9.976,-0.688 -9.976,-0.688 -9.977,-0.688 -9.976,-0.688 -9.976,-0.688 -9.977,-0.688 -9.976,-0.688 -9.976,-0.688 -9.977,-0.687 -9.976,-0.688 -9.976,-0.688 -9.977,-0.688 -9.976,-0.688 -9.976,-0.688 -9.977,-0.688 -9.976,-0.688 -9.976,-0.688 -9.977,-0.688 -9.976,-0.688 -9.976,-0.688 -9.976,-0.688 -9.977,-0.688 -9.976,-0.688 -9.976,-0.688 -9.976,-0.688 -9.977,-0.688 -9.976,-0.688 -9.977,-0.688 -9.976,-0.688 -9.976,-0.688 -9.976,-0.688 -9.977,-0.687 -9.976,-0.688 -9.976,-0.688 -9.977,-0.688 -9.976,-0.688 -9.976,-0.688 -9.977,-0.688 -9.976,-0.688 -9.976,-0.688 -9.976,-0.688 -9.977,-0.688 -9.976,-0.688 -9.976,-0.688 -9.977,-0.688 -9.976,-0.688 -9.976,-0.688 -9.977,-0.688 -9.976,-0.688 -9.976,-0.688 -9.977,-0.688 -9.976,-0.688 -9.976,-0.688 -9.976,-0.688 -9.977,-0.687 -9.976,-0.688 -9.976,-0.688 -9.977,-0.688 -9.976,-0.688 -9.976,-0.688 -9.977,-0.688 -9.976,-0.688 -9.976,-0.688 -9.977,-0.688 -9.976,-0.688 -9.976,-0.688 -9.977,-0.688 -9.976,-0.688 -9.976,-0.688 -9.976,-0.688 -9.977,-0.688 -9.976,-0.688 -9.976,-0.688 -9.977,-0.688 -9.976,-0.688 -14.419,-0.994 -9.976,-0.688 -9.977,-0.688 -9.976,-0.688 -9.976,-0.688 -9.977,-0.688 -9.976,-0.688 -9.976,-0.688 -9.976,-0.688 -9.977,-0.688 -9.976,-0.687 -9.976,-0.688 -9.977,-0.688 -9.976,-0.688 -9.976,-0.688 -9.977,-0.688 -9.976,-0.688 -9.976,-0.688 -9.977,-0.688 -9.976,-0.688 -9.976,-0.688 -9.976,-0.688 -9.977,-0.688 -9.976,-0.688 -9.976,-0.688 -9.977,-0.688 -9.976,-0.688 -9.976,-0.688 -9.977,-0.688 -9.976,-0.688 -9.976,-0.688 -9.977,-0.688 -9.976,-0.688 -9.976,-0.687 -9.976,-0.688 -9.977,-0.688 -9.976,-0.688 -9.976,-0.688 -9.977,-0.688 -9.976,-0.688 -9.976,-0.688 -9.977,-0.688 -9.976,-0.688 -9.976,-0.688 -9.977,-0.688 -9.976,-0.688 -9.976,-0.688 -9.976,-0.688 -9.977,-0.688 -9.976,-0.688 -9.976,-0.688 -9.977,-0.688 -9.976,-0.688 -9.976,-0.688 -9.977,-0.688 -9.976,-0.688 -9.976,-0.687 -9.977,-0.688 -9.976,-0.688 -9.976,-0.688 -9.976,-0.688 -9.977,-0.688 -9.976,-0.688 -9.976,-0.688 -9.977,-0.688 -9.976,-0.688 -9.976,-0.688 -9.977,-0.688 -9.976,-0.688 -9.976,-0.688 -9.977,-0.688 -9.976,-0.688 -9.976,-0.688 -9.977,-0.688 -9.976,-0.688 -16.448,-1.134 -7.002,-0.483 -9.976,-0.688 -9.976,-0.688 -9.976,-0.688 -9.977,-0.688 -9.976,-0.688 -9.976,-0.687 -9.977,-0.688 -9.976,-0.688 -9.976,-0.688 -9.977,-0.688 -9.976,-0.688 -9.976,-0.688 -9.977,-0.688 -9.976,-0.688 -9.976,-0.688 -9.977,-0.688 -9.976,-0.688 -9.976,-0.688 -9.976,-0.688 -9.977,-0.688 -9.976,-0.688 -9.976,-0.688 -9.977,-0.688 -9.976,-0.688 -9.976,-0.688 -9.977,-0.688 -9.976,-0.688 -6.525,-0.45 -9.999,-0.094 -10,-0.094 -9.999,-0.094 -10,-0.094 -9.999,-0.094 -10,-0.094 -9.999,-0.094 -10,-0.095 -10,-0.094 -9.999,-0.094 -10,-0.094 -9.999,-0.094 -10,-0.094 -9.999,-0.094 -10,-0.094 -9.999,-0.095 -10,-0.094 -10,-0.094 -9.999,-0.094 -10,-0.094 -9.999,-0.094 -10,-0.094 -9.999,-0.095 -10,-0.094 -9.999,-0.094 -10,-0.094 -10,-0.094 -9.999,-0.094 -10,-0.094 -9.999,-0.094 -10,-0.095 -9.999,-0.094 -10,-0.094 -9.999,-0.094 -10,-0.094 -10,-0.094 -9.999,-0.094 -10,-0.094 -9.999,-0.095 -10,-0.094 -9.999,-0.094 -10,-0.094 -10,-0.094 -9.999,-0.094 -10,-0.094 -9.999,-0.095 -10,-0.094 -9.999,-0.094 -10,-0.094 -9.999,-0.094 -10,-0.094 -10,-0.094 -9.999,-0.094 -10,-0.095 -9.999,-0.094 -10,-0.094 -9.999,-0.094 -10,-0.094 -9.999,-0.094 -10,-0.094 -10,-0.094 -9.999,-0.095 -7.167,-0.067"
         id="path66"
         inkscape:connector-curvature="0"
         style="fill:none;stroke:#000000;stroke-width:3;stroke-linecap:butt;stroke-linejoin:round;stroke-opacity:1" />
      <path
         d="m 2375.462,817.468 -9.985,-0.545 -9.985,-0.544 -9.985,-0.545 -9.986,-0.545 -9.985,-0.544 -9.985,-0.545 -9.985,-0.545 -9.985,-0.544 -9.985,-0.545 -9.985,-0.545 -9.986,-0.545 -9.985,-0.544 -9.985,-0.545 -9.985,-0.545 -9.985,-0.544 -9.985,-0.545 -9.985,-0.545 -9.986,-0.544 -9.985,-0.545 -9.985,-0.545 -9.985,-0.544 -9.985,-0.545 -9.985,-0.545 -9.985,-0.545 -9.986,-0.544 -9.985,-0.545 -9.985,-0.545 -9.985,-0.544 -9.985,-0.545 -9.986,-0.545 -9.985,-0.544 -9.985,-0.545 -9.985,-0.545 -9.985,-0.544 -9.985,-0.545 -9.985,-0.545 -9.986,-0.545 -9.985,-0.544 -9.985,-0.545 -9.985,-0.545 -9.985,-0.544 -9.985,-0.545 -9.985,-0.545 -9.986,-0.544 -9.985,-0.545 -9.985,-0.545 -9.985,-0.544 -9.985,-0.545 -9.985,-0.545 -9.986,-0.545 -9.985,-0.544 -9.985,-0.545 -9.985,-0.545 -9.985,-0.544 -9.985,-0.545 -9.985,-0.545 -9.986,-0.544 -9.985,-0.545 -9.985,-0.545 -9.985,-0.544 -9.985,-0.545 -9.985,-0.545 -9.986,-0.545 -9.985,-0.544 -9.985,-0.545 -9.985,-0.545 -9.985,-0.544 -9.985,-0.545 -9.986,-0.545 -9.985,-0.544 -9.985,-0.545 -9.985,-0.545 -9.985,-0.544 -9.985,-0.545 -9.985,-0.545 -9.986,-0.545 -9.985,-0.544 -9.985,-0.545 -9.985,-0.545 -9.985,-0.544 -9.985,-0.545 -9.985,-0.545 -9.986,-0.544 -9.985,-0.545 -9.985,-0.545 -9.985,-0.544 -9.985,-0.545 -9.985,-0.545 -15.813,-0.862 -9.985,-0.545 -9.985,-0.545 -9.985,-0.544 -9.985,-0.545 -9.986,-0.545 -9.985,-0.545 -9.985,-0.544 -9.985,-0.545 -9.985,-0.545 -9.985,-0.544 -9.986,-0.545 -9.985,-0.545 -9.985,-0.544 -9.985,-0.545 -9.985,-0.545 -9.985,-0.544 -9.986,-0.545 -9.985,-0.545 -9.985,-0.545 -9.985,-0.544 -9.985,-0.545 -9.985,-0.545 -9.985,-0.544 -9.986,-0.545 -9.985,-0.545 -9.985,-0.544 -9.985,-0.545 -9.985,-0.545 -9.985,-0.544 -9.986,-0.545 -9.985,-0.545 -9.985,-0.545 -9.985,-0.544 -9.985,-0.545 -9.985,-0.545 -9.986,-0.544 -9.985,-0.545 -9.985,-0.545 -9.985,-0.544 -9.985,-0.545 -9.985,-0.545 -9.985,-0.544 -9.986,-0.545 -9.985,-0.545 -9.985,-0.545 -9.985,-0.544 -9.985,-0.545 -9.985,-0.545 -9.985,-0.544 -9.986,-0.545 -9.985,-0.545 -9.985,-0.544 -9.985,-0.545 -9.985,-0.545 -9.985,-0.544 -9.986,-0.545 -9.985,-0.545 -9.985,-0.544 -9.985,-0.545 -9.985,-0.545 -9.985,-0.545 -9.985,-0.544 -9.986,-0.545 -9.985,-0.545 -9.985,-0.544 -9.985,-0.545 -9.985,-0.545 -9.985,-0.544 -15.839,-0.864"
         id="path68"
         inkscape:connector-curvature="0"
         style="fill:none;stroke:#000000;stroke-width:3;stroke-linecap:butt;stroke-linejoin:round;stroke-opacity:1" />
      <path
         d="m 751.71,425.291 9.992,0.395 5.105,0.201 7.948,0.314 9.993,0.395 9.992,0.394 8.023,0.317 -7.171,6.97 -5.088,4.946 9.992,0.401 1.933,0.077 7.182,-6.959 5.122,-4.963 4.931,-4.79 -5.224,-5.199 -7.148,-6.992 -6.183,-6.048 -9.992,-0.383 -2.279,-0.087 7.155,6.986 6.191,6.047 -9.992,-0.39 -3.576,-0.139 -0.289,-0.012 -1.373,-0.053 -8.232,-0.321 -0.164,-0.006 -4.175,-0.163 -2.19,-0.085 -0.16,-0.007 -5.614,-0.219 -2.223,-0.086 -0.153,-0.006 -6.366,-0.248 -0.15,-0.006 -6.235,-0.243 0.006,0.139 0.062,1.482 0.005,0.122 0.03,0.71 0.315,7.509"
         id="path70"
         inkscape:connector-curvature="0"
         style="fill:none;stroke:#000000;stroke-width:3;stroke-linecap:butt;stroke-linejoin:round;stroke-opacity:1" />
      <path
         d="m 709.365,317.146 0.494,9.988 0.494,9.988 0.493,9.988 0.494,9.988 0.494,9.987 0.494,9.988 0.493,9.988 0.494,9.988 0.494,9.988 0.493,9.987 0.494,9.988 0.492,9.953 9.992,0.401 7.635,0.306 -0.458,-9.989 -0.458,-9.99 -0.458,-9.989 -0.459,-9.99 -0.458,-9.989 -0.056,-1.216 9.993,0.375 8.575,0.323 6.862,-0.043 6.2,-0.644 3.05,-0.664 2.499,-0.544 4.907,-1.738 0.5,-0.26 3.777,-1.969 3.655,-2.686 3.044,-3.105 2.441,-3.489 1.848,-3.837 1.263,-4.146 0.687,-4.421 0.12,-4.657 -0.422,-4.74 -0.948,-4.576 -1.481,-4.37 -2.023,-4.12 -0.706,-1.051 -0.101,-0.15 -0.083,-0.124 -0.287,-0.426 -1.394,-2.075 -3.128,-3.488 -3.69,-3.106 -4.259,-2.682 -4.834,-2.213 -5.413,-1.701 -5.998,-1.145 -6.586,-0.548 -9.994,-0.342 -9.994,-0.342 -9.995,-0.341 -9.288,-0.318"
         id="path72"
         inkscape:connector-curvature="0"
         style="fill:none;stroke:#000000;stroke-width:3;stroke-linecap:butt;stroke-linejoin:round;stroke-opacity:1" />
      <path
         d="m 728.139,333.561 9.994,0.349 7.512,0.263 0.082,0.003 3.568,0.124 3.872,0.331 1.449,0.288 0.059,0.011 1.927,0.383 0.76,0.251 2.1,0.695 0.156,0.052 0.809,0.394 0.984,0.48 v 0 l 0.099,0.048 0.031,0.015 0.014,0.007 0.682,0.333 0.213,0.145 0.928,0.63 1.101,0.748 0.38,0.348 0.836,0.768 0.67,0.615 0.529,0.65 0.135,0.166 0.621,0.762 0.266,0.327 1.235,2.042 0.943,2.145 0.671,2.211 0.42,2.242 0.191,2.238 -0.068,2.909 -0.423,2.672 -0.764,2.43 -1.091,2.184 -1.404,1.932 -1.705,1.675 -1.353,0.959 -0.639,0.453 -2.265,1.146 -2.526,0.872 -2.773,0.595 -3.007,0.312 -3.23,0.023 -9.993,-0.368 -9.993,-0.368 -0.283,-0.01 -0.459,-9.99 -0.458,-9.989 -0.458,-9.99 -0.345,-7.511"
         id="path74"
         inkscape:connector-curvature="0"
         style="fill:none;stroke:#000000;stroke-width:3;stroke-linecap:butt;stroke-linejoin:round;stroke-opacity:1" />
      <path
         d="m 861.377,490.325 -9.99,-0.441 -9.991,-0.44 -9.99,-0.441 -9.99,-0.44 -9.99,-0.441 -9.991,-0.44 -9.99,-0.441 -9.99,-0.441 -4.444,-0.196 -7.854,-0.346 -9.99,-0.44 -9.99,-0.441 -9.99,-0.44 -9.991,-0.441 -9.99,-0.441 -9.99,-0.44 -9.991,-0.441 -9.99,-0.44 -8.483,-0.374 -1.573,2.453 0.572,9.983 0.572,9.984 0.572,9.984 0.571,9.983 0.572,9.984 0.572,9.984 0.572,9.983 0.572,9.984 0.572,9.984 0.571,9.983 0.566,9.884 9.988,0.498 9.988,0.498 9.987,0.499 9.988,0.498 9.987,0.498 9.988,0.499 9.987,0.498 9.988,0.498 8.18,0.408 7.675,0.383 9.987,0.499 9.988,0.498 9.987,0.498 9.988,0.498 9.987,0.499 9.988,0.498 9.988,0.498 9.987,0.499 1.446,0.072 1.033,-2.756 -0.201,-9.998 -0.202,-9.998 -0.201,-9.998 -0.201,-9.998 -0.202,-9.998 -0.201,-9.998 -0.201,-9.998 -0.202,-9.998 -0.201,-9.998 -0.201,-9.998 -0.208,-10.308"
         id="path76"
         style="fill:#b3b3b3;fill-opacity:1;stroke:#000000;stroke-width:3;stroke-linecap:butt;stroke-linejoin:round;stroke-opacity:1"
         inkscape:connector-curvature="0" />
      <path
         d="m 679.179,484.813 9.99,0.442 9.99,0.442 9.991,0.441 9.99,0.442 9.99,0.442 9.99,0.442 9.991,0.442 9.99,0.442 10.155,0.449 7.849,0.347 9.991,0.442 9.99,0.442 9.99,0.442 9.99,0.441 9.991,0.442 9.99,0.442 9.99,0.442 9.99,0.442 3.287,0.145"
         id="path78"
         inkscape:connector-curvature="0"
         style="fill:none;stroke:#000000;stroke-width:3;stroke-linecap:butt;stroke-linejoin:round;stroke-opacity:1" />
      <path
         d="m 862.565,603.369 -0.203,-9.998 -0.204,-9.998 -0.204,-9.998 -0.203,-9.998 -0.204,-9.998 -0.203,-9.998 -0.204,-9.998 -0.204,-9.998 -0.203,-9.998 -0.204,-9.998 -0.215,-10.565 1.063,-2.499"
         id="path80"
         inkscape:connector-curvature="0"
         style="fill:none;stroke:#000000;stroke-width:3;stroke-linecap:butt;stroke-linejoin:round;stroke-opacity:1" />
      <path
         d="m 843.202,303.765 0.684,-1.307 0.864,-1.652 0.108,-0.206"
         id="path84"
         inkscape:connector-curvature="0"
         style="fill:none;stroke:#000000;stroke-width:3;stroke-linecap:butt;stroke-linejoin:round;stroke-opacity:1" />
      <path
         d="m 846.759,458.597 -0.23,-9.998 -0.229,-9.997 -0.23,-9.997 -0.23,-9.998 -0.229,-9.997 -0.23,-9.997 -0.23,-9.998 -0.229,-9.997 -0.23,-9.997 -0.23,-9.998 -0.229,-9.997 -0.23,-9.998 -0.23,-9.997 -0.229,-9.997 -0.23,-9.998 -0.112,-4.871 -9.995,-0.305 -9.996,-0.304 -9.995,-0.305 -9.995,-0.304 -9.996,-0.305 -9.995,-0.304 -9.996,-0.305 -9.995,-0.304 -9.995,-0.305 -9.996,-0.304 -9.995,-0.305 -9.995,-0.304 -9.996,-0.305 -9.995,-0.305 -9.995,-0.304 -9.996,-0.305 -3.072,-0.093"
         id="path86"
         inkscape:connector-curvature="0"
         style="fill:none;stroke:#000000;stroke-width:3;stroke-linecap:butt;stroke-linejoin:round;stroke-opacity:1" />
      <path
         d="m 792.548,902.741 -0.374,-9.993 -0.373,-9.993 -0.373,-9.993 -0.373,-9.993 -0.373,-9.993 -0.373,-9.993 -0.373,-9.993 -0.373,-9.993 -0.373,-9.993 -0.373,-9.993 -0.374,-9.993 -0.373,-9.993 -0.373,-9.993 -0.373,-9.993 -0.373,-9.993 -0.373,-9.993 -0.373,-9.993 -0.078,-2.09 -0.373,-9.993 -0.373,-9.993 -0.373,-9.994 -0.374,-9.993 -0.373,-9.993 -0.373,-9.993 -0.373,-9.993 -0.373,-9.993 -0.373,-9.993 -0.373,-9.993 -0.373,-9.993 -0.373,-9.993 -0.374,-9.993 -0.057,-1.55"
         id="path88"
         inkscape:connector-curvature="0"
         style="fill:none;stroke:#000000;stroke-width:3;stroke-linecap:butt;stroke-linejoin:round;stroke-opacity:1" />
      <path
         d="m 773.544,598.927 0.389,9.993 0.389,9.992 0.39,9.993 0.389,9.992 0.389,9.992 0.389,9.993 0.389,9.992 0.389,9.993 0.389,9.992 0.389,9.993 0.389,9.992 0.389,9.992 0.389,9.993 0.06,1.533 0.389,9.993 0.389,9.992 0.389,9.993 0.389,9.992 0.389,9.993 0.389,9.992 0.389,9.992 0.389,9.993 0.389,9.992 0.389,9.993 0.39,9.992 0.389,9.993 0.389,9.992 0.389,9.992 0.389,9.993 0.389,9.992 0.389,9.993 0.11,2.825"
         id="path90"
         inkscape:connector-curvature="0"
         style="fill:none;stroke:#000000;stroke-width:3;stroke-linecap:butt;stroke-linejoin:round;stroke-opacity:1" />
      <path
         d="m 767.966,455.645 0.389,9.992 0.389,9.993 0.389,9.992 0.024,0.636"
         id="path92"
         inkscape:connector-curvature="0"
         style="fill:none;stroke:#000000;stroke-width:3;stroke-linecap:butt;stroke-linejoin:round;stroke-opacity:1" />
      <path
         d="m 777.011,486.604 -0.373,-9.993 -0.374,-9.993 -0.373,-9.993 -0.025,-0.684"
         id="path94"
         inkscape:connector-curvature="0"
         style="fill:none;stroke:#000000;stroke-width:3;stroke-linecap:butt;stroke-linejoin:round;stroke-opacity:1" />
      <path
         inkscape:connector-curvature="0"
         style="fill:none;stroke:#000000;stroke-width:3;stroke-linecap:butt;stroke-linejoin:round;stroke-opacity:1"
         d="m 1657.2281,547.40775 -1.701,-0.165 -1.031,-0.008 -1.036,0.067 -1.037,0.14 -1.033,0.211 -1.024,0.28 -1.01,0.349 -0.991,0.416 -0.967,0.48 -0.939,0.544 -0.906,0.605 -0.868,0.666 -0.826,0.724 -0.164,-0.008 0.582,-4.304 -7.297,-0.325 -1.323,9.912 -1.324,9.913 -1.323,9.912 -0.377,2.822 7.246,0.333 1.338,-9.91 1.338,-9.91 0.472,-3.491 0.951,-0.773 0.908,-0.691 0.871,-0.609 0.838,-0.531 0.813,-0.455 0.792,-0.381 0.777,-0.31 0.769,-0.241 0.766,-0.176 0.768,-0.112 0.776,-0.051 0.791,0.007 1.063,0.112 0.974,0.235 0.881,0.352 0.785,0.464 0.685,0.57 0.582,0.671 0.477,0.767 0.366,0.858 0.254,0.943 0.138,1.023 0.019,1.098 -0.104,1.166 -1.371,9.906 -1.372,9.905 -0.043,0.314 7.262,0.334 1.386,-9.903 1.386,-9.904 0.035,-0.251 0.186,-2.143 -0.06,-1.96 -0.29,-1.777 -0.506,-1.594 -0.708,-1.413 -0.894,-1.231 -1.066,-1.051 -1.223,-0.872 -1.365,-0.693 -1.492,-0.516 -1.604,-0.34"
         id="path2-0" />
      <path
         inkscape:connector-curvature="0"
         style="fill:none;stroke:#000000;stroke-width:3;stroke-linecap:butt;stroke-linejoin:round;stroke-opacity:1"
         d="m 1631.4901,546.83575 -9.99,-0.444 -5.153,-0.229 -2.406,-0.017 -2.262,0.163 -2.11,0.339 -1.949,0.51 -1.778,0.674 -1.599,0.835 -1.411,0.988 -1.214,1.138 -1.008,1.281 -0.794,1.419 -0.57,1.553 -0.338,1.679 -0.061,0.592 -0.031,0.577 v 0.564 l 0.026,0.55 0.056,0.535 0.084,0.522 0.114,0.507 0.142,0.494 0.172,0.48 0.2,0.465 0.23,0.452 0.258,0.438 0.306,0.443 0.334,0.429 0.364,0.415 0.392,0.402 0.422,0.387 0.45,0.374 0.48,0.359 0.508,0.346 0.537,0.332 0.567,0.318 0.595,0.305 0.625,0.29 -0.019,0.145 -0.874,0.164 -0.825,0.209 -0.772,0.251 -0.714,0.291 -0.654,0.328 -0.588,0.362 -0.518,0.395 -0.445,0.423 -0.368,0.45 -0.287,0.474 -0.201,0.496 -0.112,0.514 -0.021,0.359 0.027,0.355 0.077,0.354 0.128,0.352 0.178,0.351 0.231,0.351 0.283,0.352 0.337,0.354 0.39,0.356 0.446,0.359 0.501,0.364 0.557,0.368 -1.558,0.303 -1.422,0.371 -1.289,0.441 -1.158,0.512 -1.03,0.586 -0.904,0.66 -0.781,0.736 -0.66,0.814 -0.542,0.893 -0.426,0.974 -0.313,1.057 -0.203,1.141 -0.03,1.388 0.255,1.326 0.526,1.254 0.784,1.174 1.029,1.084 1.261,0.984 1.479,0.876 1.685,0.758 1.877,0.632 2.056,0.495 2.222,0.35 2.376,0.195 2.609,0.042 2.441,-0.123 2.265,-0.283 2.081,-0.44 1.891,-0.593 1.692,-0.74 1.486,-0.883 1.272,-1.023 1.049,-1.159 0.82,-1.289 0.582,-1.416 0.337,-1.538 0.075,-1.013 -0.052,-0.99 -0.187,-0.962 -0.332,-0.928 -0.485,-0.889 -0.647,-0.845 -0.817,-0.796 -0.995,-0.741 -1.184,-0.681 -1.379,-0.617 -1.585,-0.546 -1.797,-0.471 -1.715,-0.401 -1.569,-0.389 -1.421,-0.379 -1.271,-0.373 -1.122,-0.37 -0.969,-0.37 -0.815,-0.374 -0.66,-0.381 -0.504,-0.391 -0.345,-0.404 -0.185,-0.42 -0.023,-0.44 0.304,-0.827 0.64,-0.601 0.928,-0.421 1.171,-0.291 1.367,-0.206 1.517,-0.171 1.622,-0.183 1.68,-0.243 1.692,-0.35 1.658,-0.506 1.578,-0.709 1.453,-0.961 0.481,-0.393 0.483,-0.452 0.478,-0.505 0.466,-0.552 0.448,-0.591 0.422,-0.624 0.389,-0.649 0.351,-0.669 0.304,-0.682 0.251,-0.687 0.191,-0.685 0.124,-0.678 0.067,-0.673 0.019,-0.64 -0.031,-0.616 -0.085,-0.595 -0.141,-0.582 -0.198,-0.575 -0.258,-0.573 -0.321,-0.576 -0.386,-0.587 -0.454,-0.603 -0.523,-0.626 -0.595,-0.653 7.525,0.337 0.666,-5.032"
         id="path4-2" />
      <path
         inkscape:connector-curvature="0"
         style="fill:none;stroke:#000000;stroke-width:3;stroke-linecap:butt;stroke-linejoin:round;stroke-opacity:1"
         d="m 1612.4261,551.68575 0.99,-0.011 0.94,0.096 0.893,0.196 0.838,0.289 0.776,0.373 0.703,0.451 0.624,0.519 0.535,0.582 0.438,0.635 0.332,0.681 0.219,0.719 0.097,0.749 -0.034,0.772 -0.173,0.865 -0.283,0.811 -0.386,0.753 -0.482,0.691 -0.571,0.622 -0.653,0.549 -0.728,0.471 -0.796,0.388 -0.858,0.301 -0.912,0.207 -0.96,0.11 -1,0.007 -1.063,-0.098 -0.983,-0.189 -0.901,-0.278 -0.813,-0.361 -0.721,-0.439 -0.625,-0.514 -0.524,-0.584 -0.418,-0.65 -0.309,-0.71 -0.193,-0.767 -0.074,-0.819 0.05,-0.867 0.166,-0.783 0.29,-0.75 0.404,-0.708 0.508,-0.659 0.603,-0.604 0.687,-0.541 0.763,-0.47 0.827,-0.393 0.883,-0.308 0.929,-0.217 0.965,-0.117"
         id="path6-3" />
      <path
         inkscape:connector-curvature="0"
         style="fill:none;stroke:#000000;stroke-width:3;stroke-linecap:butt;stroke-linejoin:round;stroke-opacity:1"
         d="m 1607.8801,580.09175 1.17,0.078 1.252,0.133 1.296,0.194 1.305,0.261 1.275,0.331 1.208,0.407 1.104,0.488 0.963,0.575 0.783,0.665 0.568,0.762 0.314,0.862 0.024,0.968 -0.17,0.707 -0.315,0.647 -0.455,0.585 -0.591,0.522 -0.724,0.458 -0.851,0.392 -0.974,0.325 -1.094,0.256 -1.21,0.185 -1.32,0.113 -1.427,0.04 -1.53,-0.036 -1.573,-0.109 -1.437,-0.174 -1.299,-0.238 -1.159,-0.302 -1.018,-0.364 -0.875,-0.425 -0.729,-0.487 -0.583,-0.546 -0.433,-0.606 -0.283,-0.664 -0.131,-0.722 0.025,-0.779 0.158,-0.696 0.288,-0.649 0.412,-0.6 0.527,-0.547 0.635,-0.49 0.736,-0.429 0.831,-0.365 0.917,-0.296 0.996,-0.225 1.069,-0.149 1.134,-0.069 1.191,0.013"
         id="path8-7" />
      <path
         inkscape:connector-curvature="0"
         style="fill:none;stroke:#000000;stroke-width:3;stroke-linecap:butt;stroke-linejoin:round;stroke-opacity:1"
         d="m 1590.4481,531.16075 -0.58,-0.062 -0.588,0.011 -0.574,0.079 -0.554,0.145 -0.528,0.205 -0.496,0.26 -0.457,0.311 -0.414,0.358 -0.364,0.399 -0.308,0.437 -0.245,0.469 -0.178,0.497 -0.104,0.52 -0.024,0.524 0.055,0.507 0.129,0.485 0.198,0.458 0.262,0.426 0.322,0.389 0.376,0.347 0.427,0.3 0.471,0.248 0.512,0.191 0.548,0.129 0.578,0.061 0.587,-0.01 0.574,-0.079 0.553,-0.144 0.527,-0.204 0.496,-0.259 0.458,-0.311 0.414,-0.357 0.364,-0.398 0.308,-0.436 0.247,-0.469 0.179,-0.497 0.104,-0.52 0.025,-0.524 -0.054,-0.507 -0.128,-0.486 -0.197,-0.459 -0.262,-0.427 -0.322,-0.39 -0.377,-0.348 -0.427,-0.3 -0.472,-0.249 -0.513,-0.191 -0.548,-0.129"
         id="path10-5" />
      <path
         inkscape:connector-curvature="0"
         style="fill:none;stroke:#000000;stroke-width:3;stroke-linecap:butt;stroke-linejoin:round;stroke-opacity:1"
         d="m 1591.7551,545.07075 -7.26,-0.323 -1.217,9.926 -1.216,9.925 -1.217,9.926 -0.332,2.716 7.209,0.332 1.232,-9.924 1.231,-9.924 1.231,-9.924 0.339,-2.73"
         id="path12-9" />
      <path
         inkscape:connector-curvature="0"
         style="fill:none;stroke:#000000;stroke-width:3;stroke-linecap:butt;stroke-linejoin:round;stroke-opacity:1"
         d="m 1565.1551,526.13875 -1.059,-0.071 -2.49,-0.001 -2.356,0.215 -2.21,0.423 -2.053,0.624 -1.883,0.817 -1.7,1.003 -1.507,1.18 -1.302,1.351 -1.084,1.513 -0.855,1.668 -0.614,1.816 -0.361,1.955 0.11,3.179 0.993,2.769 1.7,2.427 2.232,2.154 2.588,1.95 2.77,1.812 2.777,1.741 2.609,1.739 2.266,1.802 1.748,1.933 1.055,2.129 0.188,2.392 -0.143,0.695 -0.264,0.706 -0.386,0.701 -0.508,0.681 -0.629,0.648 -0.75,0.599 -0.871,0.535 -0.992,0.459 -1.114,0.366 -1.234,0.259 -1.356,0.138 -1.476,0.003 -1.342,-0.114 -1.313,-0.217 -1.283,-0.317 -1.25,-0.418 -1.215,-0.515 -1.178,-0.611 -1.138,-0.707 -1.096,-0.799 -1.052,-0.892 -1.006,-0.981 -0.957,-1.07 -0.905,-1.158 -1.022,8.931 1.072,0.792 1.092,0.723 1.116,0.657 1.143,0.592 1.174,0.526 1.206,0.462 1.242,0.4 1.281,0.337 1.323,0.276 1.368,0.216 1.417,0.156 1.468,0.098 2.184,-0.015 2.099,-0.241 1.998,-0.456 1.88,-0.659 1.747,-0.852 1.598,-1.033 1.433,-1.202 1.251,-1.361 1.053,-1.508 0.84,-1.643 0.609,-1.767 0.362,-1.88 -0.035,-3.628 -0.937,-3.098 -1.662,-2.648 -2.21,-2.276 -2.582,-1.985 -2.775,-1.774 -2.792,-1.645 -2.631,-1.596 -2.294,-1.63 -1.778,-1.745 -1.087,-1.941 -0.217,-2.221 0.174,-0.849 0.313,-0.792 0.444,-0.732 0.568,-0.667 0.682,-0.597 0.789,-0.525 0.888,-0.447 0.978,-0.364 1.061,-0.279 1.134,-0.188 1.201,-0.094 1.259,0.006 0.951,0.067 0.977,0.123 1,0.185 1.018,0.253 1.036,0.325 1.048,0.405 1.059,0.489 1.066,0.58 1.071,0.675 1.071,0.778 1.07,0.885 1.066,0.997 0.978,-8.118 -0.92,-0.605 -0.938,-0.556 -0.955,-0.509 -0.972,-0.46 -0.987,-0.411 -1,-0.363 -1.013,-0.315 -1.024,-0.265 -1.035,-0.218 -1.044,-0.168 -1.052,-0.119"
         id="path14-2" />
      <path
         inkscape:connector-curvature="0"
         style="fill:none;stroke:#000000;stroke-width:3;stroke-linecap:butt;stroke-linejoin:round;stroke-opacity:1"
         d="m 1492.1031,540.64175 -8.161,-0.362 3.999,9.165 3.999,9.166 3.399,7.791 -5.423,8.402 -5.423,8.402 -3.83,5.934 7.917,0.37 5.428,-8.399 5.428,-8.398 5.428,-8.399 5.427,-8.399 5.428,-8.399 3.659,-5.662 -8.101,-0.36 -5.347,8.451 -5.347,8.45 -0.624,0.987 -3.866,-9.222 -3.867,-9.223 -0.123,-0.295"
         id="path16-2" />
      <path
         inkscape:connector-curvature="0"
         style="fill:none;stroke:#000000;stroke-width:3;stroke-linecap:butt;stroke-linejoin:round;stroke-opacity:1"
         d="m 1476.1701,539.30375 -0.72,-0.058 -0.855,0.013 -0.868,0.115 -0.882,0.222 -0.897,0.331 -0.913,0.444 -0.929,0.559 -0.945,0.678 -0.962,0.801 -0.98,0.925 -0.997,1.053 -1.017,1.185 -1.035,1.32 -0.161,-0.008 0.728,-7.458 -7.172,-0.319 -0.957,9.954 -0.957,9.954 -0.958,9.955 -0.237,2.473 7.123,0.327 0.972,-9.952 0.676,-6.922 0.211,-1.358 0.357,-1.293 0.492,-1.216 0.616,-1.129 0.728,-1.031 0.831,-0.922 0.922,-0.801 1.002,-0.671 1.072,-0.528 1.13,-0.376 1.178,-0.211 1.215,-0.036 0.443,0.047 0.478,0.1 0.509,0.151 0.532,0.199 0.55,0.244 0.562,0.287 0.569,0.326 0.569,0.364 0.562,0.397 0.552,0.428 0.533,0.457 0.511,0.483 4.355,-5.405 -0.68,-0.64 -0.677,-0.586 -0.676,-0.532 -0.675,-0.478 -0.676,-0.424 -0.678,-0.371 -0.682,-0.318 -0.687,-0.266 -0.693,-0.213 -0.701,-0.161 -0.711,-0.109"
         id="path18-8" />
      <path
         inkscape:connector-curvature="0"
         style="fill:none;stroke:#000000;stroke-width:3;stroke-linecap:butt;stroke-linejoin:round;stroke-opacity:1"
         d="m 1434.3071,537.48875 -1.788,-0.149 -1.282,-0.027 -1.235,0.037 -1.187,0.099 -1.141,0.163 -1.094,0.227 -1.049,0.29 -1.005,0.354 -0.96,0.419 -0.916,0.483 -0.873,0.547 -0.83,0.612 -0.788,0.678 -0.619,7.001 0.95,-0.838 0.964,-0.755 0.976,-0.672 0.987,-0.592 0.994,-0.511 0.999,-0.434 1.003,-0.356 1.005,-0.281 1.003,-0.206 1,-0.133 0.996,-0.061 0.987,0.009 1.036,0.081 0.938,0.149 0.842,0.22 0.744,0.292 0.647,0.368 0.548,0.445 0.451,0.525 0.352,0.608 0.254,0.693 0.154,0.78 0.056,0.871 -0.044,0.962 -0.159,1.73 -6.517,1.731 -1.495,0.407 -1.502,0.424 -1.484,0.458 -1.443,0.509 -1.378,0.576 -1.29,0.659 -1.177,0.758 -1.042,0.875 -0.882,1.006 -0.7,1.154 -0.493,1.318 -0.264,1.499 -0.018,1.031 0.124,1.008 0.262,0.972 0.394,0.926 0.522,0.868 0.644,0.798 0.761,0.716 0.874,0.624 0.98,0.518 1.083,0.402 1.18,0.274 1.271,0.135 0.82,0.015 0.823,-0.03 0.827,-0.075 0.829,-0.12 0.831,-0.166 0.832,-0.212 0.834,-0.259 0.834,-0.305 0.834,-0.352 0.834,-0.4 0.832,-0.446 0.831,-0.495 0.132,0.554 0.181,0.503 0.231,0.454 0.284,0.405 0.337,0.358 0.392,0.311 0.448,0.266 0.505,0.222 0.563,0.179 0.624,0.136 0.684,0.096 0.748,0.055 0.543,0.013 0.52,-0.015 0.505,-0.046 0.5,-0.077 0.506,-0.113 0.522,-0.149 0.547,-0.188 0.582,-0.23 0.628,-0.274 0.684,-0.32 0.749,-0.369 0.824,-0.419 0.367,-3.868 -0.422,0.242 -0.41,0.223 -0.399,0.204 -0.384,0.185 -0.367,0.164 -0.349,0.144 -0.328,0.122 -0.306,0.1 -0.282,0.077 -0.255,0.053 -0.226,0.029 -0.196,0.005 -0.211,-0.019 -0.192,-0.038 -0.173,-0.056 -0.153,-0.078 -0.133,-0.1 -0.114,-0.123 -0.092,-0.147 -0.071,-0.174 -0.05,-0.2 -0.028,-0.229 -0.01,-0.258 0.017,-0.289 0.933,-9.956 0.623,-6.657 0.047,-1.762 -0.195,-1.608 -0.423,-1.454 -0.634,-1.303 -0.831,-1.153 -1.014,-1.004 -1.18,-0.857 -1.332,-0.712 -1.469,-0.569 -1.591,-0.427 -1.697,-0.288"
         id="path20-9" />
      <path
         inkscape:connector-curvature="0"
         style="fill:none;stroke:#000000;stroke-width:3;stroke-linecap:butt;stroke-linejoin:round;stroke-opacity:1"
         d="m 1435.3521,555.04675 1.546,-0.401 -0.867,9.408 -0.52,0.376 -0.524,0.348 -0.528,0.318 -0.531,0.288 -0.535,0.255 -0.539,0.221 -0.542,0.187 -0.545,0.151 -0.549,0.114 -0.552,0.076 -0.554,0.036 -0.558,-0.005 -0.718,-0.071 -0.674,-0.144 -0.624,-0.211 -0.571,-0.276 -0.513,-0.335 -0.451,-0.393 -0.384,-0.444 -0.314,-0.493 -0.238,-0.538 -0.159,-0.579 -0.074,-0.615 0.014,-0.648 0.189,-0.906 0.387,-0.823 0.569,-0.748 0.738,-0.679 0.891,-0.619 1.03,-0.565 1.152,-0.52 1.262,-0.48 1.355,-0.45 1.433,-0.426 1.498,-0.409"
         id="path22-7" />
      <path
         inkscape:connector-curvature="0"
         style="fill:none;stroke:#000000;stroke-width:3;stroke-linecap:butt;stroke-linejoin:round;stroke-opacity:1"
         d="m 1404.3691,536.74275 0.573,-6.738 -7.886,6.149 -6.48,5.052 -0.06,0.721 6.242,0.279 -0.835,9.965 -0.593,7.076 -0.038,1.422 0.131,1.355 0.301,1.28 0.469,1.196 0.639,1.101 0.809,0.997 0.981,0.884 1.151,0.761 1.324,0.628 1.496,0.486 1.669,0.334 1.844,0.173 0.609,0.009 0.665,-0.025 0.711,-0.057 0.747,-0.088 0.774,-0.116 0.789,-0.144 0.794,-0.168 0.79,-0.192 0.776,-0.214 0.75,-0.233 0.716,-0.252 0.671,-0.267 0.521,-5.94 -0.746,0.345 -0.734,0.313 -0.723,0.28 -0.711,0.248 -0.7,0.215 -0.69,0.182 -0.681,0.15 -0.671,0.118 -0.663,0.085 -0.655,0.052 -0.648,0.02 -0.641,-0.013 -0.534,-0.048 -0.555,-0.099 -0.563,-0.157 -0.556,-0.217 -0.535,-0.285 -0.499,-0.357 -0.449,-0.434 -0.385,-0.516 -0.307,-0.604 -0.213,-0.696 -0.106,-0.794 0.015,-0.896 0.847,-9.964 0.559,-6.578 9.99,0.445 1.386,0.061 0.506,-5.784 -9.991,-0.444 -1.397,-0.062"
         id="path24-3" />
      <path
         inkscape:connector-curvature="0"
         style="fill:none;stroke:#000000;stroke-width:3;stroke-linecap:butt;stroke-linejoin:round;stroke-opacity:1"
         d="m 1375.5881,534.89875 -1.661,-0.161 -1.001,-0.007 -1.002,0.067 -0.999,0.138 -0.991,0.21 -0.979,0.278 -0.961,0.346 -0.939,0.412 -0.913,0.476 -0.882,0.538 -0.846,0.599 -0.806,0.659 -0.761,0.717 -0.16,-0.007 0.326,-4.258 -7.102,-0.316 -0.749,9.972 -0.748,9.972 -0.748,9.972 -0.173,2.293 7.055,0.324 0.763,-9.971 0.763,-9.971 0.239,-3.119 0.88,-0.766 0.844,-0.683 0.811,-0.604 0.785,-0.525 0.764,-0.45 0.748,-0.378 0.737,-0.307 0.733,-0.24 0.734,-0.174 0.739,-0.112 0.751,-0.051 0.768,0.007 1.039,0.11 0.959,0.232 0.875,0.347 0.788,0.458 0.697,0.564 0.602,0.663 0.505,0.759 0.404,0.848 0.298,0.933 0.191,1.011 0.079,1.086 -0.036,1.154 -0.796,9.968 -0.794,9.941 7.07,0.325 0.811,-9.967 0.803,-9.875 0.061,-2.121 -0.166,-1.939 -0.381,-1.757 -0.58,-1.576 -0.765,-1.397 -0.936,-1.217 -1.094,-1.039 -1.235,-0.861 -1.364,-0.685 -1.477,-0.509 -1.577,-0.336"
         id="path26-6" />
      <path
         inkscape:connector-curvature="0"
         style="fill:none;stroke:#000000;stroke-width:3;stroke-linecap:butt;stroke-linejoin:round;stroke-opacity:1"
         d="m 1335.2131,533.14075 -2.287,-0.224 -2.412,0.03 -2.29,0.3 -2.154,0.559 -2.005,0.807 -1.839,1.043 -1.662,1.266 -1.468,1.479 -1.262,1.678 -1.042,1.868 -0.808,2.044 -0.559,2.21 -0.298,2.362 -0.02,2.208 0.238,2.164 0.49,2.094 0.741,1.998 0.989,1.876 1.234,1.727 1.476,1.553 1.716,1.352 1.954,1.126 2.188,0.872 2.421,0.594 2.653,0.289 1.461,0.042 1.384,-0.013 1.317,-0.067 1.259,-0.122 1.208,-0.178 1.168,-0.232 1.135,-0.287 1.113,-0.343 1.097,-0.398 1.093,-0.453 1.095,-0.509 1.108,-0.565 0.45,-6.142 -1.072,0.539 -1.068,0.497 -1.062,0.451 -1.058,0.406 -1.056,0.358 -1.055,0.308 -1.053,0.257 -1.055,0.206 -1.055,0.151 -1.058,0.096 -1.062,0.039 -1.066,-0.019 -1.64,-0.143 -1.513,-0.274 -1.388,-0.405 -1.261,-0.533 -1.135,-0.662 -1.007,-0.789 -0.879,-0.917 -0.752,-1.044 -0.623,-1.169 -0.493,-1.295 -0.364,-1.42 -0.234,-1.544 9.989,0.452 9.99,0.453 5.091,0.23 0.085,-2.855 -0.176,-2.616 -0.429,-2.377 -0.672,-2.137 -0.906,-1.897 -1.132,-1.658 -1.348,-1.418 -1.554,-1.178 -1.752,-0.939 -1.94,-0.7 -2.119,-0.462"
         id="path28-1" />
      <path
         inkscape:connector-curvature="0"
         style="fill:none;stroke:#000000;stroke-width:3;stroke-linecap:butt;stroke-linejoin:round;stroke-opacity:1"
         d="m 1331.3841,538.47575 1.311,-10e-4 1.208,0.118 1.116,0.238 1.021,0.355 0.924,0.467 0.823,0.573 0.719,0.675 0.613,0.772 0.502,0.866 0.39,0.953 0.273,1.036 0.156,1.114 0.033,1.188 -9.99,-0.45 -7.95,-0.359 0.37,-1.214 0.458,-1.115 0.547,-1.015 0.635,-0.911 0.722,-0.805 0.808,-0.698 0.894,-0.587 0.979,-0.475 1.063,-0.359 1.146,-0.243 1.229,-0.123"
         id="path30-2" />
      <path
         inkscape:connector-curvature="0"
         style="fill:none;stroke:#000000;stroke-width:3;stroke-linecap:butt;stroke-linejoin:round;stroke-opacity:1"
         d="m 1275.0531,530.38875 -1.109,-0.091 -0.835,-0.004 -0.842,0.062 -0.851,0.129 -0.859,0.197 -0.868,0.264 -0.879,0.332 -0.888,0.401 -0.899,0.47 -0.911,0.539 -0.923,0.609 -0.935,0.68 -0.948,0.75 0.237,-4.242 -7.034,-0.312 -0.544,9.985 -0.544,9.985 -0.543,9.985 -0.116,2.129 6.987,0.321 0.558,-9.984 0.559,-9.984 0.183,-3.291 0.761,-0.696 0.739,-0.613 0.724,-0.536 0.714,-0.46 0.712,-0.389 0.716,-0.32 0.725,-0.255 0.741,-0.194 0.763,-0.136 0.792,-0.082 0.826,-0.03 0.867,0.017 0.854,0.085 0.817,0.179 0.772,0.276 0.718,0.375 0.656,0.475 0.586,0.58 0.507,0.685 0.419,0.793 0.323,0.904 0.22,1.016 0.107,1.131 -0.014,1.248 -0.59,9.983 -0.586,9.921 7.002,0.322 0.604,-9.981 0.605,-9.982 0.2,-3.316 0.679,-0.55 0.695,-0.522 0.708,-0.488 0.714,-0.45 0.717,-0.409 0.713,-0.362 0.706,-0.311 0.693,-0.257 0.675,-0.197 0.652,-0.134 0.624,-0.066 0.591,0.006 0.99,0.1 0.945,0.207 0.89,0.313 0.827,0.417 0.753,0.518 0.673,0.618 0.581,0.717 0.481,0.812 0.373,0.906 0.255,0.998 0.129,1.088 -0.01,1.175 -0.636,9.98 -0.628,9.87 7.017,0.322 0.65,-9.979 0.663,-10.162 0.025,-1.851 -0.166,-1.744 -0.353,-1.628 -0.532,-1.503 -0.707,-1.37 -0.873,-1.227 -1.035,-1.075 -1.189,-0.915 -1.337,-0.744 -1.479,-0.566 -1.614,-0.377 -1.743,-0.182 -1.245,-10e-4 -1.197,0.105 -1.152,0.204 -1.109,0.294 -1.067,0.377 -1.027,0.453 -0.99,0.52 -0.954,0.58 -0.921,0.632 -0.889,0.678 -0.86,0.714 -0.833,0.744 -0.566,-0.943 -0.625,-0.869 -0.682,-0.796 -0.737,-0.721 -0.791,-0.645 -0.841,-0.569 -0.891,-0.491 -0.939,-0.413 -0.984,-0.334 -1.027,-0.254 -1.069,-0.173"
         id="path32-9" />
      <path
         inkscape:connector-curvature="0"
         style="fill:none;stroke:#000000;stroke-width:3;stroke-linecap:butt;stroke-linejoin:round;stroke-opacity:1"
         d="m 1236.1571,528.74075 -2.268,-0.222 -2.386,0.03 -2.261,0.3 -2.12,0.558 -1.967,0.804 -1.8,1.039 -1.619,1.261 -1.424,1.474 -1.215,1.672 -0.994,1.861 -0.758,2.036 -0.51,2.201 -0.248,2.354 0.025,2.199 0.278,2.156 0.528,2.086 0.773,1.99 1.016,1.868 1.256,1.72 1.491,1.547 1.726,1.346 1.955,1.121 2.183,0.869 2.408,0.591 2.63,0.287 1.447,0.041 1.37,-0.013 1.302,-0.067 1.243,-0.122 1.192,-0.177 1.151,-0.232 1.118,-0.286 1.094,-0.342 1.078,-0.397 1.072,-0.452 1.074,-0.507 1.085,-0.563 0.323,-6.119 -1.051,0.538 -1.046,0.495 -1.042,0.45 -1.04,0.404 -1.037,0.357 -1.038,0.307 -1.037,0.257 -1.039,0.205 -1.042,0.151 -1.045,0.096 -1.05,0.039 -1.055,-0.019 -1.626,-0.142 -1.503,-0.273 -1.381,-0.402 -1.259,-0.531 -1.136,-0.659 -1.012,-0.786 -0.889,-0.914 -0.764,-1.039 -0.64,-1.165 -0.515,-1.289 -0.388,-1.414 -0.263,-1.538 9.99,0.452 9.99,0.452 4.852,0.22 0.027,-2.845 -0.226,-2.606 -0.472,-2.367 -0.708,-2.129 -0.934,-1.889 -1.154,-1.651 -1.362,-1.412 -1.561,-1.173 -1.753,-0.935 -1.934,-0.697 -2.105,-0.46"
         id="path34-3" />
      <path
         inkscape:connector-curvature="0"
         style="fill:none;stroke:#000000;stroke-width:3;stroke-linecap:butt;stroke-linejoin:round;stroke-opacity:1"
         d="m 1232.4741,534.05675 1.297,-0.002 1.198,0.117 1.109,0.238 1.018,0.353 0.923,0.464 0.826,0.571 0.725,0.672 0.622,0.77 0.514,0.861 0.405,0.95 0.292,1.032 0.175,1.11 0.057,1.183 -9.99,-0.45 -7.779,-0.351 0.341,-1.209 0.432,-1.112 0.521,-1.01 0.61,-0.908 0.698,-0.803 0.786,-0.695 0.873,-0.585 0.959,-0.473 1.045,-0.359 1.129,-0.241 1.214,-0.123"
         id="path36-1" />
      <path
         inkscape:connector-curvature="0"
         style="fill:none;stroke:#000000;stroke-width:3;stroke-linecap:butt;stroke-linejoin:round;stroke-opacity:1"
         d="m 1209.7221,511.27275 -7.022,-0.306 -0.431,9.99 -0.431,9.991 -0.431,9.991 -0.431,9.99 -0.382,8.836 6.951,0.32 0.446,-9.99 0.445,-9.99 0.446,-9.99 0.445,-9.99 0.395,-8.852"
         id="path38-9" />
      <path
         inkscape:connector-curvature="0"
         style="fill:none;stroke:#000000;stroke-width:3;stroke-linecap:butt;stroke-linejoin:round;stroke-opacity:1"
         d="m 1162.1271,525.97775 -0.349,9.994 -0.349,9.994 -0.349,9.994 -0.349,9.994 -0.286,8.202 6.9,0.323 0.363,-9.993 0.255,-7.001 0.642,0.266 0.622,0.241 0.606,0.219 0.591,0.195 0.579,0.174 0.569,0.151 0.562,0.131 0.556,0.111 0.555,0.09 0.554,0.071 0.557,0.053 0.561,0.035 2.53,-0.022 2.403,-0.294 2.26,-0.555 2.1,-0.803 1.925,-1.038 1.735,-1.261 1.527,-1.471 1.305,-1.67 1.065,-1.854 0.81,-2.028 0.537,-2.188 0.25,-2.336 -0.039,-2.543 -0.335,-2.354 -0.626,-2.16 -0.915,-1.963 -1.2,-1.762 -1.481,-1.557 -1.759,-1.349 -2.032,-1.137 -2.303,-0.922 -2.567,-0.703 -2.83,-0.481 -3.086,-0.257 -9.99,-0.444 -2.074,-0.092"
         id="path40-4" />
      <path
         inkscape:connector-curvature="0"
         style="fill:none;stroke:#000000;stroke-width:3;stroke-linecap:butt;stroke-linejoin:round;stroke-opacity:1"
         d="m 1168.8891,532.01575 6.34,0.284 1.818,0.161 1.655,0.312 1.491,0.457 1.329,0.601 1.165,0.74 1.001,0.874 0.837,1.006 0.673,1.133 0.509,1.256 0.344,1.376 0.18,1.49 0.016,1.603 -0.157,1.509 -0.338,1.421 -0.511,1.325 -0.671,1.217 -0.822,1.101 -0.961,0.975 -1.091,0.84 -1.21,0.696 -1.319,0.54 -1.417,0.377 -1.504,0.204 -1.583,0.02 -0.546,-0.035 -0.549,-0.056 -0.549,-0.076 -0.549,-0.096 -0.549,-0.116 -0.547,-0.135 -0.545,-0.154 -0.541,-0.174 -0.538,-0.191 -0.533,-0.21 -0.527,-0.229 -0.521,-0.245 0.363,-9.994 0.357,-9.807"
         id="path42-7" />
      <path
         inkscape:connector-curvature="0"
         style="fill:none;stroke:#000000;stroke-width:3;stroke-linecap:butt;stroke-linejoin:round;stroke-opacity:1"
         d="m 1123.0561,524.24175 -0.269,9.996 -0.268,9.997 -0.268,9.996 -0.269,9.997 -0.218,8.118 6.875,0.322 0.282,-9.996 0.197,-6.973 0.642,0.266 0.622,0.241 0.605,0.218 0.59,0.195 0.578,0.173 0.568,0.152 0.56,0.13 0.555,0.11 0.553,0.091 0.553,0.071 0.554,0.053 0.56,0.034 2.519,-0.021 2.391,-0.295 2.245,-0.554 2.086,-0.802 1.909,-1.037 1.717,-1.259 1.509,-1.469 1.286,-1.667 1.046,-1.852 0.79,-2.025 0.518,-2.184 0.23,-2.333 -0.059,-2.539 -0.352,-2.35 -0.641,-2.157 -0.927,-1.96 -1.209,-1.759 -1.487,-1.554 -1.762,-1.347 -2.034,-1.135 -2.299,-0.92 -2.563,-0.702 -2.822,-0.48 -3.075,-0.256 -9.99,-0.444 -2.028,-0.09"
         id="path44-8" />
      <path
         inkscape:connector-curvature="0"
         style="fill:none;stroke:#000000;stroke-width:3;stroke-linecap:butt;stroke-linejoin:round;stroke-opacity:1"
         d="m 1129.8381,530.26975 6.316,0.282 1.811,0.161 1.651,0.311 1.489,0.457 1.328,0.6 1.166,0.738 1.003,0.873 0.842,1.004 0.679,1.131 0.517,1.254 0.354,1.374 0.191,1.488 0.029,1.6 -0.144,1.507 -0.326,1.42 -0.498,1.322 -0.659,1.215 -0.809,1.1 -0.95,0.974 -1.08,0.838 -1.199,0.695 -1.309,0.54 -1.408,0.376 -1.497,0.204 -1.575,0.02 -0.545,-0.035 -0.546,-0.056 -0.548,-0.076 -0.548,-0.095 -0.547,-0.116 -0.546,-0.135 -0.544,-0.154 -0.54,-0.173 -0.537,-0.191 -0.533,-0.21 -0.527,-0.228 -0.52,-0.245 0.282,-9.996 0.277,-9.774"
         id="path46-4" />
      <path
         inkscape:connector-curvature="0"
         style="fill:none;stroke:#000000;stroke-width:3;stroke-linecap:butt;stroke-linejoin:round;stroke-opacity:1"
         d="m 1091.2841,522.82975 -6.918,-0.307 -0.188,9.998 -0.186,9.854 0.065,1.95 0.263,1.809 0.453,1.665 0.632,1.515 0.801,1.363 0.96,1.205 1.109,1.043 1.249,0.879 1.379,0.708 1.499,0.535 1.61,0.356 1.71,0.174 0.863,0.002 0.884,-0.071 0.899,-0.141 0.908,-0.207 0.91,-0.273 0.907,-0.334 0.898,-0.395 0.881,-0.45 0.859,-0.505 0.831,-0.557 0.796,-0.605 0.755,-0.652 -0.094,4.026 6.887,0.317 0.249,-9.997 0.249,-9.997 0.249,-9.997 0.048,-1.915 -6.933,-0.308 -0.235,9.997 -0.235,9.998 -0.067,2.852 -0.592,0.671 -0.618,0.613 -0.642,0.555 -0.663,0.495 -0.684,0.435 -0.702,0.374 -0.718,0.313 -0.732,0.251 -0.745,0.188 -0.755,0.126 -0.764,0.061 -0.771,-0.003 -1.13,-0.104 -1.031,-0.204 -0.932,-0.301 -0.832,-0.396 -0.732,-0.489 -0.632,-0.579 -0.532,-0.668 -0.432,-0.754 -0.332,-0.838 -0.23,-0.92 -0.13,-1 -0.028,-1.078 0.203,-9.998 0.203,-9.998 0.01,-0.287"
         id="path48-5" />
      <path
         inkscape:connector-curvature="0"
         style="fill:none;stroke:#000000;stroke-width:3;stroke-linecap:butt;stroke-linejoin:round;stroke-opacity:1"
         d="m 1064.5941,504.31875 -1.011,-0.068 -2.362,0.002 -2.213,0.213 -2.056,0.418 -1.886,0.614 -1.706,0.804 -1.5151,0.985 -1.314,1.159 -1.103,1.325 -0.881,1.485 -0.648,1.637 -0.405,1.781 -0.153,1.917 0.415,3.117 1.212,2.713 1.849,2.378 2.3271,2.11 2.646,1.908 2.804,1.773 2.804,1.705 2.645,1.701 2.325,1.765 1.847,1.893 1.209,2.087 0.411,2.345 -0.067,0.682 -0.182,0.693 -0.298,0.687 -0.415,0.669 -0.533,0.636 -0.653,0.589 -0.775,0.526 -0.896,0.451 -1.021,0.36 -1.146,0.256 -1.272,0.137 -1.401,0.005 -1.283,-0.11 -1.268,-0.211 -1.248,-0.31 -1.226,-0.408 -1.203,-0.503 -1.177,-0.599 -1.1491,-0.691 -1.118,-0.783 -1.085,-0.873 -1.049,-0.961 -1.012,-1.048 -0.972,-1.134 -0.099,8.76 1.094,0.775 1.107,0.708 1.123,0.643 1.142,0.579 1.1651,0.515 1.189,0.452 1.217,0.39 1.249,0.329 1.282,0.269 1.319,0.21 1.359,0.151 1.403,0.094 2.071,-0.017 1.967,-0.239 1.851,-0.45 1.719,-0.649 1.574,-0.838 1.415,-1.015 1.242,-1.181 1.054,-1.336 0.852,-1.48 0.636,-1.612 0.405,-1.734 0.161,-1.844 -0.388,-3.558 -1.191,-3.037 -1.835,-2.594 -2.319,-2.229 -2.643,-1.943 -2.806,-1.736 -2.808,-1.61 -2.652,-1.562 -2.334,-1.595 -1.858,-1.709 -1.22,-1.902 -0.422,-2.178 0.082,-0.832 0.219,-0.777 0.351,-0.718 0.473,-0.654 0.588,-0.587 0.698,-0.515 0.798,-0.439 0.893,-0.359 0.978,-0.275 1.059,-0.186 1.129,-0.093 1.195,0.004 0.909,0.065 0.938,0.12 0.966,0.18 0.991,0.246 1.014,0.318 1.034,0.395 1.052,0.479 1.068,0.567 1.081,0.661 1.093,0.761 1.101,0.866 1.108,0.977 0.135,-7.96 -0.932,-0.592 -0.944,-0.545 -0.956,-0.497 -0.966,-0.45 -0.976,-0.402 -0.984,-0.355 -0.991,-0.307 -0.998,-0.259 -1.003,-0.212 -1.006,-0.163 -1.01,-0.116"
         id="path50-0" />
      <path
         d="m 960.96378,546.2644 -5.91944,-0.69273 7.36158,13.12298 3.61118,6.4398 -6.94762,13.34628 -1.24306,2.38695 5.75442,0.70015 6.95678,-13.34062 6.95782,-13.34238 3.28792,-6.30422 -5.89354,-0.68769 -6.27928,12.38826 -7.20652,-13.20834 -0.44024,-0.80844"
         id="path2-3-3-5"
         inkscape:connector-curvature="0"
         style="fill:none;stroke:#000000;stroke-width:2.62660313;stroke-linecap:butt;stroke-linejoin:round;stroke-miterlimit:4;stroke-dasharray:none;stroke-opacity:1" />
      <path
         sodipodi:nodetypes="cc"
         inkscape:connector-curvature="0"
         id="path3055-35"
         d="m 771.74696,545.31205 164.32042,3.92599"
         style="fill:#b3b3b3;fill-opacity:1;stroke:#000003;stroke-width:5.36992931;stroke-linecap:butt;stroke-linejoin:miter;stroke-miterlimit:4;stroke-dasharray:none;stroke-dashoffset:0;stroke-opacity:1;marker-start:url(#DotM-9-3);marker-end:url(#marker6569-2-7)" />
    </g>
  </g>
  <g
     id="g9984"
     transform="matrix(1.7899764,0,0,1.7899764,-1481.3554,-1287.7483)">
    <path
       sodipodi:nodetypes="cc"
       inkscape:connector-curvature="0"
       id="path3055-3"
       d="m 1258.733,722.38961 -39.7765,62.77631"
       style="fill:#b3b3b3;fill-opacity:1;stroke:#000003;stroke-width:3;stroke-linecap:butt;stroke-linejoin:miter;stroke-miterlimit:4;stroke-dasharray:none;stroke-dashoffset:0;stroke-opacity:1;marker-start:url(#DotS-3-3);marker-end:url(#marker6569-7-6)" />
    <path
       sodipodi:nodetypes="cc"
       inkscape:connector-curvature="0"
       id="path3055"
       d="m 1258.733,722.38961 -0.902,-126.11239"
       style="fill:#b3b3b3;fill-opacity:1;stroke:#000003;stroke-width:3;stroke-linecap:butt;stroke-linejoin:miter;stroke-miterlimit:4;stroke-dasharray:none;stroke-dashoffset:0;stroke-opacity:1;marker-start:url(#DotM-9);marker-end:url(#marker6569-2)" />
  </g>
</svg>
