<?xml version="1.0" encoding="UTF-8" standalone="no"?>
<svg
   xmlns:dc="http://purl.org/dc/elements/1.1/"
   xmlns:cc="http://creativecommons.org/ns#"
   xmlns:rdf="http://www.w3.org/1999/02/22-rdf-syntax-ns#"
   xmlns:svg="http://www.w3.org/2000/svg"
   xmlns="http://www.w3.org/2000/svg"
   xmlns:sodipodi="http://sodipodi.sourceforge.net/DTD/sodipodi-0.dtd"
   xmlns:inkscape="http://www.inkscape.org/namespaces/inkscape"
   height="570"
   version="1.1"
   width="1920"
   id="svg2228"
   sodipodi:docname="OSI_LaneBoundaries_And_CenterLine_2.svg"
   inkscape:version="0.92.4 (5da689c313, 2019-01-14)"
   viewBox="0 0 3840 0.010555556"
   inkscape:export-filename="M:\git\OSI_LaneBoundaries_And_CenterLine.png"
   inkscape:export-xdpi="150"
   inkscape:export-ydpi="150">
  <metadata
     id="metadata2234">
    <rdf:RDF>
      <cc:Work
         rdf:about="">
        <dc:format>image/svg+xml</dc:format>
        <dc:type
           rdf:resource="http://purl.org/dc/dcmitype/StillImage" />
        <dc:title></dc:title>
      </cc:Work>
    </rdf:RDF>
  </metadata>
  <defs
     id="defs2232">
    <marker
       inkscape:stockid="DotS"
       orient="auto"
       refY="0"
       refX="0"
       id="marker11274"
       style="overflow:visible"
       inkscape:isstock="true">
      <path
         inkscape:connector-curvature="0"
         id="path11272"
         d="m -2.5,-1 c 0,2.76 -2.24,5 -5,5 -2.76,0 -5,-2.24 -5,-5 0,-2.76 2.24,-5 5,-5 2.76,0 5,2.24 5,5 z"
         style="fill:#b3b3b3;fill-opacity:1;fill-rule:evenodd;stroke:#000003;stroke-width:1.00000003pt;stroke-opacity:1"
         transform="matrix(0.2,0,0,0.2,1.48,0.2)" />
    </marker>
    <marker
       inkscape:stockid="Arrow2Send"
       orient="auto"
       refY="0"
       refX="0"
       id="marker10928"
       style="overflow:visible"
       inkscape:isstock="true">
      <path
         inkscape:connector-curvature="0"
         id="path10926"
         style="fill:#b3b3b3;fill-opacity:1;fill-rule:evenodd;stroke:#000003;stroke-width:0.625;stroke-linejoin:round;stroke-opacity:1"
         d="M 8.7185878,4.0337352 -2.2072895,0.01601326 8.7185884,-4.0017078 c -1.7454984,2.3720609 -1.7354408,5.6174519 -6e-7,8.035443 z"
         transform="matrix(-0.3,0,0,-0.3,0.69,0)" />
    </marker>
  </defs>
  <sodipodi:namedview
     pagecolor="#ffffff"
     bordercolor="#666666"
     borderopacity="1"
     objecttolerance="10"
     gridtolerance="10"
     guidetolerance="10"
     inkscape:pageopacity="0"
     inkscape:pageshadow="2"
     inkscape:window-width="3840"
     inkscape:window-height="2004"
     id="namedview2230"
     showgrid="false"
     inkscape:zoom="1.2028181"
     inkscape:cx="907.19734"
     inkscape:cy="258.6506"
     inkscape:window-x="3829"
     inkscape:window-y="-11"
     inkscape:window-maximized="1"
     inkscape:current-layer="layer4"
     scale-x="2"
     showguides="true"
     inkscape:guide-bbox="true"
     borderlayer="true" />
  <g
     inkscape:groupmode="layer"
     id="layer1"
     inkscape:label="Street"
     transform="translate(0,-480)">
    <g
       inkscape:groupmode="layer"
       id="layer5"
       inkscape:label="background"
       transform="translate(0,540)">
      <rect
         style="opacity:1;fill:#b3b3b3;fill-opacity:1;stroke:none;stroke-width:3.00000024;stroke-linecap:butt;stroke-miterlimit:8;stroke-dasharray:none;stroke-dashoffset:0;stroke-opacity:1;paint-order:stroke fill markers"
         id="rect1166"
         width="3720.9724"
         height="1179.2144"
         x="229.5047"
         y="-638.63867" />
    </g>
    <rect
       style="opacity:1;fill:#ffffff;fill-opacity:1;stroke:none;stroke-width:3;stroke-linecap:butt;stroke-miterlimit:8;stroke-dasharray:none;stroke-dashoffset:0;stroke-opacity:1;paint-order:stroke fill markers"
       id="rect1168"
       width="3980.6519"
       height="63"
       x="-33.255238"
       y="-8.547184" />
    <rect
       style="opacity:1;fill:#ffffff;fill-opacity:1;stroke:none;stroke-width:3;stroke-linecap:butt;stroke-miterlimit:8;stroke-dasharray:none;stroke-dashoffset:0;stroke-opacity:1;paint-order:stroke fill markers"
       id="rect1168-2"
       width="3980.6519"
       height="63"
       x="-33.255238"
       y="906.91296" />
    <rect
       style="opacity:1;fill:#ffffff;fill-opacity:1;stroke:none;stroke-width:3.01508045;stroke-linecap:butt;stroke-miterlimit:8;stroke-dasharray:none;stroke-dashoffset:0;stroke-opacity:1;paint-order:stroke fill markers"
       id="rect1204"
       width="549.05664"
       height="63.648632"
       x="365.35773"
       y="453.01791"
       transform="matrix(1,0,-0.14091604,0.99002155,0,0)" />
    <rect
       style="opacity:1;fill:#ffffff;fill-opacity:1;stroke:none;stroke-width:3.01508045;stroke-linecap:butt;stroke-miterlimit:8;stroke-dasharray:none;stroke-dashoffset:0;stroke-opacity:1;paint-order:stroke fill markers"
       id="rect1204-9"
       width="549.05664"
       height="63.648632"
       x="-357.93433"
       y="465.13885"
       transform="matrix(1,0,-0.14091604,0.99002155,0,0)" />
    <rect
       style="opacity:1;fill:#ffffff;fill-opacity:1;stroke:none;stroke-width:3.01508069;stroke-linecap:butt;stroke-miterlimit:8;stroke-dasharray:none;stroke-dashoffset:0;stroke-opacity:1;paint-order:stroke fill markers"
       id="rect1204-3"
       width="549.05664"
       height="63.648632"
       x="1330.3578"
       y="453.01791"
       transform="matrix(1,0,-0.14091604,0.99002155,0,0)" />
    <rect
       style="opacity:1;fill:#ffffff;fill-opacity:1;stroke:none;stroke-width:3.01508045;stroke-linecap:butt;stroke-miterlimit:8;stroke-dasharray:none;stroke-dashoffset:0;stroke-opacity:1;paint-order:stroke fill markers"
       id="rect1204-3-7"
       width="549.05664"
       height="63.648632"
       x="2295.3577"
       y="453.01791"
       transform="matrix(1,0,-0.14091604,0.99002155,0,0)" />
    <rect
       style="opacity:1;fill:#ffffff;fill-opacity:1;stroke:none;stroke-width:3.01508045;stroke-linecap:butt;stroke-miterlimit:8;stroke-dasharray:none;stroke-dashoffset:0;stroke-opacity:1;paint-order:stroke fill markers"
       id="rect1204-3-7-4"
       width="549.05664"
       height="63.648632"
       x="3260.3577"
       y="453.01791"
       transform="matrix(1,0,-0.14091604,0.99002155,0,0)" />
  </g>
  <g
     inkscape:groupmode="layer"
     id="layer4"
     inkscape:label="lb"
     transform="translate(0,60)">
    <path
       d="M 263.53648,-60.275916 H 3377.172"
       stroke-miterlimit="8"
       id="path53"
       inkscape:connector-curvature="0"
       style="overflow:hidden;fill:none;fill-rule:evenodd;stroke:#4d59b3;stroke-width:1.99999988;stroke-miterlimit:8"
       sodipodi:nodetypes="cc" />
    <path
       d="M 263.53648,-517.04725 H 3377.172"
       stroke-miterlimit="8"
       id="path53-0"
       inkscape:connector-curvature="0"
       style="overflow:hidden;fill:none;fill-rule:evenodd;stroke:#4d59b3;stroke-width:1.99999988;stroke-miterlimit:8"
       sodipodi:nodetypes="cc" />
    <path
       d="M 263.53648,398.37316 H 3377.172"
       stroke-miterlimit="8"
       id="path53-7"
       inkscape:connector-curvature="0"
       style="overflow:hidden;fill:none;fill-rule:evenodd;stroke:#4d59b3;stroke-width:1.99999988;stroke-miterlimit:8"
       sodipodi:nodetypes="cc" />
    <g
       id="g1029-0-6"
       style="fill:#4d59b3;stroke:none;stroke-opacity:1"
       transform="translate(-247.99999,399.05228)">
      <path
         style="overflow:hidden;fill:#4d59b3;fill-rule:evenodd;stroke:none;stroke-width:1.99999988;stroke-miterlimit:8;stroke-opacity:1"
         inkscape:connector-curvature="0"
         id="path23-2-8"
         stroke-miterlimit="8"
         d="m 508.05621,-459.04728 c 0,-17.67467 14.32652,-32.00001 32.00028,-32.00001 17.67428,0 31.99972,14.32534 31.99972,32.00001 0,17.67466 -14.32544,32 -31.99972,32 -17.67376,0 -32.00028,-14.32534 -32.00028,-32 z" />
      <path
         style="overflow:hidden;fill:#4d59b3;fill-rule:evenodd;stroke:none;stroke-width:1.99999988;stroke-miterlimit:8;stroke-opacity:1"
         inkscape:connector-curvature="0"
         id="path25-40-0"
         stroke-miterlimit="8"
         d="m 1058.1788,-459.04728 c 0,-17.67467 14.3243,-32.00001 32.0002,-32.00001 17.6756,0 31.9998,14.32534 31.9998,32.00001 0,17.67466 -14.3242,32 -31.9998,32 -17.6759,0 -32.0002,-14.32534 -32.0002,-32 z" />
      <path
         style="overflow:hidden;fill:#4d59b3;fill-rule:evenodd;stroke:none;stroke-width:1.99999988;stroke-miterlimit:8;stroke-opacity:1"
         inkscape:connector-curvature="0"
         id="path27-4-1"
         stroke-miterlimit="8"
         d="m 2022.4241,-459.04728 c 0,-17.67467 14.3254,-32.00001 32,-32.00001 17.6747,0 32,14.32534 32,32.00001 0,17.67466 -14.3253,32 -32,32 -17.6746,0 -32,-14.32534 -32,-32 z" />
      <path
         style="overflow:hidden;fill:#4d59b3;fill-rule:evenodd;stroke:none;stroke-width:1.99999988;stroke-miterlimit:8;stroke-opacity:1"
         inkscape:connector-curvature="0"
         id="path29-7-5"
         stroke-miterlimit="8"
         d="m 2990.6692,-459.04728 c 0,-17.67467 14.3253,-32.00001 32.0001,-32.00001 17.6746,0 31.9999,14.32534 31.9999,32.00001 0,17.67466 -14.3253,32 -31.9999,32 -17.6748,0 -32.0001,-14.32534 -32.0001,-32 z" />
      <path
         style="overflow:hidden;fill:#4d59b3;fill-rule:evenodd;stroke:none;stroke-width:1.99999976;stroke-miterlimit:8;stroke-opacity:1"
         inkscape:connector-curvature="0"
         id="path31-9-9"
         stroke-miterlimit="8"
         d="m 1472.3014,-459.04728 c 0,-17.67467 14.3252,-32.00001 32,-32.00001 17.6747,0 32,14.32534 32,32.00001 0,17.67466 -14.3253,32 -32,32 -17.6748,0 -32,-14.32534 -32,-32 z" />
      <path
         style="overflow:hidden;fill:#4d59b3;fill-rule:evenodd;stroke:none;stroke-width:2;stroke-miterlimit:8;stroke-opacity:1"
         inkscape:connector-curvature="0"
         id="path33-8-5"
         stroke-miterlimit="8"
         d="m 2436.5466,-459.04728 c 0,-17.67467 14.3255,-32.00001 31.9999,-32.00001 17.6748,0 32.0001,14.32534 32.0001,32.00001 0,17.67466 -14.3253,32 -32.0001,32 -17.6744,0 -31.9999,-14.32534 -31.9999,-32 z" />
      <path
         style="overflow:hidden;fill:#4d59b3;fill-rule:evenodd;stroke:none;stroke-width:1.99999988;stroke-miterlimit:8;stroke-opacity:1"
         inkscape:connector-curvature="0"
         id="path35-8-3"
         stroke-miterlimit="8"
         d="m 3404.7917,-459.04728 c 0,-17.67467 14.3128,-32.00001 32.0001,-32.00001 17.6873,0 31.9999,14.32534 31.9999,32.00001 0,17.67466 -14.3126,32 -31.9999,32 -17.6873,0 -32.0001,-14.32534 -32.0001,-32 z" />
    </g>
    <path
       d="m 2835.8635,-517.04725 c 0,-17.67467 14.3253,-32.00001 32.0001,-32.00001 17.6746,0 31.9999,14.32534 31.9999,32.00001 0,17.67466 -14.3253,32 -31.9999,32 -17.6748,0 -32.0001,-14.32534 -32.0001,-32 z"
       stroke-miterlimit="8"
       id="path29"
       inkscape:connector-curvature="0"
       style="overflow:hidden;fill:#4d59b3;fill-rule:evenodd;stroke:none;stroke-width:1.99999988;stroke-miterlimit:8;stroke-opacity:1" />
    <path
       d="m 1985.197,-517.04725 c 0,-17.67467 14.3255,-32.00001 31.9999,-32.00001 17.6748,0 32.0001,14.32534 32.0001,32.00001 0,17.67466 -14.3253,32 -32.0001,32 -17.6744,0 -31.9999,-14.32534 -31.9999,-32 z"
       stroke-miterlimit="8"
       id="path33"
       inkscape:connector-curvature="0"
       style="overflow:hidden;fill:#4d59b3;fill-rule:evenodd;stroke:none;stroke-width:2;stroke-miterlimit:8;stroke-opacity:1" />
    <path
       d="m 2410.5303,-517.04725 c 0,-17.67467 14.3255,-32.00001 31.9999,-32.00001 17.6748,0 32.0001,14.32534 32.0001,32.00001 0,17.67466 -14.3253,32 -32.0001,32 -17.6744,0 -31.9999,-14.32534 -31.9999,-32 z"
       stroke-miterlimit="8"
       id="path33-4"
       inkscape:connector-curvature="0"
       style="overflow:hidden;fill:#4d59b3;fill-rule:evenodd;stroke:none;stroke-width:2;stroke-miterlimit:8;stroke-opacity:1" />
    <path
       d="m 3261.1968,-517.04725 c 0,-17.67467 14.3253,-32.00001 32.0001,-32.00001 17.6746,0 31.9999,14.32534 31.9999,32.00001 0,17.67466 -14.3253,32 -31.9999,32 -17.6748,0 -32.0001,-14.32534 -32.0001,-32 z"
       stroke-miterlimit="8"
       id="path29-6"
       inkscape:connector-curvature="0"
       style="overflow:hidden;fill:#4d59b3;fill-rule:evenodd;stroke:none;stroke-width:1.99999988;stroke-miterlimit:8;stroke-opacity:1" />
    <path
       d="m 2835.8635,398.41296 c 0,-17.67467 14.3253,-32.00001 32.0001,-32.00001 17.6746,0 31.9999,14.32534 31.9999,32.00001 0,17.67466 -14.3253,32 -31.9999,32 -17.6748,0 -32.0001,-14.32534 -32.0001,-32 z"
       stroke-miterlimit="8"
       id="path29-7"
       inkscape:connector-curvature="0"
       style="overflow:hidden;fill:#4d59b3;fill-rule:evenodd;stroke:none;stroke-width:1.99999988;stroke-miterlimit:8;stroke-opacity:1" />
    <path
       d="m 1985.197,398.41296 c 0,-17.67467 14.3255,-32.00001 31.9999,-32.00001 17.6748,0 32.0001,14.32534 32.0001,32.00001 0,17.67466 -14.3253,32 -32.0001,32 -17.6744,0 -31.9999,-14.32534 -31.9999,-32 z"
       stroke-miterlimit="8"
       id="path33-8"
       inkscape:connector-curvature="0"
       style="overflow:hidden;fill:#4d59b3;fill-rule:evenodd;stroke:none;stroke-width:2;stroke-miterlimit:8;stroke-opacity:1" />
    <path
       d="m 2410.5303,398.41296 c 0,-17.67466 14.3255,-32 31.9999,-32 17.6748,0 32.0001,14.32534 32.0001,32 0,17.67466 -14.3253,32 -32.0001,32 -17.6744,0 -31.9999,-14.32534 -31.9999,-32 z"
       stroke-miterlimit="8"
       id="path33-8-3"
       inkscape:connector-curvature="0"
       style="overflow:hidden;fill:#4d59b3;fill-rule:evenodd;stroke:none;stroke-width:2;stroke-miterlimit:8;stroke-opacity:1" />
    <path
       d="m 3261.1968,398.41296 c 0,-17.67468 14.3253,-32.00002 32.0001,-32.00002 17.6746,0 31.9999,14.32534 31.9999,32.00002 0,17.67466 -14.3253,32 -31.9999,32 -17.6748,0 -32.0001,-14.32534 -32.0001,-32 z"
       stroke-miterlimit="8"
       id="path29-7-8"
       inkscape:connector-curvature="0"
       style="overflow:hidden;fill:#4d59b3;fill-rule:evenodd;stroke:none;stroke-width:1.99999988;stroke-miterlimit:8;stroke-opacity:1" />
  </g>
  <g
     inkscape:groupmode="layer"
     id="layer3"
     inkscape:label="cl"
     transform="translate(0,60)">
    <path
       d="M 263.53648,-287.91149 H 3377.172"
       stroke-miterlimit="8"
       id="path99"
       inkscape:connector-curvature="0"
       style="overflow:hidden;fill:#b34d4d;fill-rule:evenodd;stroke:#b34d4d;stroke-width:3.00000024;stroke-miterlimit:8;stroke-dasharray:18.00000022, 3.00000005;stroke-dashoffset:0"
       sodipodi:nodetypes="cc" />
    <path
       d="M 263.53648,169.31844 H 3377.172"
       stroke-miterlimit="8"
       id="path99-8"
       inkscape:connector-curvature="0"
       style="overflow:hidden;fill:#b34d4d;fill-rule:evenodd;stroke:#b34d4d;stroke-width:3.00000024;stroke-miterlimit:8;stroke-dasharray:18.00000022, 3.00000005;stroke-dashoffset:0"
       sodipodi:nodetypes="cc" />
    <path
       d="m 1985.1977,-287.91147 c 0,-17.67467 14.3248,-32 31.9995,-32 17.6746,0 32,14.32533 32,32 0,17.67467 -14.3254,32.00001 -32,32.00001 -17.6747,0 -31.9995,-14.32534 -31.9995,-32.00001 z"
       stroke-miterlimit="8"
       id="path101-0-2-6-3"
       inkscape:connector-curvature="0"
       style="overflow:hidden;fill:#b34d4d;fill-rule:evenodd;stroke:#b34d4d;stroke-width:1.9999876;stroke-miterlimit:8" />
    <path
       d="m 2410.5312,-287.91147 c 0,-17.67467 14.3248,-32 31.9995,-32 17.6746,0 32,14.32533 32,32 0,17.67467 -14.3254,32.00001 -32,32.00001 -17.6747,0 -31.9995,-14.32534 -31.9995,-32.00001 z"
       stroke-miterlimit="8"
       id="path101-0-2-6-5-8"
       inkscape:connector-curvature="0"
       style="overflow:hidden;fill:#b34d4d;fill-rule:evenodd;stroke:#b34d4d;stroke-width:1.9999876;stroke-miterlimit:8" />
    <path
       d="m 2835.8647,-287.91147 c 0,-17.67467 14.3248,-32 31.9995,-32 17.6746,0 32,14.32533 32,32 0,17.67467 -14.3254,32.00001 -32,32.00001 -17.6747,0 -31.9995,-14.32534 -31.9995,-32.00001 z"
       stroke-miterlimit="8"
       id="path101-0-2-6-5-3-0-5"
       inkscape:connector-curvature="0"
       style="overflow:hidden;fill:#b34d4d;fill-rule:evenodd;stroke:#b34d4d;stroke-width:1.9999876;stroke-miterlimit:8" />
    <path
       d="m 3261.1982,-287.91146 c 0,-17.67467 14.3248,-32 31.9995,-32 17.6746,0 32,14.32533 32,32 0,17.67467 -14.3254,32.00001 -32,32.00001 -17.6747,0 -31.9995,-14.32534 -31.9995,-32.00001 z"
       stroke-miterlimit="8"
       id="path101-0-2-6-5-8-2"
       inkscape:connector-curvature="0"
       style="overflow:hidden;fill:#b34d4d;fill-rule:evenodd;stroke:#b34d4d;stroke-width:1.9999876;stroke-miterlimit:8" />
    <g
       id="g1393"
       transform="translate(-240,24)">
      <path
         style="overflow:hidden;fill:#b34d4d;fill-rule:evenodd;stroke:#b34d4d;stroke-width:1.9999876;stroke-miterlimit:8"
         inkscape:connector-curvature="0"
         id="path101-0-2-6-3-5"
         stroke-miterlimit="8"
         d="m 2225.1979,145.31846 c 0,-17.67467 14.3248,-32 31.9995,-32 17.6746,0 32,14.32533 32,32 0,17.67467 -14.3254,32.00001 -32,32.00001 -17.6747,0 -31.9995,-14.32534 -31.9995,-32.00001 z" />
      <path
         style="overflow:hidden;fill:#b34d4d;fill-rule:evenodd;stroke:#b34d4d;stroke-width:1.9999876;stroke-miterlimit:8"
         inkscape:connector-curvature="0"
         id="path101-0-2-6-5-8-21"
         stroke-miterlimit="8"
         d="m 2650.5312,145.31846 c 0,-17.67467 14.3248,-32 31.9995,-32 17.6746,0 32,14.32533 32,32 0,17.67467 -14.3254,32.00001 -32,32.00001 -17.6747,0 -31.9995,-14.32534 -31.9995,-32.00001 z" />
      <path
         style="overflow:hidden;fill:#b34d4d;fill-rule:evenodd;stroke:#b34d4d;stroke-width:1.9999876;stroke-miterlimit:8"
         inkscape:connector-curvature="0"
         id="path101-0-2-6-5-3-0-5-7"
         stroke-miterlimit="8"
         d="m 3075.8647,145.31846 c 0,-17.67467 14.3248,-32 31.9995,-32 17.6746,0 32,14.32533 32,32 0,17.67467 -14.3254,32.00001 -32,32.00001 -17.6747,0 -31.9995,-14.32534 -31.9995,-32.00001 z" />
      <path
         style="overflow:hidden;fill:#b34d4d;fill-rule:evenodd;stroke:#b34d4d;stroke-width:1.9999876;stroke-miterlimit:8"
         inkscape:connector-curvature="0"
         id="path101-0-2-6-5-8-2-1"
         stroke-miterlimit="8"
         d="m 3501.1982,145.31847 c 0,-17.67467 14.3248,-32 31.9995,-32 17.6746,0 32,14.32533 32,32 0,17.67467 -14.3254,32.00001 -32,32.00001 -17.6747,0 -31.9995,-14.32534 -31.9995,-32.00001 z" />
    </g>
  </g>
  <g
     inkscape:groupmode="layer"
     id="layer2"
     inkscape:label="legend"
     transform="translate(0,60)">
    <text
       xml:space="preserve"
       style="font-style:normal;font-weight:normal;font-size:26.66666603px;line-height:1.25;font-family:sans-serif;letter-spacing:0px;word-spacing:0px;overflow:hidden;fill:#000000;fill-opacity:1;stroke:none;stroke-width:2"
       x="1369.8772"
       y="-2147.1099"
       id="text1599"><tspan
         sodipodi:role="line"
         id="tspan1597"
         x="1369.8772"
         y="-2122.781"
         style="stroke-width:2" /></text>
    <text
       y="-182.92194"
       x="864.85742"
       font-weight="400"
       font-size="24"
       style="font-style:italic;font-variant:normal;font-weight:normal;font-stretch:normal;font-size:58.66666794px;font-family:'Gill Sans MT';-inkscape-font-specification:'Gill Sans MT, Italic';font-variant-ligatures:normal;font-variant-caps:normal;font-variant-numeric:normal;font-feature-settings:normal;text-align:start;writing-mode:lr-tb;text-anchor:start;overflow:hidden;fill:#b34d4d;stroke-width:2"
       id="text1464">
      <tspan
         font-style="italic"
         x="1662.5836"
         y="-182.92194"
         style="font-style:italic;font-variant:normal;font-weight:normal;font-stretch:normal;font-size:58.66666794px;font-family:'Gill Sans MT';-inkscape-font-specification:'Gill Sans MT, Italic';font-variant-ligatures:normal;font-variant-caps:normal;font-variant-numeric:normal;font-feature-settings:normal;text-align:start;writing-mode:lr-tb;text-anchor:start;fill:#b34d4d;stroke-width:2"
         id="tspan1466">centerline_is_driving_direction=false</tspan>
    </text>
    <g
       id="g1507"
       transform="translate(154.66669)">
      <path
         d="m 794.53069,-311.91148 c 0,-17.67467 14.32481,-32 31.99948,-32 17.67468,0 32.00002,14.32533 32.00002,32 0,17.67467 -14.32534,32.00001 -32.00002,32.00001 -17.67467,0 -31.99948,-14.32534 -31.99948,-32.00001 z"
         stroke-miterlimit="8"
         id="path101-0"
         inkscape:connector-curvature="0"
         style="overflow:hidden;fill:#b34d4d;fill-rule:evenodd;stroke:#b34d4d;stroke-width:1.9999876;stroke-miterlimit:8"
         transform="translate(-240,23.999998)" />
      <text
         style="font-style:normal;font-variant:normal;font-weight:normal;font-stretch:normal;font-size:58.66666794px;font-family:'Gill Sans MT';-inkscape-font-specification:'Gill Sans MT, Normal';font-variant-ligatures:normal;font-variant-caps:normal;font-variant-numeric:normal;font-feature-settings:normal;text-align:start;writing-mode:lr-tb;text-anchor:start;overflow:hidden;fill:#ffffff;stroke:none;stroke-width:2"
         id="text195-4"
         font-size="24"
         font-weight="400"
         x="401.43896"
         y="-269.64456">
        <tspan
           style="font-style:normal;font-variant:normal;font-weight:normal;font-stretch:normal;font-size:58.66666794px;font-family:'Gill Sans MT';-inkscape-font-specification:'Gill Sans MT, Normal';font-variant-ligatures:normal;font-variant-caps:normal;font-variant-numeric:normal;font-feature-settings:normal;text-align:start;writing-mode:lr-tb;text-anchor:start;fill:#ffffff;stroke:none;stroke-width:2"
           id="tspan131-0"
           y="-267.64456"
           x="571.86377">2</tspan>
        <tspan
           style="font-style:normal;font-variant:normal;font-weight:normal;font-stretch:normal;font-size:58.66666794px;font-family:'Gill Sans MT';-inkscape-font-specification:'Gill Sans MT, Normal';font-variant-ligatures:normal;font-variant-caps:normal;font-variant-numeric:normal;font-feature-settings:normal;text-align:start;writing-mode:lr-tb;text-anchor:start;fill:#ffffff;stroke:none;stroke-width:2"
           id="tspan145-2"
           y="-733.64447"
           x="402.90527" />
      </text>
    </g>
    <g
       id="g1500"
       transform="translate(-2.5270081e-6)">
      <path
         d="m 523.86401,-311.91149 c 0,-17.67467 14.32481,-32 31.99948,-32 17.67468,0 32.00002,14.32533 32.00002,32 0,17.67467 -14.32534,32.00001 -32.00002,32.00001 -17.67467,0 -31.99948,-14.32534 -31.99948,-32.00001 z"
         stroke-miterlimit="8"
         id="path101"
         inkscape:connector-curvature="0"
         style="overflow:hidden;fill:#b34d4d;fill-rule:evenodd;stroke:#b34d4d;stroke-width:1.9999876;stroke-miterlimit:8"
         transform="translate(-240,23.999998)" />
      <text
         style="font-style:normal;font-variant:normal;font-weight:normal;font-stretch:normal;font-size:58.66666794px;font-family:'Gill Sans MT';-inkscape-font-specification:'Gill Sans MT, Normal';font-variant-ligatures:normal;font-variant-caps:normal;font-variant-numeric:normal;font-feature-settings:normal;text-align:start;writing-mode:lr-tb;text-anchor:start;overflow:hidden;fill:#ffffff;stroke:none;stroke-width:2"
         id="text195-4-5"
         font-size="24"
         font-weight="400"
         x="301.13983"
         y="-267.90237">1</text>
    </g>
    <g
       id="g1512"
       transform="translate(309.33336)">
      <path
         d="m 1065.1974,-311.91149 c 0,-17.67467 14.3248,-32 31.9995,-32 17.6746,0 32,14.32533 32,32 0,17.67467 -14.3254,32.00001 -32,32.00001 -17.6747,0 -31.9995,-14.32534 -31.9995,-32.00001 z"
         stroke-miterlimit="8"
         id="path101-0-7"
         inkscape:connector-curvature="0"
         style="overflow:hidden;fill:#b34d4d;fill-rule:evenodd;stroke:#b34d4d;stroke-width:1.9999876;stroke-miterlimit:8"
         transform="translate(-240,23.999998)" />
      <text
         style="font-style:normal;font-variant:normal;font-weight:normal;font-stretch:normal;font-size:58.66666794px;font-family:'Gill Sans MT';-inkscape-font-specification:'Gill Sans MT, Normal';font-variant-ligatures:normal;font-variant-caps:normal;font-variant-numeric:normal;font-feature-settings:normal;text-align:start;writing-mode:lr-tb;text-anchor:start;overflow:hidden;fill:#ffffff;stroke:none;stroke-width:2"
         id="text195-4-7"
         font-size="24"
         font-weight="400"
         x="842.88855"
         y="-267.84509">3</text>
    </g>
    <g
       id="g1517"
       transform="translate(464.00025)">
      <path
         d="m 1335.864,-311.91148 c 0,-17.67467 14.3248,-32 31.9995,-32 17.6746,0 32,14.32533 32,32 0,17.67467 -14.3254,32.00001 -32,32.00001 -17.6747,0 -31.9995,-14.32534 -31.9995,-32.00001 z"
         stroke-miterlimit="8"
         id="path101-0-2-6"
         inkscape:connector-curvature="0"
         style="overflow:hidden;fill:#b34d4d;fill-rule:evenodd;stroke:#b34d4d;stroke-width:1.9999876;stroke-miterlimit:8"
         transform="translate(-240,23.999998)" />
      <text
         style="font-style:normal;font-variant:normal;font-weight:normal;font-stretch:normal;font-size:58.66666794px;font-family:'Gill Sans MT';-inkscape-font-specification:'Gill Sans MT, Normal';font-variant-ligatures:normal;font-variant-caps:normal;font-variant-numeric:normal;font-feature-settings:normal;text-align:start;writing-mode:lr-tb;text-anchor:start;overflow:hidden;fill:#ffffff;stroke:none;stroke-width:2"
         id="text195-4-8"
         font-size="24"
         font-weight="400"
         x="1108.6138"
         y="-284.94662">...</text>
    </g>
    <text
       y="-40.238159"
       x="79.426361"
       font-weight="400"
       font-size="24"
       id="text195-4-79-3-1"
       style="font-weight:400;font-size:58.66666794px;font-family:Calibri, Calibri_MSFontService, sans-serif;overflow:hidden;fill:#ffffff;stroke:#4d59b3;stroke-width:2;stroke-opacity:1">
      <tspan
         style="font-style:normal;font-variant:normal;font-weight:normal;font-stretch:normal;font-family:'Gill Sans MT';-inkscape-font-specification:'Gill Sans MT';fill:#ffffff;stroke:#4d59b3;stroke-opacity:1"
         id="tspan2476">lb 2</tspan>
    </text>
    <text
       y="-497.26721"
       x="79.426361"
       font-weight="400"
       font-size="24"
       id="text195-4-79-3-1-6"
       style="font-weight:400;font-size:58.66666794px;font-family:Calibri, Calibri_MSFontService, sans-serif;overflow:hidden;fill:none;fill-opacity:1;stroke:#4d59b3;stroke-width:2;stroke-opacity:1">
      <tspan
         style="font-style:normal;font-variant:normal;font-weight:normal;font-stretch:normal;font-family:'Gill Sans MT';-inkscape-font-specification:'Gill Sans MT';fill:none;fill-opacity:1;stroke:#4d59b3;stroke-opacity:1"
         id="tspan2474">lb1</tspan>
    </text>
    <text
       y="418.43958"
       x="79.426361"
       font-weight="400"
       font-size="24"
       id="text195-4-79-3-1-8"
       style="font-weight:400;font-size:58.66666794px;font-family:Calibri, Calibri_MSFontService, sans-serif;overflow:hidden;fill:#843c0c;stroke:#4d59b3;stroke-width:2;stroke-opacity:1">
      <tspan
         style="font-style:normal;font-variant:normal;font-weight:normal;font-stretch:normal;font-family:'Gill Sans MT';-inkscape-font-specification:'Gill Sans MT';fill:none;stroke:#4d59b3;stroke-opacity:1"
         id="tspan2478">lb 3</tspan>
    </text>
    <text
       xml:space="preserve"
       style="font-style:normal;font-weight:normal;font-size:74.66666412px;line-height:1.25;font-family:sans-serif;letter-spacing:0px;word-spacing:0px;fill:#ffffff;fill-opacity:1;stroke:none;stroke-width:2"
       x="3545.6108"
       y="-263.35037"
       id="text2442"><tspan
         sodipodi:role="line"
         id="tspan2440"
         x="3545.6108"
         y="-263.35037"
         style="font-style:normal;font-variant:normal;font-weight:normal;font-stretch:normal;font-family:'Gill Sans MT';-inkscape-font-specification:'Gill Sans MT';fill:#ffffff;stroke:none;stroke-width:2;stroke-opacity:1">lane 1</tspan></text>
    <text
       xml:space="preserve"
       style="font-style:normal;font-weight:normal;font-size:74.66666412px;line-height:1.25;font-family:sans-serif;letter-spacing:0px;word-spacing:0px;fill:#ffffff;fill-opacity:1;stroke:none;stroke-width:2"
       x="3544.5039"
       y="194.71457"
       id="text2446"><tspan
         sodipodi:role="line"
         id="tspan2444"
         x="3544.5039"
         y="194.71457"
         style="font-style:normal;font-variant:normal;font-weight:normal;font-stretch:normal;font-family:'Gill Sans MT';-inkscape-font-specification:'Gill Sans MT';fill:#ffffff;stroke:none;stroke-width:2;stroke-opacity:1">lane 2</tspan></text>
    <text
       y="-268.13153"
       x="81.001892"
       font-weight="400"
       font-size="24"
       id="text195-4-79-3-1-6-9"
       style="font-weight:400;font-size:58.66666794px;font-family:Calibri, Calibri_MSFontService, sans-serif;overflow:hidden;fill:#ffffff;fill-opacity:1;stroke:#b34d4d;stroke-width:2;stroke-opacity:1">
      <tspan
         style="font-style:normal;font-variant:normal;font-weight:normal;font-stretch:normal;font-family:'Gill Sans MT';-inkscape-font-specification:'Gill Sans MT';fill:#ffffff;fill-opacity:1;stroke:#b34d4d;stroke-width:2;stroke-opacity:1"
         id="tspan2474-5">cl1</tspan>
    </text>
    <text
       y="189.35622"
       x="81.001892"
       font-weight="400"
       font-size="24"
       id="text195-4-79-3-1-6-9-3"
       style="font-weight:400;font-size:58.66666794px;font-family:Calibri, Calibri_MSFontService, sans-serif;overflow:hidden;fill:#ffffff;fill-opacity:1;stroke:#b34d4d;stroke-width:2;stroke-opacity:1">
      <tspan
         style="font-style:normal;font-variant:normal;font-weight:normal;font-stretch:normal;font-family:'Gill Sans MT';-inkscape-font-specification:'Gill Sans MT';fill:#ffffff;fill-opacity:1;stroke:#b34d4d;stroke-width:2;stroke-opacity:1"
         id="tspan2474-5-4">cl 2</tspan>
    </text>
    <text
       y="274.19696"
       x="870.8158"
       font-weight="400"
       font-size="24"
       style="font-style:italic;font-variant:normal;font-weight:normal;font-stretch:normal;font-size:58.66666794px;font-family:'Gill Sans MT';-inkscape-font-specification:'Gill Sans MT, Italic';font-variant-ligatures:normal;font-variant-caps:normal;font-variant-numeric:normal;font-feature-settings:normal;text-align:start;writing-mode:lr-tb;text-anchor:start;overflow:hidden;fill:#b34d4d;stroke-width:2"
       id="text1464-5">
      <tspan
         font-style="italic"
         x="1668.542"
         y="274.19696"
         style="font-style:italic;font-variant:normal;font-weight:normal;font-stretch:normal;font-size:58.66666794px;font-family:'Gill Sans MT';-inkscape-font-specification:'Gill Sans MT, Italic';font-variant-ligatures:normal;font-variant-caps:normal;font-variant-numeric:normal;font-feature-settings:normal;text-align:start;writing-mode:lr-tb;text-anchor:start;fill:#b34d4d;stroke-width:2"
         id="tspan1466-1">centerline_is_driving_direction=true</tspan>
    </text>
    <g
       id="g1490"
       transform="translate(154.66675)">
      <path
         d="m 794.53069,145.31845 c 0,-17.67467 14.32481,-32 31.99948,-32 17.67468,0 32.00002,14.32533 32.00002,32 0,17.67467 -14.32534,32.00001 -32.00002,32.00001 -17.67467,0 -31.99948,-14.32534 -31.99948,-32.00001 z"
         stroke-miterlimit="8"
         id="path101-0-6"
         inkscape:connector-curvature="0"
         style="overflow:hidden;fill:#b34d4d;fill-rule:evenodd;stroke:#b34d4d;stroke-width:1.9999876;stroke-miterlimit:8"
         transform="translate(-240,23.999998)" />
      <text
         style="font-style:normal;font-variant:normal;font-weight:normal;font-stretch:normal;font-size:58.66666794px;font-family:'Gill Sans MT';-inkscape-font-specification:'Gill Sans MT, Normal';font-variant-ligatures:normal;font-variant-caps:normal;font-variant-numeric:normal;font-feature-settings:normal;text-align:start;writing-mode:lr-tb;text-anchor:start;overflow:hidden;fill:#ffffff;stroke:none;stroke-width:2"
         id="text195-4-2"
         font-size="24"
         font-weight="400"
         x="401.43896"
         y="187.58539">
        <tspan
           style="font-style:normal;font-variant:normal;font-weight:normal;font-stretch:normal;font-size:58.66666794px;font-family:'Gill Sans MT';-inkscape-font-specification:'Gill Sans MT, Normal';font-variant-ligatures:normal;font-variant-caps:normal;font-variant-numeric:normal;font-feature-settings:normal;text-align:start;writing-mode:lr-tb;text-anchor:start;fill:#ffffff;stroke:none;stroke-width:2"
           id="tspan131-0-2"
           y="189.58539"
           x="571.86377">2</tspan>
        <tspan
           style="font-style:normal;font-variant:normal;font-weight:normal;font-stretch:normal;font-size:58.66666794px;font-family:'Gill Sans MT';-inkscape-font-specification:'Gill Sans MT, Normal';font-variant-ligatures:normal;font-variant-caps:normal;font-variant-numeric:normal;font-feature-settings:normal;text-align:start;writing-mode:lr-tb;text-anchor:start;fill:#ffffff;stroke:none;stroke-width:2"
           id="tspan145-2-4"
           y="-276.41449"
           x="402.90527" />
      </text>
    </g>
    <g
       id="g1495"
       transform="translate(-2.5270081e-6)">
      <path
         d="m 523.86401,145.31844 c 0,-17.67467 14.32481,-32 31.99948,-32 17.67468,0 32.00002,14.32533 32.00002,32 0,17.67467 -14.32534,32.00001 -32.00002,32.00001 -17.67467,0 -31.99948,-14.32534 -31.99948,-32.00001 z"
         stroke-miterlimit="8"
         id="path101-8"
         inkscape:connector-curvature="0"
         style="overflow:hidden;fill:#b34d4d;fill-rule:evenodd;stroke:#b34d4d;stroke-width:1.9999876;stroke-miterlimit:8"
         transform="translate(-240,23.999998)" />
      <text
         style="font-style:normal;font-variant:normal;font-weight:normal;font-stretch:normal;font-size:58.66666794px;font-family:'Gill Sans MT';-inkscape-font-specification:'Gill Sans MT, Normal';font-variant-ligatures:normal;font-variant-caps:normal;font-variant-numeric:normal;font-feature-settings:normal;text-align:start;writing-mode:lr-tb;text-anchor:start;overflow:hidden;fill:#ffffff;stroke:none;stroke-width:2"
         id="text195-4-5-3"
         font-size="24"
         font-weight="400"
         x="301.13983"
         y="189.32756">1</text>
    </g>
    <g
       id="g1483"
       transform="translate(309.33348)">
      <path
         d="m 1065.1974,145.31845 c 0,-17.67467 14.3248,-32 31.9995,-32 17.6746,0 32,14.32533 32,32 0,17.67467 -14.3254,32.00001 -32,32.00001 -17.6747,0 -31.9995,-14.32534 -31.9995,-32.00001 z"
         stroke-miterlimit="8"
         id="path101-0-6-2"
         inkscape:connector-curvature="0"
         style="overflow:hidden;fill:#b34d4d;fill-rule:evenodd;stroke:#b34d4d;stroke-width:1.9999876;stroke-miterlimit:8"
         transform="translate(-240,23.999998)" />
      <text
         style="font-style:normal;font-variant:normal;font-weight:normal;font-stretch:normal;font-size:58.66666794px;font-family:'Gill Sans MT';-inkscape-font-specification:'Gill Sans MT, Normal';font-variant-ligatures:normal;font-variant-caps:normal;font-variant-numeric:normal;font-feature-settings:normal;text-align:start;writing-mode:lr-tb;text-anchor:start;overflow:hidden;fill:#ffffff;stroke:none;stroke-width:2"
         id="text195-4-7-2"
         font-size="24"
         font-weight="400"
         x="842.88855"
         y="189.38486">3</text>
    </g>
    <g
       id="g1478"
       transform="translate(464.00037)">
      <path
         d="m 1335.864,145.31845 c 0,-17.67467 14.3248,-32 31.9995,-32 17.6746,0 32,14.32533 32,32 0,17.67467 -14.3254,32.00001 -32,32.00001 -17.6747,0 -31.9995,-14.32534 -31.9995,-32.00001 z"
         stroke-miterlimit="8"
         id="path101-0-2-6-0"
         inkscape:connector-curvature="0"
         style="overflow:hidden;fill:#b34d4d;fill-rule:evenodd;stroke:#b34d4d;stroke-width:1.9999876;stroke-miterlimit:8"
         transform="translate(-240,23.999998)" />
      <text
         style="font-style:normal;font-variant:normal;font-weight:normal;font-stretch:normal;font-size:58.66666794px;font-family:'Gill Sans MT';-inkscape-font-specification:'Gill Sans MT, Normal';font-variant-ligatures:normal;font-variant-caps:normal;font-variant-numeric:normal;font-feature-settings:normal;text-align:start;writing-mode:lr-tb;text-anchor:start;overflow:hidden;fill:#ffffff;stroke:none;stroke-width:2"
         id="text195-4-8-6"
         font-size="24"
         font-weight="400"
         x="1108.6138"
         y="172.28329">...</text>
    </g>
    <g
       id="g1534"
       transform="translate(154.66675)">
      <path
         d="m 794.53015,-541.04725 c 0,-17.67467 14.3243,-32.00001 32.0002,-32.00001 17.6756,0 31.9998,14.32534 31.9998,32.00001 0,17.67466 -14.3242,32 -31.9998,32 -17.6759,0 -32.0002,-14.32534 -32.0002,-32 z"
         stroke-miterlimit="8"
         id="path25-1"
         inkscape:connector-curvature="0"
         style="overflow:hidden;fill:#4d59b3;fill-rule:evenodd;stroke:none;stroke-width:1.99999988;stroke-miterlimit:8;stroke-opacity:1"
         transform="translate(-240,23.999998)" />
      <text
         style="font-style:normal;font-variant:normal;font-weight:normal;font-stretch:normal;font-size:58.66666794px;font-family:'Gill Sans MT';-inkscape-font-specification:'Gill Sans MT, Normal';font-variant-ligatures:normal;font-variant-caps:normal;font-variant-numeric:normal;font-feature-settings:normal;text-align:start;writing-mode:lr-tb;text-anchor:start;overflow:hidden;fill:#ffffff;stroke:none;stroke-width:2"
         id="text195-4-0"
         font-size="24"
         font-weight="400"
         x="401.43869"
         y="-498.78033">
        <tspan
           style="font-style:normal;font-variant:normal;font-weight:normal;font-stretch:normal;font-size:58.66666794px;font-family:'Gill Sans MT';-inkscape-font-specification:'Gill Sans MT, Normal';font-variant-ligatures:normal;font-variant-caps:normal;font-variant-numeric:normal;font-feature-settings:normal;text-align:start;writing-mode:lr-tb;text-anchor:start;fill:#ffffff;stroke:none;stroke-width:2"
           id="tspan131-0-4"
           y="-496.78033"
           x="571.86346">2</tspan>
        <tspan
           style="font-style:normal;font-variant:normal;font-weight:normal;font-stretch:normal;font-size:58.66666794px;font-family:'Gill Sans MT';-inkscape-font-specification:'Gill Sans MT, Normal';font-variant-ligatures:normal;font-variant-caps:normal;font-variant-numeric:normal;font-feature-settings:normal;text-align:start;writing-mode:lr-tb;text-anchor:start;fill:#ffffff;stroke:none;stroke-width:2"
           id="tspan145-2-3"
           y="-962.78021"
           x="402.905" />
      </text>
    </g>
    <g
       id="g1539"
       transform="translate(-4.609375e-6)">
      <path
         d="m 523.86353,-541.04725 c 0,-17.67467 14.32652,-32.00001 32.00028,-32.00001 17.67428,0 31.99972,14.32534 31.99972,32.00001 0,17.67466 -14.32544,32 -31.99972,32 -17.67376,0 -32.00028,-14.32534 -32.00028,-32 z"
         stroke-miterlimit="8"
         id="path23"
         inkscape:connector-curvature="0"
         style="overflow:hidden;fill:#4d59b3;fill-rule:evenodd;stroke:none;stroke-width:1.99999988;stroke-miterlimit:8;stroke-opacity:1"
         transform="translate(-240,23.999998)" />
      <text
         style="font-style:normal;font-variant:normal;font-weight:normal;font-stretch:normal;font-size:58.66666794px;font-family:'Gill Sans MT';-inkscape-font-specification:'Gill Sans MT, Normal';font-variant-ligatures:normal;font-variant-caps:normal;font-variant-numeric:normal;font-feature-settings:normal;text-align:start;writing-mode:lr-tb;text-anchor:start;overflow:hidden;fill:#ffffff;stroke:none;stroke-width:2"
         id="text195-4-5-9"
         font-size="24"
         font-weight="400"
         x="301.13983"
         y="-497.03815">1</text>
    </g>
    <g
       id="g1527"
       transform="translate(309.33347)">
      <path
         d="m 1065.1968,-541.04725 c 0,-17.67467 14.3243,-32.00001 32.0002,-32.00001 17.6756,0 31.9998,14.32534 31.9998,32.00001 0,17.67466 -14.3242,32 -31.9998,32 -17.6759,0 -32.0002,-14.32534 -32.0002,-32 z"
         stroke-miterlimit="8"
         id="path25-4-6"
         inkscape:connector-curvature="0"
         style="overflow:hidden;fill:#4d59b3;fill-rule:evenodd;stroke:none;stroke-width:1.99999988;stroke-miterlimit:8;stroke-opacity:1"
         transform="translate(-240,23.999998)" />
      <text
         style="font-style:normal;font-variant:normal;font-weight:normal;font-stretch:normal;font-size:58.66666794px;font-family:'Gill Sans MT';-inkscape-font-specification:'Gill Sans MT, Normal';font-variant-ligatures:normal;font-variant-caps:normal;font-variant-numeric:normal;font-feature-settings:normal;text-align:start;writing-mode:lr-tb;text-anchor:start;overflow:hidden;fill:#ffffff;stroke:none;stroke-width:2"
         id="text195-4-7-4"
         font-size="24"
         font-weight="400"
         x="842.88818"
         y="-496.98083">3</text>
    </g>
    <g
       id="g1522"
       transform="translate(464.00025)">
      <path
         d="m 1335.8634,-541.04725 c 0,-17.67467 14.3243,-32.00001 32.0002,-32.00001 17.6756,0 31.9998,14.32534 31.9998,32.00001 0,17.67466 -14.3242,32 -31.9998,32 -17.6759,0 -32.0002,-14.32534 -32.0002,-32 z"
         stroke-miterlimit="8"
         id="path25-4"
         inkscape:connector-curvature="0"
         style="overflow:hidden;fill:#4d59b3;fill-rule:evenodd;stroke:none;stroke-width:1.99999988;stroke-miterlimit:8;stroke-opacity:1"
         transform="translate(-240,23.999998)" />
      <text
         style="font-style:normal;font-variant:normal;font-weight:normal;font-stretch:normal;font-size:58.66666794px;font-family:'Gill Sans MT';-inkscape-font-specification:'Gill Sans MT, Normal';font-variant-ligatures:normal;font-variant-caps:normal;font-variant-numeric:normal;font-feature-settings:normal;text-align:start;writing-mode:lr-tb;text-anchor:start;overflow:hidden;fill:#ffffff;stroke:none;stroke-width:2"
         id="text195-4-8-2"
         font-size="24"
         font-weight="400"
         x="1108.6134"
         y="-514.0824">...</text>
    </g>
    <g
       id="g1463"
       transform="translate(154.66675)">
      <path
         d="m 794.53015,374.41296 c 0,-17.67468 14.3243,-32.00002 32.0002,-32.00002 17.6756,0 31.9998,14.32534 31.9998,32.00002 0,17.67466 -14.3242,32 -31.9998,32 -17.6759,0 -32.0002,-14.32534 -32.0002,-32 z"
         stroke-miterlimit="8"
         id="path25-40-2"
         inkscape:connector-curvature="0"
         style="overflow:hidden;fill:#4d59b3;fill-rule:evenodd;stroke:none;stroke-width:1.99999988;stroke-miterlimit:8;stroke-opacity:1"
         transform="translate(-240,23.999998)" />
      <text
         style="font-style:normal;font-variant:normal;font-weight:normal;font-stretch:normal;font-size:58.66666794px;font-family:'Gill Sans MT';-inkscape-font-specification:'Gill Sans MT, Normal';font-variant-ligatures:normal;font-variant-caps:normal;font-variant-numeric:normal;font-feature-settings:normal;text-align:start;writing-mode:lr-tb;text-anchor:start;overflow:hidden;fill:#ffffff;stroke:none;stroke-width:2"
         id="text195-4-2-6"
         font-size="24"
         font-weight="400"
         x="401.43896"
         y="416.67987">
        <tspan
           style="font-style:normal;font-variant:normal;font-weight:normal;font-stretch:normal;font-size:58.66666794px;font-family:'Gill Sans MT';-inkscape-font-specification:'Gill Sans MT, Normal';font-variant-ligatures:normal;font-variant-caps:normal;font-variant-numeric:normal;font-feature-settings:normal;text-align:start;writing-mode:lr-tb;text-anchor:start;fill:#ffffff;stroke:none;stroke-width:2"
           id="tspan131-0-2-7"
           y="418.67987"
           x="571.86377">2</tspan>
        <tspan
           style="font-style:normal;font-variant:normal;font-weight:normal;font-stretch:normal;font-size:58.66666794px;font-family:'Gill Sans MT';-inkscape-font-specification:'Gill Sans MT, Normal';font-variant-ligatures:normal;font-variant-caps:normal;font-variant-numeric:normal;font-feature-settings:normal;text-align:start;writing-mode:lr-tb;text-anchor:start;fill:#ffffff;stroke:none;stroke-width:2"
           id="tspan145-2-4-4"
           y="-47.32003"
           x="402.90527" />
      </text>
    </g>
    <g
       id="g1456"
       transform="translate(-4.609375e-6)">
      <path
         d="m 523.86353,374.41296 c 0,-17.67467 14.32652,-32.00001 32.00028,-32.00001 17.67428,0 31.99972,14.32534 31.99972,32.00001 0,17.67466 -14.32544,32 -31.99972,32 -17.67376,0 -32.00028,-14.32534 -32.00028,-32 z"
         stroke-miterlimit="8"
         id="path23-2"
         inkscape:connector-curvature="0"
         style="overflow:hidden;fill:#4d59b3;fill-rule:evenodd;stroke:none;stroke-width:1.99999988;stroke-miterlimit:8;stroke-opacity:1"
         transform="translate(-240,23.999998)" />
      <text
         style="font-style:normal;font-variant:normal;font-weight:normal;font-stretch:normal;font-size:58.66666794px;font-family:'Gill Sans MT';-inkscape-font-specification:'Gill Sans MT, Normal';font-variant-ligatures:normal;font-variant-caps:normal;font-variant-numeric:normal;font-feature-settings:normal;text-align:start;writing-mode:lr-tb;text-anchor:start;overflow:hidden;fill:#ffffff;stroke:none;stroke-width:2"
         id="text195-4-5-3-4"
         font-size="24"
         font-weight="400"
         x="301.13983"
         y="418.42206">1</text>
    </g>
    <g
       id="g1468"
       transform="translate(309.33347)">
      <path
         d="m 1065.1968,374.41296 c 0,-17.67468 14.3243,-32.00002 32.0002,-32.00002 17.6756,0 31.9998,14.32534 31.9998,32.00002 0,17.67466 -14.3242,32 -31.9998,32 -17.6759,0 -32.0002,-14.32534 -32.0002,-32 z"
         stroke-miterlimit="8"
         id="path25-40-8-1"
         inkscape:connector-curvature="0"
         style="overflow:hidden;fill:#4d59b3;fill-rule:evenodd;stroke:none;stroke-width:1.99999988;stroke-miterlimit:8;stroke-opacity:1"
         transform="translate(-240,23.999998)" />
      <text
         style="font-style:normal;font-variant:normal;font-weight:normal;font-stretch:normal;font-size:58.66666794px;font-family:'Gill Sans MT';-inkscape-font-specification:'Gill Sans MT, Normal';font-variant-ligatures:normal;font-variant-caps:normal;font-variant-numeric:normal;font-feature-settings:normal;text-align:start;writing-mode:lr-tb;text-anchor:start;overflow:hidden;fill:#ffffff;stroke:none;stroke-width:2"
         id="text195-4-7-2-4"
         font-size="24"
         font-weight="400"
         x="842.88855"
         y="418.47937">3</text>
    </g>
    <g
       id="g1473"
       transform="translate(464.00025)">
      <path
         d="m 1335.8634,374.41296 c 0,-17.67468 14.3243,-32.00002 32.0002,-32.00002 17.6756,0 31.9998,14.32534 31.9998,32.00002 0,17.67466 -14.3242,32 -31.9998,32 -17.6759,0 -32.0002,-14.32534 -32.0002,-32 z"
         stroke-miterlimit="8"
         id="path25-40-8"
         inkscape:connector-curvature="0"
         style="overflow:hidden;fill:#4d59b3;fill-rule:evenodd;stroke:none;stroke-width:1.99999988;stroke-miterlimit:8;stroke-opacity:1"
         transform="translate(-240,23.999998)" />
      <text
         style="font-style:normal;font-variant:normal;font-weight:normal;font-stretch:normal;font-size:58.66666794px;font-family:'Gill Sans MT';-inkscape-font-specification:'Gill Sans MT, Normal';font-variant-ligatures:normal;font-variant-caps:normal;font-variant-numeric:normal;font-feature-settings:normal;text-align:start;writing-mode:lr-tb;text-anchor:start;overflow:hidden;fill:#ffffff;stroke:none;stroke-width:2"
         id="text195-4-8-6-6"
         font-size="24"
         font-weight="400"
         x="1108.6138"
         y="401.37781">...</text>
    </g>
  </g>
</svg>
