<svg width="1128" height="2304" xmlns="http://www.w3.org/2000/svg" xmlns:xlink="http://www.w3.org/1999/xlink" xml:space="preserve" overflow="hidden"><defs><clipPath id="clip0"><rect x="1628" y="41" width="1128" height="2304"/></clipPath></defs><g clip-path="url(#clip0)" transform="translate(-1628 -41)"><rect x="1628" y="40.9999" width="1128" height="2304" fill="#FFFFFF"/><path d="M2152.5 1263.55C2148.4 1278.54 2143.35 1294.97 2139.35 1316.85 2135.35 1338.72 2133.07 1364.32 2128.49 1394.79 2123.92 1425.26 2116.11 1474.93 2111.92 1499.67 2107.72 1524.41 2105.53 1530.04 2103.34 1543.22 2101.15 1556.41 2099.91 1565.48 2098.77 1578.76 2097.63 1592.03 2096.58 1607.41 2096.48 1622.89 2096.39 1638.36 2097.34 1654.89 2098.2 1671.6 2099.05 1688.32 2100.58 1705.03 2101.63 1723.18 2102.67 1741.33 2104.77 1760.62 2104.48 1780.49 2104.2 1800.36 2102.67 1819.46 2099.91 1842.39 2097.15 1865.31 2092.67 1892.73 2087.91 1918.04 2083.14 1943.35 2074.95 1972.87 2071.33 1994.26 2067.71 2015.66 2067.14 2031.32 2066.19 2046.42 2065.23 2061.51 2066.95 2073.64 2065.61 2084.81 2064.28 2095.99 2061.8 2104.2 2058.18 2113.47 2054.56 2122.73 2049.7 2131.9 2043.89 2140.41 2038.08 2148.91 2023.32 2164.48 2023.32 2164.48 2014.27 2174.7 1998.83 2191.99 1989.59 2201.73 1980.35 2211.47 1974.06 2217.78 1967.87 2222.93 1961.68 2228.09 1956.25 2230.38 1952.44 2232.68 1948.62 2234.97 1949.1 2236.02 1945 2236.69 1940.91 2237.36 1934.62 2238.12 1927.86 2236.69 1921.09 2235.25 1912.8 2231.91 1904.42 2228.09 1896.04 2224.27 1882.89 2217.77 1877.55 2213.76 1872.22 2209.75 1873.27 2207.65 1872.41 2204.02 1871.55 2200.39 1870.89 2196.57 1872.41 2191.99 1873.93 2187.4 1875.65 2183.48 1881.56 2176.51 1887.46 2169.54 1895.75 2161.61 1907.85 2150.15 1919.95 2138.69 1942.34 2119.3 1954.15 2107.74 1965.96 2096.18 1970.82 2091.21 1978.73 2080.8 1986.64 2070.39 1997.12 2054.06 2001.59 2045.27 2006.07 2036.48 2004.55 2034.86 2005.6 2028.08 2006.64 2021.29 2007.6 2016.9 2007.88 2004.58 2008.17 1992.26 2007.98 1976.21 2007.31 1954.14 2006.64 1932.08 2004.93 1903.04 2003.88 1872.19 2002.83 1841.34 2001.02 1795.68 2001.02 1769.03 2001.02 1742.38 2003.31 1727.38 2003.88 1712.29 2004.45 1697.2 2004.74 1690.51 2004.45 1678.48 2004.17 1666.44 2003.5 1658.23 2002.17 1640.08 2000.83 1621.93 1998.26 1604.74 1996.45 1569.59 1994.64 1534.44 1992.35 1469.39 1991.31 1429.18 1990.26 1388.96 1990.16 1358.59 1990.16 1328.31 1990.16 1298.03 1990.73 1272.76 1991.31 1247.5" stroke="#7F7F7F" stroke-width="4.58333" stroke-miterlimit="8" fill="none" fill-rule="evenodd"/><path d="M2150.5 1263.5C2161.5 1270.23 2174.4 1277.93 2180.78 1282.99 2187.16 1288.05 2186.01 1282.61 2188.77 1293.88 2191.54 1305.15 2193.82 1327.12 2197.34 1350.62 2200.87 1374.12 2206.1 1411 2209.91 1434.88 2213.72 1458.76 2215.05 1467.65 2220.19 1493.92 2225.34 1520.19 2235.9 1566.43 2240.76 1592.51 2245.62 1618.59 2246.76 1635.49 2249.33 1650.4 2251.9 1665.3 2253.8 1672.18 2256.18 1681.92 2258.56 1691.67 2262.28 1697.69 2263.61 1708.86 2264.94 1720.04 2264.37 1731.79 2264.18 1748.98 2263.99 1766.18 2262.18 1789.58 2262.47 1812.03 2262.75 1834.48 2264.37 1861.33 2265.9 1883.68 2267.42 1906.04 2269.61 1924.95 2271.61 1946.16 2273.61 1967.37 2275.8 1989.24 2277.89 2010.93 2279.99 2032.61 2283.22 2060.99 2284.18 2076.27 2285.13 2091.56 2284.46 2095.38 2283.6 2102.64 2282.75 2109.9 2280.65 2113.53 2279.03 2119.83 2277.42 2126.14 2279.89 2128.72 2273.89 2140.47 2267.89 2152.22 2254.09 2174 2243.04 2190.33 2232 2206.67 2216 2224.25 2207.63 2238.48 2199.25 2252.72 2194.2 2267.04 2192.77 2275.74 2191.35 2284.43 2194.58 2286.53 2199.06 2290.64 2203.53 2294.75 2209.44 2296.66 2219.62 2300.38 2229.81 2304.11 2250.95 2310.89 2260.18 2312.99 2269.42 2315.1 2269.42 2314.91 2275.04 2312.99 2280.65 2311.08 2288.08 2308.6 2293.89 2301.53 2299.7 2294.46 2303.98 2284.05 2309.88 2270.58 2315.79 2257.11 2324.16 2234.76 2329.31 2220.71 2334.45 2206.67 2337.59 2197.88 2340.73 2186.32 2343.87 2174.76 2347.3 2162.44 2348.16 2151.36 2349.01 2140.28 2346.63 2129.19 2345.87 2119.83 2345.11 2110.47 2342.92 2105.03 2343.59 2095.19 2344.25 2085.35 2345.3 2081.33 2349.87 2060.79 2354.44 2040.26 2364.34 1999.75 2371.01 1971.95 2377.67 1944.15 2385.58 1914.92 2389.86 1894 2394.14 1873.08 2395.29 1861.61 2396.72 1846.43 2398.14 1831.24 2398.71 1819.96 2398.43 1802.86 2398.14 1785.76 2396.33 1762.07 2395 1743.83 2393.67 1725.58 2392.24 1708.86 2390.43 1693.39 2388.62 1677.91 2386.05 1669.79 2384.15 1650.97 2382.24 1632.15 2379.29 1601.49 2379.01 1580.47 2378.72 1559.45 2381.48 1542.35 2382.43 1524.87 2383.39 1507.39 2383.77 1490.77 2384.72 1475.58 2385.67 1460.39 2387.67 1448.16 2388.15 1433.74 2388.62 1419.31 2388.1 1404.17 2387.57 1389.03" stroke="#7F7F7F" stroke-width="4.58333" stroke-miterlimit="8" fill="none" fill-rule="evenodd"/><path d="M2377.89 1237.5C2373.29 1200.51 2370.13 1161.61 2368 1117.23 2365.86 1072.84 2363.34 1014.81 2365.08 971.187 2366.83 927.565 2370.91 895.779 2378.48 855.498 2386.05 815.217 2398.27 772.358 2410.5 729.5" stroke="#7F7F7F" stroke-width="4.58333" stroke-miterlimit="8" fill="none" fill-rule="evenodd"/><path d="M2380.5 1295.5 2377.5 1265.5" stroke="#7F7F7F" stroke-width="4.58333" stroke-miterlimit="8" fill="none" fill-rule="evenodd"/><path d="M2408.81 728.191C2412.72 744.028 2416.25 770.646 2420.26 794.021 2424.27 817.395 2429.14 846.78 2432.86 868.437 2436.58 890.094 2440.68 911.656 2442.59 923.963 2444.5 936.271 2445.93 932.645 2444.31 942.281 2442.69 951.917 2436.86 964.415 2432.86 981.779 2428.85 999.143 2424.84 1019.85 2420.26 1046.46 2415.68 1073.08 2409.19 1115.06 2405.38 1141.49 2401.56 1167.92 2399.84 1190.72 2397.36 1205.03 2394.88 1219.34 2395.74 1220.58 2390.49 1227.35 2385.24 1234.13 2372.45 1239.09 2365.87 1245.67 2359.29 1252.25 2354.61 1258.93 2350.99 1266.85 2347.36 1274.77 2344.69 1287.55 2344.11 1293.18 2343.54 1298.81 2346.02 1299.48 2347.55 1300.62 2349.08 1301.77 2350.7 1303.01 2353.28 1300.05 2355.85 1297.09 2359.38 1288.79 2363.01 1282.88 2366.63 1276.96 2371.98 1267.81 2375.03 1264.56 2378.08 1261.32 2379.61 1262.18 2381.33 1263.42 2383.05 1264.66 2384.96 1266.57 2385.34 1272 2385.72 1277.44 2385.72 1287.65 2383.62 1296.05 2381.52 1304.44 2375.7 1314.74 2372.74 1322.38 2369.78 1330.01 2370.55 1333.54 2365.87 1341.84 2361.2 1350.14 2349.84 1364.45 2344.69 1372.18 2339.53 1379.91 2337.05 1384.58 2334.95 1388.21 2332.85 1391.83 2332.57 1392.12 2332.09 1393.93 2331.61 1395.74 2331.04 1396.89 2332.09 1399.08 2333.14 1401.28 2335.34 1405.29 2338.39 1407.1 2341.44 1408.91 2344.4 1411.68 2350.41 1409.96 2356.42 1408.24 2367.02 1401.56 2374.46 1396.79 2381.9 1392.02 2387.72 1389.92 2395.07 1381.34 2402.42 1372.75 2412.25 1356.82 2418.54 1345.27 2424.84 1333.73 2429.71 1322.19 2432.86 1312.07 2436.01 1301.96 2436.96 1293.85 2437.44 1284.6 2437.91 1275.34 2435.72 1264.28 2435.72 1256.55 2435.72 1248.82 2432.28 1251.97 2437.44 1238.23 2442.59 1224.49 2454.99 1200.83 2466.64 1174.12 2478.28 1147.4 2495.93 1107.05 2507.29 1077.95 2518.64 1048.85 2528.95 1019.18 2534.77 999.525 2540.59 979.871 2540.59 971.38 2542.21 960.027 2543.83 948.673 2544.5 947.528 2544.5 931.405 2544.5 915.282 2543.83 893.433 2542.21 863.285 2540.59 833.137 2537.15 780.378 2534.77 750.516 2532.38 720.654 2530.66 702.813 2527.9 684.113 2525.13 665.414 2521.88 651.867 2518.16 638.319 2514.44 624.771 2510.72 613.323 2505.57 602.828 2500.42 592.334 2498.51 585.941 2487.25 575.351 2475.99 564.761 2458.81 552.263 2438.01 539.288 2417.21 526.313 2389.82 511.906 2362.44 497.5" stroke="#7F7F7F" stroke-width="4.58333" stroke-miterlimit="8" fill="none" fill-rule="evenodd"/><path d="M1991.5 1250.5C1993.11 1229.54 1994.72 1208.57 1996.61 1192.62 1998.5 1176.67 2000.4 1169.13 2002.86 1154.8 2005.32 1140.48 2008.06 1125.1 2011.37 1106.67 2014.69 1088.23 2020.27 1062.54 2022.73 1044.2 2025.19 1025.87 2025.19 1013.45 2026.14 996.64 2027.09 979.831 2028.22 961.016 2028.41 943.347 2028.6 925.678 2028.6 912.785 2027.27 890.627 2025.95 868.469 2022.73 834.755 2020.46 810.401 2018.19 786.046 2015.63 761.5 2013.65 744.5" stroke="#7F7F7F" stroke-width="4.58333" stroke-miterlimit="8" fill="none" fill-rule="evenodd"/><path d="M2014.63 740.128C2007.7 762.948 2000.78 786.342 1993.99 808.303 1987.21 830.264 1978.52 857.477 1973.93 871.895 1969.35 886.313 1972.69 883.162 1966.48 894.811 1960.27 906.459 1949.95 922.596 1936.67 941.788 1923.39 960.98 1905.91 985.137 1886.8 1009.96 1867.69 1034.79 1834.64 1075.18 1822.03 1090.74 1809.42 1106.31 1813.91 1100 1811.14 1103.35 1808.37 1106.69 1807.89 1107.26 1805.41 1110.79 1802.92 1114.33 1804.83 1113.56 1796.23 1124.54 1787.64 1135.52 1766.04 1161.78 1753.82 1176.68 1741.59 1191.57 1732.03 1201.69 1722.86 1213.92 1713.69 1226.14 1703.95 1242.08 1698.79 1250.01 1693.63 1257.93 1694.39 1258.79 1691.91 1261.47 1689.42 1264.14 1686.94 1265.48 1683.88 1266.05 1680.83 1266.62 1677.39 1267 1673.57 1264.9 1669.74 1262.8 1663.63 1258.03 1660.95 1253.45 1658.28 1248.86 1657.61 1243.42 1657.52 1237.4 1657.42 1231.39 1657.71 1225.66 1660.38 1217.35 1663.06 1209.05 1667.83 1197.59 1673.57 1187.56 1679.3 1177.54 1687.23 1166.65 1694.77 1157.2 1702.32 1147.75 1711.4 1138.1 1718.85 1130.84 1726.3 1123.59 1733.56 1119.2 1739.49 1113.66 1745.41 1108.12 1749.8 1104.3 1754.39 1097.62 1758.97 1090.93 1767 1073.56 1767 1073.56L1819.16 973.298C1833.78 945.512 1845.82 922.978 1854.7 906.841 1863.59 890.705 1867.5 884.689 1872.47 876.478 1877.44 868.266 1881.93 862.251 1884.51 857.572 1887.09 852.893 1886.71 853.848 1887.95 848.406 1889.19 842.963 1890.43 834.656 1891.96 824.917 1893.49 815.178 1897.12 789.97 1897.12 789.97 1899.7 773.069 1902.95 746.525 1907.44 723.514 1911.93 700.502 1918.23 673.385 1924.06 651.901 1929.89 630.418 1935.14 611.13 1942.4 594.612 1949.67 578.093 1958.45 563.961 1967.63 552.79 1976.8 541.618 1981.29 537.13 1997.43 527.582 2013.58 518.034 2039.04 506.767 2064.5 495.5" stroke="#7F7F7F" stroke-width="4.58333" stroke-miterlimit="8" fill="none" fill-rule="evenodd"/><path d="M2362.5 497.5C2353.3 493.393 2344.11 489.285 2335.49 483.745 2326.87 478.205 2317.39 470.755 2310.78 464.259 2304.17 457.764 2299.76 451.364 2295.83 444.773 2291.91 438.183 2289.22 432.356 2287.21 424.715 2285.2 417.073 2284.34 406.852 2283.76 398.924 2283.19 390.996 2283 384.596 2283.76 377.146 2284.53 369.696 2285.01 362.723 2288.36 354.221 2291.71 345.72 2303.88 326.139 2303.88 326.139 2309.05 316.778 2315.18 306.748 2319.4 298.056 2323.61 289.364 2325.81 284.874 2329.17 273.985 2332.52 263.096 2337.4 246.38 2339.51 232.721 2341.62 219.062 2343.06 206.549 2341.81 192.03 2340.57 177.511 2338.08 159.935 2332.04 145.608 2326.01 131.28 2316.24 116.57 2305.6 106.063 2294.97 95.556 2278.88 87.8187 2268.25 82.5652 2257.61 77.3117 2250.91 76.1654 2241.81 74.5416 2232.71 72.9177 2223.23 71.9628 2213.65 72.8224 2204.07 73.682 2194.97 75.2105 2184.34 79.6998 2173.71 84.189 2159.82 91.735 2149.86 99.7586 2139.89 107.782 2131.56 117.525 2124.57 127.841 2117.58 138.157 2112.31 149.142 2107.9 161.655 2103.5 174.168 2100.53 188.973 2098.13 202.919 2095.74 216.865 2093.92 231.67 2093.53 245.33 2093.15 258.989 2094.49 271.502 2095.83 284.875 2097.17 298.247 2098.9 313.912 2101.58 325.566 2104.26 337.219 2107.61 347.058 2111.93 354.795 2116.24 362.532 2121.89 367.021 2127.44 371.988 2133 376.955 2140.47 380.203 2145.26 384.597 2150.05 388.991 2154.36 391.283 2156.18 398.351 2158 405.42 2157.14 419.27 2156.18 427.007 2155.22 434.744 2152.92 439.615 2150.43 444.773 2147.94 449.931 2145.16 453.944 2141.24 457.955 2137.31 461.967 2133.19 465.215 2126.87 468.844 2120.55 472.474 2114.03 475.244 2103.3 479.734 2092.58 484.223 2077.54 491.148 2062.5 496.927" stroke="#7F7F7F" stroke-width="4.58333" stroke-miterlimit="8" fill="none" fill-rule="evenodd"/><path d="M1760.5 1115C1760.5 1111.41 1763.41 1108.5 1767 1108.5 1770.59 1108.5 1773.5 1111.41 1773.5 1115 1773.5 1118.59 1770.59 1121.5 1767 1121.5 1763.41 1121.5 1760.5 1118.59 1760.5 1115Z" stroke="#000000" stroke-width="4.58333" stroke-miterlimit="8" fill-rule="evenodd"/><path d="M0 0 82.692 133.61" stroke="#000000" stroke-width="4.58333" stroke-miterlimit="8" fill="none" fill-rule="evenodd" transform="matrix(1 0 0 -1 1681.5 1253.11)"/><path d="M0 0 164.947 244.608" stroke="#000000" stroke-width="4.58333" stroke-miterlimit="8" fill="none" fill-rule="evenodd" transform="matrix(1 0 0 -1 1771.5 1110.11)"/><path d="M0 0 57.2386 277.999" stroke="#000000" stroke-width="4.58333" stroke-miterlimit="8" fill="none" fill-rule="evenodd" transform="matrix(-1 0 0 1 1999.74 576.5)"/><path d="M0 0 140.597 62.5668" stroke="#000000" stroke-width="4.58333" stroke-miterlimit="8" fill="none" fill-rule="evenodd" transform="matrix(-1 0 0 1 2148.1 505.5)"/><path d="M0 0 1.71893 263.11" stroke="#000000" stroke-width="4.58333" stroke-miterlimit="8" fill="none" fill-rule="evenodd" transform="matrix(1 0 0 -1 2222.5 351.61)"/><path d="M2222.51 469.382 2222.5 365.5" stroke="#000000" stroke-width="4.58333" stroke-miterlimit="8" fill="none" fill-rule="evenodd"/><path d="M0 0 27.0218 266.088" stroke="#000000" stroke-width="4.58333" stroke-miterlimit="8" fill="none" fill-rule="evenodd" transform="matrix(1 0 0 -1 2195.5 747.588)"/><path d="M0 0 1.35732 247.593" stroke="#000000" stroke-width="4.58333" stroke-miterlimit="8" fill="none" fill-rule="evenodd" transform="matrix(1 0 0 -1 2194.5 1009.09)"/><path d="M2195.18 1165.76 2194.5 1021.5" stroke="#000000" stroke-width="4.58333" stroke-miterlimit="8" fill="none" fill-rule="evenodd"/><path d="M2295.5 519.5 2436.36 601.08" stroke="#000000" stroke-width="4.58333" stroke-miterlimit="8" fill="none" fill-rule="evenodd"/><path d="M2444.5 613.5 2494.14 931.838" stroke="#000000" stroke-width="4.58333" stroke-miterlimit="8" fill="none" fill-rule="evenodd"/><path d="M2228.5 478.5 2285.45 513.708" stroke="#000000" stroke-width="4.58333" stroke-miterlimit="8" stroke-dasharray="4.58333 4.58333" fill="none" fill-rule="evenodd"/><path d="M0 0 58.4278 24.4284" stroke="#000000" stroke-width="4.58333" stroke-miterlimit="8" stroke-dasharray="4.58333 4.58333" fill="none" fill-rule="evenodd" transform="matrix(-1 0 0 1 2214.93 477.5)"/><path d="M2190.11 1173.18 2112.5 1166.5" stroke="#000000" stroke-width="4.58333" stroke-miterlimit="8" stroke-dasharray="4.58333 4.58333" fill="none" fill-rule="evenodd"/><path d="M2201.5 1175.5 2268.73 1192.71" stroke="#000000" stroke-width="4.58333" stroke-miterlimit="8" stroke-dasharray="4.58333 4.58333" fill="none" fill-rule="evenodd"/><path d="M0 0 84.1872 286.981" stroke="#000000" stroke-width="4.58333" stroke-miterlimit="8" fill="none" fill-rule="evenodd" transform="matrix(-1 0 0 1 2496.69 943.5)"/><path d="M0 0 61.2507 167.219" stroke="#000000" stroke-width="4.58333" stroke-miterlimit="8" fill="none" fill-rule="evenodd" transform="matrix(-1 0 0 1 2412.75 1230.5)"/><path d="M1672.5 1260C1672.5 1256.41 1675.41 1253.5 1679 1253.5 1682.59 1253.5 1685.5 1256.41 1685.5 1260 1685.5 1263.59 1682.59 1266.5 1679 1266.5 1675.41 1266.5 1672.5 1263.59 1672.5 1260Z" stroke="#000000" stroke-width="4.58333" stroke-miterlimit="8" fill-rule="evenodd"/><path d="M1934.5 861C1934.5 857.41 1937.41 854.5 1941 854.5 1944.59 854.5 1947.5 857.41 1947.5 861 1947.5 864.59 1944.59 867.5 1941 867.5 1937.41 867.5 1934.5 864.59 1934.5 861Z" stroke="#000000" stroke-width="4.58333" stroke-miterlimit="8" fill-rule="evenodd"/><path d="M1994.5 572C1994.5 568.41 1997.41 565.5 2001 565.5 2004.59 565.5 2007.5 568.41 2007.5 572 2007.5 575.59 2004.59 578.5 2001 578.5 1997.41 578.5 1994.5 575.59 1994.5 572Z" stroke="#000000" stroke-width="4.58333" stroke-miterlimit="8" fill-rule="evenodd"/><path d="M2146.5 504C2146.5 500.41 2149.41 497.5 2153 497.5 2156.59 497.5 2159.5 500.41 2159.5 504 2159.5 507.59 2156.59 510.5 2153 510.5 2149.41 510.5 2146.5 507.59 2146.5 504Z" stroke="#000000" stroke-width="4.58333" stroke-miterlimit="8" fill-rule="evenodd"/><path d="M2215.5 475C2215.5 471.41 2218.41 468.5 2222 468.5 2225.59 468.5 2228.5 471.41 2228.5 475 2228.5 478.59 2225.59 481.5 2222 481.5 2218.41 481.5 2215.5 478.59 2215.5 475Z" stroke="#000000" stroke-width="4.58333" stroke-miterlimit="8" fill-rule="evenodd"/><path d="M2215.5 359C2215.5 355.41 2218.41 352.5 2222 352.5 2225.59 352.5 2228.5 355.41 2228.5 359 2228.5 362.59 2225.59 365.5 2222 365.5 2218.41 365.5 2215.5 362.59 2215.5 359Z" stroke="#000000" stroke-width="4.58333" stroke-miterlimit="8" fill-rule="evenodd"/><path d="M2217.5 82C2217.5 78.4102 2220.41 75.5001 2224 75.5001 2227.59 75.5001 2230.5 78.4102 2230.5 82 2230.5 85.5898 2227.59 88.4998 2224 88.4998 2220.41 88.4998 2217.5 85.5898 2217.5 82Z" stroke="#000000" stroke-width="4.58333" stroke-miterlimit="8" fill-rule="evenodd"/><path d="M2283.5 515C2283.5 511.41 2286.41 508.5 2290 508.5 2293.59 508.5 2296.5 511.41 2296.5 515 2296.5 518.59 2293.59 521.5 2290 521.5 2286.41 521.5 2283.5 518.59 2283.5 515Z" stroke="#000000" stroke-width="4.58333" stroke-miterlimit="8" fill-rule="evenodd"/><path d="M2188.5 755C2188.5 751.41 2191.41 748.5 2195 748.5 2198.59 748.5 2201.5 751.41 2201.5 755 2201.5 758.59 2198.59 761.5 2195 761.5 2191.41 761.5 2188.5 758.59 2188.5 755Z" stroke="#000000" stroke-width="4.58333" stroke-miterlimit="8" fill-rule="evenodd"/><path d="M2435.5 608C2435.5 604.41 2438.41 601.5 2442 601.5 2445.59 601.5 2448.5 604.41 2448.5 608 2448.5 611.59 2445.59 614.5 2442 614.5 2438.41 614.5 2435.5 611.59 2435.5 608Z" stroke="#000000" stroke-width="4.58333" stroke-miterlimit="8" fill-rule="evenodd"/><path d="M2187.5 1015C2187.5 1011.41 2190.41 1008.5 2194 1008.5 2197.59 1008.5 2200.5 1011.41 2200.5 1015 2200.5 1018.59 2197.59 1021.5 2194 1021.5 2190.41 1021.5 2187.5 1018.59 2187.5 1015Z" stroke="#000000" stroke-width="4.58333" stroke-miterlimit="8" fill-rule="evenodd"/><path d="M2490.5 937C2490.5 933.41 2493.41 930.5 2497 930.5 2500.59 930.5 2503.5 933.41 2503.5 937 2503.5 940.59 2500.59 943.5 2497 943.5 2493.41 943.5 2490.5 940.59 2490.5 937Z" stroke="#000000" stroke-width="4.58333" stroke-miterlimit="8" fill-rule="evenodd"/><path d="M2405.5 1237C2405.5 1233.41 2408.41 1230.5 2412 1230.5 2415.59 1230.5 2418.5 1233.41 2418.5 1237 2418.5 1240.59 2415.59 1243.5 2412 1243.5 2408.41 1243.5 2405.5 1240.59 2405.5 1237Z" stroke="#000000" stroke-width="4.58333" stroke-miterlimit="8" fill-rule="evenodd"/><path d="M2340.5 1403C2340.5 1399.41 2343.41 1396.5 2347 1396.5 2350.59 1396.5 2353.5 1399.41 2353.5 1403 2353.5 1406.59 2350.59 1409.5 2347 1409.5 2343.41 1409.5 2340.5 1406.59 2340.5 1403Z" stroke="#000000" stroke-width="4.58333" stroke-miterlimit="8" fill-rule="evenodd"/><path d="M2189.5 1173C2189.5 1169.41 2192.41 1166.5 2196 1166.5 2199.59 1166.5 2202.5 1169.41 2202.5 1173 2202.5 1176.59 2199.59 1179.5 2196 1179.5 2192.41 1179.5 2189.5 1176.59 2189.5 1173Z" stroke="#000000" stroke-width="4.58333" stroke-miterlimit="8" fill-rule="evenodd"/><path d="M0 0 49.312 468.154" stroke="#000000" stroke-width="4.58333" stroke-miterlimit="8" fill="none" fill-rule="evenodd" transform="matrix(-1 0 0 1 2109.81 1172.5)"/><path d="M2274.5 1201.5 2297.06 1680.13" stroke="#000000" stroke-width="4.58333" stroke-miterlimit="8" fill="none" fill-rule="evenodd"/><path d="M0 0 24.8023 383.466" stroke="#000000" stroke-width="4.58333" stroke-miterlimit="8" fill="none" fill-rule="evenodd" transform="matrix(-1 0 0 1 2060.3 1653.5)"/><path d="M2296.5 1692.5 2315.98 2093.73" stroke="#000000" stroke-width="4.58333" stroke-miterlimit="8" fill="none" fill-rule="evenodd"/><path d="M0 0 123.338 175.21" stroke="#000000" stroke-width="4.58333" stroke-miterlimit="8" fill="none" fill-rule="evenodd" transform="matrix(-1 0 0 1 2039.84 2039.5)"/><path d="M0 0 74.2475 181.882" stroke="#000000" stroke-width="4.58333" stroke-miterlimit="8" fill="none" fill-rule="evenodd" transform="matrix(-1 0 0 1 2314.75 2105.5)"/><path d="M2102.5 1166C2102.5 1162.41 2105.41 1159.5 2109 1159.5 2112.59 1159.5 2115.5 1162.41 2115.5 1166 2115.5 1169.59 2112.59 1172.5 2109 1172.5 2105.41 1172.5 2102.5 1169.59 2102.5 1166Z" stroke="#000000" stroke-width="4.58333" stroke-miterlimit="8" fill-rule="evenodd"/><path d="M2267.5 1195C2267.5 1191.41 2270.41 1188.5 2274 1188.5 2277.59 1188.5 2280.5 1191.41 2280.5 1195 2280.5 1198.59 2277.59 1201.5 2274 1201.5 2270.41 1201.5 2267.5 1198.59 2267.5 1195Z" stroke="#000000" stroke-width="4.58333" stroke-miterlimit="8" fill-rule="evenodd"/><path d="M2053.5 1647C2053.5 1643.41 2056.41 1640.5 2060 1640.5 2063.59 1640.5 2066.5 1643.41 2066.5 1647 2066.5 1650.59 2063.59 1653.5 2060 1653.5 2056.41 1653.5 2053.5 1650.59 2053.5 1647Z" stroke="#000000" stroke-width="4.58333" stroke-miterlimit="8" fill-rule="evenodd"/><path d="M2290.5 1686C2290.5 1682.41 2293.41 1679.5 2297 1679.5 2300.59 1679.5 2303.5 1682.41 2303.5 1686 2303.5 1689.59 2300.59 1692.5 2297 1692.5 2293.41 1692.5 2290.5 1689.59 2290.5 1686Z" stroke="#000000" stroke-width="4.58333" stroke-miterlimit="8" fill-rule="evenodd"/><path d="M2028.5 2044C2028.5 2040.41 2031.41 2037.5 2035 2037.5 2038.59 2037.5 2041.5 2040.41 2041.5 2044 2041.5 2047.59 2038.59 2050.5 2035 2050.5 2031.41 2050.5 2028.5 2047.59 2028.5 2044Z" stroke="#000000" stroke-width="4.58333" stroke-miterlimit="8" fill-rule="evenodd"/><path d="M2309.5 2101C2309.5 2097.41 2312.41 2094.5 2316 2094.5 2319.59 2094.5 2322.5 2097.41 2322.5 2101 2322.5 2104.59 2319.59 2107.5 2316 2107.5 2312.41 2107.5 2309.5 2104.59 2309.5 2101Z" stroke="#000000" stroke-width="4.58333" stroke-miterlimit="8" fill-rule="evenodd"/><path d="M1905.5 2219C1905.5 2215.41 1908.41 2212.5 1912 2212.5 1915.59 2212.5 1918.5 2215.41 1918.5 2219 1918.5 2222.59 1915.59 2225.5 1912 2225.5 1908.41 2225.5 1905.5 2222.59 1905.5 2219Z" stroke="#000000" stroke-width="4.58333" stroke-miterlimit="8" fill-rule="evenodd"/><path d="M2231.5 2294C2231.5 2290.41 2234.41 2287.5 2238 2287.5 2241.59 2287.5 2244.5 2290.41 2244.5 2294 2244.5 2297.59 2241.59 2300.5 2238 2300.5 2234.41 2300.5 2231.5 2297.59 2231.5 2294Z" stroke="#000000" stroke-width="4.58333" stroke-miterlimit="8" fill-rule="evenodd"/><rect x="2076.5" y="599.5" width="266" height="78" stroke="#000000" stroke-width="3.4375" stroke-linejoin="round" stroke-miterlimit="10" fill="#FFFFFF"/><text font-family="Times New Roman,Times New Roman_MSFontService,sans-serif" font-style="italic" font-weight="700" font-size="37" transform="matrix(1 0 0 1 2108.98 650)">Upper_Spine</text><rect x="2153.5" y="378.5" width="144" height="77" stroke="#000000" stroke-width="3.4375" stroke-linejoin="round" stroke-miterlimit="10" fill="#FFFFFF"/><text font-family="Times New Roman,Times New Roman_MSFontService,sans-serif" font-style="italic" font-weight="700" font-size="37" transform="matrix(1 0 0 1 2185.74 429)">Neck</text><rect x="2150.5" y="173.5" width="149" height="77" stroke="#000000" stroke-width="3.4375" stroke-linejoin="round" stroke-miterlimit="10" fill="#FFFFFF"/><text font-family="Times New Roman,Times New Roman_MSFontService,sans-serif" font-style="italic" font-weight="700" font-size="37" transform="matrix(1 0 0 1 2183.42 224)">Head</text><rect x="2154.5" y="1518.5" width="280" height="78" stroke="#000000" stroke-width="3.4375" stroke-linejoin="round" stroke-miterlimit="10" fill="#FFFFFF"/><text font-family="Times New Roman,Times New Roman_MSFontService,sans-serif" font-style="italic" font-weight="700" font-size="37" transform="matrix(1 0 0 1 2186.67 1570)">Upper_Leg_L</text><rect x="2168.5" y="1813.5" width="280" height="78" stroke="#000000" stroke-width="3.4375" stroke-linejoin="round" stroke-miterlimit="10" fill="#FFFFFF"/><text font-family="Times New Roman,Times New Roman_MSFontService,sans-serif" font-style="italic" font-weight="700" font-size="37" transform="matrix(1 0 0 1 2201.23 1865)">Lower_Leg_L</text><rect x="2190.5" y="2144.5" width="265" height="77.9998" stroke="#000000" stroke-width="3.4375" stroke-linejoin="round" stroke-miterlimit="10" fill="#FFFFFF"/><text font-family="Times New Roman,Times New Roman_MSFontService,sans-serif" font-style="italic" font-weight="700" font-size="37" transform="matrix(1 0 0 1 2222.87 2196)">Full_Foot<tspan font-size="37" x="155.833" y="0">_L</tspan></text><rect x="2407.5" y="1296.5" width="280" height="78" stroke="#000000" stroke-width="3.4375" stroke-linejoin="round" stroke-miterlimit="10" fill="#FFFFFF"/><text font-family="Times New Roman,Times New Roman_MSFontService,sans-serif" font-style="italic" font-weight="700" font-size="37" transform="matrix(1 0 0 1 2440.06 1347)">Full_Hand<tspan font-size="37" x="170.156" y="0">_L</tspan></text><rect x="2346.5" y="500.5" width="251" height="78" stroke="#000000" stroke-width="3.4375" stroke-linejoin="round" stroke-miterlimit="10" fill="#FFFFFF"/><text font-family="Times New Roman,Times New Roman_MSFontService,sans-serif" font-style="italic" font-weight="700" font-size="37" transform="matrix(1 0 0 1 2379.01 551)">Shoulder_L</text><rect x="2436.5" y="719.5" width="291" height="78.0001" stroke="#000000" stroke-width="3.4375" stroke-linejoin="round" stroke-miterlimit="10" fill="#FFFFFF"/><text font-family="Times New Roman,Times New Roman_MSFontService,sans-serif" font-style="italic" font-weight="700" font-size="37" transform="matrix(1 0 0 1 2469.33 771)">Upper_Arm_L</text><rect x="2389.5" y="1034.5" width="293" height="78" stroke="#000000" stroke-width="3.4375" stroke-linejoin="round" stroke-miterlimit="10" fill="#FFFFFF"/><text font-family="Times New Roman,Times New Roman_MSFontService,sans-serif" font-style="italic" font-weight="700" font-size="37" transform="matrix(1 0 0 1 2421.62 1086)">Lower_Arm_L</text><path d="M1.14977-1.98236 230.693 131.153 228.393 135.117-1.14977 1.98236ZM232.477 118.941 249.367 144.633 218.68 142.73Z" transform="matrix(-1 0 0 1 2193.87 1172.5)"/><path d="M2.29141-0.0342641 8.00491 382.055 3.42209 382.124-2.29141 0.0342641ZM19.3934 377.301 6.05614 405.004-8.1035 377.712Z" transform="matrix(1 0 0 -1 2193.5 1172.5)"/><path d="M2193.91 1170.25 2589.01 1242 2588.19 1246.51 2193.09 1174.75ZM2586.54 1229.91 2611.15 1248.35 2581.63 1256.97Z"/><text font-family="Times New Roman,Times New Roman_MSFontService,sans-serif" font-weight="700" font-size="55" transform="matrix(1 0 0 1 1902.19 1344)">x<tspan font-weight="400" font-size="37" x="27.5" y="13">Ref</tspan></text><rect x="2133.5" y="1045.5" width="125" height="78" stroke="#000000" stroke-width="3.4375" stroke-linejoin="round" stroke-miterlimit="10" fill="#FFFFFF"/><text font-family="Times New Roman,Times New Roman_MSFontService,sans-serif" font-style="italic" font-weight="700" font-size="37" transform="matrix(1 0 0 1 2166.06 1097)">Hip</text><rect x="2062.5" y="855.5" width="268" height="78" stroke="#000000" stroke-width="3.4375" stroke-linejoin="round" stroke-miterlimit="10" fill="#FFFFFF"/><text font-family="Times New Roman,Times New Roman_MSFontService,sans-serif" font-style="italic" font-weight="700" font-size="37" transform="matrix(1 0 0 1 2094.61 907)">Lower_Spine<tspan font-style="normal" font-size="55" x="124.762" y="-135">z</tspan><tspan font-style="normal" font-weight="400" font-size="37" x="149.398" y="-122">Ref</tspan><tspan font-style="normal" font-size="55" x="63.9055" y="327">O</tspan><tspan font-style="normal" font-weight="400" font-size="37" x="106.874" y="340">Ref</tspan><tspan font-style="normal" font-size="55" x="427.484" y="294">y</tspan><tspan font-style="normal" font-weight="400" font-size="37" x="454.984" y="307">Ref</tspan></text></g></svg>