<?xml version="1.0" encoding="UTF-8" standalone="no"?>
<svg
   xmlns:osb="http://www.openswatchbook.org/uri/2009/osb"
   xmlns:dc="http://purl.org/dc/elements/1.1/"
   xmlns:cc="http://creativecommons.org/ns#"
   xmlns:rdf="http://www.w3.org/1999/02/22-rdf-syntax-ns#"
   xmlns:svg="http://www.w3.org/2000/svg"
   xmlns="http://www.w3.org/2000/svg"
   xmlns:sodipodi="http://sodipodi.sourceforge.net/DTD/sodipodi-0.dtd"
   xmlns:inkscape="http://www.inkscape.org/namespaces/inkscape"
   height="540"
   version="1.1"
   width="960"
   id="svg86"
   sodipodi:docname="OSI_X-Junction.svg"
   inkscape:version="0.92.1 r15371"
   viewBox="0 0 1920 0.01">
  <metadata
     id="metadata92">
    <rdf:RDF>
      <cc:Work
         rdf:about="">
        <dc:format>image/svg+xml</dc:format>
        <dc:type
           rdf:resource="http://purl.org/dc/dcmitype/StillImage" />
        <dc:title></dc:title>
      </cc:Work>
    </rdf:RDF>
  </metadata>
  <defs
     id="defs90">
    <linearGradient
       id="linearGradient5341"
       osb:paint="solid">
      <stop
         style="stop-color:#b3b3b3;stop-opacity:1;"
         offset="0"
         id="stop5339" />
    </linearGradient>
    <filter
       style="color-interpolation-filters:sRGB"
       inkscape:label="Colorize"
       id="filter2485">
      <feComposite
         k4="0"
         k3="0"
         in2="SourceGraphic"
         operator="arithmetic"
         k1="0"
         k2="1"
         result="composite1"
         id="feComposite2471" />
      <feColorMatrix
         in="composite1"
         values="1"
         type="saturate"
         result="colormatrix1"
         id="feColorMatrix2473" />
      <feFlood
         flood-opacity="1"
         flood-color="rgb(179,179,179)"
         result="flood1"
         id="feFlood2475" />
      <feBlend
         in="flood1"
         in2="colormatrix1"
         mode="multiply"
         result="blend1"
         id="feBlend2477" />
      <feBlend
         in2="blend1"
         mode="screen"
         result="blend2"
         id="feBlend2479" />
      <feColorMatrix
         in="blend2"
         values="1"
         type="saturate"
         result="colormatrix2"
         id="feColorMatrix2481" />
      <feComposite
         in="colormatrix2"
         in2="SourceGraphic"
         operator="in"
         result="composite2"
         id="feComposite2483" />
    </filter>
    <filter
       style="color-interpolation-filters:sRGB"
       inkscape:label="Colorize"
       id="filter6189">
      <feComposite
         in2="SourceGraphic"
         operator="arithmetic"
         k1="0"
         k2="1"
         result="composite1"
         id="feComposite6175"
         k3="0"
         k4="0" />
      <feColorMatrix
         in="composite1"
         values="1"
         type="saturate"
         result="colormatrix1"
         id="feColorMatrix6177" />
      <feFlood
         flood-opacity="1"
         flood-color="rgb(179,179,179)"
         result="flood1"
         id="feFlood6179" />
      <feBlend
         in="flood1"
         in2="colormatrix1"
         mode="multiply"
         result="blend1"
         id="feBlend6181" />
      <feBlend
         in2="blend1"
         mode="screen"
         result="blend2"
         id="feBlend6183" />
      <feColorMatrix
         in="blend2"
         values="1"
         type="saturate"
         result="colormatrix2"
         id="feColorMatrix6185" />
      <feComposite
         in="colormatrix2"
         in2="SourceGraphic"
         operator="in"
         result="composite2"
         id="feComposite6187" />
    </filter>
  </defs>
  <sodipodi:namedview
     pagecolor="#ffffff"
     bordercolor="#666666"
     borderopacity="1"
     objecttolerance="10"
     gridtolerance="10"
     guidetolerance="10"
     inkscape:pageopacity="0"
     inkscape:pageshadow="2"
     inkscape:window-width="1920"
     inkscape:window-height="981"
     id="namedview88"
     showgrid="false"
     inkscape:zoom="0.59809449"
     inkscape:cx="455.60784"
     inkscape:cy="639.59519"
     inkscape:window-x="1920"
     inkscape:window-y="28"
     inkscape:window-maximized="1"
     inkscape:current-layer="strokes" />
  <g
     id="RenderLayer_LineSet"
     inkscape:label="RenderLayer_LineSet"
     transform="translate(0,-540)">
    <g
       id="strokes"
       inkscape:groupmode="layer"
       inkscape:label="strokes">
      <path
         d="m 968.464,286.694 -10,10e-4 h -10 l -10,0.001 h -10 l -10,10e-4 h -10 -10 l -10,10e-4 h -10 l -10,0.001 h -10 l -10,10e-4 h -10 l -10,0.001 h -10 -10 l -10,10e-4 h -3.206 l -0.096,8.024 10,-10e-4 h 10 l 10,-0.001 h 10 l 10,-10e-4 h 10 l 10,-0.001 h 10 10 l 10,-10e-4 h 10 l 10,-10e-4 h 10 l 10,-0.001 h 10 l 10,-10e-4 h 10 10.032 l -0.009,-8.024 h -0.036"
         id="path80"
         style="fill:#b3b3b3;fill-opacity:1;stroke:#000000;stroke-width:3;stroke-linecap:butt;stroke-linejoin:round;stroke-opacity:1"
         inkscape:connector-curvature="0" />
      <path
         d="m 976.007,1030.239 -0.012,-10 -0.011,-10 -0.012,-10 -0.011,-10 -0.012,-10 -0.011,-10 -0.01,-8.205 h -7.014 l 0.007,10 0.007,10 0.006,10 0.007,10 0.007,10 0.006,10 0.006,8.205 h 7.047"
         id="path2"
         inkscape:connector-curvature="0"
         style="fill:none;stroke:#000000;stroke-width:3;stroke-linecap:butt;stroke-linejoin:round;stroke-opacity:1" />
      <path
         d="m 968.772,728.301 h -0.014 l 0.007,10 0.007,10 0.006,10 0.007,10 0.007,10 0.006,10 0.007,10 0.007,10 0.006,10 0.007,10 0.007,10 0.006,10 0.007,10 0.007,10 0.006,10 0.007,10 0.007,10 0.006,10 0.002,3 h 6.99 l -0.012,-10 -0.011,-10 -0.012,-10 -0.012,-10 -0.011,-10 -0.012,-10 -0.011,-10 -0.012,-10 -0.011,-10 -0.012,-10 -0.011,-10 -0.012,-10 -0.011,-10 -0.012,-10 -0.012,-10 -0.011,-10 -0.012,-10 -0.011,-10 -0.002,-1.888"
         id="path4"
         style="fill:#b3b3b3;fill-opacity:1;stroke:#000000;stroke-width:3;stroke-linecap:butt;stroke-linejoin:round;stroke-opacity:1"
         inkscape:connector-curvature="0" />
      <path
         d="m 975.15,287.73 -10e-4,-1.036 -0.012,-10 -0.011,-10 -0.012,-10 -0.011,-10 -0.012,-10 -0.011,-10 -0.012,-10 -0.012,-10 -0.011,-10 -0.012,-10 -0.011,-10 -0.012,-10 -0.011,-10 -0.012,-10 -0.011,-10 -0.012,-10 -0.007,-6.491 -6.604,10e-4 0.006,10 0.007,10 0.007,10 0.007,10 0.006,10 0.007,10 0.007,10 0.006,10 0.007,10 0.007,10 0.006,10 0.007,10 0.007,10 0.006,10 0.007,10 0.007,10 0.004,6.49 10e-4,1.036 h 6.685"
         id="path6"
         style="fill:#b3b3b3;fill-opacity:1;stroke:#000000;stroke-width:3;stroke-linecap:butt;stroke-linejoin:round;stroke-opacity:1"
         inkscape:connector-curvature="0" />
      <path
         d="m 974.905,75.222 -0.012,-10 -0.011,-10 -0.012,-10 -0.012,-10 -0.011,-10 -0.011,-9.512 h -6.553 l 0.007,10 0.006,10 0.007,10 0.007,10 0.006,10 0.007,9.512 h 6.582"
         id="path8"
         inkscape:connector-curvature="0"
         style="fill:none;stroke:#000000;stroke-width:3;stroke-linecap:butt;stroke-linejoin:round;stroke-opacity:1" />
      <path
         d="m 1202.552,508.206 0.01,0.555 10,-0.001 h 10 10 l 10,-10e-4 h 10 l 10,-0.001 h 10 l 10,-10e-4 h 10 l 10,-0.001 h 10 l 10,-10e-4 h 10 10 l 10,-10e-4 h 10 l 10,-0.001 h 7.469 l -0.202,-6.7 -10,10e-4 h -10 l -10,0.001 h -10 l -10,10e-4 h -10 l -10,0.001 h -10 l -10,10e-4 h -10 -10 l -10,0.001 h -10 l -10,10e-4 h -10 l -10,10e-4 h -10 l -5.808,0.001"
         id="path10"
         style="fill:#b3b3b3;fill-opacity:1;stroke:#000000;stroke-width:3;stroke-linecap:butt;stroke-linejoin:round;stroke-opacity:1"
         inkscape:connector-curvature="0" />
      <path
         d="m 1428.431,508.751 10,-10e-4 h 10 l 10,-10e-4 h 10 l 10,-0.001 h 10 4.534 l -0.257,-6.7 -10,10e-4 h -10 l -10,0.001 h -10 l -10,10e-4 h -10 -4.502 l 0.225,6.7"
         id="path12"
         inkscape:connector-curvature="0"
         style="fill:none;stroke:#000000;stroke-width:3;stroke-linecap:butt;stroke-linejoin:round;stroke-opacity:1" />
      <path
         d="m 1541.365,508.745 h 10 l 10,-10e-4 h 10 10 l 10,-0.001 h 10 l 4.534,-10e-4 -0.31,-6.699 h -10 l -10,10e-4 h -10 l -10,0.001 h -10 l -10,10e-4 h -4.503 l 0.279,6.699"
         id="path14"
         inkscape:connector-curvature="0"
         style="fill:none;stroke:#000000;stroke-width:3;stroke-linecap:butt;stroke-linejoin:round;stroke-opacity:1" />
      <path
         d="m 1654.3,508.74 h 10 l 10,-0.001 h 10 l 10,-10e-4 h 10 l 10,-10e-4 h 4.533 l -0.364,-6.699 h -10 l -10,10e-4 h -10 l -10,0.001 h -10 l -10,10e-4 h -4.503 l 0.334,6.699"
         id="path16"
         inkscape:connector-curvature="0"
         style="fill:none;stroke:#000000;stroke-width:3;stroke-linecap:butt;stroke-linejoin:round;stroke-opacity:1" />
      <path
         d="m 1767.234,508.735 10,-0.001 h 10 10 l 10,-10e-4 h 10 l 10,-10e-4 h 4.533 l -0.419,-6.699 h -10 l -10,10e-4 h -10 -10 l -10,0.001 h -10 l -4.503,10e-4 0.389,6.699"
         id="path18"
         inkscape:connector-curvature="0"
         style="fill:none;stroke:#000000;stroke-width:3;stroke-linecap:butt;stroke-linejoin:round;stroke-opacity:1" />
      <path
         d="m 1944.227,502.027 -10,0.001 h -10 l -10,10e-4 h -10 l -10,10e-4 h -10 -4.502 l 0.442,6.7 10,-0.001 h 10 l 10,-10e-4 h 10 l 10,-0.001 h 10 4.534"
         id="path20"
         inkscape:connector-curvature="0"
         style="fill:none;stroke:#000000;stroke-width:3;stroke-linecap:butt;stroke-linejoin:round;stroke-opacity:1" />
      <path
         d="m -2.156,508.817 10,-0.001 h 10 l 10,-10e-4 h 10 10 l 10,-10e-4 h 4.535 l 0.431,-6.7 -10,0.001 h -10 l -10,10e-4 h -10 l -10,0.001 h -10 -4.504"
         id="path22"
         inkscape:connector-curvature="0"
         style="fill:none;stroke:#000000;stroke-width:3;stroke-linecap:butt;stroke-linejoin:round;stroke-opacity:1" />
      <path
         d="m 110.781,508.812 10,-0.001 h 10 l 10,-10e-4 h 10 l 10,-10e-4 h 10 4.535 l 0.377,-6.7 -10,0.001 h -10 l -10,10e-4 h -10 l -10,0.001 h -10 -4.504 l -0.408,6.7"
         id="path24"
         inkscape:connector-curvature="0"
         style="fill:none;stroke:#000000;stroke-width:3;stroke-linecap:butt;stroke-linejoin:round;stroke-opacity:1" />
      <path
         d="m 223.718,508.806 h 10 10 l 10,-10e-4 h 10 l 10,-0.001 h 10 l 4.536,-10e-4 0.322,-6.699 h -10 l -10,0.001 h -10 l -10,10e-4 h -10 l -10,0.001 h -4.504 l -0.354,6.699"
         id="path26"
         inkscape:connector-curvature="0"
         style="fill:none;stroke:#000000;stroke-width:3;stroke-linecap:butt;stroke-linejoin:round;stroke-opacity:1" />
      <path
         d="m 336.655,508.801 h 10 l 10,-10e-4 h 10 l 10,-0.001 h 10 l 10,-10e-4 h 4.535 l 0.268,-6.699 h -10 l -10,0.001 h -10 l -10,10e-4 h -10 l -10,10e-4 h -4.504 l -0.299,6.699"
         id="path28"
         inkscape:connector-curvature="0"
         style="fill:none;stroke:#000000;stroke-width:3;stroke-linecap:butt;stroke-linejoin:round;stroke-opacity:1" />
      <path
         d="m 449.592,508.796 h 10 l 10,-10e-4 h 10 l 10,-0.001 h 10 l 10,-10e-4 h 4.535 l 0.214,-6.699 h -10 l -10,0.001 h -10 -10 l -10,10e-4 h -10 l -4.504,10e-4 -0.245,6.699"
         id="path30"
         inkscape:connector-curvature="0"
         style="fill:none;stroke:#000000;stroke-width:3;stroke-linecap:butt;stroke-linejoin:round;stroke-opacity:1" />
      <path
         d="m 733.953,502.083 -10,10e-4 h -10 l -10,10e-4 h -10 l -10,0.001 h -10 l -10,10e-4 h -10 l -10,0.001 h -10 l -10,10e-4 h -10 -10 l -10,10e-4 h -10 l -10,0.001 h -11.234 l -0.191,6.7 10,-10e-4 h 10 l 10,-0.001 h 10 10 l 10,-10e-4 h 10 l 10,-0.001 h 10 l 10,-10e-4 h 10 l 10,-10e-4 h 10 l 10,-0.001 h 10 l 10,-10e-4 h 11.316"
         id="path32"
         style="fill:#b3b3b3;fill-opacity:1;stroke:#000000;stroke-width:3;stroke-linecap:butt;stroke-linejoin:round;stroke-opacity:1"
         inkscape:connector-curvature="0" />
      <path
         d="m 1967.897,710.063 h -10 l -10,10e-4 h -10 l -10,0.001 h -10 -10 l -10,10e-4 h -10 l -10,10e-4 h -10 l -3.198,10e-4 h -10 l -10,10e-4 h -10 -10 l -10,0.001 h -10 l -10,10e-4 h -10 l -10,10e-4 h -10 l -3.198,10e-4 h -10 -10 l -10,10e-4 h -10 l -10,0.001 h -10 l -10,10e-4 h -10 l -10,10e-4 h -10 l -3.197,10e-4 h -10 -10 l -10,10e-4 h -10 l -10,0.001 h -10 l -10,10e-4 h -10 l -10,10e-4 h -10 -3.198 l -10,10e-4 h -10 l -10,10e-4 h -10 l -10,0.001 h -10 l -10,10e-4 h -10 l -10,10e-4 h -10 -3.199 l -10,10e-4 h -10 l -10,0.001 h -10 l -10,10e-4 h -10 l -8.799,10e-4 h -10 l -10,10e-4 h -10 l -10,10e-4 h -10 l -10,0.001 h -8.799 l -9.998,-0.178 -9.999,-0.178 -9.998,-0.178 -9.998,-0.177 -9.999,-0.178 -9.998,-0.178 -9.126,-0.163 -9.969,0.787 -0.776,0.062 -9.721,2.347 -0.729,0.176 -9.227,3.856 -0.674,0.282 -8.497,5.273 -0.614,0.381 -7.55,6.557 -0.548,0.477 -6.411,7.674 -0.476,0.57 -5.111,8.594 -0.393,0.661 -3.689,9.295 -0.297,0.747 -2.181,9.76 -0.184,0.825 -0.628,9.98 -0.056,0.888 0.154,9.999 0.153,9.999 0.154,9.998 0.153,9.999 0.154,9.999 0.153,9.999 0.152,9.876 0.153,9.999 0.154,9.998 0.153,9.999 0.154,9.999 0.153,9.999 0.154,9.999 0.162,10.566 0.154,9.999 0.153,9.999 0.154,9.998 0.153,9.999 0.154,9.999 0.153,9.999 0.154,9.999 0.019,1.268 0.154,9.999 0.153,9.999 0.154,9.998 0.153,9.999 0.154,9.999 0.153,9.999 0.154,9.999 0.153,9.999 0.154,9.998 0.153,9.999 0.127,8.239"
         id="path34"
         style="fill:#b3b3b3;fill-opacity:1;stroke:#000000;stroke-width:3;stroke-linecap:butt;stroke-linejoin:round;stroke-opacity:1"
         inkscape:connector-curvature="0" />
      <rect
         style="fill:#fdffff;fill-opacity:1;stroke:none;stroke-width:0.48566905;stroke-linecap:round;stroke-linejoin:miter;stroke-miterlimit:4;stroke-dasharray:none;stroke-dashoffset:0;stroke-opacity:1;paint-order:normal"
         id="rect984-9"
         width="86.011642"
         height="82.733208"
         x="1223.6937"
         y="721.04486" />
      <path
         d="m 1191.658,1097.97 -0.16,-9.998 -0.16,-9.999 -0.16,-9.999 -0.16,-9.998 -0.159,-9.999 -0.16,-9.999 -0.16,-9.999 -0.16,-9.998 -0.16,-9.999 -0.16,-9.999 -0.132,-8.24 -0.16,-9.998 -0.159,-9.999 -0.16,-9.999 -0.16,-9.998 -0.16,-9.999 -0.16,-9.999 -0.16,-9.999 -0.02,-1.269 -0.16,-9.998 -0.16,-9.999 -0.16,-9.999 -0.16,-9.998 -0.16,-9.999 -0.16,-9.999 -0.169,-10.567 -0.159,-9.998 -0.16,-9.999 -0.16,-9.999 -0.16,-9.999 -0.16,-9.998 -0.16,-9.999 -0.158,-9.876 0.635,-9.435 2.048,-9.189 3.455,-8.721 4.775,-8.039 5.976,-7.161 7.03,-6.111 7.91,-4.913"
         id="path36"
         inkscape:connector-curvature="0"
         style="fill:none;stroke:#000000;stroke-width:3;stroke-linecap:butt;stroke-linejoin:round;stroke-opacity:1" />
      <path
         d="m 758.255,1097.993 0.138,-9.999 0.138,-9.999 0.139,-9.999 0.138,-9.999 0.138,-9.999 0.139,-9.999 0.138,-9.999 0.139,-9.999 0.138,-10 0.138,-9.999 0.114,-8.237 0.139,-9.999 0.138,-9.999 0.138,-9.999 0.139,-9.999 0.138,-9.999 0.138,-9.999 0.139,-9.999 0.017,-1.267 0.139,-9.999 0.138,-9.999 0.139,-9.999 0.138,-9.999 0.138,-9.999 0.139,-9.999 0.146,-10.566 0.138,-9.999 0.139,-9.999 0.138,-9.999 0.138,-9.999 0.139,-9.999 0.138,-9.999 0.137,-9.875 -0.643,-9.979 -0.057,-0.89 -2.195,-9.756 -0.186,-0.828 -3.701,-9.29 -0.3,-0.752 -5.122,-8.589 -0.397,-0.666 -6.418,-7.668 -0.481,-0.575 -7.554,-6.552 -0.555,-0.481 -8.499,-5.269 -0.62,-0.384 -9.228,-3.854 -0.68,-0.283 -9.721,-2.346 -0.733,-0.177 -9.969,-0.786 -0.777,-0.061 -10,10e-4 h -10 l -10,0.001 h -10 -10 l -10,10e-4 h -8.794 l -10,10e-4 h -10 l -10,10e-4 h -10 l -10,10e-4 h -10 l -8.794,0.001 h -10 l -10,10e-4 h -10 l -10,10e-4 h -10 l -10,10e-4 h -8.794 -10 l -10,10e-4 h -10 l -10,0.001 h -10 l -10,10e-4 h -10 l -10,10e-4 h -10 l -10,10e-4 h -3.191 -10 l -10,10e-4 h -10 l -10,0.001 h -10 l -10,10e-4 h -10 l -10,10e-4 h -10 l -10,10e-4 h -3.192 -10 l -10,10e-4 h -10 l -10,0.001 h -10 l -10,10e-4 h -10 l -10,10e-4 h -10 l -10,10e-4 h -3.191 -10 l -10,0.001 h -10 l -10,10e-4 h -10 l -10,10e-4 h -10 l -10,10e-4 h -10 l -10,10e-4 h -3.192 -10 l -10,0.001 h -10 l -10,10e-4 h -10 l -10,10e-4 h -10 l -10,10e-4 h -10 l -10,10e-4 h -3.192"
         id="path48"
         style="fill:#b3b3b3;fill-opacity:1;stroke:#000000;stroke-width:3;stroke-linecap:butt;stroke-linejoin:round;stroke-opacity:1"
         inkscape:connector-curvature="0" />
      <path
         d="m 721.692,724.511 7.918,4.911 7.039,6.111 5.987,7.161 4.787,8.038 3.468,8.72 2.062,9.19 0.649,9.434 -0.144,9.999 -0.145,9.999 -0.145,9.999 -0.145,9.999 -0.145,9.999 -0.145,9.999 -0.143,9.876 -0.145,9.999 -0.144,9.999 -0.145,9.999 -0.145,9.998 -0.145,9.999 -0.144,9.999 -0.153,10.566 -0.145,9.999 -0.145,9.999 -0.145,9.999 -0.144,9.999 -0.145,9.999 -0.145,9.999 -0.145,9.999 -0.018,1.268 -0.145,9.999 -0.144,9.999 -0.145,9.999 -0.145,9.998 -0.145,9.999 -0.144,9.999 -0.145,9.999 -0.145,9.999 -0.145,9.999 -0.144,9.999 -0.12,8.238"
         id="path50"
         inkscape:connector-curvature="0"
         style="fill:none;stroke:#000000;stroke-width:3;stroke-linecap:butt;stroke-linejoin:round;stroke-opacity:1" />
      <path
         d="m -99.746,307.541 h 10 l 10,-10e-4 h 10 l 10,-0.001 h 10 l 10,-10e-4 h 10 l 10,-0.001 h 10 10.263 l 10,-10e-4 h 10 l 10,-10e-4 h 10 l 10,-0.001 h 10 10 l 10,-10e-4 h 10 l 10.263,-0.001 h 10 l 10,-10e-4 h 10 l 10,-0.001 h 10 10 l 10,-10e-4 h 10 l 10,-10e-4 h 10.263 l 10,-0.001 h 10 l 10,-10e-4 h 10 10 l 10,-0.001 h 10 l 10,-10e-4 h 10 l 10.262,-10e-4 h 10 l 10,-0.001 h 10 10 l 10,-10e-4 h 10 l 10,-0.001 h 10 l 10,-10e-4 h 10.262 l 10,-0.001 h 10 10 l 10,-10e-4 h 10 l 10,-10e-4 h 10 l 10,-0.001 h 10 l 10.262,-10e-4 h 10 10 l 10,-0.001 h 10 l 10,-10e-4 h 10 l 6.842,-10e-4 h 10 10 l 10,-0.001 h 10 l 10,-10e-4 h 10 6.841 l 10,-0.001 h 10 l 10,-10e-4 h 10 l 10,-0.001 h 10 l 6.841,-10e-4 9.971,-0.762 0.499,-0.038 9.741,-2.265 0.499,-0.116 9.284,-3.714 0.468,-0.187 8.613,-5.08 0.41,-0.242 7.736,-6.336 0.333,-0.273 6.668,-7.452 0.248,-0.278 5.427,-8.399 0.167,-0.258 4.039,-9.149 0.097,-0.22 2.532,-9.674 0.045,-0.172"
         id="path54"
         style="fill:#b3b3b3;fill-opacity:1;stroke:#000000;stroke-width:3;stroke-linecap:butt;stroke-linejoin:round;stroke-opacity:1"
         inkscape:connector-curvature="0" />
      <path
         d="m 758.225,260.102 -3.593,8.128 -4.858,7.509 -6.004,6.704 -7.003,5.731 -7.829,4.615 -8.46,3.382 -8.882,2.064 -9.083,0.739 h -10 -10 l -10,0.001 h -10 l -10,10e-4 h -10 l -6.8,10e-4 h -10 -10 l -10,0.001 h -10 l -10,10e-4 h -10 -6.8 l -10,0.001 h -10 l -10,10e-4 h -10 l -10,0.001 h -10 -6.8 l -10,10e-4 h -10 l -10,10e-4 h -10 l -10,0.001 h -10 l -10,10e-4 h -10 -10 l -10.199,0.001 h -10 l -10,10e-4 h -10 l -10,10e-4 h -10 l -10,0.001 h -10 -10 l -10,10e-4 h -10.2 l -10,0.001 h -10 l -10,10e-4 h -10 l -10,0.001 h -10 -10 l -10,10e-4 h -10 l -10.2,10e-4 h -10 l -10,0.001 h -10 -10 l -10,10e-4 h -10 l -10,0.001 h -10 l -10,10e-4 h -10.201 l -10,10e-4 h -10 l -10,0.001 h -10 -10 l -10,10e-4 h -10 l -10,0.001 h -10 l -10.2,10e-4 h -10 -10 l -10,10e-4 h -10 l -10,0.001 h -10 l -10,10e-4 h -10 l -10,0.001 h -10.201"
         id="path56"
         inkscape:connector-curvature="0"
         style="fill:none;stroke:#000000;stroke-width:3;stroke-linecap:butt;stroke-linejoin:round;stroke-opacity:1" />
      <path
         d="m 765.459,-40.922 -0.145,9.999 -0.145,9.999 -0.144,9.999 -0.145,9.998 -0.145,10 -0.145,9.998 -0.145,9.999 -0.144,9.999 -0.145,9.999 -0.047,3.27 -0.145,9.999 -0.145,9.999 -0.145,9.999 -0.144,9.999 -0.145,9.999 -0.145,9.999 -0.042,2.904 -0.145,9.999 -0.144,9.999 -0.145,9.999 -0.145,9.999 -0.145,9.999 -0.144,9.999 -0.051,3.495 -0.145,9.999 -0.144,9.998 -0.145,9.999 -0.145,9.999 -0.145,9.999 -0.145,9.999 -0.059,4.093 -0.884,8.748 -2.242,8.543 2.242,-8.543 0.884,-8.748"
         id="path58"
         inkscape:connector-curvature="0"
         style="fill:none;stroke:#000000;stroke-width:3;stroke-linecap:butt;stroke-linejoin:round;stroke-opacity:1" />
      <rect
         style="fill:#b3b3b3;fill-opacity:1;stroke:none;stroke-width:7.19242859;stroke-linecap:round;stroke-linejoin:miter;stroke-miterlimit:4;stroke-dasharray:none;stroke-dashoffset:0;stroke-opacity:1;paint-order:normal"
         id="rect1022"
         width="15.89513"
         height="296.30219"
         x="781.87994"
         y="-252.5183"
         transform="matrix(0.96423751,0.26503966,-0.02117719,0.99977574,0,0)"
         ry="0" />
      <path
         d="m 764.859,-43.685 -0.145,9.999 -0.145,9.999 -0.145,9.999 -0.146,9.999 -0.145,9.998 -0.145,9.999 -0.145,9.999 -0.145,9.999 -0.146,9.999 -0.051,3.54 -0.07,10 -0.069,10 -0.07,9.999 -0.07,10 -0.07,10 -0.069,10 -0.034,4.832 -0.145,9.999 -0.145,9.999 -0.145,9.999 -0.144,9.999 -0.145,9.998 -0.145,9.999 -0.051,3.54 -0.224,9.998 -0.224,9.997 -0.224,9.998 -0.223,9.997 -0.224,9.998 -0.224,9.997 -0.06,2.688 -0.887,8.774 -2.25,8.57 -3.605,8.152 -4.873,7.532 -6.023,6.724 -7.026,5.749 -7.853,4.628 -8.488,3.392 -8.91,2.07 -9.112,0.741 -9.998,0.202 -9.998,0.201 -9.998,0.202 -9.998,0.201 -9.998,0.202 -9.998,0.201 -6.247,0.126 -10,0.001 h -10 l -10,10e-4 h -10 -10 l -10,0.001 h -6.851 l -9.998,-0.195 -9.998,-0.196 -9.998,-0.195 -9.998,-0.196 -9.998,-0.196 -9.998,-0.195 -7.958,-0.156 -10,10e-4 h -10 l -10,0.001 h -10 l -10,10e-4 h -10 -10 l -10,10e-4 h -10 l -10.517,0.001 h -10 l -10,10e-4 h -10 -10 l -10,0.001 h -10 l -10,10e-4 h -10 l -10,0.001 h -10.517 l -10,10e-4 h -10 l -10,10e-4 h -10 -10 l -10,0.001 h -10 l -10,10e-4 h -10 l -10.516,0.001 h -10 -10 l -10,10e-4 h -10 l -10,10e-4 h -10 l -10,0.001 h -10 l -10,10e-4 H 98.6 l -10,0.001 h -10 -10 l -10,10e-4 h -10 l -10,0.001 h -10 l -10,10e-4 H 8.6 -1.917"
         id="path62"
         style="fill:#ffffff;fill-opacity:1;stroke:#000000;stroke-width:3;stroke-linecap:butt;stroke-linejoin:round;stroke-opacity:1"
         inkscape:connector-curvature="0" />
      <path
         d="m 708.096,-43.683 -0.188,9.998 -0.188,9.999 -0.187,9.998 -0.188,9.998 -0.187,9.998 -0.188,9.999 -0.188,9.998 -0.187,9.998 -0.188,9.998 -0.066,3.546 -0.188,9.999 -0.188,9.998 -0.187,9.998 -0.188,9.998 -0.187,9.999 -0.188,9.998 -0.058,3.093 -0.188,9.999 -0.187,9.998 -0.188,9.998 -0.188,9.998 -0.187,9.999 -0.188,9.998 -0.069,3.687 -0.188,9.998 -0.187,9.998 -0.188,9.998 -0.187,9.999 -0.188,9.998 -0.188,9.998 -0.08,4.288 -10,0.001 h -10 l -10,0.001 h -10 l -10,0.001 h -10 -6.736 l -10,0.001 h -10 l -10,0.001 h -10 -10 l -10,10e-4 h -6.736 l -10,0.001 h -10 -10 l -10,0.001 h -10 l -10,0.001 h -6.736 -10 l -10,0.001 h -10 l -10,0.001 h -10 l -10,10e-4 h -10 l -10,0.001 h -10 -10.104 l -10,0.001 h -10 l -10,0.001 h -10 l -10,0.001 h -10 l -10,0.001 h -10 -10 l -10.104,10e-4 h -10 l -10,0.001 h -10 l -10,0.001 h -10 -10 l -10,0.001 h -10 l -10,0.001 h -10.104 l -10,0.001 h -10 l -10,10e-4 h -10 -10 l -10,0.001 h -10 l -10,0.001 h -10 l -10.105,0.001 h -10 -10 l -10,0.001 h -10 l -10,0.001 h -10 l -10,10e-4 h -10 -10 l -10.104,0.001 h -10 l -10,0.001 h -10 l -10,0.001 h -10 l -10,0.001 h -10 -10 l -10,0.001 h -10.105"
         id="path64"
         inkscape:connector-curvature="0"
         style="fill:none;stroke:#000000;stroke-width:3;stroke-linecap:butt;stroke-linejoin:round;stroke-opacity:1" />
      <path
         d="m 1164.889,-40.939 0.154,9.999 0.153,9.999 0.154,9.999 0.153,9.999 0.154,9.998 0.153,9.999 0.154,9.999 0.153,9.999 0.154,9.999 0.05,3.27 0.153,9.999 0.154,9.999 0.153,9.999 0.154,9.998 0.153,9.999 0.154,9.999 0.044,2.905 0.154,9.999 0.154,9.999 0.153,9.999 0.154,9.999 0.153,9.998 0.154,9.999 0.053,3.495 0.197,9.998 0.197,9.998 0.196,9.998 0.197,9.998 0.197,9.998 0.196,9.998 0.104,5.252 0.962,9.953 0.012,0.128 2.546,9.67 0.047,0.177 4.05,9.144 0.1,0.226 5.436,8.393 0.172,0.265 6.674,7.447 0.255,0.284 7.74,6.332 0.34,0.278 8.615,5.077 0.416,0.245 9.286,3.711 0.473,0.189 9.741,2.264 0.503,0.117 9.971,0.761 0.501,0.039 10,-10e-4 h 10 l 10,-0.001 h 10 l 10,-10e-4 h 10 6.847 l 10,-0.001 h 10 l 10,-10e-4 h 10 l 10,-10e-4 h 10 6.846 l 10,-0.001 h 10 l 10,-10e-4 h 10 l 10,-0.001 h 10 6.845 l 10,-10e-4 h 10 l 10,-10e-4 h 10 l 10,-0.001 h 10 l 10,-10e-4 h 10 10 l 10.269,-0.001 h 10 l 10,-10e-4 h 10 l 10,-0.001 h 10 l 10,-10e-4 h 10 10 l 10,-10e-4 h 10.268 l 10,-0.001 h 10 l 10,-10e-4 h 10 l 10,-0.001 h 10 10 l 10,-10e-4 h 10 l 10.269,-10e-4 h 10 l 10,-0.001 h 10 l 10,-10e-4 h 10 10 l 10,-0.001 h 10 l 10,-10e-4 h 10.268 l 10,-10e-4 h 10 l 10,-0.001 h 10 l 10,-10e-4 h 10 10 l 10,-0.001 h 10 l 10.268,-10e-4"
         id="path68"
         style="fill:#b3b3b3;fill-opacity:1;stroke:#000000;stroke-width:3;stroke-linecap:butt;stroke-linejoin:round;stroke-opacity:1"
         inkscape:connector-curvature="0" />
      <path
         d="m 1938.656,300.082 h -10 l -10,0.001 h -10 l -10,10e-4 h -10 l -10,10e-4 h -10 l -10,0.001 h -10 -10.205 l -10,10e-4 h -10 l -10,0.001 h -10 l -10,10e-4 h -10 l -10,10e-4 h -10 -10 l -10.206,0.001 h -10 l -10,10e-4 h -10 l -10,0.001 h -10 l -10,10e-4 h -10 -10 l -10,0.001 h -10.206 l -10,10e-4 h -10 l -10,10e-4 h -10 l -10,0.001 h -10 l -10,10e-4 h -10 -10 l -10.207,0.001 h -10 l -10,10e-4 h -10 l -10,10e-4 h -10 l -10,0.001 h -10 -10 l -10,10e-4 h -10.206 l -10,0.001 h -10 l -10,10e-4 h -10 l -10,0.001 h -10 -6.804 l -10,10e-4 h -10 l -10,10e-4 h -10 -10 l -10,0.001 h -6.805 l -10,10e-4 h -10 l -10,0.001 h -10 -10 l -10,10e-4 h -6.804 l -9.085,-0.738 -8.886,-2.064 -8.467,-3.381 -7.836,-4.615 -7.012,-5.731 -6.015,-6.705 -4.87,-7.51 -3.606,-8.129 -2.255,-8.544 -0.898,-8.75 -0.203,-9.998 -0.203,-9.998 -0.203,-9.998 -0.203,-9.998 -0.203,-9.998 -0.203,-9.998 -0.107,-5.251 -0.16,-9.999 -0.16,-9.999 -0.16,-9.998 -0.16,-9.999 -0.159,-9.999 -0.16,-9.999 -0.056,-3.495 -0.16,-9.999 -0.16,-9.999 -0.16,-9.998 -0.16,-9.999 -0.16,-9.999 -0.159,-9.998 -0.047,-2.906 -0.16,-9.999 -0.16,-9.999 -0.16,-9.999 -0.16,-9.998 -0.16,-9.999 -0.159,-9.999 -0.16,-9.998 -0.16,-9.999 -0.16,-9.999 -0.052,-3.271"
         id="path70"
         inkscape:connector-curvature="0"
         style="fill:none;stroke:#000000;stroke-width:3;stroke-linecap:butt;stroke-linejoin:round;stroke-opacity:1" />
      <path
         d="m 1941.749,298.326 -10,10e-4 h -10 l -10,10e-4 h -10 -10 l -10,0.001 h -10 l -10,10e-4 h -10 l -10.522,0.001 h -10 l -10,10e-4 h -10 -10 l -10,0.001 h -10 l -10,10e-4 h -10 l -10,10e-4 h -10.523 l -10,0.001 h -10 -10 l -10,10e-4 h -10 l -10,0.001 h -10 l -10,10e-4 h -10 l -10.522,10e-4 h -10 -10 l -10,0.001 h -10 l -10,10e-4 h -10 l -10,0.001 h -10 l -10,10e-4 h -10.523 l -10,0.001 h -10 -10 l -10,10e-4 h -10 l -10,10e-4 h -10 l -10,0.001 h -10 l -10.523,10e-4 -9.998,0.195 -9.998,0.196 -9.999,0.196 -9.998,0.196 -9.998,0.196 -9.998,0.196 -8.01,0.157 h -10 l -10,0.001 h -10 l -10,10e-4 h -10 -10 l -6.856,0.001 -9.998,-0.201 -9.998,-0.2 -9.998,-0.2 -9.998,-0.201 -9.998,-0.2 -9.998,-0.2 -6.204,-0.125 -9.114,-0.74 -8.914,-2.07 -8.493,-3.392 -7.862,-4.628 -7.034,-5.749 -6.035,-6.725 -4.885,-7.533 -3.618,-8.153 -2.263,-8.57 -0.901,-8.776 -0.289,-9.996 -0.289,-9.996 -0.289,-9.996 -0.29,-9.995 -0.289,-9.996 -0.289,-9.996 -0.112,-3.854 -0.16,-9.999 -0.16,-9.999 -0.16,-9.999 -0.16,-9.998 -0.16,-9.999 -0.16,-9.999 -0.057,-3.541 -0.077,-10 -0.078,-9.999 -0.077,-10 -0.077,-10 -0.078,-9.999 -0.078,-10 -0.037,-4.832 -0.16,-9.999 -0.161,-9.999 -0.16,-9.998 -0.161,-9.999 -0.16,-9.999 -0.16,-9.999 -0.161,-9.998 -0.16,-9.999 -0.161,-9.999 -0.056,-3.541"
         id="path72"
         style="fill:#ffffff;fill-opacity:1;stroke:#000000;stroke-width:3;stroke-linecap:butt;stroke-linejoin:round;stroke-opacity:1"
         inkscape:connector-curvature="0" />
      <path
         d="m 721.692,724.511 -0.777,-0.428"
         id="path74"
         inkscape:connector-curvature="0"
         style="fill:none;stroke:#000000;stroke-width:3;stroke-linecap:butt;stroke-linejoin:round;stroke-opacity:1" />
      <path
         d="m 742.439,501.517 -8.477,10e-4 -0.009,0.565 -0.109,6.7 -0.161,9.999 -0.162,9.998 -0.162,9.999 -0.161,9.999 -0.162,9.998 -0.162,9.999 -0.162,9.999 -0.161,9.998 -0.162,9.999 -0.162,9.999 -0.161,9.999 -0.162,9.998 -0.162,9.999 -0.162,9.999 -0.161,9.998 -0.162,9.999 -0.162,9.999 -0.08,4.969 h 8.588 l 0.155,-9.999 0.156,-9.999 0.156,-9.998 0.155,-9.999 0.156,-9.999 0.155,-9.999 0.156,-9.999 0.156,-9.998 0.155,-9.999 0.156,-9.999 0.156,-9.999 0.155,-9.998 0.156,-9.999 0.156,-9.999 0.155,-9.999 0.156,-9.999 0.155,-9.998 0.156,-9.999 0.035,-2.235"
         id="path76"
         style="fill:#b3b3b3;fill-opacity:1;stroke:#000000;stroke-width:3;stroke-linecap:butt;stroke-linejoin:round;stroke-opacity:1"
         inkscape:connector-curvature="0" />
      <path
         d="m 1201.133,337.726 -8.377,10e-4 0.17,9.998 0.169,9.999 0.17,9.998 0.169,9.999 0.17,9.999 0.169,9.998 0.17,9.999 0.169,9.998 0.17,9.999 0.169,9.998 0.17,9.999 0.169,9.998 0.17,9.999 0.17,9.999 0.169,9.998 0.17,9.999 0.178,10.503 6.905,-10e-4 h 1.576 l -0.108,-6.144 -0.176,-9.999 -0.176,-9.998 -0.175,-9.999 -0.176,-9.998 -0.175,-9.999 -0.176,-9.998 -0.176,-9.999 -0.175,-9.998 -0.176,-9.999 -0.175,-9.998 -0.176,-9.999 -0.176,-9.998 -0.175,-9.998 -0.176,-9.999 -0.175,-9.998 -0.176,-9.999 -0.077,-4.36"
         id="path78"
         style="fill:#b3b3b3;fill-opacity:1;stroke:#000000;stroke-width:3;stroke-linecap:butt;stroke-linejoin:round;stroke-opacity:1"
         inkscape:connector-curvature="0" />
      <path
         d="m 1147.482,729.404 -0.115,-8.63 -10,10e-4 h -10 l -10,10e-4 h -10 l -10,0.001 h -10 l -10,10e-4 h -10 l -10,10e-4 h -10 l -10,10e-4 h -10 -10 l -10,10e-4 h -10 l -10,0.001 h -10 l -8.6,10e-4 0.005,7.518 10e-4,1.112 h 6.887 l 10,-10e-4 h 10 l 10,-0.001 h 10 l 10,-10e-4 h 10 l 10,-10e-4 h 10 l 10,-10e-4 h 10 l 10,-10e-4 h 10 l 10,-0.001 h 10 l 10,-10e-4 h 10 l 10,-10e-4 h 1.822"
         id="path82"
         style="fill:#b3b3b3;fill-opacity:1;stroke:#000000;stroke-width:3;stroke-linecap:butt;stroke-linejoin:round;stroke-opacity:1"
         inkscape:connector-curvature="0" />
      <path
         style="fill:#b3b3b3;fill-opacity:1;stroke:#b3b3b3;stroke-width:4;stroke-linecap:butt;stroke-linejoin:miter;stroke-miterlimit:4;stroke-dasharray:12, 4;stroke-dashoffset:2.39999986;stroke-opacity:1"
         d="M -3115.5667,624.06112 724.64017,609.66382"
         id="path3055-9-7"
         inkscape:connector-curvature="0"
         sodipodi:nodetypes="cc" />
      <path
         style="fill:#b3b3b3;fill-opacity:1;stroke:#b3b3b3;stroke-width:4;stroke-linecap:butt;stroke-linejoin:miter;stroke-miterlimit:4;stroke-dasharray:12, 4;stroke-dashoffset:2.39999986;stroke-opacity:1"
         d="M -3110.5508,411.72009 729.65612,397.32279"
         id="path3055-9-7-3"
         inkscape:connector-curvature="0"
         sodipodi:nodetypes="cc" />
      <path
         style="fill:#b3b3b3;fill-opacity:1;stroke:#b3b3b3;stroke-width:4;stroke-linecap:butt;stroke-linejoin:miter;stroke-miterlimit:4;stroke-dasharray:12, 4;stroke-dashoffset:2.39999986;stroke-opacity:1"
         d="m 1206.4928,411.72009 3840.2069,-14.3973"
         id="path3055-9-7-6"
         inkscape:connector-curvature="0"
         sodipodi:nodetypes="cc" />
      <path
         style="fill:#b3b3b3;fill-opacity:1;stroke:#b3b3b3;stroke-width:4;stroke-linecap:butt;stroke-linejoin:miter;stroke-miterlimit:4;stroke-dasharray:12, 4;stroke-dashoffset:2.39999986;stroke-opacity:1"
         d="M 1201.7481,615.0579 5041.955,600.6606"
         id="path3055-9-7-7"
         inkscape:connector-curvature="0"
         sodipodi:nodetypes="cc" />
      <path
         style="fill:#b3b3b3;fill-opacity:1;stroke:#b3b3b3;stroke-width:4;stroke-linecap:butt;stroke-linejoin:miter;stroke-miterlimit:4;stroke-dasharray:12, 4;stroke-dashoffset:2.39999986;stroke-opacity:1"
         d="M 877.09974,285.0922 860.71256,-3555.1067"
         id="path3055-9-7-5"
         inkscape:connector-curvature="0"
         sodipodi:nodetypes="cc" />
      <path
         style="fill:#b3b3b3;fill-opacity:1;stroke:#b3b3b3;stroke-width:4;stroke-linecap:butt;stroke-linejoin:miter;stroke-miterlimit:4;stroke-dasharray:12, 4;stroke-dashoffset:2.39999986;stroke-opacity:1"
         d="M 1081.6026,284.80943 1065.2154,-3555.3895"
         id="path3055-9-7-5-3"
         inkscape:connector-curvature="0"
         sodipodi:nodetypes="cc" />
      <path
         style="fill:#b3b3b3;fill-opacity:1;stroke:#b3b3b3;stroke-width:4;stroke-linecap:butt;stroke-linejoin:miter;stroke-miterlimit:4;stroke-dasharray:12, 4;stroke-dashoffset:2.39999986;stroke-opacity:1"
         d="M 877.62144,4565.0695 861.23426,724.87069"
         id="path3055-9-7-5-5"
         inkscape:connector-curvature="0"
         sodipodi:nodetypes="cc" />
      <path
         style="fill:#b3b3b3;fill-opacity:1;stroke:#b3b3b3;stroke-width:4;stroke-linecap:butt;stroke-linejoin:miter;stroke-miterlimit:4;stroke-dasharray:12, 4;stroke-dashoffset:2.39999986;stroke-opacity:1"
         d="M 1090.0813,4571.9226 1073.6941,731.72374"
         id="path3055-9-7-5-6"
         inkscape:connector-curvature="0"
         sodipodi:nodetypes="cc" />
      <path
         d="m -31.344,717.526 10,-10e-4 h 10 l 10,-10e-4 h 10 l 10,-10e-4 h 10 l 10,-10e-4 h 10 l 10,-0.001 h 10 3.594 l 10,-10e-4 h 10 l 10,-10e-4 h 10 l 10,-10e-4 h 10 l 10,-10e-4 h 10 l 10,-0.001 h 10 3.595 l 10,-10e-4 h 10 l 10,-10e-4 h 10 l 10,-10e-4 h 10 l 10,-0.001 h 10 l 10,-10e-4 h 10 3.594 l 10,-10e-4 h 10 l 10,-10e-4 h 10 l 10,-10e-4 h 10 l 10,-0.001 h 10 l 10,-10e-4 h 10 3.593 l 10,-10e-4 h 10 l 10,-10e-4 h 10 l 10,-10e-4 h 10 l 10,-0.001 h 10 l 10,-10e-4 h 10 3.594 l 10,0.048 10,0.048 10,0.048 10,0.048 9.999,0.048 10,0.048 10.057,0.048 10,-10e-4 h 10 l 10,-10e-4 h 10 10 l 10,-0.001 h 8.892 l 10,-0.051 10,-0.05 10,-0.05 10,-0.05 10,-0.051 10,-0.05 8.239,-0.041 9.363,0.786 9.108,2.199 8.631,3.607 0.508,0.315 7.436,4.613 7.062,6.13 6.006,7.184 4.802,8.064 3.479,8.749 2.068,9.219 0.651,9.466 -0.072,10 -0.072,9.999 -0.071,10 -0.072,10 -0.071,10 -0.072,9.999 -0.072,10.119 -0.145,9.998 -0.145,9.999 -0.145,9.999 -0.145,9.999 -0.145,9.999 -0.145,9.999 -0.154,10.623 -0.217,9.997 -0.218,9.998 -0.217,9.998 -0.218,9.997 -0.218,9.998 -0.217,9.997 -0.218,9.998 -0.036,1.672 -0.145,9.999 -0.146,9.999 -0.145,9.999 -0.145,9.999 -0.145,9.999 -0.146,9.999 -0.145,9.999 -0.145,9.998 -0.145,9.999 -0.145,9.999 -0.125,8.604"
         id="path52"
         style="fill:#ffffff;fill-opacity:1;stroke:#000000;stroke-width:3;stroke-linecap:butt;stroke-linejoin:round;stroke-opacity:1"
         inkscape:connector-curvature="0" />
      <path
         d="m -35.568,777.86 h 10 10 l 10,-10e-4 h 10 l 10,-0.001 h 10 l 10,-10e-4 h 10 l 10,-10e-4 h 10 l 4.036,-10e-4 h 10 l 10,-10e-4 h 10 l 10,-0.001 h 10 10 l 10,-10e-4 h 10 l 10,-10e-4 h 10 l 4.036,-10e-4 h 10 l 10,-10e-4 h 10 l 10,-0.001 h 10 l 10,-10e-4 h 10 l 10,-10e-4 h 10 l 10,-10e-4 h 4.036 10 l 10,-10e-4 h 10 l 10,-0.001 h 10 l 10,-10e-4 h 10 l 10,-10e-4 h 10 l 10,-10e-4 h 4.035 10 l 10,-10e-4 h 10 l 10,-0.001 h 10 l 10,-10e-4 h 10 l 10,-10e-4 h 10 l 10,-10e-4 h 4.035 10 l 10,-0.001 h 10 l 10,-10e-4 h 10 l 10,-10e-4 h 9.357 l 10,-10e-4 h 10 l 10,-10e-4 h 10 l 10,-0.001 h 10 l 9.357,-10e-4 h 10 l 10,-10e-4 h 10 10 l 10,-10e-4 h 10 l 9.356,-10e-4 -0.187,9.998 -0.188,9.999 -0.188,9.998 -0.187,9.998 -0.188,9.998 -0.188,9.999 -0.19,10.108 -0.187,9.999 -0.188,9.998 -0.187,9.998 -0.188,9.998 -0.188,9.999 -0.187,9.998 -0.188,9.998 -0.015,0.805 -0.188,9.998 -0.187,9.998 -0.188,9.999 -0.187,9.998 -0.188,9.998 -0.188,9.998 -0.187,9.999 -0.029,1.51 -0.187,9.998 -0.188,9.999 -0.187,9.998 -0.188,9.998 -0.188,9.998 -0.187,9.999 -0.188,9.998 -0.188,9.998 -0.187,9.998 -0.188,9.998 -0.161,8.611"
         id="path46"
         inkscape:connector-curvature="0"
         style="fill:none;stroke:#000000;stroke-width:3;stroke-linecap:butt;stroke-linejoin:round;stroke-opacity:1" />
      <rect
         style="fill:#fdffff;fill-opacity:1;stroke:none;stroke-width:3.35599995;stroke-linecap:round;stroke-linejoin:miter;stroke-miterlimit:4;stroke-dasharray:none;stroke-dashoffset:0;stroke-opacity:1;paint-order:normal"
         id="rect984"
         width="735.07568"
         height="462.2406"
         x="1231.301"
         y="720.96899" />
      <rect
         style="fill:#fdffff;fill-opacity:1;stroke:none;stroke-width:3.35599995;stroke-linecap:round;stroke-linejoin:miter;stroke-miterlimit:4;stroke-dasharray:none;stroke-dashoffset:0;stroke-opacity:1;paint-order:normal"
         id="rect984-2"
         width="735.07568"
         height="462.2406"
         x="1193.439"
         y="750.36902" />
      <rect
         style="fill:#fdffff;fill-opacity:1;stroke:none;stroke-width:3.35599995;stroke-linecap:round;stroke-linejoin:miter;stroke-miterlimit:4;stroke-dasharray:none;stroke-dashoffset:0;stroke-opacity:1;paint-order:normal"
         id="rect984-1"
         width="735.07568"
         height="462.2406"
         x="1216.371"
         y="722.487" />
      <path
         d="m 1192.433,1098.781 -0.161,-9.999 -0.16,-9.998 -0.16,-9.999 -0.161,-9.999 -0.16,-9.999 -0.161,-9.998 -0.16,-9.999 -0.16,-9.999 -0.161,-9.998 -0.16,-9.999 -0.138,-8.605 -0.24,-9.997 -0.24,-9.998 -0.24,-9.997 -0.24,-9.997 -0.24,-9.997 -0.24,-9.997 -0.24,-9.997 -0.04,-1.675 -0.16,-9.999 -0.16,-9.999 -0.16,-9.998 -0.16,-9.999 -0.16,-9.999 -0.16,-9.998 -0.17,-10.624 -0.079,-10 -0.08,-9.999 -0.08,-10 -0.079,-10 -0.08,-9.999 -0.079,-10 -0.081,-10.118 0.637,-9.465 2.054,-9.22 3.465,-8.748 4.791,-8.065 5.995,-7.185 7.052,-6.131 7.565,-4.698 0.371,-0.23"
         id="path42"
         style="fill:#ffffff;fill-opacity:1;stroke:#000000;stroke-width:3;stroke-linecap:butt;stroke-linejoin:round;stroke-opacity:1"
         inkscape:connector-curvature="0" />
      <path
         d="m 1314.817,719.037 -9.999,-0.162 -9.998,-0.162 -9.999,-0.161 -9.999,-0.162 -9.998,-0.162 -9.999,-0.162 -9.449,-0.153 -8.432,0.339"
         id="path40"
         inkscape:connector-curvature="0"
         style="fill:none;stroke:#000000;stroke-width:3;stroke-linecap:butt;stroke-linejoin:round;stroke-opacity:1" />
      <path
         d="m 1218.371,724.487 0.842,-0.427 8.626,-3.608 9.105,-2.2 2.833,0.132 6.847,0.319 10,0.049 10,0.049 10,0.049 10,0.049 10,0.049 9.447,0.046 8.746,0.043 10,-0.001 h 10 l 10,-10e-4 h 10 l 10,-10e-4 h 10 l 8.898,-10e-4 9.999,-0.048 10,-0.049 10,-0.048 10,-0.049 10,-0.048 10,-0.049 10.112,-0.049 h 10 l 10,-10e-4 h 10 l 10,-10e-4 h 10 10 l 10,-10e-4 h 10 l 10,-0.001 h 10 l 3.601,-10e-4 h 10 10 l 10,-10e-4 h 10 l 10,-10e-4 h 10 l 10,-0.001 h 10 l 10,-10e-4 h 10 l 3.6,-10e-4 h 10 l 10,-10e-4 h 10 10 l 10,-10e-4 h 10 l 10,-0.001 h 10 l 10,-10e-4 h 10 l 3.6,-10e-4 h 10 l 10,-10e-4 h 10 10 l 10,-10e-4 h 10 l 10,-0.001 h 10 l 10,-10e-4 h 10 l 3.6,-10e-4 h 10 l 10,-10e-4 h 10 l 10,-10e-4 h 10 10 l 10,-0.001 h 10 l 10,-10e-4 h 10 l 3.6,-10e-4"
         id="path38"
         inkscape:connector-curvature="0"
         style="fill:none;stroke:#000000;stroke-width:3;stroke-linecap:butt;stroke-linejoin:round;stroke-opacity:1" />
      <path
         d="m 770.077,242.935 0.012,-0.125 v 0 l -0.947,9.955 -0.012,0.125 0.947,-9.955 0.012,-0.125 v 0 l 0.139,-9.999 0.138,-9.999 0.138,-9.999 0.139,-9.999 0.138,-9.999 0.138,-9.999 0.057,-4.092 0.138,-9.999 0.139,-9.999 0.138,-9.999 0.138,-9.999 0.139,-9.999 0.138,-9.999 0.048,-3.494 0.139,-9.999 0.138,-9.999 0.139,-9.999 0.138,-9.999 0.138,-9.999 0.139,-9.999 0.04,-2.904 0.138,-9.999 0.139,-10 0.138,-9.999 0.138,-9.999 0.139,-9.999 0.138,-9.999 0.138,-9.999 0.139,-9.999 0.138,-9.999 0.045,-3.269"
         id="path60"
         inkscape:connector-curvature="0"
         style="fill:none;stroke:#000000;stroke-width:3;stroke-linecap:butt;stroke-linejoin:round;stroke-opacity:1"
         sodipodi:nodetypes="ccccccccccccccccccccccccccccccccccccccc" />
      <path
         d="m 1937.718,241.987 -10,0.001 h -10 l -10,0.001 h -10 l -10,0.001 h -10 l -10,0.001 h -10 -10 l -10.11,10e-4 h -10 l -10,0.001 h -10 l -10,0.001 h -10 l -10,0.001 h -10 -10 l -10,0.001 h -10.11 l -10,0.001 h -10 l -10,10e-4 h -10 -10 l -10,0.001 h -10 l -10,0.001 h -10 l -10.11,0.001 h -10 l -10,0.001 h -10 -10 l -10,10e-4 h -10 l -10,0.001 h -10 l -10,0.001 h -10.111 -10 l -10,0.001 h -10 l -10,0.001 h -10 l -10,0.001 h -10 l -10,10e-4 h -10 -10.11 l -10,0.001 h -10 l -10,0.001 h -10 l -10,0.001 h -10 -6.741 l -10,0.001 h -10 l -10,0.001 h -10 l -10,10e-4 h -10 -6.74 l -10,0.001 h -10 l -10,0.001 h -10 l -10,0.001 h -10 -6.741 l -0.246,-9.997 -0.246,-9.997 -0.246,-9.997 -0.246,-9.997 -0.246,-9.997 -0.246,-9.997 -0.134,-5.452 -0.203,-9.998 -0.203,-9.998 -0.202,-9.998 -0.203,-9.998 -0.203,-9.998 -0.203,-9.998 -0.075,-3.688 -0.202,-9.998 -0.203,-9.998 -0.203,-9.998 -0.203,-9.998 -0.203,-9.998 -0.202,-9.998 -0.063,-3.095 -0.203,-9.998 -0.203,-9.998 -0.202,-9.997 -0.203,-9.998 -0.203,-9.998 -0.203,-9.998 -0.203,-9.998 -0.203,-9.998 -0.202,-9.998 -0.072,-3.548"
         id="path66"
         inkscape:connector-curvature="0"
         style="fill:none;stroke:#000000;stroke-width:3;stroke-linecap:butt;stroke-linejoin:round;stroke-opacity:1" />
      <path
         d="m 1254.04,1098.778 -0.203,-9.998 -0.202,-9.998 -0.203,-9.998 -0.203,-9.998 -0.203,-9.998 -0.203,-9.998 -0.202,-9.998 -0.203,-9.998 -0.203,-9.998 -0.203,-9.998 -0.174,-8.612 -0.203,-9.998 -0.203,-9.998 -0.203,-9.998 -0.203,-9.998 -0.203,-9.998 -0.202,-9.998 -0.203,-9.998 -0.031,-1.512 -0.203,-9.998 -0.202,-9.998 -0.203,-9.998 -0.203,-9.998 -0.203,-9.998 -0.202,-9.998 -0.203,-9.998 -0.017,-0.806 -0.202,-9.998 -0.203,-9.998 -0.203,-9.998 -0.203,-9.998 -0.203,-9.998 -0.203,-9.998 -0.205,-10.109 9.999,0.179 9.998,0.178 9.999,0.179 9.998,0.179 9.998,0.179 9.999,0.178 9.691,0.174 10,-10e-4 h 10 l 10,-10e-4 h 10 l 10,-10e-4 h 10 l 9.362,-10e-4 h 10 l 10,-0.001 h 10 l 10,-10e-4 h 10 l 10,-10e-4 h 9.362 l 10,-10e-4 h 10 l 10,-0.001 h 10 l 10,-10e-4 h 10 l 10,-10e-4 h 10 10 l 10,-10e-4 h 4.042 l 10,-10e-4 h 10 l 10,-0.001 h 10 l 10,-10e-4 h 10 l 10,-10e-4 h 10 l 10,-10e-4 h 10 4.043 l 10,-10e-4 h 10 l 10,-0.001 h 10 l 10,-10e-4 h 10 l 10,-10e-4 h 10 l 10,-10e-4 h 10 4.042 l 10,-10e-4 h 10 l 10,-0.001 h 10 l 10,-10e-4 h 10 l 10,-10e-4 h 10 l 10,-10e-4 h 10 4.042 l 10,-10e-4 h 10 l 10,-0.001 h 10 l 10,-10e-4 h 10 l 10,-10e-4 h 10 l 10,-10e-4 h 10 l 4.041,-0.001"
         id="path44"
         inkscape:connector-curvature="0"
         style="fill:none;stroke:#000000;stroke-width:3;stroke-linecap:butt;stroke-linejoin:round;stroke-opacity:1" />
      <path
         inkscape:connector-curvature="0"
         style="fill:none;stroke:#000000;stroke-width:3;stroke-linecap:butt;stroke-linejoin:round;stroke-opacity:1"
         d="m 1103.0846,843.02156 -1.063,-0.052 -0.449,0.007 -0.433,0.02 -0.418,0.035 -0.406,0.05 -0.394,0.063 -0.385,0.079 -0.378,0.094 -0.371,0.109 -0.368,0.125 -0.365,0.141 -0.364,0.157 -0.366,0.174 0.027,3.379 0.41,-0.181 0.39,-0.162 0.373,-0.143 0.358,-0.126 0.346,-0.109 0.335,-0.092 0.329,-0.076 0.323,-0.061 0.321,-0.047 0.322,-0.032 0.323,-0.019 0.329,-0.006 0.627,0.029 0.587,0.087 0.542,0.141 0.497,0.195 0.448,0.247 0.398,0.296 0.344,0.344 0.287,0.389 0.23,0.434 0.168,0.476 0.105,0.516 0.039,0.554 -0.029,0.545 -0.097,0.505 -0.164,0.464 -0.233,0.422 -0.3,0.378 -0.367,0.332 -0.436,0.286 -0.504,0.237 -0.571,0.187 -0.639,0.135 -0.707,0.082 -0.775,0.028 0.028,3.275 0.836,-0.003 0.764,0.078 0.693,0.154 0.621,0.224 0.55,0.29 0.477,0.349 0.406,0.404 0.333,0.454 0.26,0.497 0.188,0.536 0.115,0.57 0.042,0.598 -0.027,0.583 -0.089,0.546 -0.149,0.505 -0.207,0.464 -0.262,0.418 -0.316,0.371 -0.366,0.32 -0.414,0.268 -0.46,0.213 -0.504,0.156 -0.545,0.095 -0.584,0.032 -0.45,-0.013 -0.45,-0.039 -0.451,-0.065 -0.452,-0.091 -0.453,-0.117 -0.455,-0.144 -0.456,-0.171 -0.458,-0.197 -0.461,-0.224 -0.463,-0.25 -0.466,-0.278 -0.468,-0.305 0.031,3.862 0.442,0.22 0.442,0.202 0.442,0.185 0.44,0.167 0.44,0.148 0.438,0.131 0.436,0.111 0.435,0.092 0.432,0.072 0.43,0.052 0.427,0.031 0.425,0.011 1.104,-0.064 1.041,-0.187 0.972,-0.303 0.895,-0.415 0.813,-0.519 0.725,-0.618 0.629,-0.71 0.527,-0.797 0.419,-0.877 0.304,-0.952 0.184,-1.02 0.056,-1.082 -0.029,-0.636 -0.074,-0.632 -0.121,-0.621 -0.169,-0.603 -0.217,-0.578 -0.268,-0.548 -0.317,-0.51 -0.37,-0.467 -0.421,-0.417 -0.476,-0.36 -0.529,-0.297 -0.585,-0.228 0.527,-0.316 0.473,-0.334 0.42,-0.353 0.37,-0.375 0.319,-0.402 0.271,-0.43 0.225,-0.462 0.179,-0.497 0.136,-0.535 0.093,-0.575 0.052,-0.62 0.013,-0.666 -0.067,-0.953 -0.18,-0.89 -0.289,-0.825 -0.392,-0.755 -0.493,-0.681 -0.588,-0.603 -0.678,-0.522 -0.764,-0.436 -0.845,-0.346 -0.923,-0.252 -0.995,-0.154"
         id="path2-1" />
      <path
         inkscape:connector-curvature="0"
         style="fill:none;stroke:#000000;stroke-width:3;stroke-linecap:butt;stroke-linejoin:round;stroke-opacity:1"
         d="m 877.40458,859.96556 -0.06,8.162 3.526,-10e-4 0.058,-8.161 h 2.625 l 0.022,-3.204 h -2.624 l 0.07,-10 0.027,-3.781 h -1.508 l -6.32,7.75 -6.196,7.597 -0.013,1.639"
         id="path4-2" />
      <path
         inkscape:connector-curvature="0"
         style="fill:none;stroke:#000000;stroke-width:3;stroke-linecap:butt;stroke-linejoin:round;stroke-opacity:1"
         d="m 877.40758,849.70456 h 0.072 l -0.052,7.057 -5.68,10e-4 5.66,-7.058"
         id="path6-7" />
      <path
         inkscape:connector-curvature="0"
         style="fill:none;stroke:#000000;stroke-width:3;stroke-linecap:butt;stroke-linejoin:round;stroke-opacity:1"
         d="m 1444.2556,593.16656 -1.058,-0.063 -0.482,0.016 -0.476,0.046 -0.472,0.078 -0.467,0.108 -0.464,0.141 -0.462,0.173 -0.461,0.204 -0.461,0.237 -0.462,0.27 -0.464,0.302 -0.467,0.336 -0.47,0.369 0.14,4.317 0.463,-0.58 0.458,-0.513 0.454,-0.449 0.45,-0.388 0.447,-0.33 0.443,-0.276 0.441,-0.225 0.438,-0.177 0.436,-0.132 0.435,-0.091 0.434,-0.052 0.432,-0.016 0.58,0.038 0.552,0.112 0.522,0.181 0.487,0.248 0.448,0.31 0.405,0.369 0.357,0.424 0.305,0.475 0.25,0.522 0.19,0.566 0.126,0.605 0.057,0.642 v 0.484 l -0.02,0.456 -0.045,0.434 -0.068,0.415 -0.093,0.404 -0.116,0.397 -0.14,0.395 -0.163,0.399 -0.187,0.409 -0.21,0.423 -0.232,0.443 -0.256,0.469 -0.515,0.886 -0.573,0.917 -0.621,0.939 -0.662,0.954 -0.692,0.963 -0.713,0.964 -0.727,0.959 -0.73,0.946 -0.726,0.925 -0.711,0.899 -0.688,0.865 -0.656,0.823 0.01,0.247 10,-10e-4 h 5.272 l -0.109,-3.272 -9.225,10e-4 1.226,-1.53 1.097,-1.412 0.974,-1.31 0.852,-1.219 0.735,-1.142 0.621,-1.078 0.511,-1.026 0.405,-0.987 0.301,-0.963 0.201,-0.949 0.106,-0.95 0.012,-0.964 -0.097,-1.076 -0.215,-1.013 -0.325,-0.944 -0.431,-0.87 -0.531,-0.789 -0.623,-0.703 -0.711,-0.611 -0.792,-0.512 -0.868,-0.409 -0.937,-0.299 -1.001,-0.184"
         id="path8-0" />
      <path
         inkscape:connector-curvature="0"
         style="fill:none;stroke:#000000;stroke-width:3;stroke-linecap:butt;stroke-linejoin:round;stroke-opacity:1"
         d="m 519.13258,593.46256 -0.33,9.995 -0.081,2.466 1.287,-0.241 1.189,-0.098 1.088,0.035 0.984,0.156 0.877,0.267 0.767,0.369 0.653,0.458 0.538,0.538 0.417,0.606 0.295,0.665 0.17,0.713 0.041,0.749 -0.065,0.58 -0.152,0.558 -0.233,0.532 -0.308,0.498 -0.375,0.461 -0.437,0.417 -0.492,0.368 -0.541,0.314 -0.583,0.253 -0.619,0.188 -0.648,0.117 -0.671,0.04 -0.442,-0.013 -0.44,-0.037 -0.439,-0.062 -0.439,-0.086 -0.436,-0.111 -0.436,-0.135 -0.434,-0.16 -0.432,-0.183 -0.431,-0.207 -0.428,-0.231 -0.427,-0.255 -0.424,-0.279 -0.118,3.553 0.505,0.251 0.491,0.225 0.48,0.2 0.472,0.176 0.466,0.153 0.465,0.13 0.465,0.108 0.469,0.086 0.476,0.066 0.485,0.047 0.498,0.027 0.512,0.009 1.116,-0.067 1.06,-0.194 0.999,-0.315 0.929,-0.428 0.852,-0.535 0.767,-0.634 0.675,-0.727 0.575,-0.812 0.469,-0.89 0.354,-0.96 0.232,-1.025 0.102,-1.081 -0.033,-1.085 -0.17,-1.032 -0.301,-0.971 -0.43,-0.9 -0.553,-0.82 -0.674,-0.731 -0.791,-0.632 -0.903,-0.523 -1.012,-0.406 -1.116,-0.279 -1.218,-0.143 -1.315,0.003 0.197,-6.002 h 7.554 l 0.099,-3.087 h -10 -0.693"
         id="path10-9" />
      <path
         inkscape:connector-curvature="0"
         style="fill:none;stroke:#000000;stroke-width:3;stroke-linecap:butt;stroke-linejoin:round;stroke-opacity:1"
         d="m 996.09258,488.77656 -1.077,-0.075 -1.071,0.07 -1.001,0.204 -0.928,0.326 -0.85,0.434 -0.767,0.531 -0.68,0.616 -0.588,0.689 -0.491,0.75 -0.39,0.798 -0.285,0.834 -0.174,0.859 -0.058,0.871 0.061,0.942 0.178,0.901 0.286,0.853 0.389,0.796 0.482,0.731 0.569,0.66 0.648,0.579 0.719,0.492 0.782,0.396 0.839,0.292 0.888,0.182 0.929,0.062 0.318,-0.008 0.322,-0.023 0.325,-0.039 0.325,-0.052 0.325,-0.067 0.322,-0.08 0.317,-0.093 0.311,-0.105 0.304,-0.118 0.294,-0.129 0.282,-0.14 0.27,-0.15 -0.205,0.75 -0.285,0.759 -0.361,0.766 -0.436,0.769 -0.51,0.767 -0.582,0.763 -0.653,0.756 -0.72,0.744 -0.788,0.729 -0.853,0.711 -0.916,0.689 -0.978,0.664 2.107,2.495 1.368,-0.912 1.292,-1.028 1.208,-1.131 1.115,-1.22 1.015,-1.296 0.906,-1.357 0.78902,-1.405 0.663,-1.439 0.53,-1.46 0.388,-1.468 0.238,-1.461 0.08,-1.442 -0.068,-1.208 -0.193,-1.147 -0.312,-1.076 -0.424,-0.999 -0.53,-0.912 -0.628,-0.816 -0.72102,-0.714 -0.805,-0.603 -0.883,-0.483 -0.954,-0.355 -1.019,-0.219"
         id="path12-3" />
      <path
         inkscape:connector-curvature="0"
         style="fill:none;stroke:#000000;stroke-width:3;stroke-linecap:butt;stroke-linejoin:round;stroke-opacity:1"
         d="m 994.53258,491.94656 0.556,-0.032 0.542,0.041 0.52,0.116 0.493,0.187 0.462,0.252 0.425,0.311 0.384,0.364 0.338,0.411 0.287,0.454 0.232,0.49 0.172,0.519 0.107,0.545 0.037,0.563 v 0.145 0.142 l -0.002,0.142 -0.004,0.141 -0.006,0.144 -0.009,0.146 -0.012,0.152 -0.017,0.159 -0.022,0.167 -0.027,0.176 -0.034,0.188 -0.04,0.201 -0.325,0.214 -0.327,0.193 -0.326,0.172 -0.326,0.152 -0.322,0.133 -0.318,0.113 -0.312,0.095 -0.305,0.076 -0.297,0.058 -0.286,0.041 -0.274,0.025 -0.261,0.008 -0.551,-0.034 -0.529,-0.099 -0.502,-0.158 -0.47,-0.215 -0.432,-0.266 -0.391,-0.314 -0.344,-0.355 -0.293,-0.394 -0.236,-0.427 -0.175,-0.457 -0.108,-0.481 -0.038,-0.501 0.034,-0.532 0.098,-0.501 0.16,-0.47 0.218,-0.434 0.273,-0.395 0.324,-0.352 0.371,-0.308 0.415,-0.259 0.455,-0.206 0.493,-0.152 0.525,-0.094"
         id="path14-6" />
      <path
         inkscape:connector-curvature="0"
         style="fill:none;stroke:#000000;stroke-width:3;stroke-linecap:butt;stroke-linejoin:round;stroke-opacity:1"
         d="m 1429.8976,386.10656 h -3.408 l 0.321,9.995 0.321,9.995 0.105,3.266 3.414,-10e-4 -0.324,-9.994 -0.324,-9.995 -0.105,-3.266"
         id="path16-0" />
      <path
         inkscape:connector-curvature="0"
         style="fill:none;stroke:#000000;stroke-width:3;stroke-linecap:butt;stroke-linejoin:round;stroke-opacity:1"
         d="m 535.45858,388.39356 -1.969,-2.553 -1.513,1.039 -1.397,1.107 -1.278,1.167 -1.157,1.222 -1.034,1.272 -0.91,1.316 -0.782,1.353 -0.654,1.385 -0.522,1.412 -0.39,1.433 -0.255,1.447 -0.117,1.456 0.024,1.194 0.15,1.123 0.27,1.046 0.385,0.962 0.495,0.872 0.598,0.776 0.697,0.673 0.79,0.565 0.877,0.45 0.96,0.329 1.036,0.202 1.107,0.069 0.937,-0.065 0.908,-0.188 0.868,-0.303 0.82,-0.408 0.763,-0.506 0.694,-0.593 0.619,-0.671 0.532,-0.742 0.437,-0.803 0.333,-0.855 0.218,-0.899 0.095,-0.933 -0.028,-0.943 -0.142,-0.898 -0.249,-0.846 -0.35,-0.786 -0.444,-0.72 -0.533,-0.646 -0.614,-0.566 -0.689,-0.479 -0.758,-0.384 -0.82,-0.284 -0.876,-0.175 -0.925,-0.06 -0.385,0.01 -0.371,0.028 -0.357,0.044 -0.344,0.06 -0.331,0.073 -0.318,0.084 -0.306,0.094 -0.293,0.103 -0.28,0.109 -0.269,0.114 -0.256,0.117 -0.245,0.119 0.311,-0.811 0.388,-0.812 0.458,-0.806 0.525,-0.795 0.584,-0.779 0.639,-0.756 0.686,-0.728 0.729,-0.695 0.766,-0.657 0.797,-0.612 0.823,-0.561 0.842,-0.507"
         id="path18-6" />
      <path
         inkscape:connector-curvature="0"
         style="fill:none;stroke:#000000;stroke-width:3;stroke-linecap:butt;stroke-linejoin:round;stroke-opacity:1"
         d="m 529.87058,399.18656 0.313,-0.033 0.33,-0.018 0.352,-0.006 0.552,0.031 0.521,0.092 0.488,0.148 0.449,0.202 0.409,0.252 0.363,0.298 0.315,0.34 0.263,0.38 0.207,0.415 0.148,0.447 0.085,0.476 0.018,0.501 -0.05,0.555 -0.109,0.522 -0.167,0.484 -0.22,0.446 -0.272,0.403 -0.321,0.358 -0.366,0.311 -0.409,0.26 -0.449,0.208 -0.485,0.151 -0.52,0.093 -0.552,0.032 -0.611,-0.049 -0.593,-0.144 -0.561,-0.235 -0.521,-0.325 -0.469,-0.41 -0.407,-0.493 -0.334,-0.573 -0.25,-0.649 -0.156,-0.722 -0.05,-0.793 0.064,-0.86 0.191,-0.924 0.368,-0.225 0.343,-0.198 0.322,-0.172 0.307,-0.148 0.295,-0.126 0.29,-0.103 0.288,-0.085 0.291,-0.065 0.3,-0.049"
         id="path20-2" />
      <path
         inkscape:connector-curvature="0"
         style="fill:none;stroke:#000000;stroke-width:3;stroke-linecap:butt;stroke-linejoin:round;stroke-opacity:1"
         d="m 1098.4386,118.80456 -0.958,-0.057 -0.993,0.056 -0.942,0.165 -0.887,0.266 -0.823,0.362 -0.751,0.451 -0.674,0.534 -0.589,0.61 -0.497,0.68 -0.397,0.745 -0.291,0.801 -0.176,0.853 -0.056,0.897 0.025,0.471 0.067,0.462 0.106,0.451 0.147,0.44 0.184,0.428 0.222,0.415 0.258,0.4 0.293,0.386 0.327,0.368 0.36,0.352 0.391,0.332 0.423,0.314 -0.529,0.322 -0.481,0.343 -0.435,0.364 -0.388,0.386 -0.341,0.408 -0.295,0.432 -0.249,0.454 -0.202,0.479 -0.156,0.502 -0.11,0.527 -0.064,0.552 -0.018,0.578 0.074,0.877 0.202,0.837 0.322,0.791 0.434,0.737 0.539,0.676 0.634,0.609 0.721,0.534 0.801,0.453 0.873,0.364 0.936,0.268 0.991,0.167 1.038,0.057 1.02,-0.057 0.971,-0.164 0.915,-0.266 0.851,-0.361 0.779,-0.449 0.699,-0.53 0.612,-0.605 0.516,-0.673 0.413,-0.733 0.303,-0.788 0.184,-0.835 0.057,-0.877 -0.027,-0.56 -0.073,-0.549 -0.119,-0.534 -0.163,-0.517 -0.208,-0.498 -0.253,-0.475 -0.297,-0.451 -0.342,-0.423 -0.386,-0.394 -0.43,-0.362 -0.474,-0.327 -0.518,-0.29 0.47,-0.323 0.426,-0.345 0.383,-0.365 0.34,-0.382 0.298,-0.395 0.255,-0.407 0.215,-0.416 0.174,-0.422 0.133,-0.426 0.094,-0.426 0.054,-0.425 0.016,-0.421 -0.068,-0.906 -0.184,-0.86 -0.291,-0.81 -0.393,-0.751 -0.487,-0.688 -0.576,-0.616 -0.656,-0.54 -0.73,-0.456 -0.798,-0.366 -0.858,-0.269 -0.913,-0.166"
         id="path22-6" />
      <path
         inkscape:connector-curvature="0"
         style="fill:none;stroke:#000000;stroke-width:3;stroke-linecap:butt;stroke-linejoin:round;stroke-opacity:1"
         d="m 1096.8996,121.81956 0.538,-0.027 0.508,0.03 0.481,0.086 0.451,0.14 0.417,0.189 0.381,0.237 0.341,0.28 0.298,0.321 0.253,0.357 0.202,0.392 0.15,0.421 0.094,0.449 0.035,0.473 -0.03,0.444 -0.093,0.429 -0.153,0.409 -0.209,0.385 -0.259,0.357 -0.306,0.323 -0.348,0.286 -0.387,0.244 -0.419,0.197 -0.45,0.147 -0.473,0.091 -0.495,0.031 -0.488,-0.032 -0.471,-0.093 -0.449,-0.149 -0.422,-0.202 -0.391,-0.249 -0.355,-0.291 -0.314,-0.33 -0.268,-0.363 -0.218,-0.393 -0.163,-0.417 -0.102,-0.437 -0.038,-0.453 0.027,-0.485 0.087,-0.454 0.144,-0.421 0.199,-0.386 0.251,-0.349 0.3,-0.309 0.346,-0.267 0.391,-0.224 0.431,-0.178 0.47,-0.129 0.506,-0.08"
         id="path24-1" />
      <path
         inkscape:connector-curvature="0"
         style="fill:none;stroke:#000000;stroke-width:3;stroke-linecap:butt;stroke-linejoin:round;stroke-opacity:1"
         d="m 1096.8066,131.58956 0.612,-0.029 0.574,0.031 0.543,0.09 0.508,0.146 0.47,0.199 0.428,0.248 0.382,0.294 0.334,0.337 0.282,0.375 0.227,0.411 0.167,0.443 0.105,0.472 0.038,0.497 -0.025,0.463 -0.083,0.449 -0.141,0.431 -0.198,0.408 -0.256,0.378 -0.312,0.345 -0.369,0.306 -0.425,0.262 -0.481,0.213 -0.537,0.158 -0.592,0.098 -0.647,0.034 -0.583,-0.03 -0.552,-0.088 -0.516,-0.145 -0.478,-0.196 -0.435,-0.246 -0.39,-0.292 -0.34,-0.335 -0.287,-0.375 -0.23,-0.411 -0.171,-0.446 -0.106,-0.477 -0.039,-0.504 0.029,-0.511 0.096,-0.48 0.159,-0.448 0.219,-0.413 0.278,-0.374 0.333,-0.333 0.386,-0.289 0.437,-0.243 0.484,-0.194 0.529,-0.141 0.573,-0.088"
         id="path26-8" />
      <path
         inkscape:connector-curvature="0"
         style="fill:none;stroke:#000000;stroke-width:3;stroke-linecap:butt;stroke-linejoin:round;stroke-opacity:1"
         d="m 889.30758,119.05056 -10,10e-4 h -5.038 l -0.024,3.046 10.061,-0.001 -4.268,9.043 -4.269,9.043 -0.133,0.282 2.962,1.248 4.272,-9.041 4.273,-9.041 2.164,-4.58"
         id="path28-7" />
      <path
         inkscape:connector-curvature="0"
         style="fill:none;stroke:#000000;stroke-width:3;stroke-linecap:butt;stroke-linejoin:round;stroke-opacity:1"
         d="m 1140.3286,530.02287 h -2.732 l 0.128,9.999 0.128,9.999 0.047,3.605 h 3.228 l -0.131,-9.999 -0.107,-8.178 6.663,7.458 6.662,7.457 2.913,3.261 h 2.947 l -0.144,-9.999 -0.144,-9.999 -0.052,-3.605 h -3.223 l 0.142,9.999 0.118,8.268 -6.691,-7.433 -6.69,-7.432 -3.062,-3.401"
         id="path12-2" />
      <path
         inkscape:connector-curvature="0"
         style="fill:none;stroke:#000000;stroke-width:3;stroke-linecap:butt;stroke-linejoin:round;stroke-opacity:1"
         d="m 1122.4786,529.82487 -1.91,-0.112 -1.877,0.113 -1.755,0.329 -1.626,0.529 -1.488,0.713 -1.341,0.881 -1.187,1.034 -1.024,1.169 -0.853,1.29 -0.674,1.394 -0.487,1.483 -0.292,1.556 -0.087,1.612 0.119,1.584 0.317,1.537 0.508,1.474 0.692,1.394 0.868,1.295 1.038,1.179 1.199,1.045 1.353,0.895 1.5,0.726 1.64,0.541 1.772,0.337 1.896,0.116 1.956,-0.117 1.812,-0.339 1.663,-0.543 1.508,-0.729 1.347,-0.898 1.183,-1.048 1.011,-1.181 0.836,-1.296 0.655,-1.392 0.468,-1.472 0.277,-1.533 0.08,-1.576 -0.123,-1.62 -0.322,-1.56 -0.514,-1.485 -0.699,-1.395 -0.876,-1.29 -1.046,-1.167 -1.208,-1.031 -1.363,-0.878 -1.511,-0.71 -1.651,-0.526 -1.784,-0.328"
         id="path14-0" />
      <path
         inkscape:connector-curvature="0"
         style="fill:none;stroke:#000000;stroke-width:3;stroke-linecap:butt;stroke-linejoin:round;stroke-opacity:1"
         d="m 1119.3046,532.90087 1.3,-0.078 1.311,0.078 1.244,0.227 1.171,0.37 1.087,0.503 0.995,0.627 0.893,0.744 0.783,0.852 0.664,0.952 0.535,1.044 0.399,1.126 0.252,1.202 0.096,1.267 -0.065,1.26 -0.223,1.198 -0.371,1.124 -0.51,1.044 -0.641,0.955 -0.763,0.855 -0.877,0.748 -0.98,0.632 -1.076,0.507 -1.164,0.373 -1.241,0.23 -1.31,0.079 -1.304,-0.079 -1.239,-0.23 -1.167,-0.373 -1.083,-0.507 -0.992,-0.631 -0.891,-0.748 -0.781,-0.856 -0.662,-0.954 -0.534,-1.044 -0.397,-1.125 -0.25,-1.197 -0.095,-1.26 0.067,-1.268 0.224,-1.201 0.372,-1.126 0.51,-1.044 0.641,-0.952 0.761,-0.852 0.874,-0.744 0.976,-0.628 1.071,-0.503 1.157,-0.369 1.233,-0.228"
         id="path16-2" />
      <path
         inkscape:connector-curvature="0"
         style="fill:none;stroke:#000000;stroke-width:3;stroke-linecap:butt;stroke-linejoin:round;stroke-opacity:1"
         d="m 1103.5136,530.02487 h -3.433 l 0.101,9.999 0.102,10 0.036,3.604 h 3.439 l -0.104,-10 -0.104,-9.999 -0.037,-3.604"
         id="path18-3" />
      <path
         inkscape:connector-curvature="0"
         style="fill:none;stroke:#000000;stroke-width:3;stroke-linecap:butt;stroke-linejoin:round;stroke-opacity:1"
         d="m 1096.8226,530.02487 h -10 l -9.967,0.001 0.026,3.041 8.269,-10e-4 0.091,10 0.09,10 0.01,0.563 h 3.439 l -0.093,-10 -0.093,-10 -0.01,-0.563 h 8.269 l -0.03,-3.041"
         id="path20-7" />
      <path
         inkscape:connector-curvature="0"
         style="fill:none;stroke:#000000;stroke-width:3;stroke-linecap:butt;stroke-linejoin:round;stroke-opacity:1"
         d="m 1066.8536,529.72787 -0.614,-0.013 -1.853,0.108 -1.753,0.315 -1.641,0.511 -1.516,0.694 -1.38,0.868 -1.233,1.03 -1.073,1.179 -0.902,1.318 -0.72,1.444 -0.525,1.561 -0.319,1.664 -0.101,1.758 0.091,1.271 0.259,1.319 0.431,1.337 0.606,1.325 0.785,1.282 0.967,1.21 1.155,1.106 1.344,0.973 1.539,0.809 1.736,0.616 1.937,0.391 2.143,0.138 0.914,-0.018 0.867,-0.052 0.825,-0.085 0.785,-0.115 0.748,-0.144 0.716,-0.172 0.686,-0.196 0.66,-0.22 0.637,-0.242 0.619,-0.261 0.602,-0.28 0.59,-0.296 -0.031,-3.707 -0.676,0.416 -0.685,0.383 -0.693,0.349 -0.698,0.313 -0.702,0.279 -0.704,0.244 -0.704,0.207 -0.702,0.17 -0.7,0.134 -0.695,0.096 -0.688,0.058 -0.68,0.019 -1.399,-0.075 -1.318,-0.221 -1.228,-0.36 -1.13,-0.492 -1.027,-0.617 -0.915,-0.734 -0.795,-0.844 -0.669,-0.947 -0.535,-1.044 -0.394,-1.132 -0.246,-1.214 -0.089,-1.289 0.074,-1.268 0.235,-1.203 0.386,-1.13 0.529,-1.047 0.661,-0.956 0.785,-0.856 0.9,-0.749 1.005,-0.631 1.101,-0.507 1.189,-0.372 1.266,-0.23 1.335,-0.079 0.688,0.016 0.679,0.049 0.675,0.081 0.671,0.114 0.671,0.149 0.672,0.183 0.676,0.219 0.683,0.254 0.691,0.291 0.702,0.329 0.715,0.365 0.731,0.405 -0.03,-3.63 -0.802,-0.321 -0.771,-0.29 -0.745,-0.26 -0.719,-0.23 -0.698,-0.2 -0.678,-0.172 -0.661,-0.143 -0.646,-0.117 -0.635,-0.089 -0.625,-0.063 -0.619,-0.037"
         id="path22-5" />
      <path
         inkscape:connector-curvature="0"
         style="fill:none;stroke:#000000;stroke-width:3;stroke-linecap:butt;stroke-linejoin:round;stroke-opacity:1"
         d="m 1036.5726,530.02787 0.056,9.999 0.056,10 0.02,3.604 h 10 l 3.895,-10e-4 -0.02,-3.05 -10,10e-4 h -0.454 l -0.043,-7.343 h 9.782 l -0.02,-3.046 -9.78,10e-4 -0.041,-7.124 10,-10e-4 h 0.125 l -0.02,-3.041 h -10 l -3.556,10e-4"
         id="path24-9" />
      <path
         inkscape:connector-curvature="0"
         style="fill:none;stroke:#000000;stroke-width:3;stroke-linecap:butt;stroke-linejoin:round;stroke-opacity:1"
         d="m 1027.0086,529.72887 -0.456,-0.012 -1.062,0.051 -0.994,0.149 -0.922,0.244 -0.844,0.334 -0.762,0.423 -0.676,0.505 -0.583,0.586 -0.488,0.662 -0.386,0.735 -0.281,0.803 -0.17,0.869 -0.055,0.93 0.21,1.5 0.568,1.289 0.854,1.113 1.07,0.974 1.213,0.87 1.285,0.801 1.284,0.768 1.213,0.771 1.07,0.809 0.854,0.882 0.568,0.992 0.209,1.136 -0.024,0.336 -0.076,0.342 -0.128,0.343 -0.182,0.337 -0.236,0.323 -0.291,0.303 -0.346,0.275 -0.403,0.241 -0.461,0.2 -0.518,0.151 -0.577,0.096 -0.637,0.033 -0.584,-0.025 -0.578,-0.075 -0.57,-0.124 -0.561,-0.172 -0.552,-0.22 -0.54,-0.267 -0.527,-0.313 -0.515,-0.359 -0.5,-0.403 -0.484,-0.448 -0.468,-0.49 -0.45,-0.533 0.018,4.296 0.504,0.356 0.51,0.323 0.516,0.291 0.525,0.258 0.535,0.227 0.545,0.196 0.558,0.164 0.571,0.134 0.586,0.103 0.603,0.073 0.62,0.044 0.639,0.014 0.943,-0.055 0.893,-0.162 0.837,-0.263 0.776,-0.358 0.707,-0.447 0.633,-0.53 0.552,-0.608 0.465,-0.678 0.371,-0.744 0.272,-0.804 0.166,-0.857 0.053,-0.905 -0.213,-1.728 -0.57,-1.453 -0.857,-1.223 -1.07,-1.033 -1.214,-0.886 -1.284,-0.782 -1.285,-0.72 -1.212,-0.7 -1.068,-0.723 -0.854,-0.787 -0.566,-0.895 -0.208,-1.043 0.03,-0.404 0.093,-0.38 0.152,-0.354 0.208,-0.326 0.261,-0.296 0.311,-0.263 0.356,-0.229 0.399,-0.192 0.439,-0.153 0.476,-0.112 0.508,-0.068 0.538,-0.024 0.41,0.012 0.424,0.038 0.436,0.066 0.449,0.098 0.459,0.132 0.47,0.168 0.478,0.208 0.486,0.251 0.493,0.296 0.5,0.343 0.505,0.395 0.508,0.447 -0.02,-3.837 -0.424,-0.264 -0.43,-0.242 -0.435,-0.219 -0.439,-0.196 -0.442,-0.173 -0.446,-0.149 -0.449,-0.127 -0.451,-0.104 -0.452,-0.08 -0.454,-0.058 -0.455,-0.034"
         id="path26-2" />
      <path
         inkscape:connector-curvature="0"
         style="fill:none;stroke:#000000;stroke-width:3;stroke-linecap:butt;stroke-linejoin:round;stroke-opacity:1"
         d="m 999.44158,530.02887 0.029,10 0.03,10 0.01,3.604 h 3.43902 l -0.032,-10 -10e-4,-0.255 h 1.438 l 0.433,0.014 0.427,0.05 0.428,0.099 0.436,0.16 0.452,0.236 0.474,0.324 0.504,0.425 0.541,0.539 0.584,0.666 0.635,0.805 0.694,0.959 0.758,1.125 3.176,4.852 h 4.106 l -0.394,-0.534 -0.354,-0.482 -0.321,-0.437 -0.292,-0.4 -0.268,-0.371 -0.25,-0.35 -0.237,-0.337 -0.229,-0.332 -0.226,-0.334 -0.228,-0.346 -0.235,-0.365 -0.248,-0.391 -0.45,-0.72 -0.433,-0.688 -0.422,-0.657 -0.415,-0.625 -0.413,-0.593 -0.416,-0.561 -0.423,-0.529 -0.435,-0.498 -0.451,-0.466 -0.472,-0.434 -0.498,-0.402 -0.528,-0.371 0.616,-0.272 0.567,-0.315 0.518,-0.355 0.468,-0.395 0.417,-0.433 0.364,-0.471 0.311,-0.506 0.256,-0.542 0.201,-0.575 0.143,-0.607 0.086,-0.639 0.028,-0.668 -0.066,-0.987 -0.188,-0.919 -0.304,-0.847 -0.416,-0.772 -0.526,-0.694 -0.63,-0.612 -0.731,-0.527 -0.826,-0.439 -0.919,-0.347 -1.006,-0.252 -1.091,-0.154 -1.17,-0.052 h -6.02502"
         id="path28-2" />
      <path
         inkscape:connector-curvature="0"
         style="fill:none;stroke:#000000;stroke-width:3;stroke-linecap:butt;stroke-linejoin:round;stroke-opacity:1"
         d="m 1002.8836,532.93187 h 2.208 l 0.791,0.028 0.71,0.082 0.632,0.135 0.557,0.186 0.483,0.236 0.412,0.283 0.344,0.33 0.278,0.374 0.215,0.417 0.153,0.458 0.094,0.497 0.039,0.535 -0.013,0.489 -0.064,0.48 -0.12,0.462 -0.181,0.44 -0.248,0.412 -0.32,0.376 -0.398,0.335 -0.48,0.288 -0.569,0.235 -0.663,0.175 -0.762,0.11 -0.866,0.038 h -2.208 l -0.024,-7.401"
         id="path30-8" />
      <path
         inkscape:connector-curvature="0"
         style="fill:none;stroke:#000000;stroke-width:3;stroke-linecap:butt;stroke-linejoin:round;stroke-opacity:1"
         d="m 981.85758,530.02987 0.016,10 0.017,10 0.006,3.604 10,-10e-4 h 3.895 l -0.008,-3.05 h -10 -0.454 l -0.014,-7.342 9.782,-10e-4 -0.008,-3.045 h -9.78 l -0.014,-7.124 h 10 0.126 l -0.008,-3.041 h -10 -3.556"
         id="path32-9" />
      <path
         inkscape:connector-curvature="0"
         style="fill:none;stroke:#000000;stroke-width:3;stroke-linecap:butt;stroke-linejoin:round;stroke-opacity:1"
         d="m 978.63458,530.02987 -10,0.001 h -9.967 v 3.041 h 8.269 l 0.006,10 0.006,10 v 0.562 h 3.439 l -0.009,-10 -0.008,-10 v -0.562 l 8.268,-10e-4 -0.004,-3.041"
         id="path34-7" />
      <path
         inkscape:connector-curvature="0"
         style="fill:none;stroke:#000000;stroke-width:3;stroke-linecap:butt;stroke-linejoin:round;stroke-opacity:1"
         d="m 936.03958,530.03187 h -2.733 l -0.018,10 -0.018,10 -0.007,3.604 h 3.228 l 0.016,-10 0.013,-8.177 6.601,7.512 6.601,7.512 2.77,3.152 h 2.947 l 0.002,-10 0.003,-10 10e-4,-3.604 -3.223,10e-4 -0.005,10 -0.004,8.266 -6.629,-7.486 -6.63,-7.487 -2.915,-3.293"
         id="path36-3" />
      <path
         inkscape:connector-curvature="0"
         style="fill:none;stroke:#000000;stroke-width:3;stroke-linecap:butt;stroke-linejoin:round;stroke-opacity:1"
         d="m 928.05258,530.03287 h -3.433 l -0.024,10 -0.025,10 -0.009,3.603 h 3.439 l 0.022,-10 0.022,-10 0.008,-3.603"
         id="path38-6" />
      <path
         inkscape:connector-curvature="0"
         style="fill:none;stroke:#000000;stroke-width:3;stroke-linecap:butt;stroke-linejoin:round;stroke-opacity:1"
         d="m 922.09858,556.23687 h -10 l -7.968,0.001 -0.007,1.734 10,-10e-4 h 7.971 l 0.004,-1.734"
         id="path40-1" />
      <path
         inkscape:connector-curvature="0"
         style="fill:none;stroke:#000000;stroke-width:3;stroke-linecap:butt;stroke-linejoin:round;stroke-opacity:1"
         d="m 889.55558,530.03387 -0.05,10 -0.049,10 -0.018,3.604 10,-10e-4 h 3.895 l 0.012,-3.05 -10,10e-4 h -0.454 l 0.034,-7.343 h 9.783 l 0.012,-3.046 -9.78,10e-4 0.033,-7.125 h 10 0.126 l 0.012,-3.041 h -10 -3.556"
         id="path42-2" />
      <path
         inkscape:connector-curvature="0"
         style="fill:none;stroke:#000000;stroke-width:3;stroke-linecap:butt;stroke-linejoin:round;stroke-opacity:1"
         d="m 871.51558,530.03487 -0.063,10 -0.062,10 -0.023,3.604 3.439,-10e-4 0.06,-9.999 10e-4,-0.22 h 3.577 l 1.322,-0.06 1.2,-0.173 1.078,-0.28 0.958,-0.378 0.839,-0.471 0.723,-0.555 0.607,-0.632 0.495,-0.702 0.382,-0.764 0.273,-0.82 0.164,-0.867 0.057,-0.907 -0.045,-0.918 -0.146,-0.881 -0.249,-0.836 -0.353,-0.782 -0.459,-0.72 -0.567,-0.651 -0.675,-0.574 -0.786,-0.487 -0.899,-0.393 -1.013,-0.291 -1.128,-0.18 -1.246,-0.062 h -7.461"
         id="path44-9" />
      <path
         inkscape:connector-curvature="0"
         style="fill:none;stroke:#000000;stroke-width:3;stroke-linecap:butt;stroke-linejoin:round;stroke-opacity:1"
         d="m 874.92958,533.07587 h 4.03 l 0.735,0.038 0.648,0.108 0.565,0.173 0.488,0.229 0.414,0.279 0.345,0.322 0.279,0.359 0.219,0.387 0.162,0.409 0.11,0.425 0.061,0.433 0.018,0.434 -0.037,0.566 -0.102,0.524 -0.167,0.48 -0.226,0.435 -0.285,0.387 -0.341,0.34 -0.394,0.291 -0.444,0.241 -0.492,0.189 -0.537,0.137 -0.581,0.083 -0.62,0.028 h -3.891 l 0.043,-7.297"
         id="path46-3" />
      <path
         inkscape:connector-curvature="0"
         style="fill:none;stroke:#000000;stroke-width:3;stroke-linecap:butt;stroke-linejoin:round;stroke-opacity:1"
         d="m 852.03958,530.03587 h -4.134 l 6.205,7.843 2.576,3.257 -0.073,9.999 -0.018,2.504 h 3.438 l 0.071,-10 0.018,-2.469 6.261,-7.797 2.68,-3.338 -4.134,0.001 -6.27,7.79 -0.269,0.334 -6.159,-7.878 -0.192,-0.246"
         id="path48-1" />
      <path
         inkscape:connector-curvature="0"
         style="fill:none;stroke:#000000;stroke-width:3;stroke-linecap:butt;stroke-linejoin:round;stroke-opacity:1"
         d="m 847.28558,533.07687 0.025,-3.041 -10,10e-4 h -9.967 l -0.029,3.041 h 8.269 l -0.088,10 -0.089,9.999 -0.005,0.563 h 3.439 l 0.086,-9.999 0.086,-10 0.005,-0.563"
         id="path50-9" />
    </g>
  </g>
</svg>
