<?xml version="1.0" encoding="UTF-8" standalone="no"?>
<svg
   xmlns:dc="http://purl.org/dc/elements/1.1/"
   xmlns:cc="http://creativecommons.org/ns#"
   xmlns:rdf="http://www.w3.org/1999/02/22-rdf-syntax-ns#"
   xmlns:svg="http://www.w3.org/2000/svg"
   xmlns="http://www.w3.org/2000/svg"
   xmlns:sodipodi="http://sodipodi.sourceforge.net/DTD/sodipodi-0.dtd"
   xmlns:inkscape="http://www.inkscape.org/namespaces/inkscape"
   height="540"
   version="1.1"
   width="960"
   id="svg182"
   sodipodi:docname="OSI_DirectionalScope.svg"
   inkscape:version="0.92.1 r15371"
   viewBox="0 0 1920 0.01">
  <metadata
     id="metadata188">
    <rdf:RDF>
      <cc:Work
         rdf:about="">
        <dc:format>image/svg+xml</dc:format>
        <dc:type
           rdf:resource="http://purl.org/dc/dcmitype/StillImage" />
        <dc:title></dc:title>
      </cc:Work>
    </rdf:RDF>
  </metadata>
  <defs
     id="defs186">
    <pattern
       inkscape:stockid="Stripes 1:1 white"
       id="Strips1_1white"
       patternTransform="translate(0,0) scale(10,10)"
       height="1"
       width="2"
       patternUnits="userSpaceOnUse"
       inkscape:collect="always">
      <rect
         id="rect1714"
         height="2"
         width="1"
         y="-0.5"
         x="0"
         style="fill:white;stroke:none" />
    </pattern>
    <filter
       style="color-interpolation-filters:sRGB"
       inkscape:label="Colorize"
       id="filter2485">
      <feComposite
         in2="SourceGraphic"
         operator="arithmetic"
         k1="0"
         k2="1"
         result="composite1"
         id="feComposite2471"
         k3="0"
         k4="0" />
      <feColorMatrix
         in="composite1"
         values="1"
         type="saturate"
         result="colormatrix1"
         id="feColorMatrix2473" />
      <feFlood
         flood-opacity="1"
         flood-color="rgb(179,179,179)"
         result="flood1"
         id="feFlood2475" />
      <feBlend
         in="flood1"
         in2="colormatrix1"
         mode="multiply"
         result="blend1"
         id="feBlend2477" />
      <feBlend
         in2="blend1"
         mode="screen"
         result="blend2"
         id="feBlend2479" />
      <feColorMatrix
         in="blend2"
         values="1"
         type="saturate"
         result="colormatrix2"
         id="feColorMatrix2481" />
      <feComposite
         in="colormatrix2"
         in2="SourceGraphic"
         operator="in"
         result="composite2"
         id="feComposite2483" />
    </filter>
    <marker
       inkscape:stockid="DotS"
       orient="auto"
       refY="0"
       refX="0"
       id="DotS-5"
       style="overflow:visible"
       inkscape:isstock="true">
      <path
         inkscape:connector-curvature="0"
         id="path5815-62"
         d="m -2.5,-1 c 0,2.76 -2.24,5 -5,5 -2.76,0 -5,-2.24 -5,-5 0,-2.76 2.24,-5 5,-5 2.76,0 5,2.24 5,5 z"
         style="fill:#b3b3b3;fill-opacity:1;fill-rule:evenodd;stroke:#000003;stroke-width:1.00000003pt;stroke-opacity:1"
         transform="matrix(0.2,0,0,0.2,1.48,0.2)" />
    </marker>
    <marker
       inkscape:stockid="Arrow2Mend"
       orient="auto"
       refY="0"
       refX="0"
       id="marker6569-9"
       style="overflow:visible"
       inkscape:isstock="true">
      <path
         inkscape:connector-curvature="0"
         id="path6567-1"
         style="fill:#b3b3b3;fill-opacity:1;fill-rule:evenodd;stroke:#000003;stroke-width:0.625;stroke-linejoin:round;stroke-opacity:1"
         d="M 8.7185878,4.0337352 -2.2072895,0.01601326 8.7185884,-4.0017078 c -1.7454984,2.3720609 -1.7354408,5.6174519 -6e-7,8.035443 z"
         transform="scale(-0.6)" />
    </marker>
    <marker
       inkscape:stockid="DotS"
       orient="auto"
       refY="0"
       refX="0"
       id="DotS-3"
       style="overflow:visible"
       inkscape:isstock="true">
      <path
         inkscape:connector-curvature="0"
         id="path5815-6"
         d="m -2.5,-1 c 0,2.76 -2.24,5 -5,5 -2.76,0 -5,-2.24 -5,-5 0,-2.76 2.24,-5 5,-5 2.76,0 5,2.24 5,5 z"
         style="fill:#b3b3b3;fill-opacity:1;fill-rule:evenodd;stroke:#000003;stroke-width:1.00000003pt;stroke-opacity:1"
         transform="matrix(0.2,0,0,0.2,1.48,0.2)" />
    </marker>
    <marker
       inkscape:stockid="Arrow2Mend"
       orient="auto"
       refY="0"
       refX="0"
       id="marker6569-7"
       style="overflow:visible"
       inkscape:isstock="true">
      <path
         inkscape:connector-curvature="0"
         id="path6567-5"
         style="fill:#b3b3b3;fill-opacity:1;fill-rule:evenodd;stroke:#000003;stroke-width:0.625;stroke-linejoin:round;stroke-opacity:1"
         d="M 8.7185878,4.0337352 -2.2072895,0.01601326 8.7185884,-4.0017078 c -1.7454984,2.3720609 -1.7354408,5.6174519 -6e-7,8.035443 z"
         transform="scale(-0.6)" />
    </marker>
    <marker
       inkscape:stockid="DotM"
       orient="auto"
       refY="0"
       refX="0"
       id="DotM"
       style="overflow:visible"
       inkscape:isstock="true">
      <path
         inkscape:connector-curvature="0"
         id="path5812"
         d="m -2.5,-1 c 0,2.76 -2.24,5 -5,5 -2.76,0 -5,-2.24 -5,-5 0,-2.76 2.24,-5 5,-5 2.76,0 5,2.24 5,5 z"
         style="fill:#b3b3b3;fill-opacity:1;fill-rule:evenodd;stroke:#000003;stroke-width:1.00000003pt;stroke-opacity:1"
         transform="matrix(0.4,0,0,0.4,2.96,0.4)" />
    </marker>
    <marker
       inkscape:stockid="Arrow2Mend"
       orient="auto"
       refY="0"
       refX="0"
       id="marker6569"
       style="overflow:visible"
       inkscape:isstock="true">
      <path
         inkscape:connector-curvature="0"
         id="path6567"
         style="fill:#b3b3b3;fill-opacity:1;fill-rule:evenodd;stroke:#000003;stroke-width:0.625;stroke-linejoin:round;stroke-opacity:1"
         d="M 8.7185878,4.0337352 -2.2072895,0.01601326 8.7185884,-4.0017078 c -1.7454984,2.3720609 -1.7354408,5.6174519 -6e-7,8.035443 z"
         transform="scale(-0.6)" />
    </marker>
    <marker
       inkscape:stockid="DotS"
       orient="auto"
       refY="0"
       refX="0"
       id="DotS-3-7"
       style="overflow:visible"
       inkscape:isstock="true">
      <path
         inkscape:connector-curvature="0"
         id="path5815-6-0"
         d="m -2.5,-1 c 0,2.76 -2.24,5 -5,5 -2.76,0 -5,-2.24 -5,-5 0,-2.76 2.24,-5 5,-5 2.76,0 5,2.24 5,5 z"
         style="fill:#b3b3b3;fill-opacity:1;fill-rule:evenodd;stroke:#000003;stroke-width:1.00000003pt;stroke-opacity:1"
         transform="matrix(0.2,0,0,0.2,1.48,0.2)" />
    </marker>
    <marker
       inkscape:stockid="Arrow2Mend"
       orient="auto"
       refY="0"
       refX="0"
       id="marker6569-7-9"
       style="overflow:visible"
       inkscape:isstock="true">
      <path
         inkscape:connector-curvature="0"
         id="path6567-5-3"
         style="fill:#b3b3b3;fill-opacity:1;fill-rule:evenodd;stroke:#000003;stroke-width:0.625;stroke-linejoin:round;stroke-opacity:1"
         d="M 8.7185878,4.0337352 -2.2072895,0.01601326 8.7185884,-4.0017078 c -1.7454984,2.3720609 -1.7354408,5.6174519 -6e-7,8.035443 z"
         transform="scale(-0.6)" />
    </marker>
    <marker
       inkscape:stockid="DotM"
       orient="auto"
       refY="0"
       refX="0"
       id="DotM-6"
       style="overflow:visible"
       inkscape:isstock="true">
      <path
         inkscape:connector-curvature="0"
         id="path5812-1"
         d="m -2.5,-1 c 0,2.76 -2.24,5 -5,5 -2.76,0 -5,-2.24 -5,-5 0,-2.76 2.24,-5 5,-5 2.76,0 5,2.24 5,5 z"
         style="fill:#b3b3b3;fill-opacity:1;fill-rule:evenodd;stroke:#000003;stroke-width:1.00000003pt;stroke-opacity:1"
         transform="matrix(0.4,0,0,0.4,2.96,0.4)" />
    </marker>
    <marker
       inkscape:stockid="Arrow2Mend"
       orient="auto"
       refY="0"
       refX="0"
       id="marker6569-8"
       style="overflow:visible"
       inkscape:isstock="true">
      <path
         inkscape:connector-curvature="0"
         id="path6567-7"
         style="fill:#b3b3b3;fill-opacity:1;fill-rule:evenodd;stroke:#000003;stroke-width:0.625;stroke-linejoin:round;stroke-opacity:1"
         d="M 8.7185878,4.0337352 -2.2072895,0.01601326 8.7185884,-4.0017078 c -1.7454984,2.3720609 -1.7354408,5.6174519 -6e-7,8.035443 z"
         transform="scale(-0.6)" />
    </marker>
  </defs>
  <sodipodi:namedview
     pagecolor="#ffffff"
     bordercolor="#666666"
     borderopacity="1"
     objecttolerance="10"
     gridtolerance="10"
     guidetolerance="10"
     inkscape:pageopacity="0"
     inkscape:pageshadow="2"
     inkscape:window-width="1920"
     inkscape:window-height="981"
     id="namedview184"
     showgrid="false"
     inkscape:zoom="0.5980945"
     inkscape:cx="597.96963"
     inkscape:cy="422.44894"
     inkscape:window-x="1920"
     inkscape:window-y="28"
     inkscape:window-maximized="1"
     inkscape:current-layer="strokes" />
  <g
     id="RenderLayer_LineSet"
     inkscape:label="RenderLayer_LineSet"
     transform="translate(0,-540)">
    <g
       id="strokes"
       inkscape:groupmode="layer"
       inkscape:label="strokes">
      <path
         d="m 392.197,123.184 -9.998,-0.228 -9.997,-0.227 -9.997,-0.228 -9.998,-0.227 -9.997,-0.228 -9.998,-0.228 -9.997,-0.227 -9.997,-0.228 -9.998,-0.227 -9.997,-0.228 -9.998,-0.227 -9.997,-0.228 -1.932,-0.044 -0.217,0.115 -1.735,0.919 -1.371,0.726 1.305,9.914 1.305,9.915 1.305,9.914 1.305,9.915 1.305,9.914 1.304,9.915 1.305,9.914 1.305,9.915 1.305,9.914 1.305,9.915 1.305,9.914 1.305,9.915 0.511,3.884 9.996,0.285 9.996,0.285 9.996,0.285 9.996,0.286 9.996,0.285 9.996,0.285 3.012,0.086 6.357,0.181 9.996,0.285 9.996,0.286 9.996,0.285 9.996,0.285 10.213,0.292 1.15,-0.897 1.455,-1.134 0.182,-0.142 -1.072,-9.942 -1.073,-9.942 -1.072,-9.943 -1.072,-9.942 -1.073,-9.942 -1.072,-9.943 -1.072,-9.942 -1.073,-9.942 -1.072,-9.943 -1.072,-9.942 -1.073,-9.942 -1.072,-9.943 -0.407,-3.773"
         id="path158"
         style="fill:#b3b3b3;fill-opacity:1;stroke:#000000;stroke-width:3;stroke-linecap:butt;stroke-linejoin:round;stroke-opacity:1"
         inkscape:connector-curvature="0" />
      <path
         d="m 402.685,248.438 -1.078,-9.942 -1.078,-9.942 -1.078,-9.942 -1.078,-9.941 -1.078,-9.942 -1.078,-9.942 -1.078,-9.942 -1.079,-9.941 -1.078,-9.942 -1.078,-9.942 -1.078,-9.941 -1.078,-9.942 -0.453,-4.173 -9.997,-0.229 -9.997,-0.228 -9.998,-0.228 -9.997,-0.229 -9.998,-0.228 -9.997,-0.229 -9.997,-0.228 -9.998,-0.229 -9.997,-0.228 -9.997,-0.228 -9.998,-0.229 -9.997,-0.228 -2.354,-0.054"
         id="path162"
         style="fill:#b3b3b3;fill-opacity:1;stroke:#000000;stroke-width:3;stroke-linecap:butt;stroke-linejoin:round;stroke-opacity:1"
         inkscape:connector-curvature="0" />
      <path
         d="m 1571.237,675.057 1.286,-9.917 1.286,-9.917 1.286,-9.917 1.287,-9.917 1.286,-9.917 1.286,-9.917 1.286,-9.917 1.287,-9.916 1.286,-9.917 1.286,-9.917 1.286,-9.917 1.287,-9.917 0.873,-6.736 1.287,-9.917 1.286,-9.917 1.286,-9.916 1.286,-9.917 1.287,-9.917 1.286,-9.917 1.286,-9.917 1.286,-9.917 1.287,-9.917 1.286,-9.917 1.286,-9.917 1.286,-9.917 1.287,-9.917 1.442,-11.117"
         id="path2"
         inkscape:connector-curvature="0"
         style="fill:none;stroke:#000000;stroke-width:3;stroke-linecap:butt;stroke-linejoin:round;stroke-opacity:1" />
      <path
         d="m 1693.936,316.111 -9.994,-0.337 -9.994,-0.337 -9.995,-0.337 -9.994,-0.337 -9.994,-0.337 -9.995,-0.337 -9.994,-0.337 -5.851,-0.197 -6.729,-0.227 -9.994,-0.337 -9.994,-0.337 -9.994,-0.337 -9.995,-0.338 -9.994,-0.337 -9.994,-0.337 -9.995,-0.337 -2.556,-0.086 -1.133,9.936 -1.133,9.935 -1.133,9.936 -1.133,9.936 -1.133,9.935 -1.133,9.936 -1.133,9.935 -1.133,9.936 -1.133,9.936 -0.481,4.223 0.7,1.8 9.992,0.385 9.993,0.384 9.993,0.385 9.992,0.384 9.993,0.385 9.992,0.384 10.254,0.395 6.598,0.253 9.992,0.385 9.993,0.384 9.992,0.385 9.993,0.384 9.993,0.385 9.992,0.384 9.993,0.385 5.701,0.219 1.434,-9.897 1.435,-9.896 1.435,-9.897 1.435,-9.896 1.435,-9.897 1.435,-9.896 1.434,-9.897 1.435,-9.896 1.435,-9.897 0.779,-5.374 -1.114,-1.638"
         id="path4"
         inkscape:connector-curvature="0"
         style="fill:none;stroke:#000000;stroke-width:3;stroke-linecap:butt;stroke-linejoin:round;stroke-opacity:1" />
      <path
         d="m 1538.88,310.882 0.738,1.612"
         id="path6"
         inkscape:connector-curvature="0"
         style="fill:none;stroke:#000000;stroke-width:3;stroke-linecap:butt;stroke-linejoin:round;stroke-opacity:1" />
      <path
         d="m 1528.902,406.326 1.134,-9.935 1.135,-9.936 1.135,-9.935 1.134,-9.935 1.135,-9.936 1.135,-9.935 1.135,-9.936 1.134,-9.935 1.135,-9.935 0.504,-4.414 9.994,0.338 9.995,0.338 9.994,0.338 9.994,0.338 9.994,0.338 9.995,0.338 9.994,0.337 1.615,0.055 6.726,0.227 9.994,0.338 9.994,0.338 9.995,0.338 9.994,0.338 9.994,0.338 9.995,0.337 9.994,0.338 7.171,0.243"
         id="path8"
         inkscape:connector-curvature="0"
         style="fill:none;stroke:#000000;stroke-width:3;stroke-linecap:butt;stroke-linejoin:round;stroke-opacity:1" />
      <path
         d="m 1705.666,155.915 -9.998,-0.229 -9.997,-0.229 -9.998,-0.228 -9.997,-0.229 -9.997,-0.229 -9.998,-0.229 -9.997,-0.229 -9.997,-0.228 -9.998,-0.229 -9.997,-0.229 -9.998,-0.229 -9.997,-0.229 -9.997,-0.228 -7.863,-0.18 -1.154,9.933 -1.153,9.933 -1.153,9.933 -1.154,9.934 -1.153,9.933 -1.154,9.933 -1.153,9.934 -1.153,9.933 -1.154,9.933 -1.153,9.933 -1.154,9.934 -1.153,9.933 -1.202,10.353 0.087,0.159 0.696,1.271 0.55,1.004 9.996,0.287 9.996,0.287 9.996,0.286 9.996,0.287 9.996,0.287 9.996,0.286 0.739,0.022 6.768,0.194 9.996,0.287 9.996,0.286 9.996,0.287 9.996,0.287 9.995,0.286 9.996,0.287 7.364,0.211 1.415,-9.899 1.415,-9.899 1.415,-9.9 1.416,-9.899 1.415,-9.899 1.415,-9.9 1.415,-9.899 1.415,-9.9 1.416,-9.899 1.415,-9.899 1.415,-9.9 1.415,-9.899 1.415,-9.899 0.284,-1.983 -0.811,-0.836 -1.025,-1.057 -0.128,-0.132"
         id="path10"
         inkscape:connector-curvature="0"
         style="fill:none;stroke:#000000;stroke-width:3;stroke-linecap:butt;stroke-linejoin:round;stroke-opacity:1" />
      <path
         d="m 1567.837,152.761 0.093,0.13 0.743,1.044 0.588,0.826"
         id="path12"
         inkscape:connector-curvature="0"
         style="fill:none;stroke:#000000;stroke-width:3;stroke-linecap:butt;stroke-linejoin:round;stroke-opacity:1" />
      <path
         d="m 1707.63,157.94 -9.997,-0.23 -9.998,-0.23 -9.997,-0.229 -9.997,-0.23 -9.998,-0.23 -9.997,-0.229 -9.998,-0.23 -9.997,-0.23 -9.997,-0.229 -9.998,-0.23 -9.997,-0.23 -9.997,-0.229 -9.998,-0.23 -8.403,-0.193 -1.156,9.933 -1.157,9.933 -1.156,9.933 -1.156,9.933 -1.157,9.933 -1.156,9.933 -1.157,9.932 -1.156,9.933 -1.157,9.933 -1.156,9.933 -1.157,9.933 -1.156,9.933 -1.257,10.791"
         id="path14"
         inkscape:connector-curvature="0"
         style="fill:none;stroke:#000000;stroke-width:3;stroke-linecap:butt;stroke-linejoin:round;stroke-opacity:1" />
      <path
         d="m 1591.77,169.969 -1.202,9.928 -1.202,9.927 -1.202,9.928 -1.202,9.927 -1.202,9.928 -1.202,9.927 -1.202,9.928 -1.202,9.927 -1.202,9.928 -1.202,9.927 -0.233,1.923 9.995,0.306 5.093,0.155 1.231,-9.924 1.231,-9.924 1.231,-9.923 1.231,-9.924 0.449,-3.62 9.996,0.285 5.867,0.168 5.905,-0.087 0.524,-0.057 4.897,-0.533 2.102,-0.453 2.839,-0.61 4.464,-1.504 3.992,-1.915 3.523,-2.295 3.056,-2.645 2.593,-2.963 2.132,-3.25 1.673,-3.507 1.218,-3.733 0.764,-3.927 0.311,-3.992 -0.164,-3.849 -0.65,-3.67 -1.149,-3.454 -1.661,-3.202 -2.186,-2.914 -2.721,-2.588 -3.27,-2.227 -3.828,-1.828 -4.398,-1.393 -4.979,-0.923 -5.568,-0.416 -9.996,-0.257 -9.997,-0.257 -9.997,-0.258 -3.5,-0.09"
         id="path16"
         inkscape:connector-curvature="0"
         style="fill:none;stroke:#000000;stroke-width:3;stroke-linecap:butt;stroke-linejoin:round;stroke-opacity:1" />
      <path
         d="m 1605.517,183.656 9.996,0.264 8.051,0.212 0.393,0.03 0.02,0.002 2.862,0.219 0.751,0.146 1.422,0.274 0.675,0.131 0.76,0.254 1.095,0.367 0.381,0.128 0.209,0.07 0.263,0.134 0.3,0.154 0.588,0.301 0.196,0.101 v 10e-4 l 0.714,0.366 0.486,0.361 0.702,0.521 0.01,0.008 0.251,0.186 0.257,0.191 0.042,0.043 0.959,1.012 v 0 l 0.37,0.39 0.109,0.163 0.07,0.106 0.432,0.651 0.317,0.476 0.13,0.197 0.01,0.01 0.291,0.649 0.473,1.053 0.504,1.8 0.26,1.858 0.041,1.887 -0.155,1.885 -0.474,2.453 -0.744,2.256 -1.002,2.055 -1.249,1.85 -1.481,1.64 -1.703,1.426 -1.913,1.206 -0.038,0.018 -2.071,0.966 -2.294,0.755 -2.467,0.522 -0.352,0.038 -2.277,0.247 -2.777,0.043 -9.996,-0.278 -7.314,-0.204 1.231,-9.924 1.231,-9.924 1.231,-9.924 0.226,-1.822"
         id="path18"
         inkscape:connector-curvature="0"
         style="fill:none;stroke:#000000;stroke-width:3;stroke-linecap:butt;stroke-linejoin:round;stroke-opacity:1" />
      <path
         d="m 1677.666,253.754 -9.996,-0.296 -9.996,-0.296 -9.995,-0.295 -7.415,-0.22 -6.354,-0.188 1.854,-1.555 0.427,-0.359 0.083,-0.069 0.427,-0.358 7.662,-6.426 1.793,-1.504 -9.996,-0.291 -0.237,-0.007 -7.655,6.435 -0.914,0.769 -0.055,0.045 -10e-4,10e-4 -0.417,0.351 -0.375,0.315 -0.127,0.107 -0.115,0.097 -0.184,0.154 -0.083,0.07 -0.058,0.049 -0.34,0.286 v 0.001 l -0.026,0.022 -0.372,0.313 -1.49,1.252 -1.972,1.661 -0.709,0.598 -0.741,0.624 -0.201,0.17 -0.711,0.598 -0.523,0.441 3.767,4.343 2.072,2.339 6.63,7.486 0.898,1.013 9.995,0.305 0.4,0.012 -6.624,-7.491 -2.965,-3.352 9.996,0.3 9.995,0.3 9.996,0.299 9.995,0.3 3.477,0.105 1.182,-8.454"
         id="path20"
         inkscape:connector-curvature="0"
         style="fill:none;stroke:#000000;stroke-width:3;stroke-linecap:butt;stroke-linejoin:round;stroke-opacity:1" />
      <path
         d="m 304.19,943.376 9.978,0.665 9.978,0.666 9.978,0.665 9.978,0.665 9.977,0.666 9.978,0.665 9.978,0.665 9.978,0.666 9.978,0.665 9.978,0.665 9.977,0.666 9.978,0.665 6.386,0.426 5.511,0.367 9.978,0.666 9.977,0.665 9.978,0.665 9.978,0.666 9.978,0.665 9.978,0.665 9.978,0.666 9.977,0.665 9.978,0.665 9.978,0.666 9.978,0.665 9.978,0.665 9.978,0.666 9.977,0.665 9.978,0.665 9.978,0.666 9.978,0.665 9.978,0.665 9.978,0.666 9.978,0.665 9.977,0.665 9.978,0.666 9.978,0.665 9.978,0.665 9.978,0.666 9.978,0.665 9.977,0.666 9.978,0.665 9.978,0.665 9.978,0.666 9.978,0.665 9.978,0.665 9.977,0.666 9.978,0.665 9.978,0.665 9.978,0.666 9.978,0.665 9.978,0.665 9.978,0.666 9.977,0.665 9.978,0.665 9.978,0.666 9.978,0.665 9.978,0.665 9.978,0.666 9.977,0.665 9.978,0.665 9.978,0.666 9.978,0.665 9.978,0.665 9.978,0.666 9.978,0.665 9.977,0.665 9.978,0.666 9.978,0.665 9.978,0.665 9.978,0.666 9.978,0.665 9.977,0.665 9.978,0.666 9.978,0.665 9.978,0.665 9.978,0.666 9.978,0.665 9.977,0.665 9.978,0.666 9.978,0.665 9.978,0.665 9.978,0.666 9.978,0.665 9.977,0.665 9.978,0.666 9.978,0.665 9.978,0.665 9.978,0.666 9.978,0.665 9.978,0.665 9.977,0.666 9.978,0.665 9.978,0.665 9.978,0.666 9.978,0.665 9.978,0.665 9.977,0.666 9.978,0.665 9.978,0.665 9.978,0.666 9.978,0.665 9.978,0.665 9.977,0.666 9.978,0.665 9.978,0.665 9.978,0.666 9.978,0.665 9.978,0.665 9.978,0.666 9.977,0.665 9.978,0.665 9.978,0.666 9.978,0.665 9.978,0.666 9.978,0.665 9.977,0.665 18.359,1.224 -1.867,-9.824 -1.868,-9.824 -1.867,-9.824 -1.867,-9.824 -1.867,-9.824 -1.868,-9.824 -1.867,-9.825 -1.867,-9.824 -1.867,-9.824 -1.867,-9.824 -1.868,-9.824 -1.867,-9.824 -1.867,-9.824 -1.867,-9.824 -1.867,-9.825 -1.868,-9.824 -1.867,-9.824 -1.867,-9.824 -1.867,-9.824 -1.867,-9.824 -1.868,-9.824 -1.867,-9.825 -2.009,-10.569 -9.984,-0.559 -9.984,-0.558 -9.985,-0.559 -9.984,-0.558 -9.985,-0.559 -9.984,-0.558 -9.984,-0.559 -9.985,-0.558 -9.984,-0.559 -9.985,-0.558 -9.984,-0.559 -9.984,-0.558 -9.985,-0.558 -9.984,-0.559 -9.985,-0.558 -9.984,-0.559 -9.984,-0.558 -9.985,-0.559 -9.984,-0.558 -9.985,-0.559 -9.984,-0.558 -9.984,-0.559 -9.985,-0.558 -9.984,-0.559 -9.985,-0.558 -9.984,-0.559 -9.984,-0.558 -9.985,-0.559 -9.984,-0.558 -9.985,-0.559 -9.984,-0.558 -9.984,-0.558 -9.985,-0.559 -9.984,-0.558 -9.984,-0.559 -9.985,-0.558 -9.984,-0.559 -9.985,-0.558 -9.984,-0.559 -9.984,-0.558 -9.985,-0.559 -9.984,-0.558 -9.985,-0.559 -9.984,-0.558 -9.984,-0.559 -9.985,-0.558 -9.984,-0.559 -9.985,-0.558 -9.984,-0.558 -9.984,-0.559 -9.985,-0.558 -9.984,-0.559 -9.985,-0.558 -9.984,-0.559 -9.984,-0.558 -9.985,-0.559 -9.984,-0.558 -9.984,-0.559 -9.985,-0.558 -9.984,-0.559 -9.985,-0.558 -9.984,-0.559 -9.984,-0.558 -9.985,-0.559 -9.984,-0.558 -9.985,-0.558 -9.984,-0.559 -9.984,-0.558 -9.985,-0.559 -9.984,-0.558 -9.985,-0.559 -9.984,-0.558 -9.984,-0.559 -9.985,-0.558 -9.984,-0.559 -9.985,-0.558 -9.984,-0.559 -9.984,-0.558 -9.985,-0.559 -9.984,-0.558 -9.985,-0.559 -9.984,-0.558 -9.984,-0.559 -9.985,-0.558 -9.984,-0.558 -9.985,-0.559 -9.984,-0.558 -9.984,-0.559 -9.985,-0.558 -9.984,-0.559 -9.985,-0.558 -9.984,-0.559 -9.984,-0.558 -9.985,-0.559 -9.984,-0.558 -9.984,-0.559 -9.985,-0.558 -9.984,-0.559 -14.477,-0.809 -5.709,8.209 -5.71,8.21 -5.709,8.21 -5.71,8.21 -5.71,8.21 -1.499,2.155 -4.843,6.965 -5.71,8.21 -5.709,8.209 -5.71,8.21 -5.71,8.21 -5.709,8.21 -5.71,8.209 -5.709,8.21 -5.71,8.21 -5.71,8.21 -5.709,8.21 -5.71,8.209 -5.709,8.21 -5.71,8.21 -5.71,8.21 -5.709,8.209 -5.71,8.21 -5.709,8.21 -5.71,8.21 -4.009,5.764"
         id="path22"
         style="fill:url(#Strips1_1white);fill-opacity:1;stroke:#000000;stroke-width:3;stroke-linecap:butt;stroke-linejoin:round;stroke-miterlimit:4;stroke-dasharray:9, 3;stroke-dashoffset:0;stroke-opacity:1;filter:url(#filter2485)"
         inkscape:connector-curvature="0" />
      <path
         d="m 1247.025,332.262 -0.568,9.984 -0.567,9.984 -0.568,9.984 -0.29,5.103 6.092,0.218 0.579,-9.983 0.579,-9.984 0.578,-9.983 0.297,-5.111 9.994,0.338 4.795,0.162 0.32,-5.239 -9.995,-0.338 -9.994,-0.337 -9.994,-0.338 -5.738,-0.193 -0.282,5.231"
         id="path24"
         inkscape:connector-curvature="0"
         style="fill:none;stroke:#000000;stroke-width:3;stroke-linecap:butt;stroke-linejoin:round;stroke-opacity:1" />
      <path
         d="m 1196.761,325.32 -6.108,-0.206 -0.455,9.99 -0.455,9.989 -0.456,9.99 -0.465,10.226 6.058,0.217 0.467,-9.989 0.348,-7.441 9.994,0.348 9.994,0.349 3.746,0.13 -0.514,9.987 -0.384,7.46 6.076,0.218 0.526,-9.987 0.527,-9.986 0.526,-9.986 0.543,-10.297 -6.126,-0.207 -0.514,9.987 -0.392,7.618 -9.994,-0.346 -9.994,-0.346 -3.771,-0.13 0.467,-9.989 0.356,-7.599"
         id="path26"
         inkscape:connector-curvature="0"
         style="fill:none;stroke:#000000;stroke-width:3;stroke-linecap:butt;stroke-linejoin:round;stroke-opacity:1" />
      <path
         d="m 1167.059,323.799 -1.214,-0.058 -3.171,0.079 -3.031,0.441 -2.866,0.781 -2.678,1.1 -2.464,1.399 -2.227,1.675 -1.966,1.93 -1.68,2.164 -1.372,2.377 -1.039,2.568 -0.684,2.738 -0.304,2.888 0.09,2.877 0.471,2.736 0.83,2.575 1.168,2.398 1.486,2.2 1.782,1.984 2.059,1.748 2.315,1.494 2.551,1.222 2.767,0.929 2.963,0.617 3.139,0.287 1.44,0.032 1.395,-0.01 1.36,-0.054 1.333,-0.099 1.313,-0.145 1.302,-0.193 1.299,-0.242 1.305,-0.292 1.318,-0.343 1.34,-0.397 1.371,-0.451 1.409,-0.507 0.438,-9.99 0.306,-6.977 -9.994,-0.347 -4.194,-0.146 -0.212,5.176 8.105,0.283 -0.35,8.215 -0.737,0.19 -0.739,0.181 -0.743,0.169 -0.748,0.156 -0.753,0.142 -0.759,0.125 -0.766,0.106 -0.774,0.086 -0.782,0.064 -0.791,0.039 -0.802,0.013 -0.812,-0.014 -2.43,-0.215 -2.282,-0.458 -2.121,-0.689 -1.947,-0.905 -1.759,-1.111 -1.558,-1.301 -1.342,-1.481 -1.115,-1.647 -0.872,-1.799 -0.617,-1.94 -0.346,-2.068 -0.063,-2.182 0.224,-2.128 0.501,-2.017 0.757,-1.892 0.997,-1.752 1.218,-1.594 1.421,-1.423 1.607,-1.235 1.773,-1.031 1.922,-0.812 2.053,-0.577 2.163,-0.327 2.258,-0.06 1.273,0.072 1.272,0.128 1.271,0.184 1.269,0.239 1.266,0.295 1.262,0.349 1.257,0.404 1.251,0.457 1.245,0.511 1.237,0.563 1.229,0.616 1.219,0.668 0.256,-5.866 -1.573,-0.683 -1.461,-0.603 -1.364,-0.529 -1.284,-0.459 -1.219,-0.393 -1.17,-0.332 -1.137,-0.275 -1.121,-0.223 -1.121,-0.174 -1.135,-0.132 -1.167,-0.092"
         id="path28"
         inkscape:connector-curvature="0"
         style="fill:none;stroke:#000000;stroke-width:3;stroke-linecap:butt;stroke-linejoin:round;stroke-opacity:1" />
      <path
         d="m 1135.288,323.245 -6.071,-0.205 -0.334,9.994 -0.334,9.994 -0.334,9.995 -0.338,10.109 6.023,0.215 0.346,-9.994 0.346,-9.994 0.346,-9.994 0.35,-10.12"
         id="path30"
         inkscape:connector-curvature="0"
         style="fill:none;stroke:#000000;stroke-width:3;stroke-linecap:butt;stroke-linejoin:round;stroke-opacity:1" />
      <path
         d="m 1091.938,321.781 -0.26,9.997 -0.26,9.996 -0.261,9.997 -0.261,10.04 6.001,0.215 0.272,-9.997 0.199,-7.304 2.521,0.088 0.758,0.05 0.746,0.11 0.746,0.194 0.756,0.299 0.78,0.427 0.814,0.578 0.86,0.75 0.918,0.945 0.987,1.162 1.069,1.402 1.161,1.663 1.265,1.946 5.277,8.37 7.183,0.256 -0.656,-0.923 -0.591,-0.832 -0.534,-0.756 -0.487,-0.691 -0.447,-0.642 -0.417,-0.605 -0.394,-0.583 -0.381,-0.574 -0.375,-0.578 -0.379,-0.597 -0.391,-0.63 -0.411,-0.675 -0.745,-1.244 -0.718,-1.189 -0.701,-1.136 -0.692,-1.082 -0.69,-1.029 -0.696,-0.975 -0.712,-0.923 -0.734,-0.869 -0.764,-0.817 -0.804,-0.765 -0.851,-0.713 -0.906,-0.66 1.096,-0.425 1.014,-0.499 0.93,-0.571 0.846,-0.642 0.757,-0.711 0.668,-0.777 0.576,-0.842 0.483,-0.905 0.387,-0.967 0.289,-1.025 0.189,-1.082 0.088,-1.137 -0.058,-1.688 -0.275,-1.579 -0.485,-1.465 -0.69,-1.345 -0.886,-1.218 -1.075,-1.085 -1.258,-0.946 -1.433,-0.8 -1.601,-0.65 -1.762,-0.492 -1.914,-0.328 -2.061,-0.159 -9.994,-0.337 -0.626,-0.021"
         id="path32"
         inkscape:connector-curvature="0"
         style="fill:none;stroke:#000000;stroke-width:3;stroke-linecap:butt;stroke-linejoin:round;stroke-opacity:1" />
      <path
         d="m 1097.852,326.951 3.887,0.132 1.392,0.095 1.247,0.184 1.106,0.268 0.97,0.352 0.839,0.432 0.71,0.508 0.588,0.584 0.468,0.655 0.354,0.724 0.243,0.791 0.139,0.854 0.036,0.914 -0.05,0.833 -0.14,0.813 -0.237,0.78 -0.343,0.738 -0.459,0.685 -0.584,0.621 -0.718,0.546 -0.861,0.46 -1.012,0.364 -1.174,0.258 -1.344,0.14 -1.523,0.011 -3.877,-0.134 0.272,-9.996 0.071,-2.612"
         id="path34"
         inkscape:connector-curvature="0"
         style="fill:none;stroke:#000000;stroke-width:3;stroke-linecap:butt;stroke-linejoin:round;stroke-opacity:1" />
      <path
         d="m 1086.44,366.019 -9.993,-0.359 -9.994,-0.36 -9.993,-0.359 -1.275,-0.045 -0.055,2.9 9.994,0.361 9.993,0.36 9.993,0.361 1.257,0.045 0.073,-2.904"
         id="path36"
         inkscape:connector-curvature="0"
         style="fill:none;stroke:#000000;stroke-width:3;stroke-linecap:butt;stroke-linejoin:round;stroke-opacity:1" />
      <path
         d="m 1030.292,319.699 -0.139,9.999 -0.138,9.999 -0.139,9.999 -0.138,9.93 9.994,0.357 9.993,0.357 4.139,0.148 0.096,-5.121 -9.994,-0.355 -8.185,-0.29 0.15,-9.999 0.036,-2.373 9.994,0.348 7.067,0.247 0.095,-5.158 -9.994,-0.346 -7.085,-0.245 0.151,-9.999 0.032,-2.106 9.994,0.34 7.74,0.264 0.096,-5.193 -9.994,-0.338 -9.994,-0.337 -3.777,-0.128"
         id="path38"
         inkscape:connector-curvature="0"
         style="fill:none;stroke:#000000;stroke-width:3;stroke-linecap:butt;stroke-linejoin:round;stroke-opacity:1" />
      <path
         d="m 998.751,318.634 -0.076,10 -0.076,10 -0.077,10 -0.075,9.875 5.947,0.212 0.088,-10 0.063,-7.175 6.215,0.217 2.3,-0.02 2.087,-0.22 1.878,-0.407 1.67,-0.582 1.466,-0.745 1.264,-0.895 1.066,-1.032 0.869,-1.159 0.676,-1.272 0.486,-1.373 0.297,-1.461 0.112,-1.537 -0.067,-1.562 -0.244,-1.506 -0.424,-1.437 -0.607,-1.353 -0.794,-1.255 -0.983,-1.143 -1.174,-1.017 -1.37,-0.878 -1.567,-0.724 -1.768,-0.556 -1.971,-0.375 -2.177,-0.18 -9.995,-0.337 -3.039,-0.103"
         id="path40"
         inkscape:connector-curvature="0"
         style="fill:none;stroke:#000000;stroke-width:3;stroke-linecap:butt;stroke-linejoin:round;stroke-opacity:1" />
      <path
         d="m 1004.7,324.019 7.032,0.239 1.282,0.108 1.131,0.223 0.986,0.327 0.85,0.42 0.72,0.499 0.599,0.569 0.484,0.626 0.378,0.672 0.278,0.706 0.188,0.728 0.103,0.739 0.027,0.738 -0.07,0.961 -0.185,0.882 -0.294,0.804 -0.4,0.723 -0.501,0.64 -0.596,0.556 -0.689,0.469 -0.776,0.381 -0.858,0.291 -0.937,0.2 -1.011,0.105 -1.08,0.01 -6.77,-0.235 0.088,-9.999 0.021,-2.382"
         id="path42"
         inkscape:connector-curvature="0"
         style="fill:none;stroke:#000000;stroke-width:3;stroke-linecap:butt;stroke-linejoin:round;stroke-opacity:1" />
      <path
         d="m 972.644,317.415 -3.323,-0.304 -3.27,0.082 -3.061,0.458 -2.837,0.804 -2.599,1.125 -2.346,1.418 -2.078,1.684 -1.797,1.924 -1.499,2.135 -1.19,2.319 -0.864,2.478 -0.526,2.609 -0.174,2.713 0.183,2.674 0.525,2.605 0.856,2.507 1.172,2.38 1.478,2.223 1.769,2.038 2.048,1.823 2.316,1.58 2.572,1.306 2.814,1.004 3.046,0.672 3.266,0.311 3.375,-0.075 3.134,-0.455 2.883,-0.805 2.624,-1.127 2.353,-1.42 2.075,-1.683 1.785,-1.919 1.487,-2.124 1.177,-2.3 0.859,-2.448 0.53,-2.566 0.189,-2.654 -0.16,-2.743 -0.51,-2.658 -0.847,-2.547 -1.172,-2.406 -1.484,-2.24 -1.785,-2.046 -2.073,-1.824 -2.349,-1.574 -2.612,-1.298 -2.861,-0.994 -3.099,-0.662"
         id="path44"
         inkscape:connector-curvature="0"
         style="fill:none;stroke:#000000;stroke-width:3;stroke-linecap:butt;stroke-linejoin:round;stroke-opacity:1" />
      <path
         d="m 967.049,322.459 2.262,-0.055 2.277,0.209 2.159,0.461 2.027,0.697 1.877,0.918 1.713,1.124 1.533,1.316 1.337,1.492 1.127,1.653 0.9,1.799 0.658,1.929 0.402,2.045 0.13,2.146 -0.151,2.123 -0.422,2.003 -0.675,1.871 -0.915,1.725 -1.137,1.565 -1.344,1.39 -1.536,1.201 -1.712,1 -1.873,0.783 -2.018,0.554 -2.149,0.309 -2.263,0.051 -2.249,-0.211 -2.134,-0.461 -2.005,-0.696 -1.859,-0.915 -1.699,-1.119 -1.524,-1.309 -1.333,-1.482 -1.126,-1.642 -0.903,-1.786 -0.666,-1.915 -0.413,-2.03 -0.143,-2.129 0.138,-2.133 0.407,-2.015 0.663,-1.881 0.903,-1.734 1.127,-1.573 1.336,-1.399 1.53,-1.21 1.708,-1.006 1.87,-0.79 2.017,-0.559 2.148,-0.314"
         id="path46"
         inkscape:connector-curvature="0"
         style="fill:none;stroke:#000000;stroke-width:3;stroke-linecap:butt;stroke-linejoin:round;stroke-opacity:1" />
      <path
         d="m 927.972,315.737 -1.065,-0.057 -3.213,0.074 -3.037,0.433 -2.84,0.771 -2.623,1.091 -2.385,1.392 -2.127,1.672 -1.849,1.934 -1.551,2.176 -1.234,2.398 -0.895,2.602 -0.538,2.787 -0.162,2.951 0.165,2.142 0.455,2.231 0.748,2.269 1.049,2.256 1.356,2.194 1.667,2.082 1.986,1.918 2.311,1.707 2.642,1.445 2.979,1.133 3.325,0.772 3.676,0.36 1.57,0.027 1.49,-0.034 1.416,-0.09 1.348,-0.144 1.287,-0.195 1.23,-0.242 1.181,-0.286 1.136,-0.326 1.097,-0.365 1.065,-0.398 1.039,-0.43 1.018,-0.458 -0.023,-6.207 -1.169,0.656 -1.183,0.6 -1.195,0.541 -1.204,0.483 -1.21,0.424 -1.212,0.364 -1.212,0.303 -1.21,0.243 -1.203,0.18 -1.195,0.118 -1.183,0.055 -1.169,-0.009 -2.406,-0.211 -2.264,-0.45 -2.109,-0.677 -1.944,-0.892 -1.764,-1.093 -1.573,-1.284 -1.37,-1.462 -1.153,-1.628 -0.924,-1.782 -0.682,-1.925 -0.428,-2.054 -0.16,-2.173 0.122,-2.131 0.4,-2.013 0.662,-1.882 0.908,-1.736 1.138,-1.577 1.354,-1.402 1.553,-1.213 1.737,-1.011 1.904,-0.792 2.056,-0.561 2.192,-0.315 2.311,-0.055 1.19,0.068 1.177,0.121 1.168,0.178 1.162,0.234 1.161,0.291 1.164,0.351 1.17,0.411 1.181,0.471 1.195,0.535 1.214,0.597 1.236,0.663 1.263,0.728 -0.023,-6.159 -1.388,-0.593 -1.336,-0.538 -1.29,-0.485 -1.246,-0.433 -1.209,-0.381 -1.175,-0.332 -1.146,-0.283 -1.12,-0.236 -1.101,-0.189 -1.083,-0.143 -1.073,-0.1"
         id="path48"
         inkscape:connector-curvature="0"
         style="fill:none;stroke:#000000;stroke-width:3;stroke-linecap:butt;stroke-linejoin:round;stroke-opacity:1" />
      <path
         d="m 889.328,314.432 -0.787,-0.047 -1.833,0.024 -1.715,0.195 -1.586,0.36 -1.451,0.519 -1.307,0.671 -1.155,0.819 -0.995,0.958 -0.827,1.093 -0.651,1.22 -0.467,1.343 -0.276,1.458 -0.075,1.567 0.391,2.543 1.003,2.206 1.49,1.926 1.857,1.703 2.099,1.534 2.22,1.424 2.219,1.367 2.095,1.366 1.848,1.421 1.479,1.531 0.988,1.696 0.374,1.915 -0.037,0.559 -0.125,0.569 -0.216,0.566 -0.307,0.552 -0.4,0.525 -0.495,0.488 -0.59,0.439 -0.687,0.378 -0.786,0.305 -0.885,0.221 -0.987,0.125 -1.089,0.017 -1.002,-0.077 -0.99,-0.161 -0.978,-0.241 -0.964,-0.322 -0.947,-0.401 -0.929,-0.478 -0.909,-0.555 -0.888,-0.63 -0.863,-0.704 -0.839,-0.777 -0.81,-0.849 -0.782,-0.919 0.119,7.176 0.868,0.624 0.878,0.569 0.888,0.516 0.902,0.463 0.918,0.41 0.936,0.359 0.956,0.308 0.979,0.257 1.004,0.208 1.031,0.159 1.062,0.111 1.093,0.063 1.611,-0.035 1.525,-0.215 1.43,-0.387 1.322,-0.549 1.206,-0.702 1.077,-0.845 0.938,-0.98 0.789,-1.104 0.628,-1.22 0.457,-1.327 0.275,-1.423 0.082,-1.511 -0.384,-2.907 -0.997,-2.473 -1.486,-2.104 -1.854,-1.801 -2.098,-1.563 -2.221,-1.393 -2.219,-1.288 -2.096,-1.252 -1.851,-1.281 -1.482,-1.378 -0.991,-1.543 -0.377,-1.775 0.045,-0.68 0.153,-0.637 0.256,-0.589 0.353,-0.539 0.444,-0.485 0.53,-0.427 0.611,-0.366 0.685,-0.302 0.754,-0.233 0.817,-0.162 0.876,-0.087 0.927,-0.008 0.708,0.045 0.732,0.089 0.754,0.138 0.775,0.191 0.794,0.25 0.813,0.313 0.827,0.381 0.843,0.453 0.855,0.529 0.866,0.611 0.875,0.697 0.883,0.787 -0.08,-6.499 -0.736,-0.474 -0.746,-0.435 -0.753,-0.397 -0.761,-0.358 -0.767,-0.319 -0.772,-0.28 -0.777,-0.242 -0.78,-0.202 -0.784,-0.163 -0.785,-0.124 -0.786,-0.085"
         id="path50"
         inkscape:connector-curvature="0"
         style="fill:none;stroke:#000000;stroke-width:3;stroke-linecap:butt;stroke-linejoin:round;stroke-opacity:1" />
      <path
         d="m 874.727,358.411 -9.994,-0.359 -9.993,-0.359 -9.994,-0.36 -0.632,-0.022 0.066,2.875 9.994,0.36 9.993,0.361 9.994,0.36 0.615,0.022 -0.049,-2.878"
         id="path52"
         inkscape:connector-curvature="0"
         style="fill:none;stroke:#000000;stroke-width:3;stroke-linecap:butt;stroke-linejoin:round;stroke-opacity:1" />
      <path
         d="m 805.655,312.114 -4.678,-0.158 0.313,9.996 0.313,9.995 0.313,9.995 0.299,9.557 5.476,0.196 -0.302,-9.996 -0.302,-9.995 -0.303,-9.996 -0.012,-0.405 6.674,7.447 6.673,7.447 6.674,7.448 6.674,7.447 1.41,1.574 5.016,0.179 -0.239,-9.997 -0.238,-9.997 -0.239,-9.998 -0.229,-9.614 -5.537,-0.187 0.25,9.997 0.249,9.996 0.25,9.997 0.017,0.719 -6.694,-7.428 -6.695,-7.428 -6.695,-7.428 -6.695,-7.429 -1.743,-1.934"
         id="path54"
         inkscape:connector-curvature="0"
         style="fill:none;stroke:#000000;stroke-width:3;stroke-linecap:butt;stroke-linejoin:round;stroke-opacity:1" />
      <path
         d="m 775.12,310.749 -3.265,-0.3 -3.2,0.083 -2.98,0.454 -2.748,0.799 -2.502,1.116 -2.243,1.407 -1.971,1.671 -1.685,1.908 -1.387,2.118 -1.075,2.301 -0.752,2.457 -0.415,2.587 -0.065,2.691 0.282,2.651 0.615,2.584 0.934,2.486 1.24,2.359 1.533,2.205 1.811,2.02 2.077,1.808 2.33,1.565 2.568,1.294 2.796,0.995 3.009,0.665 3.211,0.307 3.303,-0.075 3.052,-0.452 2.793,-0.8 2.526,-1.119 2.251,-1.409 1.966,-1.67 1.675,-1.903 1.374,-2.107 1.065,-2.282 0.746,-2.428 0.42,-2.545 0.083,-2.632 -0.263,-2.72 -0.602,-2.636 -0.927,-2.525 -1.241,-2.386 -1.54,-2.22 -1.827,-2.028 -2.101,-1.808 -2.361,-1.56 -2.608,-1.286 -2.841,-0.985 -3.061,-0.655"
         id="path56"
         inkscape:connector-curvature="0"
         style="fill:none;stroke:#000000;stroke-width:3;stroke-linecap:butt;stroke-linejoin:round;stroke-opacity:1" />
      <path
         d="m 769.835,315.752 2.214,-0.055 2.238,0.207 2.132,0.456 2.012,0.69 1.874,0.91 1.721,1.114 1.552,1.304 1.367,1.479 1.167,1.639 0.951,1.783 0.72,1.914 0.472,2.028 0.21,2.128 -0.066,2.104 -0.336,1.987 -0.589,1.856 -0.829,1.711 -1.053,1.552 -1.263,1.379 -1.458,1.192 -1.639,0.992 -1.804,0.778 -1.956,0.549 -2.092,0.308 -2.215,0.052 -2.211,-0.209 -2.108,-0.457 -1.99,-0.689 -1.856,-0.906 -1.708,-1.11 -1.543,-1.297 -1.362,-1.47 -1.166,-1.627 -0.954,-1.771 -0.726,-1.899 -0.482,-2.013 -0.223,-2.111 0.053,-2.116 0.322,-1.998 0.576,-1.865 0.818,-1.72 1.043,-1.561 1.255,-1.387 1.452,-1.2 1.634,-0.999 1.801,-0.784 1.954,-0.555 2.091,-0.313"
         id="path58"
         inkscape:connector-curvature="0"
         style="fill:none;stroke:#000000;stroke-width:3;stroke-linecap:butt;stroke-linejoin:round;stroke-opacity:1" />
      <path
         d="m 742.796,309.992 -5.842,-0.197 0.439,9.99 0.439,9.99 0.439,9.991 0.415,9.464 5.797,0.207 -0.427,-9.991 -0.428,-9.991 -0.427,-9.991 -0.405,-9.472"
         id="path60"
         inkscape:connector-curvature="0"
         style="fill:none;stroke:#000000;stroke-width:3;stroke-linecap:butt;stroke-linejoin:round;stroke-opacity:1" />
      <path
         d="m 731.414,309.608 -9.994,-0.338 -9.995,-0.337 -9.994,-0.338 -3.907,-0.132 0.265,5.115 9.994,0.34 4.012,0.136 0.488,9.988 0.488,9.988 0.488,9.988 0.21,4.311 5.782,0.206 -0.477,-9.988 -0.477,-9.989 -0.478,-9.988 -0.206,-4.315 9.994,0.338 4.038,0.136 -0.231,-5.121"
         id="path62"
         inkscape:connector-curvature="0"
         style="fill:none;stroke:#000000;stroke-width:3;stroke-linecap:butt;stroke-linejoin:round;stroke-opacity:1" />
      <path
         d="m 680.567,307.389 -1.04,-0.056 -3.126,0.075 -2.938,0.43 -2.73,0.764 -2.503,1.081 -2.256,1.378 -1.992,1.656 -1.708,1.914 -1.406,2.154 -1.085,2.374 -0.747,2.575 -0.39,2.758 -0.016,2.92 0.265,2.12 0.55,2.208 0.839,2.244 1.131,2.233 1.426,2.17 1.725,2.059 2.028,1.898 2.333,1.688 2.644,1.429 2.957,1.12 3.276,0.762 3.599,0.354 1.531,0.026 1.45,-0.034 1.375,-0.09 1.307,-0.144 1.244,-0.193 1.187,-0.24 1.136,-0.283 1.091,-0.324 1.052,-0.361 1.018,-0.395 0.991,-0.426 0.97,-0.454 -0.322,-6.142 -1.107,0.65 -1.124,0.594 -1.138,0.536 -1.15,0.479 -1.158,0.42 -1.163,0.361 -1.166,0.3 -1.167,0.241 -1.164,0.179 -1.158,0.117 -1.151,0.055 -1.139,-0.008 -2.354,-0.208 -2.227,-0.444 -2.088,-0.669 -1.936,-0.881 -1.772,-1.082 -1.595,-1.269 -1.404,-1.447 -1.202,-1.61 -0.987,-1.763 -0.757,-1.904 -0.516,-2.033 -0.261,-2.151 0.017,-2.108 0.292,-1.992 0.554,-1.863 0.801,-1.719 1.033,-1.56 1.251,-1.388 1.454,-1.201 1.644,-1.001 1.816,-0.785 1.976,-0.556 2.12,-0.313 2.249,-0.055 1.163,0.066 1.152,0.12 1.147,0.175 1.143,0.231 1.145,0.288 1.151,0.346 1.16,0.406 1.173,0.467 1.19,0.528 1.211,0.59 1.237,0.655 1.265,0.72 -0.32,-6.094 -1.38,-0.586 -1.328,-0.531 -1.28,-0.48 -1.236,-0.427 -1.195,-0.377 -1.161,-0.328 -1.13,-0.28 -1.103,-0.232 -1.081,-0.187 -1.062,-0.142 -1.05,-0.098"
         id="path64"
         inkscape:connector-curvature="0"
         style="fill:none;stroke:#000000;stroke-width:3;stroke-linecap:butt;stroke-linejoin:round;stroke-opacity:1" />
      <path
         d="m 629.497,306.166 0.649,9.979 0.649,9.979 0.649,9.979 0.606,9.317 9.994,0.357 9.994,0.357 3.207,0.115 -0.304,-5.036 -9.994,-0.354 -7.483,-0.266 -0.638,-9.98 -0.139,-2.184 9.993,0.348 6.407,0.224 -0.307,-5.071 -9.994,-0.345 -6.423,-0.223 -0.638,-9.979 -0.123,-1.921 9.994,0.34 7.051,0.24 -0.309,-5.104 -9.994,-0.338 -9.994,-0.337 -2.853,-0.097"
         id="path66"
         inkscape:connector-curvature="0"
         style="fill:none;stroke:#000000;stroke-width:3;stroke-linecap:butt;stroke-linejoin:round;stroke-opacity:1" />
      <path
         d="m 594.07,304.97 0.718,9.974 0.718,9.975 0.718,9.974 0.668,9.271 5.715,0.205 -0.707,-9.975 -0.494,-6.966 2.4,0.084 0.724,0.048 0.719,0.107 0.726,0.189 0.746,0.292 0.78,0.417 0.828,0.565 0.887,0.734 0.961,0.924 1.048,1.137 1.147,1.372 1.261,1.627 1.386,1.905 5.804,8.19 6.84,0.245 -0.71,-0.904 -0.64,-0.815 -0.579,-0.738 -0.528,-0.677 -0.486,-0.628 -0.453,-0.592 -0.429,-0.571 -0.416,-0.561 -0.412,-0.566 -0.416,-0.585 -0.43,-0.615 -0.455,-0.661 -0.825,-1.218 -0.796,-1.164 -0.773,-1.111 -0.759,-1.059 -0.753,-1.006 -0.754,-0.955 -0.763,-0.902 -0.779,-0.851 -0.803,-0.799 -0.836,-0.748 -0.875,-0.697 -0.923,-0.646 0.999,-0.417 0.915,-0.489 0.829,-0.561 0.74,-0.629 0.651,-0.696 0.56,-0.762 0.466,-0.825 0.372,-0.887 0.275,-0.946 0.177,-1.004 0.076,-1.06 -0.025,-1.113 -0.215,-1.652 -0.412,-1.546 -0.6,-1.434 -0.782,-1.316 -0.957,-1.191 -1.124,-1.061 -1.283,-0.925 -1.436,-0.782 -1.581,-0.635 -1.718,-0.479 -1.848,-0.32 -1.97,-0.153 -9.994,-0.338 -0.115,-0.004"
         id="path68"
         inkscape:connector-curvature="0"
         style="fill:none;stroke:#000000;stroke-width:3;stroke-linecap:butt;stroke-linejoin:round;stroke-opacity:1" />
      <path
         d="m 600.173,310.026 3.7,0.126 1.33,0.092 1.2,0.178 1.076,0.262 0.953,0.343 0.837,0.422 0.723,0.498 0.612,0.57 0.507,0.641 0.405,0.709 0.306,0.773 0.213,0.836 0.122,0.895 0.031,0.816 -0.055,0.796 -0.15,0.764 -0.256,0.723 -0.37,0.671 -0.495,0.608 -0.629,0.535 -0.773,0.451 -0.926,0.358 -1.089,0.253 -1.262,0.138 -1.444,0.013 -3.691,-0.127 -0.707,-9.975 -0.168,-2.369"
         id="path70"
         inkscape:connector-curvature="0"
         style="fill:none;stroke:#000000;stroke-width:3;stroke-linecap:butt;stroke-linejoin:round;stroke-opacity:1" />
      <path
         d="m 585.086,304.667 -5.75,-0.194 0.746,9.972 0.747,9.972 0.747,9.972 0.693,9.253 5.707,0.204 -0.736,-9.973 -0.736,-9.973 -0.735,-9.973 -0.683,-9.26"
         id="path72"
         inkscape:connector-curvature="0"
         style="fill:none;stroke:#000000;stroke-width:3;stroke-linecap:butt;stroke-linejoin:round;stroke-opacity:1" />
      <path
         d="m 535.438,302.99 0.832,9.966 0.832,9.965 0.832,9.965 0.769,9.2 9.993,0.357 5.436,0.194 3.143,-0.079 2.892,-0.45 2.635,-0.79 2.369,-1.1 2.098,-1.381 1.818,-1.63 1.53,-1.85 1.235,-2.038 0.932,-2.197 0.621,-2.325 0.302,-2.423 -0.026,-2.489 -0.314,-2.332 -0.59,-2.351 -0.872,-2.328 -1.155,-2.266 -1.442,-2.164 -1.733,-2.022 -2.026,-1.841 -2.322,-1.618 -2.621,-1.356 -2.922,-1.054 -3.226,-0.711 -3.531,-0.329 -9.995,-0.337 -5.494,-0.186"
         id="path74"
         inkscape:connector-curvature="0"
         style="fill:none;stroke:#000000;stroke-width:3;stroke-linecap:butt;stroke-linejoin:round;stroke-opacity:1" />
      <path
         d="m 541.582,308.264 8.819,0.3 2.675,0.227 2.446,0.478 2.22,0.71 1.994,0.924 1.77,1.119 1.548,1.293 1.327,1.449 1.11,1.587 0.892,1.703 0.679,1.803 0.467,1.882 0.256,1.942 0.035,1.296 -0.102,1.442 -0.267,1.538 -0.459,1.581 -0.679,1.573 -0.928,1.513 -1.205,1.403 -1.509,1.242 -1.841,1.028 -2.201,0.765 -2.59,0.451 -3.007,0.085 -9.06,-0.321 -0.821,-9.966 -0.821,-9.967 -0.748,-9.08"
         id="path76"
         inkscape:connector-curvature="0"
         style="fill:none;stroke:#000000;stroke-width:3;stroke-linecap:butt;stroke-linejoin:round;stroke-opacity:1" />
      <path
         d="m 918.171,148.424 -1.813,-0.152 -1.897,0.07 -1.786,0.304 -1.665,0.525 -1.532,0.738 -1.389,0.94 -1.236,1.131 -1.073,1.312 -0.898,1.483 -0.715,1.643 -0.52,1.793 -0.316,1.931 -0.1,2.061 0.11,1.921 0.31,1.879 0.505,1.813 0.698,1.725 0.886,1.614 1.071,1.481 1.253,1.324 1.429,1.146 1.605,0.943 1.775,0.719 1.942,0.472 2.108,0.202 1.154,0.009 1.09,-0.037 1.035,-0.084 0.984,-0.13 0.943,-0.177 0.907,-0.224 0.878,-0.272 0.857,-0.319 0.842,-0.367 0.834,-0.416 0.834,-0.464 0.84,-0.512 v -5.355 l -0.814,0.49 -0.812,0.452 -0.81,0.413 -0.811,0.373 -0.811,0.331 -0.813,0.288 -0.816,0.244 -0.819,0.198 -0.823,0.152 -0.828,0.103 -0.834,0.055 -0.842,0.003 -1.3,-0.094 -1.208,-0.211 -1.117,-0.325 -1.025,-0.441 -0.931,-0.555 -0.839,-0.669 -0.746,-0.781 -0.652,-0.894 -0.557,-1.006 -0.463,-1.118 -0.368,-1.228 -0.272,-1.339 9.996,0.262 9.817,0.258 -0.098,-2.485 -0.289,-2.272 -0.475,-2.058 -0.652,-1.845 -0.823,-1.632 -0.987,-1.419 -1.142,-1.207 -1.292,-0.995 -1.433,-0.783 -1.567,-0.573 -1.694,-0.362"
         id="path78"
         inkscape:connector-curvature="0"
         style="fill:none;stroke:#000000;stroke-width:3;stroke-linecap:butt;stroke-linejoin:round;stroke-opacity:1" />
      <path
         d="m 915.462,153.13 1.032,-0.025 0.958,0.08 0.892,0.187 0.825,0.29 0.754,0.388 0.681,0.483 0.605,0.573 0.526,0.66 0.445,0.743 0.362,0.821 0.275,0.895 0.186,0.966 0.095,1.033 -9.996,-0.261 -4.18,-0.109 0.222,-1.062 0.297,-0.979 0.373,-0.892 0.448,-0.804 0.523,-0.714 0.597,-0.621 0.67,-0.527 0.744,-0.431 0.816,-0.332 0.889,-0.232 0.961,-0.13"
         id="path80"
         inkscape:connector-curvature="0"
         style="fill:none;stroke:#000000;stroke-width:3;stroke-linecap:butt;stroke-linejoin:round;stroke-opacity:1" />
      <path
         d="m 872.824,147.727 0.105,9.999 0.105,10 0.106,9.999 0.105,10 0.023,2.197 5.528,0.153 -0.095,-10 -0.046,-4.902 0.523,0.22 0.506,0.2 0.492,0.18 0.479,0.161 0.469,0.14 0.46,0.123 0.454,0.104 0.449,0.086 0.446,0.069 0.445,0.052 0.447,0.036 0.449,0.019 2.02,-0.066 1.908,-0.303 1.784,-0.528 1.646,-0.742 1.498,-0.945 1.337,-1.137 1.164,-1.316 0.978,-1.485 0.779,-1.643 0.569,-1.789 0.346,-1.923 0.11,-2.048 -0.128,-2.223 -0.356,-2.051 -0.582,-1.876 -0.805,-1.699 -1.024,-1.517 -1.24,-1.333 -1.454,-1.145 -1.664,-0.956 -1.871,-0.763 -2.074,-0.567 -2.275,-0.368 -2.472,-0.167 -9.644,-0.246"
         id="path82"
         inkscape:connector-curvature="0"
         style="fill:none;stroke:#000000;stroke-width:3;stroke-linecap:butt;stroke-linejoin:round;stroke-opacity:1" />
      <path
         d="m 878.444,152.877 5.069,0.131 1.456,0.107 1.332,0.242 1.208,0.372 1.082,0.501 0.957,0.624 0.832,0.746 0.706,0.864 0.58,0.977 0.453,1.089 0.327,1.196 0.2,1.3 0.073,1.401 -0.068,1.323 -0.216,1.249 -0.357,1.168 -0.49,1.077 -0.614,0.979 -0.731,0.871 -0.839,0.756 -0.94,0.631 -1.032,0.498 -1.117,0.356 -1.194,0.206 -1.263,0.048 -0.438,-0.021 -0.44,-0.038 -0.441,-0.057 -0.442,-0.074 -0.443,-0.091 -0.442,-0.108 -0.44,-0.125 -0.439,-0.141 -0.437,-0.158 -0.433,-0.174 -0.43,-0.19 -0.425,-0.205 -0.095,-10 -0.069,-7.33"
         id="path84"
         inkscape:connector-curvature="0"
         style="fill:none;stroke:#000000;stroke-width:3;stroke-linecap:butt;stroke-linejoin:round;stroke-opacity:1" />
      <path
         d="m 853.956,146.806 -2.151,-0.178 -2.048,0.075 -1.947,0.324 -1.831,0.556 -1.7,0.773 -1.552,0.976 -1.391,1.162 -1.212,1.334 -1.02,1.49 -0.811,1.631 -0.589,1.758 -0.35,1.868 -0.096,1.964 0.162,2.097 0.404,1.991 0.632,1.87 0.846,1.737 1.048,1.589 1.237,1.429 1.411,1.255 1.574,1.067 1.722,0.867 1.859,0.653 1.982,0.424 2.093,0.183 2.175,-0.063 2.044,-0.304 1.901,-0.534 1.749,-0.754 1.583,-0.964 1.406,-1.163 1.219,-1.352 1.018,-1.532 0.807,-1.701 0.584,-1.859 0.348,-2.008 0.102,-2.146 -0.154,-2.025 -0.404,-1.925 -0.642,-1.81 -0.865,-1.683 -1.074,-1.541 -1.27,-1.387 -1.452,-1.219 -1.62,-1.037 -1.774,-0.842 -1.913,-0.634 -2.04,-0.412"
         id="path86"
         inkscape:connector-curvature="0"
         style="fill:none;stroke:#000000;stroke-width:3;stroke-linecap:butt;stroke-linejoin:round;stroke-opacity:1" />
      <path
         d="m 850.537,151.677 1.278,-0.047 1.356,0.115 1.285,0.269 1.205,0.414 1.117,0.551 1.019,0.678 0.913,0.796 0.799,0.907 0.676,1.008 0.545,1.1 0.404,1.184 0.256,1.258 0.098,1.325 -0.057,1.459 -0.206,1.354 -0.351,1.243 -0.489,1.128 -0.623,1.009 -0.752,0.884 -0.874,0.756 -0.993,0.621 -1.106,0.483 -1.213,0.339 -1.317,0.192 -1.414,0.039 -1.302,-0.115 -1.227,-0.269 -1.146,-0.416 -1.057,-0.557 -0.962,-0.69 -0.86,-0.818 -0.751,-0.937 -0.634,-1.051 -0.511,-1.157 -0.381,-1.258 -0.243,-1.35 -0.099,-1.437 0.057,-1.305 0.208,-1.234 0.351,-1.153 0.486,-1.065 0.613,-0.968 0.733,-0.861 0.844,-0.748 0.947,-0.624 1.042,-0.494 1.129,-0.353 1.207,-0.205"
         id="path88"
         inkscape:connector-curvature="0"
         style="fill:none;stroke:#000000;stroke-width:3;stroke-linecap:butt;stroke-linejoin:round;stroke-opacity:1" />
      <path
         d="m 824.644,145.951 -0.789,-0.035 -2.049,0.069 -1.907,0.308 -1.755,0.539 -1.598,0.762 -1.431,0.975 -1.258,1.18 -1.077,1.377 -0.888,1.563 -0.693,1.742 -0.488,1.913 -0.278,2.073 -0.06,2.225 0.165,2 0.393,1.893 0.609,1.772 0.814,1.642 1.006,1.499 1.187,1.345 1.356,1.178 1.513,1.001 1.658,0.812 1.792,0.61 1.914,0.397 2.024,0.172 0.739,0.005 0.757,-0.023 0.766,-0.05 0.768,-0.075 0.761,-0.096 0.747,-0.118 0.725,-0.136 0.695,-0.152 0.657,-0.168 0.61,-0.18 0.557,-0.192 0.495,-0.2 -0.099,-5.453 -0.682,0.279 -0.662,0.254 -0.643,0.228 -0.627,0.203 -0.614,0.177 -0.603,0.152 -0.594,0.126 -0.588,0.101 -0.584,0.074 -0.583,0.049 -0.584,0.024 -0.587,-0.003 -1.385,-0.109 -1.3,-0.246 -1.207,-0.381 -1.11,-0.51 -1.005,-0.635 -0.896,-0.757 -0.779,-0.874 -0.657,-0.988 -0.528,-1.096 -0.395,-1.2 -0.253,-1.302 -0.106,-1.398 0.041,-1.373 0.182,-1.285 0.316,-1.191 0.443,-1.091 0.563,-0.983 0.678,-0.87 0.785,-0.748 0.887,-0.622 0.981,-0.488 1.069,-0.348 1.15,-0.2 1.226,-0.046 0.601,0.029 0.594,0.057 0.591,0.09 0.593,0.125 0.6,0.163 0.611,0.205 0.628,0.249 0.649,0.297 0.675,0.348 0.706,0.402 0.741,0.459 0.782,0.519 -0.109,-5.93 -0.666,-0.305 -0.65,-0.285 -0.639,-0.264 -0.635,-0.242 -0.636,-0.22 -0.641,-0.197 -0.652,-0.172 -0.669,-0.147 -0.691,-0.12 -0.719,-0.093 -0.751,-0.065"
         id="path90"
         inkscape:connector-curvature="0"
         style="fill:none;stroke:#000000;stroke-width:3;stroke-linecap:butt;stroke-linejoin:round;stroke-opacity:1" />
      <path
         d="m 794.806,130.616 -0.81,-0.041 -1.887,0.045 -1.762,0.227 -1.628,0.402 -1.487,0.571 -1.337,0.733 -1.178,0.888 -1.012,1.036 -0.837,1.178 -0.654,1.314 -0.464,1.442 -0.265,1.563 -0.057,1.679 0.436,2.717 1.06,2.35 1.558,2.046 1.932,1.802 2.181,1.62 2.303,1.5 2.3,1.439 2.174,1.44 1.92,1.501 1.542,1.623 1.038,1.804 0.409,2.046 -0.03,0.598 -0.122,0.61 -0.215,0.608 -0.309,0.594 -0.405,0.566 -0.503,0.528 -0.602,0.476 -0.702,0.411 -0.804,0.335 -0.909,0.246 -1.014,0.143 -1.12,0.03 -1.032,-0.072 -1.021,-0.161 -1.01,-0.248 -0.995,-0.334 -0.98,-0.419 -0.962,-0.502 -0.943,-0.584 -0.921,-0.665 -0.898,-0.745 -0.872,-0.822 -0.845,-0.899 -0.816,-0.975 0.214,7.676 0.902,0.658 0.91,0.601 0.921,0.542 0.934,0.486 0.949,0.429 0.968,0.374 0.987,0.319 1.011,0.265 1.036,0.212 1.063,0.159 1.094,0.107 1.125,0.056 1.658,-0.054 1.567,-0.246 1.465,-0.429 1.355,-0.601 1.231,-0.764 1.098,-0.916 0.953,-1.058 0.797,-1.19 0.631,-1.312 0.454,-1.424 0.265,-1.526 0.064,-1.617 -0.432,-3.108 -1.057,-2.635 -1.556,-2.236 -1.931,-1.907 -2.18,-1.651 -2.302,-1.467 -2.301,-1.355 -2.173,-1.317 -1.921,-1.352 -1.543,-1.46 -1.039,-1.64 -0.411,-1.896 0.037,-0.728 0.15,-0.684 0.256,-0.633 0.356,-0.581 0.451,-0.523 0.54,-0.463 0.623,-0.399 0.701,-0.329 0.774,-0.258 0.839,-0.182 0.9,-0.102 0.954,-0.019 0.729,0.04 0.754,0.088 0.779,0.139 0.8,0.197 0.821,0.26 0.839,0.326 0.857,0.399 0.873,0.475 0.887,0.558 0.899,0.645 0.91,0.736 0.918,0.834 -0.164,-6.956 -0.765,-0.5 -0.772,-0.458 -0.781,-0.417 -0.787,-0.375 -0.794,-0.333 -0.798,-0.292 -0.803,-0.25 -0.806,-0.208 -0.808,-0.166 -0.81,-0.125 -0.81,-0.083"
         id="path92"
         inkscape:connector-curvature="0"
         style="fill:none;stroke:#000000;stroke-width:3;stroke-linecap:butt;stroke-linejoin:round;stroke-opacity:1" />
      <path
         d="m 741.984,143.091 -1.288,-0.108 -0.768,0.012 -0.762,0.076 -0.752,0.138 -0.74,0.198 -0.723,0.258 -0.703,0.315 -0.681,0.371 -0.654,0.425 -0.624,0.479 -0.591,0.531 -0.555,0.581 -0.514,0.63 -0.123,-0.003 -0.159,-3.665 -5.476,-0.14 0.444,9.99 0.444,9.991 0.346,7.778 5.447,0.146 -0.434,-9.99 -0.429,-9.892 0.602,-0.675 0.581,-0.603 0.564,-0.534 0.551,-0.466 0.542,-0.401 0.538,-0.339 0.536,-0.278 0.538,-0.219 0.546,-0.164 0.556,-0.109 0.571,-0.058 0.589,-0.009 0.807,0.076 0.757,0.181 0.705,0.282 0.647,0.379 0.589,0.472 0.526,0.559 0.46,0.643 0.391,0.721 0.319,0.797 0.244,0.866 0.166,0.932 0.083,0.993 0.411,9.991 0.294,7.175 5.456,0.146 -0.399,-9.992 -0.285,-7.116 -0.158,-1.824 -0.316,-1.664 -0.461,-1.503 -0.597,-1.344 -0.722,-1.186 -0.835,-1.029 -0.938,-0.872 -1.03,-0.717 -1.111,-0.563 -1.182,-0.411 -1.24,-0.258"
         id="path100"
         inkscape:connector-curvature="0"
         style="fill:none;stroke:#000000;stroke-width:3;stroke-linecap:butt;stroke-linejoin:round;stroke-opacity:1" />
      <path
         d="m 708.072,142.274 -2.117,-0.176 -2.008,0.075 -1.901,0.322 -1.778,0.552 -1.643,0.767 -1.491,0.968 -1.325,1.154 -1.146,1.323 -0.95,1.479 -0.742,1.619 -0.518,1.743 -0.281,1.854 -0.029,1.948 0.231,2.081 0.463,1.975 0.684,1.856 0.89,1.722 1.082,1.577 1.262,1.418 1.428,1.244 1.581,1.059 1.72,0.86 1.847,0.647 1.96,0.42 2.061,0.181 2.133,-0.063 1.996,-0.302 1.849,-0.531 1.691,-0.748 1.521,-0.957 1.342,-1.154 1.15,-1.342 0.948,-1.52 0.735,-1.687 0.51,-1.845 0.274,-1.992 0.028,-2.13 -0.22,-2.009 -0.462,-1.91 -0.691,-1.796 -0.906,-1.669 -1.106,-1.529 -1.294,-1.375 -1.466,-1.209 -1.626,-1.028 -1.769,-0.835 -1.9,-0.629 -2.017,-0.408"
         id="path102"
         inkscape:connector-curvature="0"
         style="fill:none;stroke:#000000;stroke-width:3;stroke-linecap:butt;stroke-linejoin:round;stroke-opacity:1" />
      <path
         d="m 704.881,147.108 1.253,-0.048 1.335,0.114 1.27,0.267 1.197,0.41 1.115,0.546 1.023,0.672 0.924,0.791 0.815,0.899 0.698,1 0.571,1.091 0.437,1.174 0.294,1.249 0.141,1.314 -0.007,1.448 -0.157,1.343 -0.302,1.234 -0.442,1.119 -0.577,1.001 -0.708,0.877 -0.833,0.75 -0.954,0.617 -1.069,0.479 -1.18,0.337 -1.286,0.191 -1.387,0.039 -1.282,-0.114 -1.214,-0.266 -1.139,-0.413 -1.057,-0.552 -0.967,-0.685 -0.872,-0.811 -0.768,-0.929 -0.659,-1.043 -0.54,-1.148 -0.416,-1.247 -0.285,-1.34 -0.145,-1.426 0.011,-1.295 0.162,-1.224 0.306,-1.144 0.441,-1.057 0.57,-0.96 0.69,-0.855 0.803,-0.742 0.909,-0.62 1.006,-0.489 1.096,-0.351 1.179,-0.203"
         id="path104"
         inkscape:connector-curvature="0"
         style="fill:none;stroke:#000000;stroke-width:3;stroke-linecap:butt;stroke-linejoin:round;stroke-opacity:1" />
      <path
         d="m 682.382,130.351 -0.44,-0.041 -0.436,0.019 -0.416,0.078 -0.393,0.133 -0.365,0.184 -0.333,0.229 -0.298,0.273 -0.259,0.311 -0.216,0.345 -0.17,0.376 -0.119,0.402 -0.064,0.425 -0.006,0.443 0.053,0.445 0.111,0.429 0.162,0.409 0.21,0.385 0.253,0.357 0.293,0.324 0.327,0.288 0.359,0.246 0.385,0.202 0.407,0.153 0.425,0.099 0.439,0.041 0.436,-0.019 0.416,-0.078 0.392,-0.133 0.364,-0.182 0.334,-0.23 0.298,-0.272 0.259,-0.31 0.217,-0.345 0.17,-0.375 0.119,-0.403 0.065,-0.424 0.007,-0.444 -0.053,-0.444 -0.11,-0.43 -0.162,-0.409 -0.21,-0.386 -0.253,-0.357 -0.293,-0.325 -0.328,-0.288 -0.359,-0.247 -0.385,-0.202 -0.408,-0.153 -0.425,-0.099"
         id="path106"
         inkscape:connector-curvature="0"
         style="fill:none;stroke:#000000;stroke-width:3;stroke-linecap:butt;stroke-linejoin:round;stroke-opacity:1" />
      <path
         d="m 685.258,142.128 -5.45,-0.139 0.534,9.986 0.533,9.986 0.413,7.729 5.421,0.145 -0.523,-9.986 -0.523,-9.986 -0.405,-7.735"
         id="path108"
         inkscape:connector-curvature="0"
         style="fill:none;stroke:#000000;stroke-width:3;stroke-linecap:butt;stroke-linejoin:round;stroke-opacity:1" />
      <path
         d="m 665.678,141.629 -0.324,-5.771 -6.993,7.149 -2.635,2.695 0.035,0.618 4.763,0.123 0.569,9.984 0.264,4.633 0.131,1.219 0.252,1.159 0.372,1.092 0.491,1.015 0.608,0.932 0.727,0.84 0.843,0.739 0.959,0.631 1.075,0.513 1.19,0.389 1.305,0.255 1.418,0.113 0.463,-0.004 0.502,-0.034 0.533,-0.062 0.557,-0.09 0.573,-0.114 0.583,-0.138 0.583,-0.159 0.578,-0.18 0.564,-0.198 0.543,-0.214 0.514,-0.229 0.479,-0.242 -0.277,-5.1 -0.527,0.309 -0.521,0.282 -0.516,0.254 -0.511,0.225 -0.507,0.198 -0.503,0.169 -0.499,0.142 -0.496,0.113 -0.493,0.085 -0.491,0.057 -0.489,0.03 -0.488,0.001 -0.41,-0.031 -0.433,-0.075 -0.444,-0.123 -0.447,-0.177 -0.437,-0.234 -0.419,-0.296 -0.39,-0.364 -0.35,-0.435 -0.3,-0.511 -0.241,-0.592 -0.17,-0.678 -0.089,-0.769 -0.561,-9.984 -0.236,-4.204 8.677,0.221 -0.27,-4.956 -8.684,-0.221"
         id="path110"
         inkscape:connector-curvature="0"
         style="fill:none;stroke:#000000;stroke-width:3;stroke-linecap:butt;stroke-linejoin:round;stroke-opacity:1" />
      <path
         d="m 645.533,140.574 -0.774,-0.035 -2.002,0.069 -1.852,0.306 -1.696,0.534 -1.532,0.755 -1.362,0.967 -1.183,1.169 -0.998,1.364 -0.807,1.549 -0.607,1.726 -0.401,1.894 -0.189,2.054 0.03,2.205 0.241,1.981 0.461,1.875 0.667,1.756 0.862,1.626 1.044,1.485 1.216,1.332 1.373,1.167 1.52,0.991 1.655,0.804 1.777,0.604 1.888,0.392 1.988,0.171 0.723,0.004 0.74,-0.023 0.747,-0.05 0.748,-0.074 0.741,-0.096 0.726,-0.117 0.704,-0.135 0.673,-0.151 0.636,-0.166 0.59,-0.179 0.537,-0.19 0.476,-0.198 -0.316,-5.402 -0.655,0.276 -0.637,0.252 -0.62,0.226 -0.606,0.201 -0.593,0.176 -0.584,0.15 -0.576,0.126 -0.572,0.099 -0.568,0.075 -0.568,0.048 -0.57,0.023 -0.574,-0.002 -1.36,-0.107 -1.281,-0.244 -1.197,-0.377 -1.106,-0.505 -1.009,-0.629 -0.906,-0.75 -0.798,-0.865 -0.682,-0.978 -0.561,-1.086 -0.433,-1.189 -0.3,-1.289 -0.161,-1.385 -0.014,-1.36 0.127,-1.274 0.261,-1.18 0.389,-1.08 0.512,-0.975 0.628,-0.861 0.738,-0.742 0.843,-0.616 0.94,-0.484 1.032,-0.345 1.117,-0.198 1.197,-0.047 0.59,0.029 0.583,0.057 0.582,0.089 0.585,0.123 0.593,0.162 0.606,0.202 0.624,0.247 0.647,0.294 0.675,0.344 0.706,0.398 0.744,0.455 0.785,0.514 -0.344,-5.875 -0.663,-0.301 -0.648,-0.282 -0.636,-0.262 -0.631,-0.24 -0.63,-0.218 -0.635,-0.194 -0.646,-0.17 -0.66,-0.145 -0.681,-0.119 -0.706,-0.092 -0.737,-0.064"
         id="path112"
         inkscape:connector-curvature="0"
         style="fill:none;stroke:#000000;stroke-width:3;stroke-linecap:butt;stroke-linejoin:round;stroke-opacity:1" />
      <path
         d="m 616.61,139.926 -1.761,-0.149 -1.828,0.07 -1.706,0.3 -1.575,0.518 -1.433,0.728 -1.283,0.927 -1.123,1.115 -0.954,1.293 -0.776,1.461 -0.587,1.619 -0.39,1.766 -0.184,1.904 0.032,2.03 0.227,1.893 0.417,1.851 0.601,1.786 0.783,1.7 0.957,1.59 1.127,1.459 1.292,1.304 1.453,1.128 1.609,0.929 1.76,0.708 1.906,0.464 2.048,0.197 1.115,0.009 1.052,-0.038 0.993,-0.082 0.944,-0.129 0.899,-0.175 0.862,-0.221 0.831,-0.268 0.808,-0.315 0.79,-0.362 0.78,-0.41 0.776,-0.458 0.779,-0.505 -0.335,-5.276 -0.755,0.483 -0.756,0.446 -0.758,0.407 -0.759,0.368 -0.763,0.326 -0.767,0.284 -0.773,0.241 -0.778,0.196 -0.786,0.15 -0.793,0.102 -0.803,0.054 -0.812,0.003 -1.262,-0.092 -1.181,-0.206 -1.099,-0.321 -1.017,-0.434 -0.935,-0.546 -0.852,-0.658 -0.769,-0.77 -0.686,-0.881 -0.601,-0.991 -0.518,-1.101 -0.432,-1.21 -0.347,-1.319 9.997,0.262 9.174,0.241 -0.25,-2.448 -0.423,-2.238 -0.587,-2.028 -0.746,-1.817 -0.897,-1.608 -1.042,-1.397 -1.179,-1.189 -1.31,-0.979 -1.433,-0.772 -1.55,-0.563 -1.658,-0.356"
         id="path114"
         inkscape:connector-curvature="0"
         style="fill:none;stroke:#000000;stroke-width:3;stroke-linecap:butt;stroke-linejoin:round;stroke-opacity:1" />
      <path
         d="m 614.288,144.564 0.995,-0.025 0.93,0.078 0.874,0.184 0.815,0.285 0.752,0.382 0.688,0.475 0.62,0.565 0.55,0.65 0.477,0.731 0.401,0.809 0.322,0.882 0.24,0.952 0.156,1.017 -9.996,-0.26 -3.72,-0.097 0.148,-1.048 0.226,-0.964 0.304,-0.879 0.383,-0.792 0.46,-0.704 0.537,-0.612 0.615,-0.519 0.691,-0.425 0.768,-0.328 0.844,-0.229 0.92,-0.128"
         id="path116"
         inkscape:connector-curvature="0"
         style="fill:none;stroke:#000000;stroke-width:3;stroke-linecap:butt;stroke-linejoin:round;stroke-opacity:1" />
      <path
         d="m 593.703,139.26 -0.546,-0.035 -0.636,0.026 -0.632,0.115 -0.628,0.204 -0.625,0.298 -0.622,0.394 -0.618,0.493 -0.615,0.594 -0.61,0.698 -0.608,0.804 -0.603,0.915 -0.601,1.026 -0.596,1.141 -0.121,-0.003 -0.454,-6.354 -5.395,-0.137 0.722,9.974 0.723,9.974 0.553,7.628 5.367,0.145 -0.712,-9.975 -0.316,-4.426 -0.024,-1.159 0.094,-1.107 0.204,-1.044 0.308,-0.972 0.406,-0.89 0.497,-0.799 0.581,-0.699 0.658,-0.589 0.73,-0.469 0.793,-0.34 0.851,-0.202 0.901,-0.053 0.337,0.031 0.371,0.076 0.399,0.119 0.424,0.16 0.444,0.197 0.458,0.233 0.468,0.267 0.473,0.298 0.473,0.328 0.469,0.354 0.46,0.378 0.445,0.401 2.524,-4.676 -0.593,-0.531 -0.584,-0.485 -0.575,-0.44 -0.568,-0.393 -0.561,-0.348 -0.556,-0.303 -0.551,-0.257 -0.548,-0.213 -0.546,-0.168 -0.545,-0.124 -0.544,-0.08"
         id="path118"
         inkscape:connector-curvature="0"
         style="fill:none;stroke:#000000;stroke-width:3;stroke-linecap:butt;stroke-linejoin:round;stroke-opacity:1" />
      <path
         d="m 568.575,127.515 -0.435,-0.041 -0.431,0.02 -0.41,0.078 -0.385,0.132 -0.356,0.182 -0.325,0.229 -0.288,0.271 -0.249,0.31 -0.206,0.343 -0.16,0.374 -0.108,0.4 -0.055,0.423 0.004,0.441 0.063,0.442 0.118,0.427 0.169,0.407 0.216,0.383 0.258,0.355 0.296,0.322 0.331,0.286 0.359,0.246 0.385,0.201 0.406,0.151 0.422,0.099 0.434,0.041 0.431,-0.02 0.409,-0.077 0.384,-0.132 0.357,-0.182 0.324,-0.228 0.289,-0.27 0.249,-0.309 0.207,-0.344 0.159,-0.373 0.11,-0.4 0.055,-0.423 -0.003,-0.441 -0.063,-0.442 -0.118,-0.427 -0.168,-0.408 -0.216,-0.383 -0.258,-0.356 -0.297,-0.323 -0.33,-0.286 -0.36,-0.246 -0.385,-0.201 -0.406,-0.152 -0.423,-0.099"
         id="path120"
         inkscape:connector-curvature="0"
         style="fill:none;stroke:#000000;stroke-width:3;stroke-linecap:butt;stroke-linejoin:round;stroke-opacity:1" />
      <path
         d="m 571.675,139.232 -5.389,-0.138 0.748,9.972 0.749,9.972 0.571,7.616 5.36,0.144 -0.738,-9.973 -0.737,-9.972 -0.564,-7.621"
         id="path122"
         inkscape:connector-curvature="0"
         style="fill:none;stroke:#000000;stroke-width:3;stroke-linecap:butt;stroke-linejoin:round;stroke-opacity:1" />
      <path
         d="m 520.457,123.569 0.832,9.965 0.832,9.966 0.832,9.965 0.832,9.965 0.17,2.031 9.996,0.268 5.962,0.161 3.25,-0.118 2.99,-0.512 2.722,-0.875 2.448,-1.205 2.165,-1.502 1.876,-1.767 1.577,-2 1.272,-2.199 0.958,-2.365 0.635,-2.5 0.305,-2.601 -0.033,-2.669 -0.331,-2.499 -0.618,-2.514 -0.908,-2.488 -1.202,-2.419 -1.498,-2.306 -1.798,-2.151 -2.101,-1.952 -2.407,-1.712 -2.715,-1.427 -3.026,-1.099 -3.34,-0.729 -3.654,-0.315 -9.997,-0.248 -6.026,-0.149"
         id="path124"
         inkscape:connector-curvature="0"
         style="fill:none;stroke:#000000;stroke-width:3;stroke-linecap:butt;stroke-linejoin:round;stroke-opacity:1" />
      <path
         d="m 526.828,129.16 9.123,0.229 2.768,0.215 2.533,0.487 2.298,0.739 2.065,0.97 1.834,1.181 1.605,1.371 1.378,1.54 1.152,1.69 0.928,1.818 0.708,1.926 0.488,2.013 0.271,2.08 0.039,1.39 -0.101,1.548 -0.272,1.652 -0.47,1.7 -0.698,1.694 -0.956,1.633 -1.241,1.517 -1.557,1.347 -1.902,1.122 -2.274,0.843 -2.678,0.511 -3.109,0.123 -9.371,-0.25 -0.821,-9.966 -0.821,-9.966 -0.821,-9.966 -0.098,-1.191"
         id="path126"
         inkscape:connector-curvature="0"
         style="fill:none;stroke:#000000;stroke-width:3;stroke-linecap:butt;stroke-linejoin:round;stroke-opacity:1" />
      <path
         d="m 375.912,496.23 -9.99,-0.437 -9.991,-0.438 -9.99,-0.438 -9.99,-0.438 -9.991,-0.437 -8.868,-0.389 -9.991,-0.438 -9.99,-0.437 -9.991,-0.438 -9.99,-0.438 -9.99,-0.438 -9.991,-0.437 -9.99,-0.438 -9.991,-0.438 -9.99,-0.437 -9.991,-0.438 -9.99,-0.438 -9.99,-0.438 -9.991,-0.437 -9.99,-0.438 -9.991,-0.438 -9.99,-0.438 -9.99,-0.437 -9.991,-0.438 -9.99,-0.438 -9.991,-0.438 -9.99,-0.437 -9.991,-0.438 -9.99,-0.438 -9.99,-0.437 -9.991,-0.438 -9.99,-0.438 -9.991,-0.438 -9.99,-0.437 -9.99,-0.438 -9.991,-0.438 -9.99,-0.438 -9.991,-0.437 -9.99,-0.438 -9.991,-0.438 -9.99,-0.438 -9.99,-0.437 -9.991,-0.438 -9.99,-0.438 -9.991,-0.438 -9.99,-0.437 -9.251,-0.406"
         id="path136"
         inkscape:connector-curvature="0"
         style="fill:none;stroke:#000000;stroke-width:3;stroke-linecap:butt;stroke-linejoin:round;stroke-opacity:1" />
      <path
         d="m 2635.273,845.838 -9.985,-0.551 -9.985,-0.551 -9.984,-0.551 -9.985,-0.551 -9.985,-0.551 -9.985,-0.551 -9.985,-0.551 -9.984,-0.552 -9.985,-0.551 -9.985,-0.551 -9.985,-0.551 -9.985,-0.551 -9.984,-0.551 -9.985,-0.551 -9.985,-0.551 -9.985,-0.551 -9.985,-0.552 -9.984,-0.551 -9.985,-0.551 -9.985,-0.551 -9.985,-0.551 -9.985,-0.551 -9.984,-0.551 -9.985,-0.551 -9.985,-0.551 -9.985,-0.552 -9.985,-0.551 -9.985,-0.551 -9.984,-0.551 -9.985,-0.551 -9.985,-0.551 -9.985,-0.551 -9.984,-0.551 -9.985,-0.551 -9.985,-0.551 -9.985,-0.552 -9.985,-0.551 -9.984,-0.551 -9.985,-0.551 -9.985,-0.551 -9.985,-0.551 -9.985,-0.551 -9.984,-0.551 -9.985,-0.551 -9.985,-0.552 -9.985,-0.551 -9.985,-0.551 -9.985,-0.551 -9.984,-0.551 -9.985,-0.551 -9.985,-0.551 -9.985,-0.551 -9.984,-0.551 -9.985,-0.552 -9.985,-0.551 -9.985,-0.551 -9.985,-0.551 -9.984,-0.551 -9.985,-0.551 -9.985,-0.551 -9.985,-0.551 -9.985,-0.551 -9.985,-0.551 -9.984,-0.552 -9.985,-0.551 -9.985,-0.551 -9.985,-0.551 -9.984,-0.551 -9.985,-0.551 -9.985,-0.551 -9.985,-0.551 -9.985,-0.551 -9.985,-0.552 -9.984,-0.551 -9.985,-0.551 -9.985,-0.551 -9.985,-0.551 -9.985,-0.551 -9.984,-0.551 -9.985,-0.551 -9.985,-0.551 -9.985,-0.552 -9.985,-0.551 -9.984,-0.551 -9.985,-0.551 -9.985,-0.551 -9.985,-0.551 -9.985,-0.551 -17.582,-0.971 -9.985,-0.551 -9.985,-0.551 -9.985,-0.551 -9.984,-0.551 -9.985,-0.551 -9.985,-0.551 -9.985,-0.551 -9.985,-0.551 -9.984,-0.552 -9.985,-0.551 -9.985,-0.551 -9.985,-0.551 -9.985,-0.551 -9.985,-0.551 -9.984,-0.551 -9.985,-0.551 -9.985,-0.551 -9.985,-0.552 -2.495,-0.137 -6.084,-0.336 -9.985,-0.551 -9.985,-0.551 -9.985,-0.551 -9.985,-0.552 -9.984,-0.551 -9.985,-0.551 -9.985,-0.551 -9.985,-0.551 -9.985,-0.551 -9.984,-0.551 -9.985,-0.551 -9.985,-0.551 -9.985,-0.552 -9.985,-0.551 -9.984,-0.551 -9.985,-0.551 -9.985,-0.551 -9.985,-0.551 -9.985,-0.551 -9.984,-0.551 -9.985,-0.551 -9.985,-0.551 -9.985,-0.552 -9.985,-0.551 -9.984,-0.551 -9.985,-0.551 -9.985,-0.551 -9.985,-0.551 -9.985,-0.551 -9.985,-0.551 -9.984,-0.551 -9.985,-0.552 -9.985,-0.551 -9.985,-0.551 -9.984,-0.551 -9.985,-0.551 -9.985,-0.551 -9.985,-0.551 -9.985,-0.551 -9.985,-0.551 -9.984,-0.552 -9.985,-0.551 -9.985,-0.551 -9.985,-0.551 -9.984,-0.551 -9.985,-0.551 -9.985,-0.551 -9.985,-0.551 -9.985,-0.551 -9.985,-0.552 -9.984,-0.551 -9.985,-0.551 -9.985,-0.551 -9.985,-0.551 -9.985,-0.551 -9.984,-0.551 -9.985,-0.551 -9.985,-0.551 -9.985,-0.552 -9.985,-0.551 -9.984,-0.551 -9.985,-0.551 -9.985,-0.551 -8.803,-0.486 -9.985,-0.551 -9.984,-0.551 -9.985,-0.551 -9.985,-0.551 -9.985,-0.551 -9.985,-0.551 -9.984,-0.552 -9.985,-0.551 -9.985,-0.551 -9.985,-0.551 -9.985,-0.551 -9.984,-0.551 -9.985,-0.551 -9.985,-0.551 -9.985,-0.551 -9.985,-0.552 -9.984,-0.551 -9.985,-0.551 -9.985,-0.551 -9.985,-0.551 -9.985,-0.551 -9.984,-0.551 -9.985,-0.551 -9.985,-0.551 -9.985,-0.552 -9.985,-0.551 -9.984,-0.551 -9.985,-0.551 -9.985,-0.551 -9.985,-0.551 -9.985,-0.551 -9.984,-0.551 -9.985,-0.551 -9.985,-0.551 -9.985,-0.552 -9.985,-0.551 -9.984,-0.551 -9.985,-0.551 -9.985,-0.551 -9.985,-0.551 -9.985,-0.551 -9.984,-0.551 -9.985,-0.551 -9.985,-0.552 -9.985,-0.551 -9.985,-0.551 -9.984,-0.551 -9.985,-0.551 -9.985,-0.551 -14.888,-0.822 -5.787,-0.319 -9.985,-0.551 -9.984,-0.551 -9.985,-0.552 -9.985,-0.551 -9.985,-0.551 -9.985,-0.551 -9.984,-0.551 -9.985,-0.551 -9.985,-0.551 -9.985,-0.551 -9.985,-0.551 -9.984,-0.552 -9.985,-0.551 -9.985,-0.551 -9.985,-0.551 -9.985,-0.551 -9.984,-0.551 -9.985,-0.551 -9.985,-0.551 -9.985,-0.551 -9.985,-0.552 -9.984,-0.551 -9.985,-0.551 -9.985,-0.551 -9.985,-0.551 -4.421,-0.244 -9.985,-0.551 -9.985,-0.551 -9.985,-0.551 -9.985,-0.551 -9.984,-0.552 -9.985,-0.551 -9.985,-0.551 -9.985,-0.551 -9.985,-0.551 -9.984,-0.551 -9.985,-0.551 -9.985,-0.551 -9.985,-0.551 -9.985,-0.552 -9.984,-0.551 -9.985,-0.551 -9.985,-0.551 -9.985,-0.551 -9.985,-0.551 -9.984,-0.551 -9.985,-0.551 -9.985,-0.551 -9.985,-0.552 -9.985,-0.551 -9.984,-0.551 -9.985,-0.551 -9.985,-0.551 -9.985,-0.551 -9.985,-0.551 -9.984,-0.551 -9.985,-0.551 -9.985,-0.552 -9.985,-0.551 -9.985,-0.551 -9.984,-0.551 -9.985,-0.551 -9.985,-0.551 -9.985,-0.551 -9.985,-0.551 -9.985,-0.551 -9.984,-0.552 -9.985,-0.551 -9.985,-0.551 -9.985,-0.551 -9.984,-0.551 -9.985,-0.551 -9.985,-0.551 -8.866,-0.49"
         id="path138"
         inkscape:connector-curvature="0"
         style="fill:none;stroke:#000000;stroke-width:3;stroke-linecap:butt;stroke-linejoin:round;stroke-opacity:1" />
      <path
         d="m 2653.868,795.426 -9.986,-0.528 -9.986,-0.528 -9.986,-0.528 -9.986,-0.527 -9.986,-0.528 -9.987,-0.528 -9.985,-0.528 -9.987,-0.528 -9.986,-0.528 -9.986,-0.528 -9.986,-0.528 -9.986,-0.527 -9.986,-0.528 -9.986,-0.528 -9.986,-0.528 -9.986,-0.528 -9.986,-0.528 -9.986,-0.528 -9.986,-0.528 -9.986,-0.527 -9.986,-0.528 -9.986,-0.528 -9.987,-0.528 -9.986,-0.528 -9.985,-0.528 -9.987,-0.528 -9.986,-0.528 -9.986,-0.527 -9.986,-0.528 -9.986,-0.528 -9.986,-0.528 -9.986,-0.528 -9.986,-0.528 -9.986,-0.528 -9.986,-0.527 -9.986,-0.528 -9.986,-0.528 -9.986,-0.528 -9.986,-0.528 -9.986,-0.528 -9.987,-0.528 -9.986,-0.528 -9.985,-0.527 -9.987,-0.528 -9.986,-0.528 -9.986,-0.528 -9.986,-0.528 -9.986,-0.528 -9.986,-0.528 -9.986,-0.528 -9.986,-0.527 -9.986,-0.528 -9.986,-0.528 -9.986,-0.528 -9.986,-0.528 -9.986,-0.528 -9.986,-0.528 -9.986,-0.528 -9.987,-0.527 -9.986,-0.528 -9.986,-0.528 -9.986,-0.528 -9.986,-0.528 -9.986,-0.528 -9.986,-0.528 -9.986,-0.528 -9.986,-0.527 -9.986,-0.528 -9.986,-0.528 -9.986,-0.528 -9.986,-0.528 -9.986,-0.528 -9.986,-0.528 -9.986,-0.528 -9.986,-0.527 -9.987,-0.528 -9.986,-0.528 -9.986,-0.528 -9.986,-0.528 -9.986,-0.528 -9.986,-0.528 -9.986,-0.527 -9.986,-0.528 -9.986,-0.528 -9.986,-0.528 -9.986,-0.528 -9.986,-0.528 -9.986,-0.528 -9.986,-0.528 -17.79,-0.94 -9.986,-0.528 -9.986,-0.528 -9.986,-0.528 -9.986,-0.527 -9.986,-0.528 -9.986,-0.528 -9.986,-0.528 -9.986,-0.528 -9.987,-0.528 -9.986,-0.528 -9.986,-0.528 -9.986,-0.527 -9.986,-0.528 -9.986,-0.528 -9.986,-0.528 -9.986,-0.528 -9.986,-0.528 -9.986,-0.528 -4.467,-0.236 -6.151,-0.325 -9.986,-0.528 -9.986,-0.528 -9.986,-0.528 -9.986,-0.527 -9.986,-0.528 -9.986,-0.528 -9.986,-0.528 -9.986,-0.528 -9.986,-0.528 -9.986,-0.528 -9.987,-0.528 -9.986,-0.527 -9.986,-0.528 -9.986,-0.528 -9.986,-0.528 -9.986,-0.528 -9.986,-0.528 -9.986,-0.528 -9.986,-0.528 -9.986,-0.527 -9.986,-0.528 -9.986,-0.528 -9.986,-0.528 -9.986,-0.528 -9.986,-0.528 -9.986,-0.528 -9.987,-0.528 -9.985,-0.527 -9.987,-0.528 -9.986,-0.528 -9.986,-0.528 -9.986,-0.528 -9.986,-0.528 -9.986,-0.528 -9.986,-0.528 -9.986,-0.527 -9.986,-0.528 -9.986,-0.528 -9.986,-0.528 -9.986,-0.528 -9.986,-0.528 -9.986,-0.528 -9.986,-0.528 -9.986,-0.527 -9.987,-0.528 -9.986,-0.528 -9.986,-0.528 -9.986,-0.528 -9.986,-0.528 -9.986,-0.528 -9.986,-0.527 -9.986,-0.528 -9.986,-0.528 -9.986,-0.528 -9.986,-0.528 -9.986,-0.528 -9.986,-0.528 -9.986,-0.528 -9.986,-0.527 -9.986,-0.528 -9.986,-0.528 -9.986,-0.528 -9.987,-0.528 -15.436,-0.816 -9.986,-0.528 -9.986,-0.528 -9.986,-0.528 -9.986,-0.527 -9.986,-0.528 -9.986,-0.528 -9.986,-0.528 -9.986,-0.528 -9.986,-0.528 -9.986,-0.528 -9.986,-0.528 -9.986,-0.527 -9.986,-0.528 -9.986,-0.528 -9.986,-0.528 -9.986,-0.528 -9.986,-0.528 -9.987,-0.528 -9.986,-0.528 -9.986,-0.527 -9.986,-0.528 -9.986,-0.528 -9.986,-0.528 -9.986,-0.528 -9.986,-0.528 -9.986,-0.528 -9.986,-0.528 -9.986,-0.527 -9.986,-0.528 -9.986,-0.528 -9.986,-0.528 -9.986,-0.528 -9.986,-0.528 -9.986,-0.528 -9.986,-0.528 -9.987,-0.527 -9.986,-0.528 -9.986,-0.528 -9.986,-0.528 -9.986,-0.528 -9.986,-0.528 -9.986,-0.528 -9.986,-0.528 -9.986,-0.527 -9.986,-0.528 -9.986,-0.528 -9.986,-0.528 -9.986,-0.528 -9.986,-0.528 -9.986,-0.528 -9.853,-0.52 -5.843,-0.309 -9.986,-0.528 -9.986,-0.528 -9.986,-0.528 -9.986,-0.528 -9.986,-0.528 -9.986,-0.528 -9.986,-0.527 -9.986,-0.528 -9.986,-0.528 -9.986,-0.528 -9.986,-0.528 -9.987,-0.528 -9.986,-0.528 -9.986,-0.528 -9.986,-0.527 -9.986,-0.528 -9.986,-0.528 -9.986,-0.528 -9.986,-0.528 -9.986,-0.528 -9.986,-0.528 -9.986,-0.528 -9.986,-0.527 -9.986,-0.528 -9.986,-0.528 -6.817,-0.36 -9.999,0.127 -9.999,0.127 -9.999,0.128 -10,0.127 -9.999,0.127 -9.999,0.128 -9.999,0.127 -9.999,0.127 -10,0.128 -9.999,0.127 -9.999,0.127 -9.999,0.128 -9.999,0.127 -9.999,0.127 -10,0.128 -9.999,0.127 -9.999,0.127 -9.999,0.128 -9.999,0.127 -10,0.128 -9.999,0.127 -9.999,0.127 -9.999,0.128 -9.999,0.127 -10,0.127 -9.999,0.128 -9.999,0.127 -9.999,0.127 -9.999,0.128 -9.999,0.127 -10,0.127 -9.999,0.128 -9.999,0.127 -9.999,0.127 -9.999,0.128 -10,0.127 -9.999,0.128 -9.999,0.127 -9.999,0.127 -9.999,0.128 -10,0.127 -9.999,0.127 -9.999,0.128 -9.999,0.127 -9.999,0.127 -9.999,0.128 -13.936,0.177"
         id="path140"
         inkscape:connector-curvature="0"
         style="fill:none;stroke:#000000;stroke-width:3;stroke-linecap:butt;stroke-linejoin:round;stroke-opacity:1" />
      <path
         d="m 2394.015,584.654 -9.991,-0.438 -9.99,-0.437 -9.991,-0.438 -9.99,-0.438 -9.991,-0.438 -9.99,-0.437 -9.99,-0.438 -9.991,-0.438 -9.99,-0.438 -9.991,-0.437 -9.99,-0.438 -9.99,-0.438 -9.991,-0.437 -9.99,-0.438 -9.991,-0.438 -9.99,-0.438 -9.991,-0.437 -9.99,-0.438 -9.99,-0.438 -9.991,-0.438 -9.99,-0.437 -9.991,-0.438 -9.99,-0.438 -9.99,-0.438 -9.991,-0.437 -9.99,-0.438 -9.991,-0.438 -9.99,-0.437 -9.991,-0.438 -9.99,-0.438 -9.99,-0.438 -9.991,-0.437 -9.99,-0.438 -9.99,-0.438 -9.991,-0.438 -9.99,-0.437 -9.991,-0.438 -9.99,-0.438 -9.991,-0.438 -9.99,-0.437 -9.99,-0.438 -9.991,-0.438 -9.99,-0.437 -9.991,-0.438 -9.99,-0.438 -9.991,-0.438 -9.99,-0.437 -9.99,-0.438 -9.991,-0.438 -9.99,-0.438 -9.991,-0.437 -9.99,-0.438 -9.99,-0.438 -9.991,-0.438 -9.99,-0.437 -9.991,-0.438 -9.99,-0.438 -9.99,-0.437 -9.991,-0.438 -9.99,-0.438 -9.991,-0.438 -9.99,-0.437 -9.991,-0.438 -9.99,-0.438 -9.99,-0.438 -9.991,-0.437 -9.99,-0.438 -9.991,-0.438 -9.99,-0.437 -9.99,-0.438 -9.991,-0.438 -9.99,-0.438 -9.991,-0.437 -10.002,-0.439 -9.991,-0.437 -9.99,-0.438 -9.991,-0.438 -9.99,-0.438 -9.99,-0.437 -9.991,-0.438 -7.224,-0.317"
         id="path142"
         inkscape:connector-curvature="0"
         style="fill:none;stroke:#000000;stroke-width:3;stroke-linecap:butt;stroke-linejoin:round;stroke-opacity:1" />
      <path
         d="m 1581.138,549.038 -9.991,-0.438 -9.99,-0.438 -9.99,-0.438 -9.991,-0.437 -9.99,-0.438 -9.991,-0.438 -9.99,-0.437 -9.99,-0.438 -9.991,-0.438 -9.99,-0.438 -9.991,-0.437 -9.99,-0.438 -9.99,-0.438 -9.991,-0.438 -9.99,-0.437 -9.991,-0.438 -9.99,-0.438 -9.991,-0.438 -9.99,-0.437 -9.99,-0.438 -9.991,-0.438 -9.99,-0.437 -9.991,-0.438 -9.99,-0.438 -9.99,-0.438 -9.991,-0.437 -9.99,-0.438 -9.991,-0.438 -9.99,-0.438 -9.99,-0.437 -9.991,-0.438 -9.99,-0.438 -9.991,-0.438 -9.99,-0.437 -9.991,-0.438 -9.99,-0.438 -9.99,-0.437 -9.991,-0.438 -9.99,-0.438 -9.991,-0.438 -9.99,-0.437 -9.99,-0.438 -9.991,-0.438 -9.99,-0.438 -9.991,-0.437 -9.99,-0.438 -9.991,-0.438 -9.99,-0.437 -9.99,-0.438 -9.991,-0.438 -9.99,-0.438 -9.991,-0.437 -9.99,-0.438 -9.99,-0.438 -9.991,-0.438 -9.99,-0.437 -9.991,-0.438 -9.99,-0.438 -9.991,-0.438 -9.99,-0.437 -9.99,-0.438 -7.776,-0.341 -9.991,-0.437 -9.99,-0.438 -9.99,-0.438 -9.991,-0.438 -9.99,-0.437 -9.991,-0.438 -9.99,-0.438 -9.991,-0.438 -9.99,-0.437 -9.99,-0.438 -9.991,-0.438 -9.99,-0.437 -9.991,-0.438 -9.99,-0.438 -9.99,-0.438 -9.991,-0.437 -9.99,-0.438 -9.991,-0.438 -9.99,-0.438 -9.99,-0.437 -9.991,-0.438 -9.99,-0.438 -9.991,-0.438 -9.99,-0.437 -9.991,-0.438 -9.99,-0.438 -9.99,-0.437 -9.991,-0.438 -9.99,-0.438 -9.991,-0.438 -9.99,-0.437 -9.99,-0.438 -9.991,-0.438 -9.99,-0.438 -9.991,-0.437 -9.99,-0.438 -9.99,-0.438 -9.991,-0.438 -9.99,-0.437 -9.991,-0.438 -9.99,-0.438 -9.991,-0.437 -9.99,-0.438 -9.99,-0.438 -9.991,-0.438 -9.99,-0.437 -9.991,-0.438 -9.99,-0.438 -9.99,-0.438 -9.991,-0.437 -9.99,-0.438 -9.991,-0.438 -9.99,-0.438 -9.991,-0.437 -9.99,-0.438 -9.99,-0.438 -9.991,-0.437 -12.521,-0.549"
         id="path144"
         inkscape:connector-curvature="0"
         style="fill:none;stroke:#000000;stroke-width:3;stroke-linecap:butt;stroke-linejoin:round;stroke-opacity:1" />
      <path
         d="m 327.275,221.731 9.996,0.3 5.92,0.178 6.389,0.191 9.996,0.3 6.118,0.184 -6.552,7.554 -1.826,2.105 8.976,0.274 6.562,-7.546 1.842,-2.117 3.363,-3.879 -4.269,-4.112 -7.258,-6.879 -3.616,-3.428 -9.22,-0.268 7.262,6.875 3.62,3.427 -8.221,-0.243 -5.458,-0.162 -0.386,-0.011 -0.621,-0.018 -0.169,-0.005 -0.754,-0.023 -0.332,-0.01 -0.696,-0.02 -0.183,-0.006 -1.771,-0.052 h -0.01 l -0.387,-0.012 -3.352,-0.099 -0.477,-0.014 -1.781,-0.053 h -0.01 l -0.172,-0.005 -0.243,-0.007 -1.538,-0.046 -1.044,-0.031 -1.029,-0.03 -0.881,-0.026 -0.427,-0.013 -7.05,-0.209 -1.287,-0.038 0.976,7.974"
         id="path146"
         inkscape:connector-curvature="0"
         style="fill:none;stroke:#000000;stroke-width:3;stroke-linecap:butt;stroke-linejoin:round;stroke-opacity:1" />
      <path
         d="m 289.902,136.479 1.266,9.92 1.266,9.919 1.266,9.92 1.265,9.919 1.266,9.92 1.266,9.919 1.266,9.92 1.266,9.92 1.265,9.919 0.813,6.366 9.995,0.306 3.309,0.101 -1.24,-9.923 -1.241,-9.922 -1.241,-9.923 -1.24,-9.923 -0.159,-1.273 9.995,0.285 3.978,0.113 5.143,-0.092 4.605,-0.568 4.079,-1.013 1.231,-0.494 2.33,-0.935 3.055,-1.817 0.632,-0.537 1.926,-1.638 2.071,-2.503 1.594,-2.804 1.125,-3.074 0.666,-3.315 0.217,-3.527 -0.224,-3.71 -0.635,-3.769 -1.016,-3.634 -0.567,-1.4 -0.214,-0.531 -0.187,-0.462 -0.246,-0.607 -0.187,-0.464 -0.325,-0.592 -1.31,-2.387 -0.153,-0.279 -0.031,-0.043 -0.081,-0.112 -0.233,-0.323 -1.834,-2.542 -2.57,-2.747 -2.965,-2.438 -3.362,-2.096 -3.759,-1.719 -4.158,-1.307 -4.559,-0.863 -4.959,-0.383 -9.997,-0.257 -9.997,-0.257 -9.466,-0.244"
         id="path148"
         inkscape:connector-curvature="0"
         style="fill:none;stroke:#000000;stroke-width:3;stroke-linecap:butt;stroke-linejoin:round;stroke-opacity:1" />
      <path
         d="m 305.014,149.375 9.997,0.264 5.883,0.155 2.918,0.232 2.614,0.514 0.701,0.232 1.042,0.345 0.36,0.119 0.22,0.073 0.544,0.265 1.499,0.73 0.472,0.317 0.567,0.38 v 0 l 0.396,0.265 0.259,0.174 0.084,0.057 0.145,0.129 0.011,0.01 0.595,0.531 0.774,0.691 0.209,0.244 0.526,0.615 0.388,0.452 0.102,0.12 0.062,0.072 0.002,0.003 0.402,0.612 0.656,1 0.848,1.698 0.649,1.754 0.464,1.782 0.292,1.78 0.143,2.317 -0.139,2.132 -0.41,1.943 -0.671,1.749 -0.239,0.402 -0.684,1.15 -1.165,1.349 -1.398,1.143 -1.62,0.933 -1.834,0.717 -2.039,0.498 -2.233,0.274 -2.418,0.046 -9.996,-0.279 -5.246,-0.146 -1.241,-9.923 -1.241,-9.922 -1.25,-9.998"
         id="path150"
         inkscape:connector-curvature="0"
         style="fill:none;stroke:#000000;stroke-width:3;stroke-linecap:butt;stroke-linejoin:round;stroke-opacity:1" />
      <path
         d="m 417.454,274.585 -9.994,-0.338 -9.994,-0.338 -9.995,-0.338 -9.994,-0.338 -9.994,-0.338 -9.994,-0.338 -1.989,-0.067 -6.33,-0.214 -9.994,-0.338 -9.995,-0.337 -9.994,-0.338 -9.994,-0.338 -9.995,-0.338 -9.994,-0.338 -8.337,-0.282 -2.107,1.424 1.32,9.913 1.32,9.912 1.319,9.913 1.32,9.912 1.32,9.913 1.32,9.912 1.32,9.913 1.32,9.912 1.29,9.692 9.993,0.386 9.992,0.385 9.993,0.385 9.992,0.386 9.993,0.385 9.993,0.385 9.445,0.365 6.221,0.239 9.993,0.386 9.992,0.385 9.993,0.386 9.993,0.385 9.992,0.385 8.98,0.347 1.763,-1.617 -1.055,-9.944 -1.055,-9.944 -1.055,-9.944 -1.055,-9.945 -1.055,-9.944 -1.056,-9.944 -1.055,-9.944 -1.055,-9.944 -1.042,-9.818"
         id="path152"
         inkscape:connector-curvature="0"
         style="fill:none;stroke:#000000;stroke-width:3;stroke-linecap:butt;stroke-linejoin:round;stroke-opacity:1" />
      <path
         d="m 278.76,271.391 9.994,0.339 9.994,0.339 9.995,0.338 9.994,0.339 9.994,0.339 9.994,0.338 10.625,0.36 6.328,0.215 9.994,0.338 9.994,0.339 9.995,0.339 9.994,0.338 9.994,0.339 9.99,0.338"
         id="path154"
         inkscape:connector-curvature="0"
         style="fill:none;stroke:#000000;stroke-width:3;stroke-linecap:butt;stroke-linejoin:round;stroke-opacity:1" />
      <path
         d="m 425.174,365.573 -1.059,-9.944 -1.059,-9.944 -1.059,-9.944 -1.058,-9.944 -1.059,-9.943 -1.059,-9.944 -1.059,-9.944 -1.059,-9.944 -1.064,-9.993 1.815,-1.444"
         id="path156"
         inkscape:connector-curvature="0"
         style="fill:none;stroke:#000000;stroke-width:3;stroke-linecap:butt;stroke-linejoin:round;stroke-opacity:1" />
      <path
         d="m 389.295,124.964 1.198,-0.735 1.515,-0.929 0.189,-0.116"
         id="path160"
         inkscape:connector-curvature="0"
         style="fill:none;stroke:#000000;stroke-width:3;stroke-linecap:butt;stroke-linejoin:round;stroke-opacity:1" />
      <path
         d="m 396.065,615.75 -1.173,-9.931 -1.174,-9.93 -1.173,-9.931 -1.174,-9.931 -1.174,-9.931 -1.173,-9.931 -1.174,-9.931 -1.173,-9.931 -1.174,-9.931 -1.174,-9.931 -1.173,-9.931 -1.184,-10.014 -1.173,-9.931 -1.174,-9.931 -1.174,-9.931 -1.173,-9.931 -1.174,-9.931 -1.173,-9.93 -1.174,-9.931 -1.174,-9.931 -1.173,-9.931 -1.174,-9.931 -1.174,-9.931 -1.173,-9.931 -1.174,-9.931 -0.484,-4.095"
         id="path164"
         inkscape:connector-curvature="0"
         style="fill:none;stroke:#000000;stroke-width:3;stroke-linecap:butt;stroke-linejoin:round;stroke-opacity:1" />
      <path
         d="m 360.01,363.06 1.186,9.929 1.186,9.93 1.185,9.929 1.186,9.929 1.186,9.93 1.185,9.929 1.186,9.93 1.186,9.929 1.185,9.93 1.186,9.929 1.186,9.93 1.185,9.929 1.186,9.93 0.488,4.087 1.186,9.93 1.186,9.929 1.185,9.93 1.186,9.929 1.186,9.93 1.185,9.929 1.186,9.93 1.186,9.929 1.185,9.93 1.186,9.929 1.186,9.929 1.308,10.959"
         id="path166"
         inkscape:connector-curvature="0"
         style="fill:none;stroke:#000000;stroke-width:3;stroke-linecap:butt;stroke-linejoin:round;stroke-opacity:1" />
      <path
         d="m 346.131,246.824 1.185,9.929 1.186,9.93 0.668,5.593"
         id="path168"
         inkscape:connector-curvature="0"
         style="fill:none;stroke:#000000;stroke-width:3;stroke-linecap:butt;stroke-linejoin:round;stroke-opacity:1" />
      <path
         d="m 355.5,272.49 -1.174,-9.931 -1.174,-9.931 -0.664,-5.623"
         id="path170"
         inkscape:connector-curvature="0"
         style="fill:none;stroke:#000000;stroke-width:3;stroke-linecap:butt;stroke-linejoin:round;stroke-opacity:1" />
      <path
         d="m 1599.111,409.028 -1.273,9.918 -1.273,9.919 -1.273,9.918 -1.274,9.919 -1.273,9.919 -1.273,9.918 -1.274,9.919 -1.273,9.918 -1.273,9.919 -1.273,9.919 -1.274,9.918 -1.273,9.919 -1.273,9.918 -1.421,11.069 -1.273,9.918 -1.274,9.919 -1.273,9.918 -1.273,9.919 -1.273,9.919 -1.274,9.918 -1.273,9.919 -1.273,9.919 -1.274,9.918 -1.273,9.919 -1.273,9.918 -1.273,9.919 -0.791,6.158"
         id="path174"
         inkscape:connector-curvature="0"
         style="fill:none;stroke:#000000;stroke-width:3;stroke-linecap:butt;stroke-linejoin:round;stroke-opacity:1" />
      <path
         d="m 1614.842,286.489 -1.273,9.918 -1.274,9.919 -0.899,7.002"
         id="path176"
         inkscape:connector-curvature="0"
         style="fill:none;stroke:#000000;stroke-width:3;stroke-linecap:butt;stroke-linejoin:round;stroke-opacity:1" />
      <path
         d="m 1618.125,313.555 1.286,-9.917 1.286,-9.917 0.913,-7.038"
         id="path178"
         inkscape:connector-curvature="0"
         style="fill:none;stroke:#000000;stroke-width:3;stroke-linecap:butt;stroke-linejoin:round;stroke-opacity:1" />
    </g>
  </g>
</svg>
